<svg xmlns="http://www.w3.org/2000/svg" width="2880" height="720"><defs><mask id="mask" x="-132.45" y="-179.43" width="983.28" height="1093.9" maskUnits="userSpaceOnUse"><g id="mask-4"><path id="path-3" class="cls-1" d="M-132.45 914.47h983.27v-1093.9h-983.27v1093.9z"/></g></mask><mask id="mask-11" x="491.12" y="-80.75" width="1093.9" height="983.28" maskUnits="userSpaceOnUse"><g id="mask-4-12" data-name="mask-4"><path id="path-3-11" data-name="path-3" class="cls-1" d="M1585.01 902.52V-80.75H491.12v983.27h1093.89z"/></g></mask><mask id="mask-18" x="671.12" y="-80.75" width="1093.9" height="983.28" maskUnits="userSpaceOnUse"><g id="mask-4-19" data-name="mask-4"><path id="path-3-18" data-name="path-3" class="cls-1" d="M1765.01 902.52V-80.75H671.12v983.27h1093.89z"/></g></mask><mask id="mask-21" x="1309.55" y="-189.66" width="983.28" height="1093.9" maskUnits="userSpaceOnUse"><g id="mask-4-22" data-name="mask-4"><path id="path-3-21" data-name="path-3" class="cls-1" d="M1309.55 904.23h983.27V-189.66h-983.27V904.23z"/></g></mask><mask id="mask-31" x="2020.18" y="-124.45" width="1093.9" height="983.28" maskUnits="userSpaceOnUse"><g id="mask-4-32" data-name="mask-4"><path id="path-3-31" data-name="path-3" class="cls-1" d="M2020.18-124.45v983.27h1093.9v-983.27h-1093.9z"/></g></mask><mask id="mask-37" x="1840.18" y="-124.45" width="1093.9" height="983.28" maskUnits="userSpaceOnUse"><g id="mask-4-38" data-name="mask-4"><path id="path-3-37" data-name="path-3" class="cls-1" d="M1840.18-124.45v983.27h1093.9v-983.27h-1093.9z"/></g></mask><clipPath id="clip-path"><path id="path-1" class="cls-2" d="M0 0h720v720H0z"/></clipPath><clipPath id="clip-path-2"><path id="path-1-2" data-name="path-1" class="cls-2" d="M720 0h720v720H720z"/></clipPath><clipPath id="clip-path-3"><path class="cls-2" d="M1440 0h720v720h-720z"/></clipPath><clipPath id="clip-path-4"><path class="cls-2" d="M2160 0h720v720h-720z"/></clipPath><style>.cls-1{fill:#fff}.cls-12,.cls-15,.cls-2,.cls-5,.cls-6{fill:none}.cls-12,.cls-15,.cls-5,.cls-6{stroke:#fff}.cls-5,.cls-6{stroke-width:4px}.cls-5{stroke-dasharray:12 12}.cls-7{mask:url(#mask)}.cls-9{mask:url(#mask-11)}.cls-10{mask:url(#mask-18)}.cls-12,.cls-15{stroke-miterlimit:10}.cls-12{stroke-width:5.2px}.cls-13{mask:url(#mask-21)}.cls-15{stroke-width:5.64px}.cls-16{mask:url(#mask-31)}.cls-17{mask:url(#mask-37)}</style></defs><g id="background"><g id="Rectangle"><path id="path-1-3" data-name="path-1" fill="#003ac5" d="M-10-10h2900v740H-10z"/></g></g><g clip-path="url(#clip-path)" id="frame-1"><path id="Fill-1" class="cls-1" d="M187.35 380L171 338.6V398h-16v-84h23.22l18.13 47.64L214.84 314H237v84h-16.35v-59.4L204.77 380h-17.42z"/><path id="Fill-2" class="cls-1" d="M283.53 377.68v-3.94c-1 1-2.62 1.19-4.77 1.19h-5.84c-4.88 0-7.74 2.15-7.74 6s3 6.45 7.74 6.45c5.6-.03 10.61-2.9 10.61-9.7zm0-16.83c0-3.94-3.1-6.45-9.06-6.45-5.48 0-12.39 2.75-16.44 5.14l-6.03-11.7a46.68 46.68 0 0123.36-6.68c12.39 0 23.71 5.72 23.71 20.17v35.92h-15.54v-5.13c-2.86 4.3-9.06 6.57-15.26 6.57-11.55 0-19.06-8.24-19.06-17.19 0-10.39 7.62-16.83 19.78-16.83h10.72c2.63 0 3.82-1.19 3.82-3.22z"/><path id="Fill-4" class="cls-1" d="M328.66 321.82v20.77h11.79v13.13h-11.79v24.7c0 3.47 2.74 3.94 5.12 3.94 3.93 0 7.15-.36 7.15-.36v13.25s-7.51.72-12 .72c-7.75 0-15.73-1.31-15.73-12.29v-30h-8.58v-13.09h8.58v-20.77z"/><path id="Fill-6" class="cls-1" d="M360.07 369.92c0 8.6 5.6 14.92 13.7 14.92a12.51 12.51 0 0012-8.35l14.58 4.51c-3.58 10.86-14.3 17.67-26.7 17.67-16.2 0-29.07-12.06-29.07-28.77s12.87-28.76 29.07-28.76c12.4 0 23.12 6.92 26.7 17.78l-14.54 4.42a12.67 12.67 0 00-12-8.36c-8.1 0-13.7 6.33-13.7 14.92"/><path id="Fill-8" class="cls-1" d="M439.34 341.16c11.8 0 20.26 7.52 20.26 20.29v35.8h-15.49v-31.87c0-6.92-4.41-9.78-9.3-9.78-4.53 0-8.58 2.5-11.56 6.2v35.45h-15.49V313.7H423v31c0 1.92-.23 4.3-.23 4.3a21.38 21.38 0 0116.56-7.87"/><path id="Fill-10" class="cls-1" d="M483.26 364.07h24.43a11.83 11.83 0 00-12-10 12.18 12.18 0 00-12.43 10zm41 10.39h-40.64a12.37 12.37 0 0012.51 11c4.53 0 8.82-1.91 11-5.61l16.08 1.67c-4.88 11.7-15.13 17.19-27.28 17.19-16.33 0-28.6-12.06-28.6-28.77s12-28.76 28.36-28.76c15 0 28.6 9.78 28.6 32.7z"/><path id="Fill-12" class="cls-1" d="M565.59 357.87H559c-7.86 0-11.44 3.69-11.44 13.24v26.14h-15.45v-54.66h15v8.71c2.14-5.85 7.38-9.43 14.18-9.43a17.3 17.3 0 014.28.48z"/><path id="Fill-14" class="cls-1" d="M464 315.77a8.13 8.13 0 108.12 8.13 8.13 8.13 0 00-8.12-8.13m0 21.85a13.73 13.73 0 1113.7-13.72 13.73 13.73 0 01-13.7 13.72"/><path id="Fill-16" class="cls-1" d="M294.01 331.2l-21.12-31.42 4.63-3.13 21.12 31.42-4.63 3.13z"/><path id="Fill-18" class="cls-1" d="M275 325.36l-4.71-3 17.92-28.21 4.71 3L275 325.36z"/><path id="Fill-20" class="cls-1" d="M443 310c-16.21-14.71-55.89-35.94-139.5-12.91l-1.5-5.42c86.19-23.74 127.68-1.32 144.73 14.15z"/><g><path id="Stroke-1" class="cls-5" d="M353.88 42.52q-3.63 4.08-7.55 8a186.81 186.81 0 01-138 54.8"/><path id="Stroke-11" class="cls-6" d="M256.84 692.52a261.89 261.89 0 010-180"/><path id="Stroke-13" class="cls-6" d="M-130.53 122.52h280v140h-280"/><path id="Stroke-15" class="cls-6" d="M549.47 42.52h163a69.71 69.71 0 0069.79-70 69.72 69.72 0 00-69.79-70h-163"/><path id="Stroke-17" class="cls-6" d="M-130.53-97.48h280v140h-280"/><path id="Stroke-19" class="cls-6" d="M40.72 62.52V2.85a90.64 90.64 0 0152.87-82.39l9.61-4.41L169.47-103"/><path id="Stroke-21" class="cls-6" d="M129.9 42.73a19.79 19.79 0 0119.79-19.79"/><path id="Stroke-23" class="cls-5" d="M40.72 282.52v-59.67a90.64 90.64 0 0152.87-82.39l9.61-4.41L169.47 117"/><path id="Stroke-25" class="cls-5" d="M-13.4 852.52v-59.67a90.63 90.63 0 0152.87-82.39l36.43-17.94"/><path id="Stroke-27" class="cls-6" d="M129.9 262.73a19.79 19.79 0 0119.79-19.79"/><path id="Stroke-37" class="cls-6" d="M701.3-77.91V22.94"/><path id="Stroke-39" class="cls-6" d="M423.6 132.52a50.43 50.43 0 11-50.42-50.43 50.42 50.42 0 0150.42 50.43z"/><path id="Stroke-41" class="cls-6" d="M383.18 83.09L209.47 42.52"/><path id="Stroke-43" class="cls-6" d="M383.18 181.94l-173.71 40.58"/><path id="Stroke-45" class="cls-6" d="M373.18 82.09v100.85"/><path id="Stroke-55" class="cls-5" d="M74.09 608.89a127.82 127.82 0 01-97.23-124.1c0-2.9.1-5.79.29-8.65"/><path id="Stroke-59" class="cls-6" d="M470.27 42.52v180"/><path id="Stroke-61" class="cls-6" d="M338.05 553.09l173.7-40.57"/><path id="Stroke-63" class="cls-6" d="M338.05 651.94l173.7 40.58"/><path id="Stroke-75" class="cls-6" d="M169.47 472.52h-280v140h280"/><path id="Stroke-81" class="cls-6" d="M99.26 452.52v180"/><path id="Stroke-83" class="cls-6" d="M469.47 522.39v160.25"/><path id="Stroke-85" class="cls-6" d="M149.69 542.52a50.43 50.43 0 11-50.43-50.43 50.42 50.42 0 0150.43 50.43z"/><path id="Stroke-87" class="cls-6" d="M-130.53 692.52h280v140h-280"/><path id="Stroke-91" class="cls-6" d="M149.69 713.85a19.79 19.79 0 01-19.79-19.79"/><path id="Stroke-93" class="cls-6" d="M75.9 672.52v180"/><path id="Stroke-95" class="cls-6" d="M121.16 762.52a45.27 45.27 0 11-45.26-45.27 45.26 45.26 0 0145.26 45.27z"/><path id="Stroke-97" class="cls-6" d="M712.69-77.91a50.43 50.43 0 0150.42 50.43 50.43 50.43 0 01-50.42 50.42"/><path id="Stroke-103" class="cls-6" d="M712.69 22.94H549.47"/><path id="Stroke-111" class="cls-6" d="M849.47 122.52h-163a70 70 0 000 140h163"/><path id="Stroke-113" class="cls-6" d="M697.43 242.94V142.09"/><path id="Stroke-115" class="cls-6" d="M686.05 242.94a50.43 50.43 0 010-100.85"/><path id="Stroke-117" class="cls-6" d="M686.05 242.94h163.21"/><path id="Stroke-119" class="cls-5" d="M686.05 222.94h163.21"/><path id="Stroke-121" class="cls-6" d="M686.05 142.09h163.21"/><path id="Stroke-123" class="cls-5" d="M686.05 162.09h163.21"/><path id="Stroke-125" class="cls-6" d="M686.05 222.94a30.43 30.43 0 010-60.85"/><path id="Stroke-127" class="cls-6" d="M697.43 174.81l17.7 17.71-17.7 17.7-17.7-17.7 17.7-17.71z"/><path id="Stroke-129" class="cls-5" d="M634.84 277.35l-86.37-78.82"/><path id="Stroke-131" class="cls-5" d="M560.24 171.28l53.94-61.48"/><path id="Stroke-133" class="cls-6" d="M549.47 612.52h163a70 70 0 000-140h-163"/><path id="Stroke-135" class="cls-6" d="M701.3 492.09v100.85"/><path id="Stroke-137" class="cls-6" d="M712.69 492.09a50.43 50.43 0 010 100.85"/><path id="Stroke-139" class="cls-6" d="M712.69 492.09H549.47"/><path id="Stroke-141" class="cls-5" d="M712.69 512.09H549.47"/><path id="Stroke-143" class="cls-6" d="M712.69 592.94H549.47"/><path id="Stroke-145" class="cls-5" d="M712.69 572.94H549.47"/><path id="Stroke-147" class="cls-6" d="M712.69 512.09a30.43 30.43 0 010 60.85"/><g class="cls-7"><path id="Stroke-151" class="cls-6" d="M688.79 555.03h25.03V530h-25.03v25.03z"/></g><g class="cls-7"><path id="Stroke-153" class="cls-5" d="M849.47 531.35l-86.36-78.83"/></g><g class="cls-7"><path id="Stroke-154" class="cls-6" d="M850.47 832.52h-163a70 70 0 010-140h163"/></g><g class="cls-7"><path id="Stroke-155" class="cls-6" d="M698.7 712.09v100.85"/></g><g class="cls-7"><path id="Stroke-156" class="cls-6" d="M687.31 712.09a50.43 50.43 0 000 100.85"/></g><g class="cls-7"><path id="Stroke-157" class="cls-6" d="M687.31 712.09h163.22"/></g><g class="cls-7"><path id="Stroke-162" class="cls-5" d="M549.47 742a79.47 79.47 0 0078.84-69.45"/></g><g class="cls-7"><path id="Stroke-165" class="cls-5" d="M451.56 512.52a151.16 151.16 0 01-242.09 88.42"/></g><g class="cls-7"><path id="Stroke-166" class="cls-6" d="M297.62 602.52a50.43 50.43 0 1050.43-50.43 50.42 50.42 0 00-50.43 50.43z"/></g><g class="cls-7"><path id="Stroke-167" class="cls-6" d="M348.05 552.09v100.85"/></g></g></g><g clip-path="url(#clip-path-2)" id="frame-2"><path id="Fill-1-2" data-name="Fill-1" class="cls-1" d="M907.35 380L891 338.6V398h-16v-84h23.23l18.13 47.64L934.84 314H957v84h-16.35v-59.4L924.77 380h-17.42z"/><path id="Fill-2-2" data-name="Fill-2" class="cls-1" d="M1003.53 377.68v-3.94c-1 1-2.62 1.19-4.77 1.19h-5.84c-4.88 0-7.74 2.15-7.74 6s3 6.45 7.74 6.45c5.6-.03 10.61-2.9 10.61-9.7zm0-16.83c0-3.94-3.1-6.45-9.06-6.45-5.48 0-12.39 2.75-16.44 5.14l-6.03-11.7a46.68 46.68 0 0123.36-6.68c12.39 0 23.71 5.72 23.71 20.17v35.92h-15.49v-5.13c-2.86 4.3-9.06 6.57-15.26 6.57-11.55 0-19.06-8.24-19.06-17.19 0-10.39 7.62-16.83 19.78-16.83h10.72c2.63 0 3.82-1.19 3.82-3.22z"/><path id="Fill-4-2" data-name="Fill-4" class="cls-1" d="M1048.66 321.82v20.77h11.79v13.13h-11.79v24.7c0 3.47 2.74 3.94 5.12 3.94 3.93 0 7.15-.36 7.15-.36v13.25s-7.51.72-12 .72c-7.75 0-15.73-1.31-15.73-12.29v-30h-8.58v-13.09h8.58v-20.77z"/><path id="Fill-6-2" data-name="Fill-6" class="cls-1" d="M1080.07 369.92c0 8.6 5.6 14.92 13.7 14.92a12.51 12.51 0 0012-8.35l14.54 4.53c-3.58 10.86-14.3 17.67-26.7 17.67-16.2 0-29.07-12.06-29.07-28.77s12.87-28.76 29.07-28.76c12.4 0 23.12 6.92 26.7 17.78l-14.54 4.42a12.67 12.67 0 00-12-8.36c-8.1 0-13.7 6.33-13.7 14.92"/><path id="Fill-8-2" data-name="Fill-8" class="cls-1" d="M1159.34 341.16c11.8 0 20.26 7.52 20.26 20.29v35.8h-15.49v-31.87c0-6.92-4.41-9.78-9.3-9.78-4.53 0-8.58 2.5-11.56 6.2v35.45h-15.49V313.7H1143v31c0 1.92-.23 4.3-.23 4.3a21.38 21.38 0 0116.56-7.87"/><path id="Fill-10-2" data-name="Fill-10" class="cls-1" d="M1203.26 364.07h24.43a11.83 11.83 0 00-12-10 12.18 12.18 0 00-12.43 10zm41 10.39h-40.64a12.37 12.37 0 0012.51 11c4.53 0 8.82-1.91 11-5.61l16.08 1.67c-4.88 11.7-15.13 17.19-27.28 17.19-16.33 0-28.6-12.06-28.6-28.77s12-28.76 28.36-28.76c15 0 28.6 9.78 28.6 32.7z"/><path id="Fill-12-2" data-name="Fill-12" class="cls-1" d="M1285.59 357.87H1279c-7.86 0-11.44 3.69-11.44 13.24v26.14h-15.49v-54.66h15v8.71c2.14-5.85 7.38-9.43 14.18-9.43a17.3 17.3 0 014.28.48z"/><path class="cls-1" transform="rotate(-64.15 931.538 412.553)" d="M928.84 397.57h5.29v29.97h-5.29z"/><path class="cls-1" transform="rotate(-38.02 929.326 411.369)" d="M913.84 408.72h31.05v5.29h-31.05z"/><path class="cls-1" d="M1074.53 425.52c-27.8-11.22-119.77-11.35-120.7-11.35v-5.29c3.83 0 93.94.13 122.68 11.74z"/><path class="cls-1" d="M1169.69 453.38c-70.2 0-127.32-38.78-127.32-86.45 0-17.68 16.15-38 41.14-51.78 31-17.11 80.08-25.38 124.6 2.74l-2.83 4.47c-53.58-33.84-104.79-10.53-119.21-2.58-23.33 12.86-38.4 31.36-38.4 47.15 0 44.75 54.73 81.16 122 81.16s122-36.41 122-81.16c0-39.57-42.49-73.2-101-80l.61-5.26c61.26 7.09 105.72 42.93 105.72 85.23 0 47.7-57.11 86.48-127.31 86.48z"/><g><path id="Stroke-1-2" data-name="Stroke-1" class="cls-5" d="M622.07 416.19q4.09 3.63 8 7.55a186.82 186.82 0 0154.79 138"/><path id="Stroke-13-2" data-name="Stroke-13" class="cls-6" d="M953.07 840.6v-280h140v280"/><path id="Stroke-15-2" data-name="Stroke-15" class="cls-6" d="M843.07 220.6v-163a70 70 0 00-140 0v163"/><path id="Stroke-17-2" data-name="Stroke-17" class="cls-6" d="M733.07 900.6v-280h140v280"/><path id="Stroke-19-2" data-name="Stroke-19" class="cls-6" d="M893.07 729.35H833.4a90.62 90.62 0 01-82.4-52.87l-4.41-9.61-19.08-66.27"/><path id="Stroke-21-2" data-name="Stroke-21" class="cls-6" d="M873.28 640.18a19.79 19.79 0 01-19.79-19.79"/><path id="Stroke-23-2" data-name="Stroke-23" class="cls-5" d="M1113.07 669.35h-59.67a90.62 90.62 0 01-82.4-52.87l-4.41-9.61-19.08-66.27"/><path id="Stroke-25-2" data-name="Stroke-25" class="cls-5" d="M1563.07 783.47h-59.67a90.62 90.62 0 01-82.4-52.87l-17.94-36.43"/><path id="Stroke-27-2" data-name="Stroke-27" class="cls-6" d="M1093.28 580.18a19.79 19.79 0 01-19.79-19.79"/><path id="Stroke-37-2" data-name="Stroke-37" class="cls-6" d="M722.64 68.77h100.85"/><path id="Stroke-39-2" data-name="Stroke-39" class="cls-6" d="M712.07 346.47a50.43 50.43 0 11-50.42 50.42 50.43 50.43 0 0150.42-50.42z"/><path id="Stroke-41-2" data-name="Stroke-41" class="cls-6" d="M662.65 386.89L622.07 560.6"/><path id="Stroke-43-2" data-name="Stroke-43" class="cls-6" d="M761.5 386.89l40.57 173.71"/><path id="Stroke-45-2" data-name="Stroke-45" class="cls-6" d="M661.65 396.89H762.5"/><path id="Stroke-55-2" data-name="Stroke-55" class="cls-5" d="M1319.44 636a127.83 127.83 0 01-124.1 97.22q-4.36 0-8.65-.29"/><path id="Stroke-59-2" data-name="Stroke-59" class="cls-6" d="M622.07 299.8h180"/><path id="Stroke-61-2" data-name="Stroke-61" class="cls-6" d="M1403.64 432l-40.57-173.71"/><path id="Stroke-63-2" data-name="Stroke-63" class="cls-6" d="M1502.49 432l40.58-173.71"/><path id="Stroke-75-2" data-name="Stroke-75" class="cls-6" d="M1183.07 540.6v280h140v-280"/><path id="Stroke-81-2" data-name="Stroke-81" class="cls-6" d="M1163.07 610.81h180"/><path id="Stroke-83-2" data-name="Stroke-83" class="cls-6" d="M1372.94 300.6h160.25"/><path id="Stroke-85-2" data-name="Stroke-85" class="cls-6" d="M1253.07 560.39a50.42 50.42 0 11-50.43 50.42 50.42 50.42 0 0150.43-50.42z"/><path id="Stroke-87-2" data-name="Stroke-87" class="cls-6" d="M1403.07 900.6v-280h140v280"/><path id="Stroke-91-2" data-name="Stroke-91" class="cls-6" d="M1424.4 620.39a19.79 19.79 0 01-19.79 19.79"/><path id="Stroke-93-2" data-name="Stroke-93" class="cls-6" d="M1383.07 694.18h180"/><path id="Stroke-95-2" data-name="Stroke-95" class="cls-6" d="M1473.07 648.91a45.27 45.27 0 11-45.27 45.27 45.27 45.27 0 0145.27-45.27z"/><path id="Stroke-97-2" data-name="Stroke-97" class="cls-6" d="M722.64 57.39a50.43 50.43 0 11100.85 0"/><path id="Stroke-103-2" data-name="Stroke-103" class="cls-6" d="M823.49 57.39V220.6"/><path id="Stroke-111-2" data-name="Stroke-111" class="cls-6" d="M923.07-79.4v163a70 70 0 00140 0v-163"/><path id="Stroke-113-2" data-name="Stroke-113" class="cls-6" d="M1043.49 72.64H942.64"/><path id="Stroke-115-2" data-name="Stroke-115" class="cls-6" d="M1043.49 84a50.43 50.43 0 01-100.85 0"/><path id="Stroke-117-2" data-name="Stroke-117" class="cls-6" d="M1043.49 84V-79.19"/><path id="Stroke-119-2" data-name="Stroke-119" class="cls-5" d="M1023.49 84V-79.19"/><path id="Stroke-121-2" data-name="Stroke-121" class="cls-6" d="M942.64 84V-79.19"/><path id="Stroke-123-2" data-name="Stroke-123" class="cls-5" d="M962.64 84V-79.19"/><path id="Stroke-125-2" data-name="Stroke-125" class="cls-6" d="M1023.49 84a30.43 30.43 0 01-60.85 0"/><path id="Stroke-127-2" data-name="Stroke-127" class="cls-6" d="M975.36 72.64l17.71-17.7 17.7 17.7-17.7 17.7-17.71-17.7z"/><path id="Stroke-129-2" data-name="Stroke-129" class="cls-5" d="M1077.9 135.23l-78.83 86.37"/><path id="Stroke-131-2" data-name="Stroke-131" class="cls-5" d="M971.83 209.83l-61.48-53.94"/><path id="Stroke-133-2" data-name="Stroke-133" class="cls-6" d="M1283.07 220.6v-163a70 70 0 00-140 0v163"/><path id="Stroke-135-2" data-name="Stroke-135" class="cls-6" d="M1162.64 68.77h100.85"/><path id="Stroke-137-2" data-name="Stroke-137" class="cls-6" d="M1162.64 57.39a50.43 50.43 0 11100.85 0"/><path id="Stroke-139-2" data-name="Stroke-139" class="cls-6" d="M1162.64 57.39V220.6"/><path id="Stroke-141-2" data-name="Stroke-141" class="cls-5" d="M1182.64 57.39V220.6"/><path id="Stroke-143-2" data-name="Stroke-143" class="cls-6" d="M1263.49 57.39V220.6"/><path id="Stroke-145-2" data-name="Stroke-145" class="cls-5" d="M1243.49 57.39V220.6"/><path id="Stroke-147-2" data-name="Stroke-147" class="cls-6" d="M1182.64 57.39a30.43 30.43 0 1160.85 0"/><g class="cls-9"><path id="Stroke-151-2" data-name="Stroke-151" class="cls-6" d="M1225.58 81.28V56.25h-25.03v25.03h25.03z"/></g><g class="cls-9"><path id="Stroke-153-2" data-name="Stroke-153" class="cls-5" d="M1201.89-79.4L1123.07 7"/></g><g class="cls-9"><path id="Stroke-154-2" data-name="Stroke-154" class="cls-6" d="M1503.07-80.4v163a70 70 0 01-140 0v-163"/></g><g class="cls-9"><path id="Stroke-155-2" data-name="Stroke-155" class="cls-6" d="M1382.64 71.38h100.85"/></g><g class="cls-9"><path id="Stroke-156-2" data-name="Stroke-156" class="cls-6" d="M1382.64 82.76a50.43 50.43 0 00100.85 0"/></g><g class="cls-9"><path id="Stroke-157-2" data-name="Stroke-157" class="cls-6" d="M1382.64 82.76V-80.45"/></g><g class="cls-9"><path id="Stroke-162-2" data-name="Stroke-162" class="cls-5" d="M1412.52 220.6a79.45 79.45 0 00-69.45-78.83"/></g><g class="cls-10"><path id="Stroke-165-2" data-name="Stroke-165" class="cls-5" d="M1363.07 318.51a151.16 151.16 0 0188.42 242.09"/></g><g class="cls-10"><path id="Stroke-166-2" data-name="Stroke-166" class="cls-6" d="M1453.07 472.45a50.43 50.43 0 10-50.43-50.45 50.43 50.43 0 0050.43 50.45z"/></g><g class="cls-10"><path id="Stroke-167-2" data-name="Stroke-167" class="cls-6" d="M1402.64 422h100.85"/></g></g></g><g clip-path="url(#clip-path-3)" id="frame-3"><path id="Fill-1-3" data-name="Fill-1" class="cls-1" d="M1627.05 380l-16.35-41.4V398h-16v-84h23.23l18.13 47.64 18.48-47.64h22.16v84h-16.35v-59.4l-15.88 41.4h-17.42z"/><path id="Fill-2-3" data-name="Fill-2" class="cls-1" d="M1723.23 377.68v-3.94c-1 1-2.62 1.19-4.77 1.19h-5.84c-4.88 0-7.74 2.15-7.74 6s3 6.45 7.74 6.45c5.61-.03 10.61-2.9 10.61-9.7zm0-16.83c0-3.94-3.1-6.45-9.06-6.45-5.48 0-12.39 2.75-16.44 5.14l-6.08-11.7a46.68 46.68 0 0123.36-6.68c12.39 0 23.71 5.72 23.71 20.17v35.92h-15.49v-5.13c-2.86 4.3-9.06 6.57-15.25 6.57-11.56 0-19.07-8.24-19.07-17.19 0-10.39 7.63-16.83 19.78-16.83h10.73c2.62 0 3.81-1.19 3.81-3.22z"/><path id="Fill-4-3" data-name="Fill-4" class="cls-1" d="M1768.36 321.82v20.77h11.8v13.13h-11.8v24.7c0 3.47 2.74 3.94 5.12 3.94 3.94 0 7.15-.36 7.15-.36v13.25s-7.5.72-12 .72c-7.75 0-15.73-1.31-15.73-12.29v-30h-8.58v-13.09h8.58v-20.77z"/><path id="Fill-6-3" data-name="Fill-6" class="cls-1" d="M1799.77 369.92c0 8.6 5.6 14.92 13.71 14.92a12.5 12.5 0 0012-8.35l14.54 4.53c-3.58 10.86-14.3 17.67-26.69 17.67-16.21 0-29.08-12.06-29.08-28.77s12.87-28.76 29.08-28.76c12.39 0 23.11 6.92 26.69 17.78l-14.54 4.42a12.65 12.65 0 00-12-8.36c-8.11 0-13.71 6.33-13.71 14.92"/><path id="Fill-8-3" data-name="Fill-8" class="cls-1" d="M1879 341.16c11.8 0 20.26 7.52 20.26 20.29v35.8h-15.49v-31.87c0-6.92-4.41-9.78-9.3-9.78-4.53 0-8.58 2.5-11.56 6.2v35.45h-15.49V313.7h15.26v31c0 1.92-.24 4.3-.24 4.3a21.38 21.38 0 0116.56-7.87"/><path id="Fill-10-3" data-name="Fill-10" class="cls-1" d="M1923 364.07h24.42a11.83 11.83 0 00-12-10 12.17 12.17 0 00-12.42 10zm41 10.39h-40.64a12.38 12.38 0 0012.52 11c4.52 0 8.81-1.91 11-5.61l16.09 1.67c-4.89 11.7-15.14 17.19-27.29 17.19-16.33 0-28.6-12.06-28.6-28.77s12-28.76 28.36-28.76c15 0 28.6 9.78 28.6 32.7z"/><path id="Fill-12-3" data-name="Fill-12" class="cls-1" d="M2005.3 357.87h-6.56c-7.86 0-11.44 3.69-11.44 13.24v26.14h-15.49v-54.66h15v8.71c2.14-5.85 7.39-9.43 14.18-9.43a17.43 17.43 0 014.29.48z"/><path id="Fill-14-2" data-name="Fill-14" class="cls-1" d="M2019 379.22a8.13 8.13 0 108.11 8.13 8.13 8.13 0 00-8.11-8.13m0 21.85a13.73 13.73 0 1113.7-13.72 13.72 13.72 0 01-13.7 13.72"/><path class="cls-12" d="M1686.14 427.98l24.9 15.76M1683.64 442.44l26.02-15.95M1698.59 417.33c-9.68-160 177.91-167.83 183.41-91.83"/><g><path id="Stroke-1-3" data-name="Stroke-1" class="cls-5" d="M1650.37 619.48a186.85 186.85 0 01138 54.8q3.92 3.91 7.55 8"/><path id="Stroke-11-2" data-name="Stroke-11" class="cls-6" d="M1698.84 212.28a261.89 261.89 0 010-180"/><path id="Stroke-13-3" data-name="Stroke-13" class="cls-6" d="M1311.47 462.28h280v140h-280"/><path id="Stroke-15-3" data-name="Stroke-15" class="cls-6" d="M1991.47 822.28h163a70 70 0 000-140h-163"/><path id="Stroke-17-3" data-name="Stroke-17" class="cls-6" d="M1311.47 682.28h280v140h-280"/><path id="Stroke-19-3" data-name="Stroke-19" class="cls-6" d="M1611.47 827.84l-66.27-19.09-9.61-4.41a90.64 90.64 0 01-52.87-82.34v-59.72"/><path id="Stroke-21-3" data-name="Stroke-21" class="cls-6" d="M1591.69 701.86a19.79 19.79 0 01-19.79-19.79"/><path id="Stroke-23-3" data-name="Stroke-23" class="cls-5" d="M1611.47 607.84l-66.27-19.09-9.61-4.41a90.64 90.64 0 01-52.87-82.34v-59.72"/><path id="Stroke-25-3" data-name="Stroke-25" class="cls-5" d="M1517.9 32.28l-36.43-17.94A90.63 90.63 0 011428.6-68v-59.67"/><path id="Stroke-27-3" data-name="Stroke-27" class="cls-6" d="M1591.69 481.86a19.79 19.79 0 01-19.79-19.79"/><path id="Stroke-37-3" data-name="Stroke-37" class="cls-6" d="M2143.3 701.86v100.85"/><path id="Stroke-39-3" data-name="Stroke-39" class="cls-6" d="M1815.18 642.71a50.43 50.43 0 1150.42-50.43 50.43 50.43 0 01-50.42 50.43z"/><path id="Stroke-41-3" data-name="Stroke-41" class="cls-6" d="M1651.47 682.28l173.71-40.57"/><path id="Stroke-43-3" data-name="Stroke-43" class="cls-6" d="M1651.47 502.28l173.71 40.58"/><path id="Stroke-45-3" data-name="Stroke-45" class="cls-6" d="M1815.18 541.86v100.85"/><path id="Stroke-55-3" data-name="Stroke-55" class="cls-5" d="M1419.15 248.66c-.19-2.86-.29-5.75-.29-8.65a127.82 127.82 0 0197.23-124.1"/><path id="Stroke-59-3" data-name="Stroke-59" class="cls-6" d="M1912.27 502.28v180"/><path id="Stroke-61-3" data-name="Stroke-61" class="cls-6" d="M1953.75 212.28l-173.7-40.57"/><path id="Stroke-63-3" data-name="Stroke-63" class="cls-6" d="M1953.75 32.28l-173.7 40.58"/><path id="Stroke-75-3" data-name="Stroke-75" class="cls-6" d="M1611.47 112.28h-280v140h280"/><path id="Stroke-81-3" data-name="Stroke-81" class="cls-6" d="M1541.26 92.28v180"/><path id="Stroke-83-3" data-name="Stroke-83" class="cls-6" d="M1911.47 42.16v160.25"/><path id="Stroke-85-3" data-name="Stroke-85" class="cls-6" d="M1541.26 232.71a50.43 50.43 0 1150.43-50.43 50.43 50.43 0 01-50.43 50.43z"/><path id="Stroke-87-3" data-name="Stroke-87" class="cls-6" d="M1311.47-107.72h280v140h-280"/><path id="Stroke-91-3" data-name="Stroke-91" class="cls-6" d="M1571.9 30.74A19.79 19.79 0 011591.69 11"/><path id="Stroke-93-3" data-name="Stroke-93" class="cls-6" d="M1517.9-127.72v180"/><path id="Stroke-95-3" data-name="Stroke-95" class="cls-6" d="M1517.9 7.55a45.27 45.27 0 01-45.27-45.27A45.26 45.26 0 011517.9-83a45.26 45.26 0 0145.26 45.26 45.26 45.26 0 01-45.26 45.29z"/><path id="Stroke-97-3" data-name="Stroke-97" class="cls-6" d="M2154.69 701.86a50.43 50.43 0 010 100.85"/><path id="Stroke-103-3" data-name="Stroke-103" class="cls-6" d="M1991.47 701.86h163.22"/><path id="Stroke-111-3" data-name="Stroke-111" class="cls-6" d="M2291.47 462.28h-163a70 70 0 000 140h163"/><path id="Stroke-113-3" data-name="Stroke-113" class="cls-6" d="M2139.43 582.71V481.86"/><path id="Stroke-115-3" data-name="Stroke-115" class="cls-6" d="M2128.05 582.71a50.43 50.43 0 010-100.85"/><path id="Stroke-117-3" data-name="Stroke-117" class="cls-6" d="M2291.26 481.86h-163.21"/><path id="Stroke-119-3" data-name="Stroke-119" class="cls-5" d="M2291.26 501.86h-163.21"/><path id="Stroke-121-3" data-name="Stroke-121" class="cls-6" d="M2291.26 582.71h-163.21"/><path id="Stroke-123-3" data-name="Stroke-123" class="cls-5" d="M2291.26 562.71h-163.21"/><path id="Stroke-125-3" data-name="Stroke-125" class="cls-6" d="M2128.05 562.71a30.43 30.43 0 010-60.85"/><path id="Stroke-127-3" data-name="Stroke-127" class="cls-6" d="M2121.73 532.28l17.7-17.7 17.7 17.7-17.7 17.71-17.7-17.71z"/><path id="Stroke-129-3" data-name="Stroke-129" class="cls-5" d="M1990.47 526.27l86.37-78.82"/><path id="Stroke-131-3" data-name="Stroke-131" class="cls-5" d="M2056.18 615l-53.94-61.48"/><path id="Stroke-133-3" data-name="Stroke-133" class="cls-6" d="M1991.47 252.28h163a70 70 0 000-140h-163"/><path id="Stroke-135-3" data-name="Stroke-135" class="cls-6" d="M2143.3 131.86v100.85"/><path id="Stroke-137-3" data-name="Stroke-137" class="cls-6" d="M2154.69 131.86a50.43 50.43 0 010 100.85"/><path id="Stroke-139-3" data-name="Stroke-139" class="cls-6" d="M1991.47 232.71h163.22"/><path id="Stroke-141-3" data-name="Stroke-141" class="cls-5" d="M1991.47 212.71h163.22"/><path id="Stroke-143-3" data-name="Stroke-143" class="cls-6" d="M1991.47 131.86h163.22"/><path id="Stroke-145-3" data-name="Stroke-145" class="cls-5" d="M1991.47 151.86h163.22"/><path id="Stroke-147-3" data-name="Stroke-147" class="cls-6" d="M2154.69 151.86a30.43 30.43 0 010 60.85"/><g class="cls-13"><path id="Stroke-151-3" data-name="Stroke-151" class="cls-6" d="M2130.79 194.8h25.03v-25.04h-25.03v25.04z"/></g><g class="cls-13"><path id="Stroke-153-3" data-name="Stroke-153" class="cls-5" d="M2205.11 272.28l86.36-78.83"/></g><g class="cls-13"><path id="Stroke-154-3" data-name="Stroke-154" class="cls-6" d="M2292.47 32.28h-163a69.72 69.72 0 01-69.78-70 69.7 69.7 0 0169.78-70h163"/></g><g class="cls-13"><path id="Stroke-155-3" data-name="Stroke-155" class="cls-6" d="M2140.7-88.14V12.71"/></g><g class="cls-13"><path id="Stroke-156-3" data-name="Stroke-156" class="cls-6" d="M2129.31-88.14a50.42 50.42 0 00-50.42 50.42 50.43 50.43 0 0050.42 50.43"/></g><g class="cls-13"><path id="Stroke-157-3" data-name="Stroke-157" class="cls-6" d="M2292.53 12.71h-163.22"/></g><g class="cls-13"><path id="Stroke-162-3" data-name="Stroke-162" class="cls-5" d="M2070.31 52.28a79.47 79.47 0 00-78.84-69.45"/></g><g class="cls-13"><path id="Stroke-165-3" data-name="Stroke-165" class="cls-5" d="M1651.47 123.86a151.16 151.16 0 01242.09 88.42"/></g><g class="cls-13"><path id="Stroke-166-3" data-name="Stroke-166" class="cls-6" d="M1790.05 172.71a50.43 50.43 0 10-50.43-50.43 50.43 50.43 0 0050.43 50.43z"/></g><g class="cls-13"><path id="Stroke-167-3" data-name="Stroke-167" class="cls-6" d="M1790.05 71.86v100.85"/></g></g></g><g clip-path="url(#clip-path-4)" id="frame-4"><path id="Fill-1-4" data-name="Fill-1" class="cls-1" d="M2347.05 380l-16.35-41.4V398h-16v-84h23.23l18.13 47.64 18.48-47.64h22.16v84h-16.35v-59.4l-15.88 41.4h-17.42z"/><path id="Fill-2-4" data-name="Fill-2" class="cls-1" d="M2443.23 377.68v-3.94c-.95 1-2.62 1.19-4.77 1.19h-5.84c-4.88 0-7.74 2.15-7.74 6s3 6.45 7.74 6.45c5.61-.03 10.61-2.9 10.61-9.7zm0-16.83c0-3.94-3.1-6.45-9.06-6.45-5.48 0-12.39 2.75-16.44 5.14l-6.08-11.7a46.68 46.68 0 0123.36-6.68c12.39 0 23.71 5.72 23.71 20.17v35.92h-15.49v-5.13c-2.86 4.3-9.06 6.57-15.25 6.57-11.56 0-19.07-8.24-19.07-17.19 0-10.39 7.63-16.83 19.78-16.83h10.73c2.62 0 3.81-1.19 3.81-3.22z"/><path id="Fill-4-4" data-name="Fill-4" class="cls-1" d="M2488.36 321.82v20.77h11.8v13.13h-11.8v24.7c0 3.47 2.74 3.94 5.12 3.94 3.94 0 7.15-.36 7.15-.36v13.25s-7.5.72-12 .72c-7.75 0-15.73-1.31-15.73-12.29v-30h-8.58v-13.09h8.58v-20.77z"/><path id="Fill-6-4" data-name="Fill-6" class="cls-1" d="M2519.77 369.92c0 8.6 5.6 14.92 13.71 14.92a12.5 12.5 0 0012-8.35l14.54 4.53c-3.58 10.86-14.3 17.67-26.69 17.67-16.21 0-29.08-12.06-29.08-28.77s12.87-28.76 29.08-28.76c12.39 0 23.11 6.92 26.69 17.78l-14.54 4.42a12.65 12.65 0 00-12-8.36c-8.11 0-13.71 6.33-13.71 14.92"/><path id="Fill-8-4" data-name="Fill-8" class="cls-1" d="M2599 341.16c11.8 0 20.26 7.52 20.26 20.29v35.8h-15.49v-31.87c0-6.92-4.41-9.78-9.3-9.78-4.53 0-8.58 2.5-11.56 6.2v35.45h-15.49V313.7h15.26v31c0 1.92-.24 4.3-.24 4.3a21.38 21.38 0 0116.56-7.87"/><path id="Fill-10-4" data-name="Fill-10" class="cls-1" d="M2643 364.07h24.42a11.83 11.83 0 00-12-10 12.17 12.17 0 00-12.42 10zm41 10.39h-40.64a12.38 12.38 0 0012.52 11c4.52 0 8.81-1.91 11-5.61l16.09 1.67c-4.89 11.7-15.14 17.19-27.29 17.19-16.33 0-28.6-12.06-28.6-28.77s12-28.76 28.36-28.76c15 0 28.6 9.78 28.6 32.7z"/><path id="Fill-12-4" data-name="Fill-12" class="cls-1" d="M2725.3 357.87h-6.56c-7.86 0-11.44 3.69-11.44 13.24v26.14h-15.49v-54.66h15v8.71c2.14-5.85 7.39-9.43 14.18-9.43a17.43 17.43 0 014.29.48z"/><path class="cls-15" d="M2745.49 376.69L2723.66 400M2730.6 371.1l11.71 30.94M2697.52 329.74s-47.47-33.41-103.59-18.46M2433.7 441.53c-34.85-9.1-63.08-27.65-78.44-50-9.75-14.22-14.31-30-12.07-45.86a57.25 57.25 0 012.95-11.71c14.23-38.83 69.82-62.37 131.75-53.62 30.93 4.36 58.1 16 77.93 31.74 23.73 18.82 36.93 43.45 33.42 68.33-1.21 8.58-6.68 17.25-15.19 25-30.27 27.44-98.94 42.76-150.88-1.3"/><g><path id="Stroke-11-3" data-name="Stroke-11" class="cls-6" d="M2062.13 264.84a261.89 261.89 0 01180 0"/><path id="Stroke-13-4" data-name="Stroke-13" class="cls-6" d="M2652.13-122.53v280h-140v-280"/><path id="Stroke-15-4" data-name="Stroke-15" class="cls-6" d="M2762.13 557.47v163a70 70 0 00140 0v-163"/><path id="Stroke-17-4" data-name="Stroke-17" class="cls-6" d="M2872.13-122.53v280h-140v-280"/><path id="Stroke-19-4" data-name="Stroke-19" class="cls-6" d="M2712.13 48.72h59.67a90.65 90.65 0 0182.39 52.87l4.4 9.61 19.09 66.27"/><path id="Stroke-21-4" data-name="Stroke-21" class="cls-6" d="M2731.92 137.9a19.79 19.79 0 0119.79 19.79"/><path id="Stroke-23-4" data-name="Stroke-23" class="cls-5" d="M2492.13 48.72h59.67a90.65 90.65 0 0182.39 52.87l4.41 9.61 19.08 66.27"/><path id="Stroke-25-4" data-name="Stroke-25" class="cls-5" d="M2042.13-5.4h59.67a90.64 90.64 0 0182.39 52.87l17.94 36.43"/><path id="Stroke-27-4" data-name="Stroke-27" class="cls-6" d="M2511.92 137.9a19.79 19.79 0 0119.79 19.79"/><path id="Stroke-37-4" data-name="Stroke-37" class="cls-6" d="M2882.55 709.3h-100.84"/><path id="Stroke-39-4" data-name="Stroke-39" class="cls-6" d="M2893.12 431.6a50.43 50.43 0 1150.43-50.42 50.42 50.42 0 01-50.43 50.42z"/><path id="Stroke-43-4" data-name="Stroke-43" class="cls-6" d="M2843.7 391.18l-40.58-173.71"/><path id="Stroke-45-4" data-name="Stroke-45" class="cls-6" d="M2943.55 381.18H2842.7"/><path id="Stroke-55-4" data-name="Stroke-55" class="cls-5" d="M2285.76 82.09a127.82 127.82 0 01124.1-97.23c2.9 0 5.79.1 8.64.29"/><path id="Stroke-59-4" data-name="Stroke-59" class="cls-6" d="M2983.12 478.27h-180"/><path id="Stroke-61-4" data-name="Stroke-61" class="cls-6" d="M2201.55 346.05l40.58 173.7"/><path id="Stroke-63-4" data-name="Stroke-63" class="cls-6" d="M2102.71 346.05l-40.58 173.7"/><path id="Stroke-75-4" data-name="Stroke-75" class="cls-6" d="M2422.13 177.47v-280h-140v280"/><path id="Stroke-81-4" data-name="Stroke-81" class="cls-6" d="M2442.13 107.26h-180"/><path id="Stroke-83-4" data-name="Stroke-83" class="cls-6" d="M2232.26 477.47H2072"/><path id="Stroke-85-4" data-name="Stroke-85" class="cls-6" d="M2352.13 157.69a50.43 50.43 0 1150.42-50.43 50.42 50.42 0 01-50.42 50.43z"/><path id="Stroke-87-4" data-name="Stroke-87" class="cls-6" d="M2202.13-122.53v280h-140v-280"/><path id="Stroke-91-4" data-name="Stroke-91" class="cls-6" d="M2180.8 157.69a19.79 19.79 0 0119.79-19.79"/><path id="Stroke-93-4" data-name="Stroke-93" class="cls-6" d="M2222.13 83.9h-180"/><path id="Stroke-95-4" data-name="Stroke-95" class="cls-6" d="M2132.13 129.16a45.27 45.27 0 1145.27-45.26 45.26 45.26 0 01-45.27 45.26z"/><path id="Stroke-103-4" data-name="Stroke-103" class="cls-6" d="M2781.71 720.69V557.47"/><path id="Stroke-111-4" data-name="Stroke-111" class="cls-6" d="M2682.13 757.47v-163a70 70 0 00-140 0v163"/><path id="Stroke-113-4" data-name="Stroke-113" class="cls-6" d="M2561.71 605.43h100.84"/><path id="Stroke-115-4" data-name="Stroke-115" class="cls-6" d="M2561.71 594.05a50.42 50.42 0 11100.84 0"/><path id="Stroke-117-4" data-name="Stroke-117" class="cls-6" d="M2561.71 594.05v163.21"/><path id="Stroke-119-4" data-name="Stroke-119" class="cls-5" d="M2581.71 594.05v163.21"/><path id="Stroke-121-4" data-name="Stroke-121" class="cls-6" d="M2662.55 594.05v163.21"/><path id="Stroke-123-4" data-name="Stroke-123" class="cls-5" d="M2642.55 594.05v163.21"/><path id="Stroke-125-4" data-name="Stroke-125" class="cls-6" d="M2581.71 594.05a30.42 30.42 0 0160.84 0"/><path id="Stroke-127-4" data-name="Stroke-127" class="cls-6" d="M2629.83 605.43l-17.7 17.7-17.7-17.7 17.7-17.7 17.7 17.7z"/><path id="Stroke-133-4" data-name="Stroke-133" class="cls-6" d="M2322.13 557.47v163a70 70 0 00140 0v-163"/><path id="Stroke-135-4" data-name="Stroke-135" class="cls-6" d="M2442.55 709.3h-100.84"/><path id="Stroke-139-4" data-name="Stroke-139" class="cls-6" d="M2442.55 720.69V557.47"/><path id="Stroke-141-4" data-name="Stroke-141" class="cls-5" d="M2422.55 720.69V557.47"/><path id="Stroke-143-4" data-name="Stroke-143" class="cls-6" d="M2341.71 720.69V557.47"/><path id="Stroke-145-4" data-name="Stroke-145" class="cls-5" d="M2361.71 720.69V557.47"/><g class="cls-16"><path id="Stroke-151-4" data-name="Stroke-151" class="cls-6" d="M2379.61 696.79v25.03h25.04v-25.03h-25.04z"/></g><g class="cls-16"><path id="Stroke-154-4" data-name="Stroke-154" class="cls-6" d="M2102.13 858.47v-163a70 70 0 01140 0v163"/></g><g class="cls-16"><path id="Stroke-155-4" data-name="Stroke-155" class="cls-6" d="M2222.55 706.7h-100.84"/></g><g class="cls-16"><path id="Stroke-156-4" data-name="Stroke-156" class="cls-6" d="M2222.55 695.31a50.42 50.42 0 00-100.84 0"/></g><g class="cls-16"><path id="Stroke-157-4" data-name="Stroke-157" class="cls-6" d="M2222.55 695.31v163.22"/></g><g class="cls-16"><path id="Stroke-162-4" data-name="Stroke-162" class="cls-5" d="M2192.67 557.47a79.48 79.48 0 0069.46 78.84"/></g><g class="cls-17"><path id="Stroke-165-4" data-name="Stroke-165" class="cls-5" d="M2242.13 459.56a151.16 151.16 0 01-88.42-242.09"/></g><g class="cls-17"><path id="Stroke-166-4" data-name="Stroke-166" class="cls-6" d="M2152.13 305.62a50.43 50.43 0 1050.42 50.43 50.42 50.42 0 00-50.42-50.43z"/></g><g class="cls-17"><path id="Stroke-167-4" data-name="Stroke-167" class="cls-6" d="M2202.55 356.05h-100.84"/></g></g></g></svg>