<svg xmlns="http://www.w3.org/2000/svg" width="2160" height="720"><defs><clipPath id="clip-path"><path id="path-1" class="cls-1" d="M0 0h720v720H0z"/></clipPath><clipPath id="clip-path-2"><path class="cls-1" d="M586.25 529h-.2a469.6 469.6 0 01-137.32-28.62 498 498 0 01-116.24-62.08 553 553 0 01-93.2-84.58 563.5 563.5 0 01-68.29-96.2c-25.9-46.14-43.4-93.3-50.6-136.36-7.28-43.51-3.63-80.5 10.55-106.95a3.5 3.5 0 116.17 3.31c-27.54 51.37-11.85 144.23 40 236.58a557.68 557.68 0 0067.44 95 545.75 545.75 0 0092 83.5 490.71 490.71 0 00114.61 61.22A462.4 462.4 0 00586.44 522a3.5 3.5 0 01-.19 7z"/></clipPath><clipPath id="clip-path-3"><path id="path-1-2" data-name="path-1" class="cls-1" d="M720 0h720v720H720z"/></clipPath><clipPath id="clip-path-4"><path id="path-1-3" data-name="path-1" class="cls-1" d="M1440 0h720v720h-720z"/></clipPath><linearGradient id="linear-gradient" x1="-10" y1="360" x2="2160" y2="360" gradientUnits="userSpaceOnUse"><stop offset="0" stop-color="#111413"/><stop offset="1"/></linearGradient><linearGradient id="linear-gradient-2" x1="2667.85" y1="1122.09" x2="685.59" y2="170.7" gradientUnits="userSpaceOnUse"><stop offset="0" stop-color="#fed766"/><stop offset="1" stop-color="#ec3332"/></linearGradient><linearGradient id="linear-gradient-3" x1="1522.43" y1="198.21" x2="5451.08" y2="2488.11" gradientUnits="userSpaceOnUse"><stop offset="0" stop-color="#fed766"/><stop offset="1" stop-color="#f02"/></linearGradient><style>.cls-1,.cls-223{fill:none}.cls-6{fill:#009fb7}.cls-141{fill:#cc2040}.cls-168{fill:#e21233}.cls-170{fill:#e41132}.cls-177{fill:#e90e2f}.cls-178{fill:#ea0d2e}.cls-180{fill:#ec0c2d}.cls-189{fill:#f1092a}.cls-190{fill:#f2082a}.cls-197{fill:#f50628}.cls-198{fill:#f60627}.cls-200{fill:#f70527}.cls-203{fill:#f80426}.cls-204{fill:#f90426}.cls-206{fill:#fa0325}.cls-209{fill:#fb0224}.cls-210{fill:#fc0224}.cls-212{fill:#fd0123}.cls-213{fill:#fe0123}.cls-215{fill:#fe0022}.cls-216{fill:#f02}.cls-217{fill:#fdfffc}.cls-220{fill:#f9d778}.cls-223{stroke:#f02;stroke-linecap:round;stroke-linejoin:round;stroke-width:4px}</style></defs><g id="background"><g id="Rectangle"><path id="path-1-4" data-name="path-1" fill="url(#linear-gradient)" d="M-10-10h2170v740H-10z"/></g></g><g clip-path="url(#clip-path)" id="frame-1"><path d="M288 722.17a3.51 3.51 0 01-2.75-5.66c39.9-51 71.26-105.46 93.21-161.91a572.83 572.83 0 0023.35-74.6 507.66 507.66 0 01-69.32-41.76C249.56 378.92 198.9 307.22 171 257.52c-53-94.38-68.69-189.88-40-243.31 17.86-33.3 43.74-50.47 74.92-49.68 28.08.73 58.82 16 88.89 44s57.51 67.4 79.19 113.41c38.78 82.3 55.9 179.76 48.2 274.43a563.35 563.35 0 01-12.32 79.81q20.33 9.81 41.28 17.6A462.4 462.4 0 00586.44 522c142.16 7.95 253.66-28.5 331.4-108.31 32.47-33.33 59.12-74.42 79.22-122.14 16.11-38.25 28.08-80.81 35.56-126.51 12.75-77.85 8-138.45 7.94-139.06a3.5 3.5 0 017-.57c0 .61 4.88 62.07-8 140.76-7.57 46.24-19.69 89.34-36 128.09-20.44 48.54-47.58 90.36-80.66 124.32C843.63 499.87 730.32 537 586.05 529a469.6 469.6 0 01-137.32-28.62q-20.52-7.62-40.48-17.18a578.84 578.84 0 01-23.23 74c-22.19 57.1-53.9 112.17-94.22 163.69a3.48 3.48 0 01-2.8 1.28zM203.83-28.49c-27.51 0-50.54 15.87-66.7 46-27.54 51.37-11.85 144.23 40 236.58 27.53 49.08 77.55 119.91 159.43 178.47A502.58 502.58 0 00403.44 473a556.11 556.11 0 0011.79-77.2c7.61-93.47-9.28-189.67-47.56-270.88C346.37 79.71 319.5 41.25 290 13.69c-28.79-26.9-57.94-41.48-84.29-42.16-.64-.02-1.26-.02-1.88-.02z" fill="#353535"/><g clip-path="url(#clip-path-2)"><path class="cls-6" d="M109.59 11.87h7.17v517.1h-7.17zM116.76 11.87h1.85v517.1h-1.85z"/><path fill="#029eb6" d="M118.61 11.87h1.85v517.1h-1.85z"/><path fill="#049cb5" d="M120.47 11.87h1.85v517.1h-1.85z"/><path fill="#069bb3" d="M122.32 11.87h1.85v517.1h-1.85z"/><path fill="#089ab2" d="M124.18 11.87h1.85v517.1h-1.85z"/><path fill="#0a98b1" d="M126.03 11.87h1.85v517.1h-1.85z"/><path fill="#0d97b0" d="M127.89 11.87h1.85v517.1h-1.85z"/><path fill="#0f96ae" d="M129.74 11.87h1.85v517.1h-1.85z"/><path fill="#1195ad" d="M131.6 11.87h1.85v517.1h-1.85z"/><path fill="#1393ac" d="M133.45 11.87h1.85v517.1h-1.85z"/><path fill="#1592ab" d="M135.31 11.87h1.85v517.1h-1.85z"/><path fill="#1791aa" d="M137.16 11.87h1.85v517.1h-1.85z"/><path fill="#1990a9" d="M139.02 11.87h1.85v517.1h-1.85z"/><path fill="#1b8ea7" d="M140.87 11.87h1.85v517.1h-1.85z"/><path fill="#1d8da6" d="M142.73 11.87h1.85v517.1h-1.85z"/><path fill="#1f8ca5" d="M144.58 11.87h1.85v517.1h-1.85z"/><path fill="#218ba4" d="M146.44 11.87h1.85v517.1h-1.85z"/><path fill="#2389a3" d="M148.29 11.87h1.85v517.1h-1.85z"/><path fill="#2588a2" d="M150.15 11.87H152v517.1h-1.85z"/><path fill="#2787a0" d="M152 11.87h1.85v517.1H152z"/><path fill="#29869f" d="M153.85 11.87h1.85v517.1h-1.85z"/><path fill="#2a859e" d="M155.71 11.87h1.85v517.1h-1.85z"/><path fill="#2c839d" d="M157.56 11.87h1.85v517.1h-1.85z"/><path fill="#2e829c" d="M159.42 11.87h1.85v517.1h-1.85z"/><path fill="#30819b" d="M161.27 11.87h1.85v517.1h-1.85z"/><path fill="#32809a" d="M163.13 11.87h1.85v517.1h-1.85z"/><path fill="#347f99" d="M164.98 11.87h1.85v517.1h-1.85z"/><path fill="#367d98" d="M166.84 11.87h1.85v517.1h-1.85z"/><path fill="#387c96" d="M168.69 11.87h1.85v517.1h-1.85z"/><path fill="#3a7b95" d="M170.55 11.87h1.85v517.1h-1.85z"/><path fill="#3b7a94" d="M172.4 11.87h1.85v517.1h-1.85z"/><path fill="#3d7993" d="M174.26 11.87h1.85v517.1h-1.85z"/><path fill="#3f7892" d="M176.11 11.87h1.85v517.1h-1.85z"/><path fill="#417791" d="M177.97 11.87h1.85v517.1h-1.85z"/><path fill="#437590" d="M179.82 11.87h1.85v517.1h-1.85z"/><path fill="#45748f" d="M181.68 11.87h1.85v517.1h-1.85z"/><path fill="#46738e" d="M183.53 11.87h1.85v517.1h-1.85z"/><path fill="#48728d" d="M185.39 11.87h1.85v517.1h-1.85z"/><path fill="#4a718c" d="M187.24 11.87h1.85v517.1h-1.85z"/><path fill="#4c708b" d="M189.1 11.87h1.85v517.1h-1.85z"/><path fill="#4d6f8a" d="M190.95 11.87h1.85v517.1h-1.85z"/><path fill="#4f6e89" d="M192.81 11.87h1.85v517.1h-1.85z"/><path fill="#516d88" d="M194.66 11.87h1.85v517.1h-1.85z"/><path fill="#536c87" d="M196.52 11.87h1.85v517.1h-1.85z"/><path fill="#546a86" d="M198.37 11.87h1.85v517.1h-1.85z"/><path fill="#566985" d="M200.23 11.87h1.85v517.1h-1.85z"/><path fill="#586884" d="M202.08 11.87h1.85v517.1h-1.85z"/><path fill="#596783" d="M203.94 11.87h1.85v517.1h-1.85z"/><path fill="#5b6682" d="M205.79 11.87h1.85v517.1h-1.85z"/><path fill="#5d6581" d="M207.65 11.87h1.85v517.1h-1.85z"/><path fill="#5e6480" d="M209.5 11.87h1.85v517.1h-1.85z"/><path fill="#60637f" d="M211.36 11.87h1.85v517.1h-1.85z"/><path fill="#62627e" d="M213.21 11.87h1.85v517.1h-1.85z"/><path fill="#63617d" d="M215.06 11.87h1.85v517.1h-1.85z"/><path fill="#65607c" d="M216.92 11.87h1.85v517.1h-1.85z"/><path fill="#675f7b" d="M218.77 11.87h1.85v517.1h-1.85z"/><path fill="#685e7a" d="M220.63 11.87h1.85v517.1h-1.85z"/><path fill="#6a5d79" d="M222.48 11.87h1.85v517.1h-1.85z"/><path fill="#6b5c78" d="M224.34 11.87h1.85v517.1h-1.85z"/><path fill="#6d5b77" d="M226.19 11.87h1.85v517.1h-1.85z"/><path fill="#6f5a76" d="M228.05 11.87h1.85v517.1h-1.85z"/><path fill="#705975" d="M229.9 11.87h1.85v517.1h-1.85z"/><path fill="#725875" d="M231.76 11.87h1.85v517.1h-1.85z"/><path fill="#735774" d="M233.61 11.87h1.85v517.1h-1.85z"/><path fill="#755673" d="M235.47 11.87h1.85v517.1h-1.85z"/><path fill="#765572" d="M237.32 11.87h1.85v517.1h-1.85z"/><path fill="#785471" d="M239.18 11.87h1.85v517.1h-1.85z"/><path fill="#795370" d="M241.03 11.87h1.85v517.1h-1.85z"/><path fill="#7b526f" d="M242.89 11.87h1.85v517.1h-1.85z"/><path fill="#7c516e" d="M244.74 11.87h1.85v517.1h-1.85z"/><path fill="#7e516d" d="M246.6 11.87h1.85v517.1h-1.85z"/><path fill="#7f506d" d="M248.45 11.87h1.85v517.1h-1.85z"/><path fill="#814f6c" d="M250.31 11.87h1.85v517.1h-1.85z"/><path fill="#824e6b" d="M252.16 11.87h1.85v517.1h-1.85z"/><path fill="#844d6a" d="M254.02 11.87h1.85v517.1h-1.85z"/><path fill="#854c69" d="M255.87 11.87h1.85v517.1h-1.85z"/><path fill="#874b68" d="M257.73 11.87h1.85v517.1h-1.85z"/><path fill="#884a68" d="M259.58 11.87h1.85v517.1h-1.85z"/><path fill="#894967" d="M261.44 11.87h1.85v517.1h-1.85z"/><path fill="#8b4866" d="M263.29 11.87h1.85v517.1h-1.85z"/><path fill="#8c4865" d="M265.15 11.87H267v517.1h-1.85z"/><path fill="#8e4764" d="M267 11.87h1.85v517.1H267z"/><path fill="#8f4663" d="M268.86 11.87h1.85v517.1h-1.85z"/><path fill="#904563" d="M270.71 11.87h1.85v517.1h-1.85z"/><path fill="#924462" d="M272.57 11.87h1.85v517.1h-1.85z"/><path fill="#934361" d="M274.42 11.87h1.85v517.1h-1.85z"/><path fill="#944260" d="M276.27 11.87h1.85v517.1h-1.85z"/><path fill="#964260" d="M278.13 11.87h1.85v517.1h-1.85z"/><path fill="#97415f" d="M279.98 11.87h1.85v517.1h-1.85z"/><path fill="#98405e" d="M281.84 11.87h1.85v517.1h-1.85z"/><path fill="#9a3f5d" d="M283.69 11.87h1.85v517.1h-1.85z"/><path fill="#9b3e5c" d="M285.55 11.87h1.85v517.1h-1.85z"/><path fill="#9c3e5c" d="M287.4 11.87h1.85v517.1h-1.85z"/><path fill="#9e3d5b" d="M289.26 11.87h1.85v517.1h-1.85z"/><path fill="#9f3c5a" d="M291.11 11.87h1.85v517.1h-1.85z"/><path fill="#a03b59" d="M292.97 11.87h1.85v517.1h-1.85z"/><path fill="#a13a59" d="M294.82 11.87h1.85v517.1h-1.85z"/><path fill="#a33a58" d="M296.68 11.87h1.85v517.1h-1.85z"/><path fill="#a43957" d="M298.53 11.87h1.85v517.1h-1.85z"/><path fill="#a53857" d="M300.39 11.87h1.85v517.1h-1.85z"/><path fill="#a63756" d="M302.24 11.87h1.85v517.1h-1.85z"/><path fill="#a73755" d="M304.1 11.87h1.85v517.1h-1.85z"/><path fill="#a93654" d="M305.95 11.87h1.85v517.1h-1.85z"/><path fill="#aa3554" d="M307.81 11.87h1.85v517.1h-1.85z"/><path fill="#ab3453" d="M309.66 11.87h1.85v517.1h-1.85z"/><path fill="#ac3452" d="M311.52 11.87h1.85v517.1h-1.85z"/><path fill="#ad3352" d="M313.37 11.87h1.85v517.1h-1.85z"/><path fill="#af3251" d="M315.23 11.87h1.85v517.1h-1.85z"/><path fill="#b03150" d="M317.08 11.87h1.85v517.1h-1.85z"/><path fill="#b13150" d="M318.94 11.87h1.85v517.1h-1.85z"/><path fill="#b2304f" d="M320.79 11.87h1.85v517.1h-1.85z"/><path fill="#b32f4e" d="M322.65 11.87h1.85v517.1h-1.85z"/><path fill="#b42f4e" d="M324.5 11.87h1.85v517.1h-1.85z"/><path fill="#b52e4d" d="M326.36 11.87h1.85v517.1h-1.85z"/><path fill="#b62d4c" d="M328.21 11.87h1.85v517.1h-1.85z"/><path fill="#b82d4c" d="M330.07 11.87h1.85v517.1h-1.85z"/><path fill="#b92c4b" d="M331.92 11.87h1.85v517.1h-1.85z"/><path fill="#ba2b4b" d="M333.78 11.87h1.85v517.1h-1.85z"/><path fill="#bb2b4a" d="M335.63 11.87h1.85v517.1h-1.85z"/><path fill="#bc2a49" d="M337.48 11.87h1.85v517.1h-1.85z"/><path fill="#bd2949" d="M339.34 11.87h1.85v517.1h-1.85z"/><path fill="#be2948" d="M341.19 11.87h1.85v517.1h-1.85z"/><path fill="#bf2847" d="M343.05 11.87h1.85v517.1h-1.85z"/><path fill="#c02747" d="M344.9 11.87h1.85v517.1h-1.85z"/><path fill="#c12746" d="M346.76 11.87h1.85v517.1h-1.85z"/><path fill="#c22646" d="M348.61 11.87h1.85v517.1h-1.85z"/><path fill="#c32545" d="M350.47 11.87h1.85v517.1h-1.85z"/><path fill="#c42545" d="M352.32 11.87h1.85v517.1h-1.85z"/><path fill="#c52444" d="M354.18 11.87h1.85v517.1h-1.85z"/><path fill="#c62443" d="M356.03 11.87h1.85v517.1h-1.85z"/><path fill="#c72343" d="M357.89 11.87h1.85v517.1h-1.85z"/><path fill="#c82242" d="M359.74 11.87h1.85v517.1h-1.85z"/><path fill="#c92242" d="M361.6 11.87h1.85v517.1h-1.85z"/><path fill="#ca2141" d="M363.45 11.87h1.85v517.1h-1.85z"/><path fill="#cb2141" d="M365.31 11.87h1.85v517.1h-1.85z"/><path class="cls-141" d="M367.16 11.87h1.85v517.1h-1.85zM369.02 11.87h1.85v517.1h-1.85z"/><path fill="#cd1f3f" d="M370.87 11.87h1.85v517.1h-1.85z"/><path fill="#ce1e3f" d="M372.73 11.87h1.85v517.1h-1.85z"/><path fill="#cf1e3e" d="M374.58 11.87h1.85v517.1h-1.85z"/><path fill="#d01d3d" d="M376.44 11.87h1.85v517.1h-1.85z"/><path fill="#d11d3d" d="M378.29 11.87h1.85v517.1h-1.85z"/><path fill="#d21c3c" d="M380.15 11.87H382v517.1h-1.85z"/><path fill="#d31c3c" d="M382 11.87h1.85v517.1H382z"/><path fill="#d31b3b" d="M383.86 11.87h1.85v517.1h-1.85z"/><path fill="#d41b3b" d="M385.71 11.87h1.85v517.1h-1.85z"/><path fill="#d51a3b" d="M387.57 11.87h1.85v517.1h-1.85z"/><path fill="#d61a3a" d="M389.42 11.87h1.85v517.1h-1.85z"/><path fill="#d7193a" d="M391.28 11.87h1.85v517.1h-1.85z"/><path fill="#d71939" d="M393.13 11.87h1.85v517.1h-1.85z"/><path fill="#d81839" d="M394.98 11.87h1.85v517.1h-1.85z"/><path fill="#d91838" d="M396.84 11.87h1.85v517.1h-1.85z"/><path fill="#da1738" d="M398.69 11.87h1.85v517.1h-1.85z"/><path fill="#db1737" d="M400.55 11.87h1.85v517.1h-1.85z"/><path fill="#db1637" d="M402.4 11.87h1.85v517.1h-1.85z"/><path fill="#dc1636" d="M404.26 11.87h1.85v517.1h-1.85z"/><path fill="#dd1536" d="M406.11 11.87h1.85v517.1h-1.85z"/><path fill="#de1536" d="M407.97 11.87h1.85v517.1h-1.85z"/><path fill="#de1435" d="M409.82 11.87h1.85v517.1h-1.85z"/><path fill="#df1435" d="M411.68 11.87h1.85v517.1h-1.85z"/><path fill="#e01434" d="M413.53 11.87h1.85v517.1h-1.85z"/><path fill="#e01334" d="M415.39 11.87h1.85v517.1h-1.85z"/><path fill="#e11333" d="M417.24 11.87h1.85v517.1h-1.85z"/><path class="cls-168" d="M419.1 11.87h1.85v517.1h-1.85z"/><path class="cls-168" d="M420.95 11.87h1.85v517.1h-1.85z"/><path fill="#e31132" d="M422.81 11.87h1.85v517.1h-1.85z"/><path class="cls-170" d="M424.66 11.87h1.85v517.1h-1.85zM426.52 11.87h1.85v517.1h-1.85z"/><path fill="#e51031" d="M428.37 11.87h1.85v517.1h-1.85z"/><path fill="#e61031" d="M430.23 11.87h1.85v517.1h-1.85z"/><path fill="#e60f30" d="M432.08 11.87h1.85v517.1h-1.85z"/><path fill="#e70f30" d="M433.94 11.87h1.85v517.1h-1.85z"/><path fill="#e80f30" d="M435.79 11.87h1.85v517.1h-1.85z"/><path fill="#e80e2f" d="M437.65 11.87h1.85v517.1h-1.85z"/><path class="cls-177" d="M439.5 11.87h1.85v517.1h-1.85zM441.36 11.87h1.85v517.1h-1.85z"/><path class="cls-178" d="M443.21 11.87h1.85v517.1h-1.85zM445.07 11.87h1.85v517.1h-1.85z"/><path fill="#eb0c2e" d="M446.92 11.87h1.85v517.1h-1.85z"/><path class="cls-180" d="M448.78 11.87h1.85v517.1h-1.85zM450.63 11.87h1.85v517.1h-1.85z"/><path fill="#ed0b2d" d="M452.49 11.87h1.85v517.1h-1.85z"/><path fill="#ed0b2c" d="M454.34 11.87h1.85v517.1h-1.85z"/><path fill="#ee0b2c" d="M456.19 11.87h1.85v517.1h-1.85z"/><path fill="#ee0a2c" d="M458.05 11.87h1.85v517.1h-1.85z"/><path fill="#ef0a2c" d="M459.9 11.87h1.85v517.1h-1.85z"/><path fill="#ef0a2b" d="M461.76 11.87h1.85v517.1h-1.85z"/><path fill="#f00a2b" d="M463.61 11.87h1.85v517.1h-1.85z"/><path fill="#f0092b" d="M465.47 11.87h1.85v517.1h-1.85z"/><path class="cls-189" d="M467.32 11.87h1.85v517.1h-1.85zM469.18 11.87h1.85v517.1h-1.85z"/><path class="cls-190" d="M471.03 11.87h1.85v517.1h-1.85zM472.89 11.87h1.85v517.1h-1.85z"/><path fill="#f20829" d="M474.74 11.87h1.85v517.1h-1.85z"/><path fill="#f30829" d="M476.6 11.87h1.85v517.1h-1.85z"/><path fill="#f30729" d="M478.45 11.87h1.85v517.1h-1.85z"/><path fill="#f40729" d="M480.31 11.87h1.85v517.1h-1.85z"/><path fill="#f40728" d="M482.16 11.87h1.85v517.1h-1.85z"/><path fill="#f50728" d="M484.02 11.87h1.85v517.1h-1.85z"/><path class="cls-197" d="M485.87 11.87h1.85v517.1h-1.85zM487.73 11.87h1.85v517.1h-1.85z"/><path class="cls-198" d="M489.58 11.87h1.85v517.1h-1.85zM491.44 11.87h1.85v517.1h-1.85z"/><path fill="#f60527" d="M493.29 11.87h1.85v517.1h-1.85z"/><path class="cls-200" d="M495.15 11.87H497v517.1h-1.85zM497 11.87h1.85v517.1H497z"/><path fill="#f70526" d="M498.86 11.87h1.85v517.1h-1.85z"/><path fill="#f80526" d="M500.71 11.87h1.85v517.1h-1.85z"/><path class="cls-203" d="M502.57 11.87h1.85v517.1h-1.85zM504.42 11.87h1.85v517.1h-1.85z"/><path class="cls-204" d="M506.28 11.87h1.85v517.1h-1.85zM508.13 11.87h1.85v517.1h-1.85z"/><path fill="#f90425" d="M509.99 11.87h1.85v517.1h-1.85z"/><path class="cls-206" d="M511.84 11.87h1.85v517.1h-1.85zM513.7 11.87h1.85v517.1h-1.85z"/><path class="cls-206" d="M515.55 11.87h1.85v517.1h-1.85zM517.4 11.87h1.85v517.1h-1.85z"/><path fill="#fb0325" d="M519.26 11.87h1.85v517.1h-1.85z"/><path fill="#fb0324" d="M521.11 11.87h1.85v517.1h-1.85z"/><path class="cls-209" d="M522.97 11.87h1.85v517.1h-1.85zM524.82 11.87h1.85v517.1h-1.85z"/><path class="cls-210" d="M526.68 11.87h1.85v517.1h-1.85zM528.53 11.87h1.85v517.1h-1.85zM530.39 11.87h1.85v517.1h-1.85zM532.24 11.87h1.85v517.1h-1.85zM534.1 11.87h1.85v517.1h-1.85z"/><path fill="#fd0223" d="M535.95 11.87h1.85v517.1h-1.85z"/><path class="cls-212" d="M537.81 11.87h1.85v517.1h-1.85zM539.66 11.87h1.85v517.1h-1.85zM541.52 11.87h1.85v517.1h-1.85zM543.37 11.87h1.85v517.1h-1.85zM545.23 11.87h1.85v517.1h-1.85z"/><path class="cls-213" d="M547.08 11.87h1.85v517.1h-1.85zM548.94 11.87h1.85v517.1h-1.85z"/><path class="cls-213" d="M550.79 11.87h1.85v517.1h-1.85zM552.65 11.87h1.85v517.1h-1.85zM554.5 11.87h1.85v517.1h-1.85z"/><path fill="#fe0122" d="M556.36 11.87h1.85v517.1h-1.85z"/><path class="cls-215" d="M558.21 11.87h1.85v517.1h-1.85zM560.07 11.87h1.85v517.1h-1.85z"/><path class="cls-215" d="M561.92 11.87h1.85v517.1h-1.85z"/><path class="cls-216" d="M563.78 11.87h1.85v517.1h-1.85zM565.63 11.87h1.85v517.1h-1.85zM567.49 11.87h1.85v517.1h-1.85zM569.34 11.87h1.85v517.1h-1.85zM571.2 11.87h1.85v517.1h-1.85z"/><path class="cls-216" d="M573.05 11.87h1.85v517.1h-1.85zM574.91 11.87h1.85v517.1h-1.85zM576.76 11.87h1.85v517.1h-1.85zM578.61 11.87h1.85v517.1h-1.85zM580.47 11.87h1.85v517.1h-1.85zM582.32 11.87h1.85v517.1h-1.85zM584.18 11.87h1.85v517.1h-1.85zM586.03 11.87h1.85v517.1h-1.85zM587.89 11.87h1.85v517.1h-1.85zM589.74 11.87h.1v517.1h-.1z"/></g><circle class="cls-216" cx="51.09" cy="176.52" r="4.96"/><circle cx="51.09" cy="223.42" r="4.96"/><circle cx="51.09" cy="261.92" r="4.96"/><circle cx="51.09" cy="591.97" r="4.96"/><circle cx="51.09" cy="310.92" r="4.96"/><circle cx="51.09" cy="349.42" r="4.96"/><circle cx="51.09" cy="532.12" r="4.96"/><circle class="cls-216" cx="51.09" cy="397.37" r="4.96"/><circle class="cls-216" cx="51.09" cy="646.57" r="4.96"/><circle cx="89.59" cy="176.52" r="4.96"/><circle cx="89.59" cy="242.32" r="4.96"/><circle class="cls-216" cx="89.59" cy="279.77" r="4.96"/><circle cx="89.59" cy="547.87" r="4.96"/><circle cx="89.59" cy="310.92" r="4.96"/><circle cx="89.59" cy="447.77" r="4.96"/><circle cx="89.59" cy="501.67" r="4.96"/><circle cx="89.59" cy="397.37" r="4.96"/><circle cx="89.59" cy="646.57" r="4.96"/><path class="cls-216" d="M223.25 210.11h-17l-3.57 10.16h-11.15l17.65-47.61h11.13L238 220.27h-11.18zm-13.72-9.59H220l-5.25-14.84zM280.93 219.36a18.77 18.77 0 01-7.7 1.68c-11.07 0-18.42-8-18.42-18.21s7.35-18.13 18.42-18.13a20.2 20.2 0 017.7 1.61v10.08a13.59 13.59 0 00-7.7-2.38 8.86 8.86 0 000 17.71 13.09 13.09 0 007.7-2.45zM302.48 184.7a18.17 18.17 0 11-18.13 18.13 17.87 17.87 0 0118.13-18.13zm0 27c4.91 0 8.41-4.06 8.41-8.89s-3.5-8.82-8.41-8.82a8.86 8.86 0 000 17.71zM335.21 220.27h-9.59V172h9.59zM351.66 220.27h-9.59V172h9.59zM360.28 186.73a28.3 28.3 0 0110.08-2c9.38 0 14.84 4.48 14.84 14.63v20.94h-9.52v-2.59a10 10 0 01-7.77 3.36c-7.77 0-11.48-5.46-11.48-11.35 0-6.23 4.55-11.2 11.62-11.2a12.45 12.45 0 017.63 2.52v-1.89c0-4.2-2.8-6-6.44-6a18.25 18.25 0 00-9 2.59zM370.71 214a4.37 4.37 0 100-8.69c-2.73 0-4.9 1.89-4.9 4.34s2.19 4.35 4.9 4.35zM401.41 220.27h-9.52V172h9.52v17.92a13 13 0 0110.71-5.18c9.8 0 16.6 7.91 16.6 18.13S421.92 221 412.19 221a13.08 13.08 0 01-10.78-5.25zm8.75-8.62a8.79 8.79 0 10-8.75-8.82 8.65 8.65 0 008.75 8.82zM449.78 184.7a18.17 18.17 0 11-18.13 18.13 17.87 17.87 0 0118.13-18.13zm0 27c4.9 0 8.4-4.06 8.4-8.89s-3.5-8.82-8.4-8.82a8.86 8.86 0 000 17.71zM482.35 189.18a9.4 9.4 0 018.26-4.48 17.93 17.93 0 012.73.21v10.15a11.8 11.8 0 00-5.11-1.05c-3.36 0-5.67 2.31-5.88 6v20.24h-9.52V185.4h9.52zM497.35 186.73a28.3 28.3 0 0110.08-2c9.38 0 14.84 4.48 14.84 14.63v20.94h-9.52v-2.59A10 10 0 01505 221c-7.77 0-11.48-5.46-11.48-11.35 0-6.23 4.54-11.2 11.62-11.2a12.45 12.45 0 017.63 2.52v-1.89c0-4.2-2.8-6-6.44-6a18.25 18.25 0 00-9 2.59zM507.78 214a4.37 4.37 0 100-8.69c-2.73 0-4.9 1.89-4.9 4.34s2.17 4.35 4.9 4.35zM531 220.27v-26.75h-5.32v-8.12h5.88v-7.63l9-2v9.66h5.88v8.12h-5.88v26.75zM554.73 169.58a5.5 5.5 0 015.6 5.67 5.6 5.6 0 11-11.2 0 5.54 5.54 0 015.6-5.67zm4.76 50.69H550V185.4h9.52zM572.42 185.4l8.12 23 8.19-23h10.08l-13.23 34.87h-10l-13.17-34.87zM607.92 205.84c.84 4 4.34 6.58 9.24 6.58a22.49 22.49 0 0011.84-3.29v9.18a28 28 0 01-12.6 2.73c-10.36 0-18-7.35-18-18.21 0-10.22 7.36-18.13 17.44-18.13s16.31 7.56 16.31 16.59a21.85 21.85 0 01-.56 4.55zm0-7.21H623c-.14-3.57-3.15-6-7.21-6s-7.38 2.71-7.87 6zM203.37 282.84c.84 4 4.34 6.58 9.24 6.58a22.49 22.49 0 0011.83-3.29v9.18a28 28 0 01-12.6 2.73c-10.36 0-18-7.36-18-18.21 0-10.22 7.36-18.13 17.44-18.13s16.31 7.56 16.31 16.59a21.85 21.85 0 01-.56 4.55zm0-7.21h15c-.14-3.57-3.15-6-7.21-6s-7.3 2.71-7.79 6zM242 266.81a10.31 10.31 0 019.17-5.11c7.49 0 12.32 5.6 12.32 13.09v22.48h-9.59v-19.82c0-3.85-2.31-6.44-6-6.44s-5.74 2.31-5.95 6v20.24h-9.45V262.4h9.5zM274.88 262.4l8.12 23 8.19-23h10.09L288 297.27h-10l-13.13-34.87zM309 246.58a5.5 5.5 0 015.6 5.67 5.6 5.6 0 01-11.2 0 5.54 5.54 0 015.6-5.67zm4.76 50.69h-9.52V262.4h9.52zM330.23 266.18a9.4 9.4 0 018.26-4.48 17.93 17.93 0 012.73.21v10.15a11.8 11.8 0 00-5.11-1.05c-3.36 0-5.67 2.31-5.88 6v20.24h-9.53V262.4h9.53zM361.08 261.7a18.17 18.17 0 11-18.14 18.13 17.87 17.87 0 0118.14-18.13zm0 27c4.9 0 8.4-4.06 8.4-8.89S366 271 361.08 271a8.86 8.86 0 000 17.71zM393.64 266.81a10.31 10.31 0 019.18-5.11c7.49 0 12.32 5.6 12.32 13.09v22.48h-9.59v-19.82c0-3.85-2.31-6.44-6-6.44-3.5 0-5.74 2.31-5.95 6v20.24h-9.52V262.4h9.52zM431.38 266.53a10.22 10.22 0 018.89-4.83c4.9 0 8.75 2.24 10.71 6.3a10.76 10.76 0 0110.29-6.3c6.72 0 12 5.32 12 12.81v22.76h-9.53v-20c0-3.92-2.24-6.23-5.6-6.23s-5.81 2.31-5.81 6.23v20h-9.52v-20c0-3.92-2.24-6.23-5.6-6.23s-5.6 2.1-5.81 5.74v20.52h-9.52v-34.9h9.52zM487.5 282.84c.84 4 4.34 6.58 9.24 6.58a22.49 22.49 0 0011.83-3.29v9.18A28 28 0 01496 298c-10.36 0-18-7.36-18-18.21 0-10.22 7.35-18.13 17.43-18.13s16.31 7.56 16.31 16.59a21.85 21.85 0 01-.56 4.55zm0-7.21h15.05c-.14-3.57-3.15-6-7.21-6s-7.34 2.71-7.84 6zM526.16 266.81a10.31 10.31 0 019.17-5.11c7.49 0 12.32 5.6 12.32 13.09v22.48h-9.59v-19.82c0-3.85-2.31-6.44-5.95-6.44s-5.74 2.31-6 6v20.24h-9.52V262.4h9.52zM556.38 297.27v-26.75h-5.32v-8.12h5.88v-7.63l9-2v9.66h5.88v8.12h-5.92v26.75zM598.24 262.4l6.16 23.17 6.16-18.41-1.68-4.76h9.45l8.12 23.17 6-23.17h9.87L632 297.27h-10l-6.93-19.12-6.44 19.12h-10l-10.3-34.87zM655.12 266.81a10.39 10.39 0 019.17-5.11c7.5 0 12.33 5.6 12.33 13.09v22.48H667v-19.82c0-3.85-2.32-6.44-5.89-6.44s-5.81 2.31-6 6v20.24h-9.51V249h9.52zM690.79 282.84c.84 4 4.34 6.58 9.25 6.58a22.49 22.49 0 0011.83-3.29v9.18a28 28 0 01-12.6 2.73c-10.37 0-18-7.36-18-18.21 0-10.22 7.35-18.13 17.44-18.13S715 269.26 715 278.29a21.85 21.85 0 01-.56 4.55zm0-7.21h15.06c-.14-3.57-3.15-6-7.22-6s-7.35 2.71-7.84 6zM729.46 266.18a9.38 9.38 0 018.26-4.48 17.93 17.93 0 012.73.21v10.15a11.82 11.82 0 00-5.12-1.05c-3.36 0-5.66 2.31-5.87 6v20.24h-9.53V262.4h9.53zM751.77 282.84c.84 4 4.34 6.58 9.24 6.58a22.49 22.49 0 0011.83-3.29v9.18a28 28 0 01-12.6 2.73c-10.36 0-18-7.36-18-18.21 0-10.22 7.35-18.13 17.43-18.13S776 269.26 776 278.29a21.85 21.85 0 01-.56 4.55zm0-7.21h15.05c-.14-3.57-3.15-6-7.21-6s-7.35 2.71-7.84 6zM203.37 359.84c.84 4 4.34 6.58 9.24 6.58a22.4 22.4 0 0011.83-3.29v9.18a28 28 0 01-12.6 2.73c-10.36 0-18-7.36-18-18.21 0-10.22 7.36-18.13 17.44-18.13s16.31 7.56 16.31 16.59a21.85 21.85 0 01-.56 4.55zm0-7.21h15c-.14-3.57-3.15-6-7.21-6s-7.3 2.71-7.79 6zM237.31 339.4l8.13 23 8.19-23h10.08l-13.23 34.87h-10L227.3 339.4zM272.81 359.84c.84 4 4.34 6.58 9.24 6.58a22.4 22.4 0 0011.83-3.29v9.18a28 28 0 01-12.6 2.73c-10.36 0-18-7.36-18-18.21 0-10.22 7.35-18.13 17.43-18.13S297 346.26 297 355.29a21.85 21.85 0 01-.56 4.55zm0-7.21h15.05c-.14-3.57-3.15-6-7.21-6s-7.35 2.71-7.84 6zM311.47 343.18a9.4 9.4 0 018.26-4.48 17.93 17.93 0 012.73.21v10.15a11.8 11.8 0 00-5.11-1.05c-3.36 0-5.67 2.31-5.88 6v20.24H302V339.4h9.52zM336.94 371.61l-12.81-32.21h10.71l7.35 20.16L350 339.4h10.78L340 388.62h-11zM367.7 374.27v-26.75h-5.32v-8.12h5.88v-7.63l9-2v9.66h5.88v8.12h-5.88v26.75zM396.61 343.81a10.39 10.39 0 019.17-5.11c7.49 0 12.32 5.6 12.32 13.09v22.48h-9.59v-19.82c0-3.85-2.31-6.44-5.88-6.44s-5.81 2.31-6 6v20.24h-9.53V326h9.53zM429.46 323.58a5.5 5.5 0 015.6 5.67 5.61 5.61 0 01-11.21 0 5.55 5.55 0 015.61-5.67zm4.76 50.69h-9.53V339.4h9.53zM450.68 343.81a10.31 10.31 0 019.17-5.11c7.49 0 12.32 5.6 12.32 13.09v22.48h-9.59v-19.82c0-3.85-2.31-6.44-5.95-6.44s-5.74 2.31-5.95 6v20.24h-9.52V339.4h9.52zM513.72 339.4v30.67c0 12.81-7.28 19.25-19.39 19.25a26.51 26.51 0 01-11.69-2.59v-9.87a23.22 23.22 0 0011.76 3.5c5.67 0 9.8-3.36 9.8-9v-2.45a13.68 13.68 0 01-11 5.11c-9.59 0-16.38-7.57-16.38-17.58s6.79-17.71 16.31-17.71A13.29 13.29 0 01504.2 344v-4.6zm-18.41 8.6a8.33 8.33 0 108.33 8.33 8.25 8.25 0 00-8.33-8.33zM561 373.36a18.77 18.77 0 01-7.7 1.68c-11.06 0-18.41-8-18.41-18.21s7.35-18.13 18.41-18.13a20.2 20.2 0 017.7 1.61v10.08a13.59 13.59 0 00-7.7-2.38 8.86 8.86 0 000 17.71 13.09 13.09 0 007.7-2.45zM568.49 340.73a28.31 28.31 0 0110.09-2c9.38 0 14.84 4.48 14.84 14.63v20.94h-9.52v-2.59a10 10 0 01-7.78 3.36c-7.77 0-11.48-5.46-11.48-11.35 0-6.23 4.55-11.2 11.62-11.2a12.46 12.46 0 017.64 2.48v-1.89c0-4.2-2.81-5.95-6.44-5.95a18.26 18.26 0 00-9 2.59zM578.92 368a4.37 4.37 0 100-8.69c-2.73 0-4.9 1.89-4.9 4.34s2.17 4.35 4.9 4.35zM609.63 343.81a10.31 10.31 0 019.17-5.11c7.49 0 12.32 5.6 12.32 13.09v22.48h-9.59v-19.82c0-3.85-2.31-6.44-5.95-6.44s-5.74 2.31-6 6v20.24h-9.48V339.4h9.53zM678 373.36a18.8 18.8 0 01-7.7 1.68c-11.07 0-18.42-8-18.42-18.21s7.35-18.13 18.42-18.13a20.24 20.24 0 017.7 1.61v10.08a13.64 13.64 0 00-7.7-2.38 8.86 8.86 0 000 17.71 13.09 13.09 0 007.7-2.45zM699.5 338.7a18.17 18.17 0 11-18.13 18.13 17.87 17.87 0 0118.13-18.13zm0 27c4.9 0 8.41-4.06 8.41-8.89S704.4 348 699.5 348a8.86 8.86 0 000 17.71zM723.41 358.79v-9h18.83v9zM757.53 359.84c.84 4 4.34 6.58 9.24 6.58a22.4 22.4 0 0011.83-3.29v9.18A28 28 0 01766 375c-10.36 0-18-7.36-18-18.21 0-10.22 7.36-18.13 17.44-18.13s16.31 7.56 16.31 16.59a21.85 21.85 0 01-.56 4.55zm0-7.21h15.05c-.14-3.57-3.15-6-7.21-6s-7.37 2.71-7.84 6zM792.83 374.27h-11.06l11.48-17.44-11.48-17.43h11.06l6.23 10.29 6.16-10.29h11.14l-11.42 17.43 11.42 17.44h-11.14l-6.16-10.37zM824.11 323.58a5.5 5.5 0 015.6 5.67 5.6 5.6 0 01-11.2 0 5.54 5.54 0 015.6-5.67zm4.76 50.69h-9.52V339.4h9.52zM855.35 349.27a16.13 16.13 0 00-7.63-2.31c-2.38 0-3.43 1.19-3.43 2.52 0 1.12.7 1.68 2 2.52l5 2.94c4.2 2.52 5.74 5.81 5.74 9.45 0 6-4.48 10.65-12.81 10.65a24.79 24.79 0 01-9.1-1.75v-9.53a15.68 15.68 0 008.4 3.08c2.45 0 3.64-1.12 3.64-2.59 0-1.12-.63-2-2.31-3l-5.46-3.15a9.91 9.91 0 01-5-9c0-6.16 4.76-10.43 13-10.43a29.29 29.29 0 018 1.19zM864.54 374.27v-26.75h-5.32v-8.12h5.88v-7.63l9-2v9.66h5.88v8.12h-5.88v26.75zM198.54 451.27v-26.75h-5.33v-8.12h5.89v-7.63l9-2v9.66h5.88v8.12h-5.88v26.75zM233.42 415.7a18.17 18.17 0 11-18.13 18.13 17.87 17.87 0 0118.13-18.13zm0 27c4.9 0 8.41-4.06 8.41-8.89s-3.51-8.82-8.41-8.82a8.86 8.86 0 000 17.71zM291.38 416.4v30.67c0 12.81-7.28 19.25-19.39 19.25a26.51 26.51 0 01-11.69-2.59v-9.87a23.22 23.22 0 0011.76 3.5c5.67 0 9.8-3.36 9.8-9v-2.45a13.68 13.68 0 01-11 5.11c-9.59 0-16.39-7.57-16.39-17.58s6.8-17.71 16.32-17.71a13.29 13.29 0 0111.07 5.27v-4.6zM273 425a8.33 8.33 0 108.33 8.33A8.25 8.25 0 00273 425zM306 436.84c.84 4 4.34 6.58 9.24 6.58a22.44 22.44 0 0011.84-3.29v9.18A28.08 28.08 0 01314.5 452c-10.36 0-18-7.36-18-18.21 0-10.22 7.35-18.13 17.43-18.13s16.32 7.56 16.32 16.59a21.85 21.85 0 01-.56 4.55zm0-7.21h15.05c-.14-3.57-3.15-6-7.21-6s-7.32 2.71-7.84 6zM337.41 451.27v-26.75h-5.33v-8.12H338v-7.63l9-2v9.66h5.88v8.12H347v26.75zM366.32 420.81a10.39 10.39 0 019.17-5.11c7.49 0 12.32 5.6 12.32 13.09v22.48h-9.59v-19.82c0-3.85-2.31-6.44-5.88-6.44s-5.81 2.31-6 6v20.24h-9.53V403h9.53zM402 436.84c.84 4 4.34 6.58 9.24 6.58a22.4 22.4 0 0011.83-3.29v9.18a28 28 0 01-12.6 2.73c-10.36 0-18-7.36-18-18.21 0-10.22 7.35-18.13 17.43-18.13s16.31 7.56 16.31 16.59a21.85 21.85 0 01-.56 4.55zm0-7.21h15c-.14-3.57-3.15-6-7.21-6s-7.31 2.71-7.79 6zM440.65 420.18a9.4 9.4 0 018.26-4.48 17.93 17.93 0 012.73.21v10.15a11.8 11.8 0 00-5.11-1.05c-3.36 0-5.67 2.31-5.88 6v20.24h-9.52V416.4h9.52zM460.66 417.38a5.78 5.78 0 015.95 5.95 5.7 5.7 0 01-5.95 5.81 5.63 5.63 0 01-5.81-5.81 5.7 5.7 0 015.81-5.95zm0 22.82a5.89 5.89 0 110 11.77 5.89 5.89 0 010-11.77zM498.53 420.81a10.39 10.39 0 019.17-5.11c7.49 0 12.32 5.6 12.32 13.09v22.48h-9.59v-19.82c0-3.85-2.31-6.44-5.88-6.44s-5.81 2.31-6 6v20.24H489V403h9.52zM531.38 400.58a5.5 5.5 0 015.6 5.67 5.6 5.6 0 01-11.2 0 5.54 5.54 0 015.6-5.67zm4.76 50.69h-9.52V416.4h9.52zM550.41 436.84c.84 4 4.34 6.58 9.24 6.58a22.4 22.4 0 0011.83-3.29v9.18a28 28 0 01-12.6 2.73c-10.36 0-18-7.36-18-18.21 0-10.22 7.35-18.13 17.43-18.13s16.31 7.56 16.31 16.59a21.88 21.88 0 01-.55 4.55zm0-7.21h15.05c-.14-3.57-3.15-6-7.21-6s-7.35 2.71-7.84 6zM589.07 420.18a9.4 9.4 0 018.26-4.48 17.93 17.93 0 012.73.21v10.15A11.8 11.8 0 00595 425c-3.36 0-5.67 2.31-5.88 6v20.24h-9.52V416.4h9.52zM604.07 417.73a28.3 28.3 0 0110.08-2c9.38 0 14.84 4.48 14.84 14.63v20.94h-9.52v-2.59a10 10 0 01-7.77 3.29c-7.77 0-11.48-5.46-11.48-11.35 0-6.23 4.55-11.2 11.62-11.2a12.45 12.45 0 017.63 2.52v-1.89c0-4.2-2.8-5.95-6.44-5.95a18.25 18.25 0 00-9 2.59zM614.5 445a4.37 4.37 0 100-8.69c-2.73 0-4.9 1.89-4.9 4.34s2.17 4.35 4.9 4.35zM645.2 420.18a9.4 9.4 0 018.26-4.48 17.93 17.93 0 012.73.21v10.15a11.8 11.8 0 00-5.11-1.05c-3.36 0-5.67 2.31-5.88 6v20.24h-9.52V416.4h9.52zM684.1 450.36a18.77 18.77 0 01-7.7 1.68c-11.06 0-18.41-8-18.41-18.21s7.35-18.13 18.41-18.13a20.2 20.2 0 017.7 1.61v10.08a13.56 13.56 0 00-7.7-2.38 8.86 8.86 0 000 17.71 13.09 13.09 0 007.7-2.45zM699.81 420.81a10.39 10.39 0 019.19-5.11c7.49 0 12.32 5.6 12.32 13.09v22.48h-9.59v-19.82c0-3.85-2.31-6.44-5.88-6.44s-5.81 2.31-6 6v20.24h-9.52V403h9.52zM735.53 448.61l-12.81-32.21h10.71l7.35 20.16 7.77-20.16h10.78l-20.72 49.22h-11.06zM756.47 459.32l2-19.47h10.57l-3.78 19.47zM197.27 494.73a28.41 28.41 0 0110.09-2c9.38 0 14.84 4.48 14.84 14.63v20.94h-9.52v-2.59a10 10 0 01-7.77 3.36c-7.78 0-11.49-5.46-11.49-11.35 0-6.23 4.56-11.2 11.63-11.2a12.45 12.45 0 017.63 2.52v-1.89c0-4.2-2.8-5.95-6.44-5.95a18.32 18.32 0 00-9 2.59zM207.71 522a4.37 4.37 0 100-8.69c-2.73 0-4.9 1.89-4.9 4.34s2.19 4.35 4.9 4.35zM238.41 497.81a10.31 10.31 0 019.17-5.11c7.49 0 12.32 5.6 12.32 13.09v22.48h-9.59v-19.82c0-3.85-2.31-6.44-5.95-6.44s-5.74 2.31-6 6v20.24h-9.52V493.4h9.52zM268.22 494.73a28.3 28.3 0 0110.08-2c9.38 0 14.84 4.48 14.84 14.63v20.94h-9.52v-2.59a10 10 0 01-7.77 3.36c-7.77 0-11.48-5.46-11.48-11.35 0-6.23 4.55-11.2 11.62-11.2a12.45 12.45 0 017.63 2.52v-1.89c0-4.2-2.8-5.95-6.44-5.95a18.25 18.25 0 00-9 2.59zM278.65 522a4.37 4.37 0 100-8.69c-2.73 0-4.9 1.89-4.9 4.34s2.17 4.35 4.9 4.35zM309.35 497.18a9.4 9.4 0 018.26-4.48 17.93 17.93 0 012.73.21v10.15a11.8 11.8 0 00-5.11-1.05c-3.36 0-5.67 2.31-5.88 6v20.24h-9.52V493.4h9.52zM348.26 527.36a18.77 18.77 0 01-7.7 1.68c-11.06 0-18.41-8-18.41-18.21s7.35-18.13 18.41-18.13a20.2 20.2 0 017.7 1.61v10.08a13.59 13.59 0 00-7.7-2.38 8.86 8.86 0 000 17.71 13.09 13.09 0 007.7-2.45zM364 497.81a10.39 10.39 0 019.17-5.11c7.5 0 12.33 5.6 12.33 13.09v22.48h-9.59v-19.82c0-3.85-2.31-6.44-5.89-6.44s-5.81 2.31-6 6v20.24h-9.52V480h9.5zM399.68 525.61l-12.81-32.21h10.71l7.35 20.16 7.78-20.16h10.78l-20.73 49.22H391.7zM427.4 515.94a6.41 6.41 0 016.58 6.59 6.33 6.33 0 01-6.58 6.47 6.25 6.25 0 01-6.44-6.44 6.34 6.34 0 016.44-6.62z"/><g><path class="cls-217" d="M192.68 579.49h9.09l-.27 1-1.32 1.14c.87 2.36 2.37 6 9.33 23h.14c1.32-2.69 2.68-5.51 5.14-10.92-1.78-4.33-3.73-8.7-5.05-11.42a6.58 6.58 0 00-3.51-1.78l.41-1h7.1l.09.19.18 2c.41 1.23.82 2.23 3.23 7.69h.1c1.82-4 2.45-5.23 3.32-7.64l.09-2.09.09-.19h6.46l-.36 1c-2.23.73-3.23 1.23-4.14 2.18-.6 1-1.82 3-4.65 8.83.41 1.05 2.19 5.19 5.51 12.88h.09c2-5.23 5.23-14 8.19-22.57l-1.5-1.32.41-1H238.49l-.22 1a9.53 9.53 0 00-4 2c-1.23 2.23-6.05 14.83-10 25a12.34 12.34 0 01-2 2.86h-.36c-.86-1.77-3.5-8.28-6.19-14.37-2.78 5.73-4.33 8.91-5.64 11.69a15.86 15.86 0 01-2.1 2.68h-.32c-1.32-3-9.28-22.61-11.78-27.93-.68-.78-1.46-1.19-3.6-1.87zM239.94 598.88a3.66 3.66 0 000 .68c-.05 5.1 3.18 8.15 7.23 8.15a3.8 3.8 0 001.55-.28 41.78 41.78 0 013.78-2.43l.23.73a9.08 9.08 0 01-2.59 3.28 14.54 14.54 0 01-4.78 1.09c-5.6 0-9.65-3.91-9.65-10.19 0-6.46 4.73-11 9.88-11 4.14 0 7.69 2.78 7.69 7.87 0 .55-.14 1.28-.46 1.46a12.13 12.13 0 01-4.28.64zm9.06-1.73a3.64 3.64 0 00.23-1.37c0-2.73-1.37-5.28-4-5.28-3.77 0-5.23 4.69-5.28 6.65zM266.65 608.57l3-1.41c0-.59.14-3.82.14-9.19v-6.33l-3.09-.64.72-1.51h2.33c0-3.68.81-7 3.14-9.51a8.2 8.2 0 016.18-2.82 4.94 4.94 0 013.28 1 19.62 19.62 0 01-1.55 4.1l-.63.32a16.35 16.35 0 01-1.78-3.64 2 2 0 00-.55-.05c-2.22 0-3.77 2.41-4 6.87-.09 1.41-.14 2.73-.14 3.73h5.83l-.78 1.55-5.05.55c0 .91-.13 3-.13 6 0 7 0 8.88.13 9.51l4.28 1.37-.32 1H266.38zM281.12 590.87l.4-1a31 31 0 016.24-.68c-.23 2-.37 5.64-.37 13.33a5.14 5.14 0 00.87 3.32 4.23 4.23 0 003.28 1.32 6.09 6.09 0 005-2.63v-11.89c-.32-.77-1-1-3.1-1.82l.41-1a32.57 32.57 0 016.64-.64c-.13 2.09-.13 5-.13 16.79a5.72 5.72 0 003.59 2.6l-.32.77a5.56 5.56 0 01-2.63.66 4.07 4.07 0 01-4.37-3.41h-.09c-1.73 1.86-3.82 3.5-6.6 3.5a6.61 6.61 0 01-4.59-1.68c-1.23-1.19-1.78-3-1.78-5.64 0-3 .09-7.56.09-10.74zM309.18 592.6l-2.42-1.05.32-.91a22.64 22.64 0 015.92-1.73l-.23 3.6h.09c3.46-2.86 5.33-3.64 7.15-3.64 4.73 0 6.14 3.87 6.14 7.28v10.29a.81.81 0 00.64.86l2.68 1.14-.32 1h-9.1l.31-1.14 1.82-1.32c.09-1.37.19-4.6.19-10.51 0-3.46-2-4.92-4.28-4.92a7.9 7.9 0 00-5.05 2.51c0 3.45 0 12.14.09 13.1l2.55 1.18-.28 1.1h-9.14l.32-1 2.5-1.28c.09-.72.14-4.86.14-10.6zM349.33 606.16a8.06 8.06 0 003.45 2.68l-.32.78a3.81 3.81 0 01-2.13.45c-1.51 0-3.73-.68-4.55-2.59-.82.59-3.46 2.59-5.51 2.59a9.72 9.72 0 01-9.6-10.06 11.1 11.1 0 0111.06-11.1 8.27 8.27 0 013.73 1.37h.09c0-3.28 0-6.15-.13-9.6l-2.87-1.19.36-.86a36 36 0 016.6-1.46c-.09 4.74-.13 9.24-.13 14.2zM345.5 592a6.86 6.86 0 00-3.36-1c-4.33 0-7.38 3.87-7.38 8.28s3 8 7.06 8a6.31 6.31 0 003.68-1.28zM354.05 614c1.73-1.59 3.1-3.64 3.1-5.59a3 3 0 00-.51-1.64l-1.86-1v-.68l3.59-2.14h.63c.55.18 1.64 1.5 1.68 3.86.05 3.05-2 6.1-5.77 8.33zM377.26 592.14c0-4.18-.05-8-.19-11.46l-2.64-1.14.41-.91a29 29 0 016.33-1.46c-.09 4.87-.14 9.56-.14 13.88 1.28-.68 3.87-2.14 5.33-2.14a9.58 9.58 0 019.64 9.92c0 8.15-6.78 11.24-11.05 11.24a13.05 13.05 0 01-4.46-1.45 13 13 0 01-3.23 1.41zm3.74 15.11a10.37 10.37 0 003.19.68c4.64 0 7.6-3.68 7.6-8.51 0-4.32-2.73-8-7.15-8a8 8 0 00-3.64 1zM397.88 590.87l.41-1a30.94 30.94 0 016.23-.68c-.22 2-.36 5.64-.36 13.33a5.22 5.22 0 00.86 3.32 4.23 4.23 0 003.28 1.32 6.08 6.08 0 005-2.63v-11.89c-.32-.77-1-1-3.09-1.82l.41-1a32.51 32.51 0 016.64-.64c-.14 2.09-.14 5-.14 16.79a5.74 5.74 0 003.6 2.6l-.32.77a5.64 5.64 0 01-2.6.59 4.06 4.06 0 01-4.36-3.41h-.09c-1.73 1.86-3.83 3.5-6.6 3.5a6.62 6.62 0 01-4.6-1.68c-1.23-1.19-1.77-3-1.77-5.64 0-3 .09-7.56.09-10.74zM423.72 590.23a34.58 34.58 0 016-1.32v9.19c0 5.1 0 7.74.09 9l3.23 1.37-.32 1h-9.83l.32-1 2.59-1.37c0-1.54.09-5.46.09-9.1v-5.73l-2.45-1.18zm4.28-10.74a6.07 6.07 0 012.28 2.55l-.09.37a7.87 7.87 0 01-2.42 2.59l-.31.09a7 7 0 01-2.28-2.59l.09-.32a8.68 8.68 0 012.46-2.64zM445.49 608.43l-.41 1.1H435.11l.27-1 2.83-1.32c0-1.86.13-4.68.13-15.78 0-4.1 0-8.6-.18-10.88l-2.59-1 .45-1a43.09 43.09 0 016.28-1.32c-.09 4.69-.14 9.15-.14 14.06 0 9.15 0 12.61.1 16zM465.45 606.16a8.13 8.13 0 003.46 2.68l-.32.78a3.83 3.83 0 01-2.14.45c-1.5 0-3.73-.68-4.55-2.59-.82.59-3.46 2.59-5.51 2.59a9.71 9.71 0 01-9.6-10.06 11.09 11.09 0 0111.06-11.1 8.27 8.27 0 013.73 1.37h.09c0-3.28-.05-6.15-.14-9.6l-2.86-1.19.36-.86a36 36 0 016.6-1.46c-.09 4.74-.14 9.24-.14 14.2zM461.63 592a6.87 6.87 0 00-3.37-1c-4.32 0-7.37 3.87-7.37 8.28s3 8 7.05 8a6.35 6.35 0 003.69-1.32zM493.25 596.78c0-4.73-2.09-5.68-4.46-5.68a5.71 5.71 0 00-2.77.82c-.14 1.32-.32 3.36-.6 4.59l-.5.23a11.94 11.94 0 01-2.91-3.91 23.57 23.57 0 015.55-3.14 9.59 9.59 0 013.19-.78c4.68 0 6.28 4.1 6.28 7 0 3.1-.09 7.06-.09 10.15a6.43 6.43 0 003.55 2.64l-.37.73a4.23 4.23 0 01-2.23.59c-3.05 0-4.09-1.41-4.55-2.59a8.64 8.64 0 01-5.56 2.68 5.43 5.43 0 01-5.73-5.32c0-1.91.78-3.19 1.82-3.69a40.58 40.58 0 019.42-3.27zm-3.59 10.7a4.55 4.55 0 003.09-1.37 1.62 1.62 0 00.41-1.09l.09-5.78a34 34 0 00-5.69 2.14 2.53 2.53 0 00-1.59 2.5 3.5 3.5 0 003.69 3.6zM505.68 592.6l-2.41-1.05.32-.91a22.64 22.64 0 015.92-1.73l-.23 3.6h.09c3.46-2.86 5.32-3.64 7.14-3.64 4.74 0 6.15 3.87 6.15 7.28v10.29a.8.8 0 00.63.86l2.69 1.14-.32 1h-9.1l.32-1.14 1.82-1.32c.09-1.37.18-4.6.18-10.51 0-3.46-2-4.92-4.27-4.92a7.9 7.9 0 00-5 2.51c0 3.45 0 12.14.09 13.1l2.55 1.18-.28 1.1h-9.14l.32-1 2.5-1.28c.09-.72.13-4.86.13-10.6zM545.83 606.16a8.13 8.13 0 003.46 2.68l-.32.78a3.83 3.83 0 01-2.14.45c-1.5 0-3.73-.68-4.54-2.59-.82.59-3.46 2.59-5.51 2.59a9.72 9.72 0 01-9.6-10.06 11.1 11.1 0 0111.06-11.1 8.27 8.27 0 013.73 1.37h.03c0-3.28 0-6.15-.13-9.6l-2.87-1.19.36-.86a36 36 0 016.6-1.46c-.09 4.74-.14 9.24-.14 14.2zM542 592a6.87 6.87 0 00-3.37-1c-4.32 0-7.37 3.87-7.37 8.28s3 8 7.06 8A6.31 6.31 0 00542 606zM573.63 596.78c0-4.73-2.09-5.68-4.46-5.68a5.71 5.71 0 00-2.77.82c-.14 1.32-.32 3.36-.59 4.59l-.5.23a11.81 11.81 0 01-2.92-3.91 23.57 23.57 0 015.55-3.14 9.65 9.65 0 013.19-.78c4.69 0 6.28 4.1 6.28 7 0 3.1-.09 7.06-.09 10.15a6.43 6.43 0 003.55 2.64l-.37.73a4.2 4.2 0 01-2.23.59c-3 0-4.09-1.41-4.55-2.59a8.62 8.62 0 01-5.55 2.68 5.44 5.44 0 01-5.74-5.32c0-1.91.78-3.19 1.82-3.69a40.58 40.58 0 019.42-3.27zm-3.63 10.7a4.53 4.53 0 003.09-1.37 1.62 1.62 0 00.41-1.09l.09-5.78a34.34 34.34 0 00-5.69 2.14 2.54 2.54 0 00-1.59 2.5 3.5 3.5 0 003.69 3.6zM593.48 588.91c2.64 0 5.1 1 5.78 1.73a21.72 21.72 0 01-1.64 4.78l-.68.32a29.13 29.13 0 01-1.5-4.87 3.88 3.88 0 00-1.73-.32c-5.05 0-7.69 4.19-7.69 8.65 0 5 3.18 8.64 8.1 8.64a4.3 4.3 0 001.27-.36 20.9 20.9 0 013.78-2.6l.32.6a10.29 10.29 0 01-2.92 3.86 15.26 15.26 0 01-4.27.73c-4.28 0-10.51-2.55-10.51-10.33 0-7.46 6.32-10.83 11.69-10.83zM613.37 588.91c2.64 0 5.09 1 5.78 1.73a21.72 21.72 0 01-1.64 4.78l-.68.32a28.93 28.93 0 01-1.51-4.87 3.85 3.85 0 00-1.73-.32c-5.05 0-7.69 4.19-7.69 8.65 0 5 3.19 8.64 8.1 8.64a4.28 4.28 0 001.28-.36 21.28 21.28 0 013.77-2.6l.32.6a10.27 10.27 0 01-2.91 3.86 15.27 15.27 0 01-4.28.73c-4.27 0-10.51-2.55-10.51-10.33 0-7.46 6.33-10.83 11.7-10.83zM625.84 598.88a2.94 2.94 0 00-.05.68c0 5.1 3.19 8.15 7.24 8.15a3.78 3.78 0 001.54-.28 40.42 40.42 0 013.83-2.43l.22.73A9.08 9.08 0 01636 609a14.54 14.54 0 01-4.78 1.09c-5.59 0-9.64-3.91-9.64-10.19 0-6.46 4.73-11 9.87-11 4.14 0 7.69 2.78 7.69 7.87 0 .55-.14 1.28-.46 1.46a12.06 12.06 0 01-4.27.64zm9-1.73a3.64 3.64 0 00.23-1.37c0-2.73-1.37-5.28-4-5.28-3.78 0-5.24 4.69-5.28 6.65zM650.83 608.43l-.41 1.1h-9.96l.27-1 2.82-1.32c.05-1.86.14-4.68.14-15.78 0-4.1 0-8.6-.19-10.88l-2.59-1 .46-1a42.81 42.81 0 016.28-1.32c-.1 4.69-.14 9.15-.14 14.06 0 9.15 0 12.61.09 16zM656.33 598.88a2.94 2.94 0 00-.05.68c0 5.1 3.19 8.15 7.24 8.15a3.78 3.78 0 001.54-.28 40.42 40.42 0 013.83-2.46l.22.73a9.08 9.08 0 01-2.59 3.28 14.54 14.54 0 01-4.78 1.09c-5.59 0-9.64-3.91-9.64-10.19 0-6.46 4.73-11 9.87-11 4.14 0 7.69 2.78 7.69 7.87 0 .55-.14 1.28-.46 1.46a12.06 12.06 0 01-4.27.64zm9-1.73a3.64 3.64 0 00.23-1.37c0-2.73-1.37-5.28-4-5.28-3.78 0-5.24 4.69-5.28 6.65zM672.43 590.46a23.58 23.58 0 015.28-1.55 22 22 0 01.45 4.46h.09c1.87-3.23 4.51-4.46 6.33-4.46a3.16 3.16 0 012.23.78 21.36 21.36 0 01-1.5 5l-.6.31a20.79 20.79 0 01-1.63-3 1.9 1.9 0 00-.69-.14c-1.36 0-3.23 1.73-4.14 3.91v11.43l4.64 1.32-.27 1H671.43l.23-1 2.59-1.36c.18-4.78.18-12.24.18-14.47l-2.36-1.32zM700.22 596.78c-.05-4.73-2.1-5.68-4.46-5.68a5.78 5.78 0 00-2.78.82c-.13 1.32-.32 3.36-.59 4.59l-.5.23a11.67 11.67 0 01-2.91-3.91 23.17 23.17 0 015.55-3.14 9.54 9.54 0 013.18-.78c4.69 0 6.28 4.1 6.28 7 0 3.1-.09 7.06-.09 10.15a6.46 6.46 0 003.55 2.64l-.36.73a4.26 4.26 0 01-2.23.59c-3.05 0-4.1-1.41-4.55-2.59a8.6 8.6 0 01-5.55 2.68 5.43 5.43 0 01-5.73-5.32c0-1.91.77-3.19 1.82-3.69a40.58 40.58 0 019.42-3.27zm-3.6 10.7a4.55 4.55 0 003.1-1.37 1.62 1.62 0 00.41-1.09l.09-5.78a33.67 33.67 0 00-5.69 2.14 2.53 2.53 0 00-1.59 2.5 3.5 3.5 0 003.68 3.6zM721.19 589.5l-.87 1.64-6.14.55v12.78a2.86 2.86 0 00.78 2.14 3.28 3.28 0 002.27.69 6.27 6.27 0 003.64-1h.23v1.42a6.58 6.58 0 01-5.27 2.36 5.69 5.69 0 01-4.37-1.91c-.78-1-1.05-2-1.05-4.87v-11.6l-3-.59.78-1.6h2.32a46.09 46.09 0 011.23-5.23 4.91 4.91 0 012.77-1.36l-.18 6.59zM727 598.88a2.94 2.94 0 00-.05.68c0 5.1 3.19 8.15 7.24 8.15a3.78 3.78 0 001.54-.28 41.78 41.78 0 013.82-2.46l.23.73a9.08 9.08 0 01-2.59 3.28 14.54 14.54 0 01-4.78 1.09c-5.6 0-9.65-3.91-9.65-10.19 0-6.46 4.74-11 9.88-11 4.14 0 7.69 2.78 7.69 7.87 0 .55-.14 1.28-.46 1.46a12.1 12.1 0 01-4.27.64zm9-1.73a3.64 3.64 0 00.23-1.37c0-2.73-1.37-5.28-4-5.28-3.77 0-5.23 4.69-5.27 6.65zM764.81 590a12.77 12.77 0 012.37-1.18l.36.37a26.39 26.39 0 01-1.14 5.46l-.59.31a32.22 32.22 0 01-1.59-3.54 4.44 4.44 0 00-2.68-.73 3.15 3.15 0 00-3.46 3.14 2.58 2.58 0 001.64 2.45c1.41.78 3.91 1.82 5.46 2.6 2.5 1.23 3.41 2.91 3.41 4.82 0 5-5.14 6.37-8 6.37a12.73 12.73 0 01-6.6-2 32.83 32.83 0 011.09-5l.64-.36c.64 1.18 1.64 4 2.14 5.19a8.94 8.94 0 002.77.45c2.37 0 4.24-1.45 4.24-3.32a2.76 2.76 0 00-1.82-2.73c-1.23-.68-2.73-1.36-4.42-2.14-2.5-1.13-4-2.86-4-5.41 0-2.87 2.23-5.92 6.73-5.92a6.48 6.48 0 013.45 1.17zM791.79 599.29c0 6.5-4.46 10.78-10.24 10.78a10 10 0 01-10.28-10.28 10.67 10.67 0 0110.37-10.88 10 10 0 0110.15 10.38zm-16.06.09c0 4.28 2.09 9.1 6.18 9.1s5.42-4.87 5.42-8.74c0-4.28-1.91-9.24-5.83-9.24s-5.77 4.5-5.77 8.88zM793.67 590.87l.41-1a30.86 30.86 0 016.23-.68c-.23 2-.36 5.64-.36 13.33a5.22 5.22 0 00.86 3.32 4.23 4.23 0 003.28 1.32 6.09 6.09 0 005-2.63v-11.89c-.32-.77-1-1-3.1-1.82l.41-1a32.57 32.57 0 016.64-.64c-.13 2.09-.13 5-.13 16.79a5.72 5.72 0 003.59 2.6l-.32.77a5.56 5.56 0 01-2.59.59 4.07 4.07 0 01-4.37-3.41h-.09c-1.73 1.86-3.82 3.5-6.6 3.5a6.61 6.61 0 01-4.59-1.68c-1.23-1.19-1.78-3-1.78-5.64 0-3 .09-7.56.09-10.74zM821.73 592.6l-2.41-1.05.31-.91a22.64 22.64 0 015.92-1.73l-.23 3.6h.09c3.46-2.86 5.33-3.64 7.15-3.64 4.73 0 6.14 3.87 6.14 7.28v10.29a.81.81 0 00.64.86l2.68 1.14-.32 1h-9.14l.31-1.14 1.82-1.32c.1-1.37.19-4.6.19-10.51 0-3.46-2-4.92-4.28-4.92a7.9 7.9 0 00-5.05 2.51c0 3.45 0 12.14.09 13.1l2.55 1.18-.27 1.1h-9.15l.32-1 2.5-1.28c.09-.72.14-4.86.14-10.6zM861.88 606.16a8.06 8.06 0 003.45 2.68l-.32.78a3.81 3.81 0 01-2.13.45c-1.51 0-3.74-.68-4.55-2.59h-.05c-.82.59-3.46 2.59-5.51 2.59a9.72 9.72 0 01-9.6-10.06 11.1 11.1 0 0111.06-11.1 8.27 8.27 0 013.73 1.37h.09c0-3.28 0-6.15-.13-9.6l-2.87-1.19.36-.86a36 36 0 016.6-1.46c-.09 4.74-.13 9.24-.13 14.2zM858.05 592a6.86 6.86 0 00-3.36-1c-4.33 0-7.38 3.87-7.38 8.28s3 8 7.06 8a6.31 6.31 0 003.68-1.32zM195.32 648.14c0-4.18 0-8-.18-11.46l-2.64-1.14.41-.91a28.72 28.72 0 016.32-1.46c-.09 4.87-.14 9.56-.14 13.88 1.28-.68 3.87-2.14 5.33-2.14a9.58 9.58 0 019.64 9.92c0 8.15-6.77 11.24-11.05 11.24a13.05 13.05 0 01-4.46-1.45 12.82 12.82 0 01-3.23 1.41zm3.77 15.11a10.44 10.44 0 003.19.68c4.64 0 7.6-3.68 7.6-8.51 0-4.32-2.73-8-7.15-8a8 8 0 00-3.64 1zM215.94 646.87l.41-1a31 31 0 016.24-.68c-.23 2-.37 5.64-.37 13.33a5.14 5.14 0 00.87 3.32 4.21 4.21 0 003.27 1.32 6.07 6.07 0 005-2.63v-11.89c-.32-.77-.95-1-3.09-1.82l.41-1a32.57 32.57 0 016.64-.64c-.14 2.09-.14 5-.14 16.79a5.74 5.74 0 003.6 2.6l-.32.77a5.6 5.6 0 01-2.59.59 4.06 4.06 0 01-4.37-3.41h-.09c-1.73 1.86-3.82 3.5-6.6 3.5a6.65 6.65 0 01-4.6-1.68c-1.22-1.19-1.77-3-1.77-5.64 0-3 .09-7.56.09-10.74zM252 646a12.77 12.77 0 012.37-1.18l.36.37a26.39 26.39 0 01-1.14 5.46l-.59.35a32.22 32.22 0 01-1.59-3.54 4.46 4.46 0 00-2.69-.73 3.15 3.15 0 00-3.45 3.14 2.59 2.59 0 001.63 2.45c1.41.78 3.92 1.82 5.46 2.6 2.51 1.23 3.42 2.91 3.42 4.82 0 5-5.14 6.37-8 6.37a12.73 12.73 0 01-6.6-2 32.83 32.83 0 011.09-5l.64-.36c.64 1.18 1.64 4 2.14 5.19a8.94 8.94 0 002.77.45c2.37 0 4.24-1.45 4.24-3.32a2.76 2.76 0 00-1.82-2.73c-1.23-.68-2.73-1.36-4.42-2.14-2.5-1.13-4-2.86-4-5.41 0-2.87 2.23-5.92 6.73-5.92A6.5 6.5 0 01252 646zM258.42 646.23a34.58 34.58 0 016.05-1.32v9.19c0 5.1 0 7.74.09 9l3.23 1.37-.32 1h-9.83l.32-1 2.59-1.37c.05-1.54.1-5.46.1-9.1v-5.73l-2.46-1.18zm4.27-10.74A6.07 6.07 0 01265 638l-.09.37a8 8 0 01-2.41 2.59l-.32.09a7 7 0 01-2.28-2.59l.09-.32a8.68 8.68 0 012.46-2.64zM273.05 648.6l-2.41-1.05.32-.91a22.45 22.45 0 015.91-1.73l-.23 3.6h.09c3.46-2.86 5.33-3.64 7.15-3.64 4.73 0 6.14 3.87 6.14 7.28v10.29a.81.81 0 00.64.86l2.68 1.14-.32 1h-9.14l.32-1.14 1.82-1.32c.09-1.37.18-4.6.18-10.51 0-3.46-2-4.92-4.28-4.92a7.9 7.9 0 00-5.05 2.51c0 3.45 0 12.14.09 13.1l2.55 1.18-.27 1.1h-9.15l.32-1 2.5-1.28c.09-.72.14-4.86.14-10.6zM298.73 654.88a2.94 2.94 0 00-.05.68c0 5.1 3.19 8.15 7.24 8.15a3.75 3.75 0 001.54-.28 41.74 41.74 0 013.83-2.46l.22.73a9.08 9.08 0 01-2.59 3.28 14.48 14.48 0 01-4.78 1.09c-5.59 0-9.64-3.91-9.64-10.19 0-6.46 4.73-11 9.87-11 4.14 0 7.69 2.78 7.69 7.87 0 .55-.14 1.28-.46 1.46a12.06 12.06 0 01-4.27.64zm9-1.73a3.64 3.64 0 00.23-1.37c0-2.73-1.36-5.28-4-5.28-3.78 0-5.24 4.69-5.28 6.65zM325.4 646a12.77 12.77 0 012.37-1.18l.36.37a27.06 27.06 0 01-1.14 5.46l-.59.31a32.22 32.22 0 01-1.59-3.54 4.46 4.46 0 00-2.69-.73 3.15 3.15 0 00-3.45 3.14 2.59 2.59 0 001.63 2.45c1.41.78 3.92 1.82 5.46 2.6 2.51 1.23 3.42 2.91 3.42 4.82 0 5-5.14 6.37-8 6.37a12.73 12.73 0 01-6.6-2 32.83 32.83 0 011.09-5l.64-.36c.64 1.18 1.64 4 2.14 5.19a8.94 8.94 0 002.77.45c2.37 0 4.24-1.45 4.24-3.32a2.76 2.76 0 00-1.82-2.73c-1.23-.68-2.73-1.36-4.42-2.14-2.5-1.13-4-2.86-4-5.41 0-2.87 2.23-5.92 6.73-5.92a6.5 6.5 0 013.45 1.17zM342.65 646a13.09 13.09 0 012.37-1.18l.36.37a26.33 26.33 0 01-1.13 5.46l-.6.31a34.22 34.22 0 01-1.59-3.54 4.44 4.44 0 00-2.68-.73 3.15 3.15 0 00-3.46 3.14 2.58 2.58 0 001.64 2.45c1.41.78 3.91 1.82 5.46 2.6 2.5 1.23 3.41 2.91 3.41 4.82 0 5-5.14 6.37-8 6.37a12.76 12.76 0 01-6.6-2 31.64 31.64 0 011.1-5l.63-.36c.64 1.18 1.64 4 2.14 5.19a9 9 0 002.78.45c2.36 0 4.23-1.45 4.23-3.32a2.76 2.76 0 00-1.82-2.73c-1.23-.68-2.73-1.36-4.41-2.14-2.51-1.13-4-2.86-4-5.41 0-2.87 2.23-5.92 6.74-5.92a6.47 6.47 0 013.43 1.17zM353.34 654.88a2.94 2.94 0 000 .68c0 5.1 3.19 8.15 7.24 8.15a3.8 3.8 0 001.55-.28 40.45 40.45 0 013.77-2.43l.23.73a9.21 9.21 0 01-2.6 3.28 14.48 14.48 0 01-4.78 1.09c-5.59 0-9.64-3.91-9.64-10.19 0-6.46 4.73-11 9.87-11 4.14 0 7.69 2.78 7.69 7.87 0 .55-.13 1.28-.45 1.46a12.18 12.18 0 01-4.28.64zm9.06-1.73a3.88 3.88 0 00.22-1.37c0-2.73-1.36-5.28-4-5.28-3.78 0-5.23 4.69-5.28 6.65zM380 646a12.77 12.77 0 012.37-1.18l.36.37a25.75 25.75 0 01-1.14 5.46l-.59.35a34.22 34.22 0 01-1.59-3.54 4.44 4.44 0 00-2.68-.73 3.15 3.15 0 00-3.46 3.14 2.58 2.58 0 001.64 2.45c1.41.78 3.91 1.82 5.46 2.6 2.5 1.23 3.41 2.91 3.41 4.82 0 5-5.14 6.37-8 6.37a12.73 12.73 0 01-6.6-2 32.83 32.83 0 011.09-5l.64-.36c.64 1.18 1.64 4 2.14 5.19a9 9 0 002.78.45c2.36 0 4.23-1.45 4.23-3.32a2.76 2.76 0 00-1.82-2.73c-1.23-.68-2.73-1.36-4.42-2.14-2.5-1.13-4-2.86-4-5.41 0-2.87 2.23-5.92 6.73-5.92A6.48 6.48 0 01380 646zM410.63 645.5l-.86 1.64-6.14.55c0 2.18-.05 7.32-.05 12.78a2.86 2.86 0 00.77 2.14 3.33 3.33 0 002.28.69 6.3 6.3 0 003.64-1h.23l-.05 1.42a6.61 6.61 0 01-5.28 2.36 5.73 5.73 0 01-4.37-1.91c-.77-1-1-2-1-4.87v-11.6l-3.05-.59.77-1.6h2.32a48.35 48.35 0 011.23-5.23 5 5 0 012.78-1.36l-.18 6.59zM432.37 662.16c0 .82.18 1 .86 1.27l2.46 1.19-.36 1a53.71 53.71 0 01-7.24-.37 96.21 96.21 0 00.46-11.56c0-5.23-2.73-6.14-4.92-6.14a7 7 0 00-4.46 1.64c0 4.5 0 13.15.09 14l3.32 1.36-.36 1H412.44l.32-1 2.45-1.36c.09-.64.14-4.6.14-10.56 0-5.78 0-11-.18-15.88l-2.6-1.23.28-.86a53.94 53.94 0 016.46-1.46c-.09 4.37-.14 9.51-.14 14.43h.05c2.91-2.27 4.73-2.73 6.37-2.73a6.71 6.71 0 016.78 6.92zM448.88 652.78c-.05-4.73-2.09-5.68-4.46-5.68a5.78 5.78 0 00-2.78.82 44.57 44.57 0 01-.59 4.59l-.5.23a11.94 11.94 0 01-2.91-3.91 23.57 23.57 0 015.55-3.14 9.59 9.59 0 013.19-.78c4.68 0 6.28 4.1 6.28 7 0 3.1-.1 7.06-.1 10.15a6.5 6.5 0 003.55 2.64l-.36.73a4.23 4.23 0 01-2.23.59c-3 0-4.09-1.41-4.55-2.59h-.05a8.6 8.6 0 01-5.55 2.68 5.43 5.43 0 01-5.73-5.32c0-1.91.77-3.19 1.82-3.69a40.58 40.58 0 019.42-3.27zm-3.6 10.7a4.55 4.55 0 003.1-1.37 1.62 1.62 0 00.41-1.09l.09-5.78a34 34 0 00-5.69 2.14 2.53 2.53 0 00-1.59 2.5 3.5 3.5 0 003.68 3.6zM469.85 645.5l-.86 1.64-6.15.55v12.78a2.86 2.86 0 00.77 2.14 3.31 3.31 0 002.28.69 6.32 6.32 0 003.64-1h.22v1.42a6.61 6.61 0 01-5.28 2.36 5.71 5.71 0 01-4.37-1.91c-.77-1-1-2-1-4.87v-11.6l-3.05-.59.77-1.6H459a48.35 48.35 0 011.23-5.23 5 5 0 012.77-1.36l-.18 6.59zM493.92 652.78c-.05-4.73-2.1-5.68-4.46-5.68a5.78 5.78 0 00-2.78.82c-.13 1.32-.32 3.36-.59 4.59l-.5.23a11.67 11.67 0 01-2.91-3.91 23.17 23.17 0 015.55-3.14 9.53 9.53 0 013.19-.78c4.68 0 6.27 4.1 6.27 7 0 3.1-.09 7.06-.09 10.15a6.46 6.46 0 003.55 2.64l-.36.73a4.26 4.26 0 01-2.23.59c-3.05 0-4.1-1.41-4.55-2.59H494a8.6 8.6 0 01-5.55 2.68 5.43 5.43 0 01-5.73-5.32c0-1.91.77-3.19 1.82-3.69a40.58 40.58 0 019.42-3.27zm-3.6 10.7a4.55 4.55 0 003.1-1.37 1.62 1.62 0 00.41-1.09l.09-5.78a33.67 33.67 0 00-5.69 2.14 2.53 2.53 0 00-1.59 2.5 3.5 3.5 0 003.68 3.6zM504.37 646.46a23.74 23.74 0 015.28-1.55 21.92 21.92 0 01.46 4.46h.09c1.86-3.23 4.5-4.46 6.32-4.46a3.16 3.16 0 012.23.78 20.44 20.44 0 01-1.5 5l-.59.31a19.66 19.66 0 01-1.64-3 1.84 1.84 0 00-.68-.14c-1.37 0-3.23 1.73-4.14 3.91v11.43l4.64 1.32-.27 1h-11.2l.23-1 2.59-1.36c.19-4.78.19-12.24.19-14.47l-2.38-1.32zM524.22 654.88a2.94 2.94 0 00-.05.68c0 5.1 3.19 8.15 7.24 8.15a3.78 3.78 0 001.54-.28 41.78 41.78 0 013.82-2.46l.23.73a9.08 9.08 0 01-2.59 3.28 14.54 14.54 0 01-4.78 1.09c-5.6 0-9.65-3.91-9.65-10.19 0-6.46 4.74-11 9.88-11 4.14 0 7.69 2.78 7.69 7.87 0 .55-.14 1.28-.46 1.46a12.1 12.1 0 01-4.27.64zm9-1.73a3.64 3.64 0 00.23-1.37c0-2.73-1.37-5.28-4-5.28-3.77 0-5.23 4.69-5.27 6.65zM564.35 645.5l-.87 1.64-6.14.55c0 2.18-.05 7.32-.05 12.78a2.86 2.86 0 00.78 2.14 3.28 3.28 0 002.27.69 6.27 6.27 0 003.64-1h.23l-.05 1.42a6.58 6.58 0 01-5.27 2.36 5.69 5.69 0 01-4.37-1.91c-.78-1-1-2-1-4.87v-11.6l-3.05-.59.78-1.6h2.32a46.09 46.09 0 011.23-5.23 4.91 4.91 0 012.77-1.36l-.18 6.59zM567.31 646.46a23.58 23.58 0 015.28-1.55 22 22 0 01.45 4.46h.1c1.86-3.23 4.5-4.46 6.32-4.46a3.16 3.16 0 012.23.78 21.36 21.36 0 01-1.5 5l-.59.31a19.66 19.66 0 01-1.64-3 1.89 1.89 0 00-.68-.14c-1.37 0-3.23 1.73-4.14 3.91v11.43l4.64 1.32-.28 1H566.31l.23-1 2.59-1.36c.18-4.78.18-12.24.18-14.47l-2.31-1.32zM597.9 645.46h6.96l-.27 1.09a8.35 8.35 0 00-2.83 1.87c-1.72 3.73-5.32 12.92-9.55 22.93-.41 1.73-.73 3.5-1.18 5a2.15 2.15 0 01-1 .18 4.76 4.76 0 01-3.28-1.5 38.93 38.93 0 014-4.91c.55-1.19 1.64-3.46 2.32-5-.45-.86-4.68-12.38-6.55-16.61-.59-.91-1.18-1.27-3.14-2l.41-1h8.55l-.27 1.09-1.45 1.14c.54 1.73 2 5.82 4.5 12.56h.09c1.78-4.64 3.73-10 4.51-12.47l-2.1-1.23zM606.93 646.23a35 35 0 016.05-1.32v9.19c0 5.1 0 7.74.1 9l3.23 1.37-.32 1h-9.83l.32-1 2.59-1.37c0-1.54.09-5.46.09-9.1v-5.73l-2.45-1.18zm4.28-10.74a6.07 6.07 0 012.28 2.55l-.1.37A7.74 7.74 0 01611 641l-.32.09a6.94 6.94 0 01-2.27-2.59l.09-.32a8.68 8.68 0 012.46-2.64zM621.57 648.6l-2.42-1.05.32-.91a22.64 22.64 0 015.92-1.73l-.23 3.6h.09c3.46-2.86 5.33-3.64 7.14-3.64 4.74 0 6.15 3.87 6.15 7.28v10.29a.8.8 0 00.63.86l2.69 1.14-.32 1H632.39l.32-1.14 1.82-1.32c.09-1.37.19-4.6.19-10.51 0-3.46-2-4.92-4.28-4.92a7.9 7.9 0 00-5.05 2.51c0 3.45 0 12.14.09 13.1l2.55 1.18-.28 1.1h-9.14l.32-1 2.5-1.28c.09-.72.14-4.86.14-10.6zM658.54 647.64v.09a6.46 6.46 0 011.59 4.42c0 4.27-3.55 7.1-8.05 7.1a8.88 8.88 0 01-3.78-.82 4.2 4.2 0 00-1.23 2 2.55 2.55 0 002.14 2 58.79 58.79 0 019.46 0 4.47 4.47 0 012.87 1.23 4.79 4.79 0 011.59 3.63c0 2.55-1.63 4.78-3.82 6.37a13.38 13.38 0 01-8.23 2.87c-4.51 0-7.88-2.23-7.88-5.32a2.16 2.16 0 01.69-1.41l3.73-4-.05-.09a7 7 0 01-2-1.45 5 5 0 01-1.55-3c0-.59 1.69-2.32 3.19-3.55a6.14 6.14 0 01-2.91-5.46c0-3.64 3-7.42 8.55-7.42a15.77 15.77 0 013.41.41c1.46.23 2.51.41 3.32.5l3.92-1.64.18.46-1.87 2.82zM649 666.39c-.78.68-2.19 2.59-2.19 3.59 0 3 3.14 4.24 5.92 4.24 3.78 0 7.1-1.69 7.1-5.19a2.84 2.84 0 00-2.37-2.87 25.58 25.58 0 00-4.59-.27c-2.47 0-3.29.23-3.87.5zm-.87-14.33c0 2.64 1.32 5.59 4.19 5.59 2.64 0 4.05-2.5 4.05-5.64 0-2.5-1.28-5.55-4.1-5.55s-4.15 2.82-4.15 5.6zM689.12 645.5l-.87 1.64-6.14.55v12.78a2.86 2.86 0 00.77 2.14 3.28 3.28 0 002.27.69 6.27 6.27 0 003.64-1h.23v1.42a6.61 6.61 0 01-5.28 2.36 5.69 5.69 0 01-4.37-1.91c-.77-1-1-2-1-4.87v-11.6l-3-.59.78-1.6h2.32a48.35 48.35 0 011.23-5.23 4.94 4.94 0 012.77-1.36l-.18 6.59zM711.06 655.29c0 6.5-4.46 10.78-10.24 10.78a10 10 0 01-10.28-10.28 10.67 10.67 0 0110.37-10.88 10 10 0 0110.15 10.38zm-16.06.09c0 4.28 2.09 9.1 6.18 9.1s5.42-4.87 5.42-8.74c0-4.28-1.91-9.24-5.83-9.24S695 651 695 655.38zM727.8 648.51l-2.41-1 .32-.91a22.42 22.42 0 016-1.73l-.28 3.69h.1c2.86-2.36 5-3.73 7.09-3.73a5.7 5.7 0 015.42 3.78c3.18-2.69 5.32-3.78 7.51-3.78 3.77 0 6.14 2.92 6.14 6.87v10.79c0 .41.36.63.86.91l2.46 1-.27 1h-9.33l.27-1 2-1.37c.1-1.63.23-4.73.19-9.82 0-2.6-.64-5.6-4.24-5.6-1.63 0-3.36.82-5.18 2.55a32.06 32.06 0 01.27 3.73v9.19l2.68 1.32-.32 1H738.39l.27-1.1 2.14-1.27c0-2.73.09-6.28.09-10.28 0-2.33-.63-5.19-4.32-5.19-1.5 0-3.37 1.18-4.82 2.5v13l2.73 1.27-.27 1.1H724.97l.28-1.1 2.5-1.27c0-.91.09-4.87.09-9.19zM774.26 652.78c0-4.73-2.1-5.68-4.46-5.68a5.78 5.78 0 00-2.78.82c-.14 1.32-.32 3.36-.59 4.59l-.5.23a11.67 11.67 0 01-2.91-3.91 23.17 23.17 0 015.55-3.14 9.54 9.54 0 013.18-.78c4.69 0 6.28 4.1 6.28 7 0 3.1-.09 7.06-.09 10.15a6.46 6.46 0 003.55 2.64l-.36.73a4.26 4.26 0 01-2.23.59c-3 0-4.1-1.41-4.55-2.59h-.05a8.6 8.6 0 01-5.55 2.68 5.43 5.43 0 01-5.73-5.32c0-1.91.77-3.19 1.82-3.69a40.58 40.58 0 019.42-3.27zm-3.6 10.7a4.55 4.55 0 003.1-1.37 1.62 1.62 0 00.41-1.09l.09-5.78a33.67 33.67 0 00-5.69 2.14 2.53 2.53 0 00-1.59 2.5 3.5 3.5 0 003.68 3.6zM793.84 664.48l-.27 1H783.56l.27-1 2.6-1.36c.09-1 .13-3.73.13-10.38 0-5.77 0-11.23-.13-16.1l-2.55-1.19.41-.91a57.22 57.22 0 016.23-1.41c-.14 4.83-.14 10.29-.14 15.75 0 4.5 0 13.19.1 14.24zm11.16 1.77c-2.51-.18-4.56-.68-6.24-2.27a72.68 72.68 0 01-7.46-9v-.22c2-2.19 4.6-5.24 6.28-7.51l.87-2.37a34.26 34.26 0 016.09.59l-.59 1c-.68.37-3.59 1.32-4.73 1.78a57.94 57.94 0 00-4.37 4.64v.13c2.64 3.6 8.15 10.15 10.42 12.83zM809.4 654.88a2.94 2.94 0 000 .68c0 5.1 3.19 8.15 7.24 8.15a3.8 3.8 0 001.55-.28A40.45 40.45 0 01822 661l.23.73a9.21 9.21 0 01-2.6 3.28 14.48 14.48 0 01-4.78 1.09c-5.59 0-9.64-3.91-9.64-10.19 0-6.46 4.73-11 9.87-11 4.14 0 7.69 2.78 7.69 7.87 0 .55-.14 1.28-.45 1.46a12.18 12.18 0 01-4.28.64zm9.05-1.73a3.64 3.64 0 00.23-1.37c0-2.73-1.36-5.28-4-5.28-3.78 0-5.23 4.69-5.28 6.65zM849.53 645.5l-.86 1.64-6.15.55v12.78a2.86 2.86 0 00.77 2.14 3.31 3.31 0 002.28.69 6.32 6.32 0 003.64-1h.22v1.42a6.61 6.61 0 01-5.28 2.36 5.69 5.69 0 01-4.37-1.91c-.77-1-1-2-1-4.87v-11.6l-3-.59.77-1.6h2.32a48.35 48.35 0 011.23-5.23 5 5 0 012.78-1.36l-.19 6.59zM871.26 662.16c0 .82.19 1 .87 1.27l2.46 1.19-.37 1a53.65 53.65 0 01-7.23-.37 99.53 99.53 0 00.45-11.56c0-5.23-2.73-6.14-4.91-6.14a7 7 0 00-4.46 1.64c0 4.5 0 13.15.09 14l3.32 1.36-.36 1h-9.74l.32-1 2.46-1.36c.09-.64.14-4.6.14-10.56 0-5.78 0-11-.19-15.88l-2.59-1.23.27-.86a53.74 53.74 0 016.47-1.46c-.1 4.37-.14 9.51-.14 14.43 2.92-2.27 4.74-2.73 6.37-2.73a6.71 6.71 0 016.78 6.92zM880 654.88a3.66 3.66 0 000 .68c0 5.1 3.18 8.15 7.23 8.15a3.8 3.8 0 001.55-.28 41.78 41.78 0 013.82-2.46l.23.73a9.08 9.08 0 01-2.59 3.28 14.6 14.6 0 01-4.78 1.09c-5.6 0-9.65-3.91-9.65-10.19 0-6.46 4.73-11 9.88-11 4.14 0 7.68 2.78 7.68 7.87 0 .55-.13 1.28-.45 1.46a12.18 12.18 0 01-4.28.64zm9.06-1.73a3.88 3.88 0 00.22-1.37c0-2.73-1.36-5.28-4-5.28-3.78 0-5.23 4.69-5.28 6.65zM200.64 702.6l-1.73 1.18c.59 2.14 1.91 6.05 4.1 12.56h.13c1.51-3.92 2.87-7.19 4.1-10.56l-.36-2.73a11.71 11.71 0 013.27-1.59l.32.23.27 3.36c1.14 3.28 2.69 7.15 4.42 11.56h.09c1.5-4.64 2.55-8 3.91-12.78l-2.37-1.23.37-1.14h7.14l-.22 1.14a6.48 6.48 0 00-2.73 1.68c-.69 1.55-3 8.14-5.69 15.93a14 14 0 01-1.87 2.09h-.36c-1.64-4.19-3.46-8.92-5.33-13.52h-.1c-1.68 4.05-2.59 6.15-4.68 11.38a17.72 17.72 0 01-1.78 2.14h-.36c-1.64-4.69-5-14.33-6.42-18a5.57 5.57 0 00-2.86-1.68l.4-1.14h8.61zM244.81 711.29c0 6.5-4.46 10.78-10.23 10.78a10 10 0 01-10.29-10.28 10.68 10.68 0 0110.38-10.88 10 10 0 0110.14 10.38zm-16.06.09c0 4.28 2.09 9.1 6.19 9.1s5.41-4.87 5.41-8.74c0-4.28-1.91-9.24-5.82-9.24s-5.78 4.5-5.78 8.88zM247.73 702.46a23.74 23.74 0 015.28-1.55 21.24 21.24 0 01.46 4.46h.09c1.86-3.23 4.5-4.46 6.32-4.46a3.16 3.16 0 012.23.78 20.44 20.44 0 01-1.5 5l-.61.31a19.66 19.66 0 01-1.64-3 1.84 1.84 0 00-.68-.14c-1.37 0-3.23 1.73-4.14 3.91v11.43l4.64 1.32-.27 1h-11.2l.23-1 2.59-1.36c.19-4.78.19-12.24.19-14.47l-2.37-1.32zM272.8 720.43l-.41 1.1h-9.96l.27-1 2.82-1.32c.05-1.86.14-4.68.14-15.78 0-4.1 0-8.6-.18-10.88l-2.6-1 .46-1a43.09 43.09 0 016.28-1.32c-.09 4.69-.14 9.15-.14 14.06 0 9.15 0 12.61.09 16zM292.77 718.16a8.13 8.13 0 003.46 2.68l-.32.78a3.85 3.85 0 01-2.14.45c-1.5 0-3.73-.68-4.55-2.59h-.05c-.81.59-3.45 2.59-5.5 2.59a9.71 9.71 0 01-9.6-10.06 11.09 11.09 0 0111.05-11.1 8.3 8.3 0 013.74 1.37h.14c0-3.28-.05-6.15-.14-9.6l-2.87-1.19.37-.86a35.74 35.74 0 016.6-1.46c-.1 4.74-.14 9.24-.14 14.2zM289 704a6.87 6.87 0 00-3.37-1c-4.32 0-7.37 3.87-7.37 8.28s3 8 7.05 8A6.35 6.35 0 00289 718zM320.57 708.78c-.05-4.73-2.09-5.68-4.46-5.68a5.78 5.78 0 00-2.78.82 44.57 44.57 0 01-.59 4.59l-.5.23a11.8 11.8 0 01-2.91-3.91 23.57 23.57 0 015.55-3.14 9.53 9.53 0 013.19-.78c4.68 0 6.28 4.1 6.28 7 0 3.1-.1 7.06-.1 10.15a6.5 6.5 0 003.55 2.64l-.36.73a4.23 4.23 0 01-2.23.59c-3 0-4.1-1.41-4.55-2.59h-.05a8.6 8.6 0 01-5.55 2.68 5.43 5.43 0 01-5.73-5.32c0-1.91.77-3.19 1.82-3.69a40.58 40.58 0 019.42-3.27zm-3.6 10.7a4.55 4.55 0 003.1-1.37 1.62 1.62 0 00.41-1.09l.09-5.78a33.67 33.67 0 00-5.69 2.14 2.53 2.53 0 00-1.59 2.5 3.5 3.5 0 003.71 3.6zM342.5 704.14c0-4.18-.05-8-.18-11.46l-2.64-1.14.41-.91a28.72 28.72 0 016.32-1.46c-.09 4.87-.14 9.56-.14 13.88 1.28-.68 3.87-2.14 5.33-2.14a9.58 9.58 0 019.64 9.92c0 8.15-6.78 11.24-11.05 11.24a13.05 13.05 0 01-4.46-1.45 12.82 12.82 0 01-3.23 1.38zm3.77 15.11a10.44 10.44 0 003.19.68c4.64 0 7.6-3.68 7.6-8.51 0-4.32-2.73-8-7.15-8a8 8 0 00-3.64 1zM368.4 710.88a3.66 3.66 0 000 .68c-.05 5.1 3.18 8.15 7.23 8.15a3.8 3.8 0 001.55-.28A41.78 41.78 0 01381 717l.23.73a9.08 9.08 0 01-2.63 3.27 14.54 14.54 0 01-4.78 1.09c-5.6 0-9.65-3.91-9.65-10.19 0-6.46 4.73-11 9.88-11 4.14 0 7.69 2.78 7.69 7.87 0 .55-.14 1.28-.46 1.46a12.13 12.13 0 01-4.28.64zm9.06-1.73a3.64 3.64 0 00.23-1.37c0-2.73-1.37-5.28-4-5.28-3.77 0-5.23 4.69-5.28 6.65zM397.24 701.5l-.87 1.64-6.14.55v12.78a2.86 2.86 0 00.77 2.14 3.28 3.28 0 002.27.69 6.27 6.27 0 003.64-1h.23v1.42a6.61 6.61 0 01-5.28 2.36 5.69 5.69 0 01-4.37-1.91c-.77-1-1.05-2-1.05-4.87v-11.6l-3.05-.59.78-1.6h2.32a48.35 48.35 0 011.23-5.23 4.94 4.94 0 012.77-1.36l-.18 6.59zM412.87 701.5l-.87 1.64-6.14.55c0 2.18-.05 7.32-.05 12.78a2.86 2.86 0 00.78 2.14 3.28 3.28 0 002.27.69 6.27 6.27 0 003.64-1h.23v1.42a6.61 6.61 0 01-5.28 2.36 5.69 5.69 0 01-4.37-1.91c-.77-1-1.05-2-1.05-4.87v-11.6l-3.05-.59.78-1.6H402a48.35 48.35 0 011.23-5.23 4.91 4.91 0 012.77-1.36l-.18 6.59zM418.64 710.88a2.94 2.94 0 00-.05.68c0 5.1 3.18 8.15 7.23 8.15a3.8 3.8 0 001.55-.28 41.78 41.78 0 013.82-2.46l.23.73a9.08 9.08 0 01-2.59 3.28 14.54 14.54 0 01-4.78 1.09c-5.6 0-9.65-3.91-9.65-10.19 0-6.46 4.74-11 9.88-11 4.14 0 7.69 2.78 7.69 7.87 0 .55-.14 1.28-.46 1.46a12.1 12.1 0 01-4.27.64zm9.05-1.73a3.64 3.64 0 00.23-1.37c0-2.73-1.37-5.28-4-5.28-3.77 0-5.23 4.69-5.27 6.65zM434.74 702.46a23.42 23.42 0 015.28-1.55 22 22 0 01.45 4.46h.09c1.87-3.23 4.51-4.46 6.33-4.46a3.16 3.16 0 012.23.78 20.91 20.91 0 01-1.51 5l-.61.31a20.58 20.58 0 01-1.64-3 1.79 1.79 0 00-.68-.14c-1.36 0-3.23 1.73-4.14 3.91v11.43l4.64 1.32-.27 1h-11.19l.22-1 2.6-1.36c.18-4.78.18-12.24.18-14.47l-2.37-1.32zM472.91 702a12.77 12.77 0 012.37-1.18l.36.37a26.39 26.39 0 01-1.14 5.46l-.59.31a32.22 32.22 0 01-1.59-3.54 4.46 4.46 0 00-2.69-.73 3.15 3.15 0 00-3.45 3.14 2.59 2.59 0 001.63 2.45c1.41.78 3.92 1.82 5.46 2.6 2.51 1.23 3.42 2.91 3.42 4.82 0 5-5.14 6.37-8 6.37a12.73 12.73 0 01-6.6-2 32.83 32.83 0 011.09-5l.64-.36c.64 1.18 1.64 4 2.14 5.19a8.94 8.94 0 002.77.45c2.37 0 4.24-1.45 4.24-3.32a2.76 2.76 0 00-1.82-2.73c-1.23-.68-2.73-1.36-4.42-2.14-2.5-1.13-4-2.86-4-5.41 0-2.87 2.23-5.92 6.73-5.92a6.5 6.5 0 013.45 1.17zM499.89 711.29c0 6.5-4.46 10.78-10.24 10.78a10 10 0 01-10.28-10.28 10.67 10.67 0 0110.37-10.88 10 10 0 0110.15 10.38zm-16.06.09c0 4.28 2.09 9.1 6.18 9.1s5.42-4.87 5.42-8.74c0-4.28-1.91-9.24-5.83-9.24s-5.77 4.5-5.77 8.88zM501.77 702.87l.41-1a30.86 30.86 0 016.23-.68c-.23 2-.36 5.64-.36 13.33a5.22 5.22 0 00.86 3.32 4.23 4.23 0 003.28 1.32 6.09 6.09 0 005-2.63v-11.89c-.32-.77-1-1-3.1-1.82l.41-1a32.57 32.57 0 016.64-.64c-.13 2.09-.13 5-.13 16.79a5.72 5.72 0 003.59 2.6l-.32.77a5.56 5.56 0 01-2.59.59 4.07 4.07 0 01-4.37-3.41h-.09c-1.73 1.86-3.82 3.5-6.6 3.5a6.61 6.61 0 01-4.59-1.68c-1.23-1.19-1.78-3-1.78-5.64 0-3 .09-7.56.09-10.74zM529.83 704.6l-2.42-1.05.32-.91a22.64 22.64 0 015.92-1.73l-.23 3.6h.09c3.46-2.86 5.32-3.64 7.14-3.64 4.74 0 6.15 3.87 6.15 7.28v10.29a.8.8 0 00.63.86l2.69 1.14-.32 1H540.65l.32-1.14 1.82-1.32c.09-1.37.19-4.6.19-10.51 0-3.46-2-4.92-4.28-4.92a7.9 7.9 0 00-5.05 2.51c0 3.45 0 12.14.09 13.1l2.55 1.18-.28 1.1h-9.14l.32-1 2.5-1.28c.09-.72.14-4.86.14-10.6zM570 718.16a8.13 8.13 0 003.46 2.68l-.32.78a3.81 3.81 0 01-2.13.45c-1.51 0-3.74-.68-4.55-2.59-.82.59-3.46 2.59-5.51 2.59a9.72 9.72 0 01-9.6-10.06 11.1 11.1 0 0111.06-11.1 8.27 8.27 0 013.73 1.37h.09c0-3.28 0-6.15-.13-9.6l-2.87-1.19.36-.86a36 36 0 016.6-1.46c-.09 4.74-.14 9.24-.14 14.2zM566.15 704a6.86 6.86 0 00-3.36-1c-4.33 0-7.38 3.87-7.38 8.28s3 8 7.06 8a6.31 6.31 0 003.68-1.32zM576.49 702.23a35 35 0 016-1.32v9.19c0 5.1.05 7.74.1 9l3.23 1.37-.32 1h-9.83l.32-1 2.59-1.37c0-1.54.09-5.46.09-9.1v-5.73l-2.45-1.18zm4.28-10.74a6.07 6.07 0 012.28 2.55l-.09.37a7.87 7.87 0 01-2.42 2.59l-.32.09a7 7 0 01-2.22-2.59l.09-.32a8.68 8.68 0 012.46-2.64zM591.12 704.6l-2.41-1.05.32-.91a22.64 22.64 0 015.92-1.73l-.23 3.6h.09c3.46-2.86 5.32-3.64 7.14-3.64 4.74 0 6.15 3.87 6.15 7.28v10.29a.8.8 0 00.63.86l2.69 1.14-.32 1H602l.32-1.14 1.82-1.32c.09-1.37.19-4.6.19-10.51 0-3.46-2-4.92-4.28-4.92a7.9 7.9 0 00-5 2.51c0 3.45 0 12.14.09 13.1l2.55 1.18-.28 1.1h-9.14l.32-1 2.5-1.28c.09-.72.13-4.86.13-10.6zM628.1 703.64v.09a6.46 6.46 0 011.59 4.42c0 4.27-3.55 7.1-8 7.1a8.88 8.88 0 01-3.78-.82 4.2 4.2 0 00-1.23 2 2.55 2.55 0 002.14 2 58.77 58.77 0 019.46 0 4.47 4.47 0 012.87 1.23 4.79 4.79 0 011.59 3.63c0 2.55-1.64 4.78-3.82 6.37a13.39 13.39 0 01-8.24 2.87c-4.5 0-7.87-2.23-7.87-5.32a2.16 2.16 0 01.69-1.41l3.73-4v-.09a7 7 0 01-2-1.45 5 5 0 01-1.55-3c0-.59 1.69-2.32 3.19-3.55a6.14 6.14 0 01-2.91-5.46c0-3.64 3-7.42 8.55-7.42a15.77 15.77 0 013.41.41c1.46.23 2.51.41 3.32.5l3.92-1.64.18.46-1.87 2.82zm-9.55 18.75c-.78.68-2.19 2.59-2.19 3.59 0 3 3.14 4.24 5.92 4.24 3.78 0 7.1-1.69 7.1-5.19a2.84 2.84 0 00-2.37-2.87 25.58 25.58 0 00-4.59-.27c-2.42 0-3.28.23-3.87.5zm-.87-14.33c0 2.64 1.32 5.59 4.19 5.59 2.64 0 4-2.5 4-5.64 0-2.5-1.28-5.55-4.1-5.55s-4.09 2.82-4.09 5.6zM651.67 703.78l.09.05c2.87-2 4.82-2.92 6.19-2.92 3.78 0 8.78 3.19 8.78 9.69a11.23 11.23 0 01-11.06 11.47 9.65 9.65 0 01-3.73-1.41l-.09.09c0 3.28.09 6.37.18 8.6l4.24 1.37-.41 1H645.08l.36-1.14 2.32-1.13c.05-1.55.23-5.87.23-12.52v-12.6l-2.51-1.33.41-.91a26.45 26.45 0 016-1.18zm.18 15.15a6.89 6.89 0 003.41 1c3.83 0 7.33-3.28 7.33-8.51 0-4.14-2.5-7.78-6.51-7.78a7.61 7.61 0 00-4.23 1.68zM678.5 720.43l-.41 1.1h-9.96l.27-1 2.82-1.32c0-1.86.14-4.68.14-15.78 0-4.1 0-8.6-.19-10.88l-2.59-1 .46-1a42.81 42.81 0 016.28-1.32c-.1 4.69-.14 9.15-.14 14.06 0 9.15 0 12.61.09 16zM691.69 708.78c0-4.73-2.09-5.68-4.46-5.68a5.71 5.71 0 00-2.77.82c-.14 1.32-.32 3.36-.59 4.59l-.5.23a11.81 11.81 0 01-2.92-3.91 23.57 23.57 0 015.55-3.14 9.65 9.65 0 013.19-.78c4.69 0 6.28 4.1 6.28 7 0 3.1-.09 7.06-.09 10.15a6.43 6.43 0 003.55 2.64l-.37.73a4.23 4.23 0 01-2.23.59c-3.05 0-4.09-1.41-4.55-2.59a8.62 8.62 0 01-5.55 2.68 5.44 5.44 0 01-5.74-5.32c0-1.91.78-3.19 1.82-3.69a40.58 40.58 0 019.42-3.27zm-3.59 10.7a4.53 4.53 0 003.09-1.37 1.62 1.62 0 00.41-1.09l.09-5.78a34.34 34.34 0 00-5.69 2.14 2.54 2.54 0 00-1.59 2.5 3.5 3.5 0 003.69 3.6zM711.54 700.91c2.64 0 5.09 1 5.78 1.73a21.72 21.72 0 01-1.64 4.78l-.68.32a29.91 29.91 0 01-1.51-4.87 3.83 3.83 0 00-1.72-.32c-5.06 0-7.69 4.19-7.69 8.65 0 5 3.18 8.64 8.09 8.64a4.28 4.28 0 001.28-.36 20.9 20.9 0 013.78-2.6l.31.6a10.27 10.27 0 01-2.91 3.86 15.27 15.27 0 01-4.28.73c-4.27 0-10.51-2.55-10.51-10.33 0-7.46 6.33-10.83 11.7-10.83zM724 710.88a2.94 2.94 0 000 .68c0 5.1 3.19 8.15 7.24 8.15a3.84 3.84 0 001.55-.28 40.45 40.45 0 013.82-2.46l.22.73a9.08 9.08 0 01-2.63 3.3 14.48 14.48 0 01-4.78 1.09c-5.59 0-9.64-3.91-9.64-10.19 0-6.46 4.73-11 9.87-11 4.14 0 7.69 2.78 7.69 7.87 0 .55-.14 1.28-.45 1.46a12.18 12.18 0 01-4.28.64zm9-1.73a3.64 3.64 0 00.23-1.37c0-2.73-1.36-5.28-4-5.28-3.78 0-5.24 4.69-5.28 6.65zM743.31 716a9.11 9.11 0 012.68 2.87l-.14.46a8.35 8.35 0 01-2.68 2.82l-.36.13a8.68 8.68 0 01-2.64-2.86l.13-.46a10.24 10.24 0 012.73-2.82zM775.88 690.63l.28.18a7.35 7.35 0 00.63 3c.69 1.87 5.1 13.15 9.56 24.12.82 1.14 1.5 1.55 4.55 2.55l-.32 1H780.39l.27-1 1.68-1.32c-.36-1.18-1.63-4.32-3.41-8.74-1.82.09-4 .28-10.14.19-1.69 4.32-2.37 6.14-3.1 8.23l4 1.55-.28 1h-10.05l.27-1 3.18-1.55c1.32-2.64 6.28-14.15 10-23.61a2 2 0 00.14-1.41l-.41-1.14zm-2 6.28c-2.1 5.69-3.23 8.55-4.28 11.47 1.27 0 6.73.18 8.64.18-1.72-4.64-3-8.24-4.27-11.65zM803.31 720.43l-.41 1.1H792.93l.27-1 2.8-1.33c0-1.86.13-4.68.13-15.78 0-4.1 0-8.6-.18-10.88l-2.59-1 .45-1a43.09 43.09 0 016.28-1.32c-.09 4.69-.14 9.15-.14 14.06 0 9.15 0 12.61.1 16zM825.09 711.29c0 6.5-4.46 10.78-10.24 10.78a10 10 0 01-10.28-10.28 10.68 10.68 0 0110.37-10.88 10 10 0 0110.15 10.38zm-16.06.09c0 4.28 2.09 9.1 6.19 9.1s5.41-4.87 5.41-8.74c0-4.28-1.91-9.24-5.82-9.24S809 707 809 711.38zM830 704.6l-2.41-1.05.32-.91a22.45 22.45 0 015.91-1.73l-.22 3.6h.09c3.45-2.86 5.32-3.64 7.14-3.64 4.73 0 6.14 3.87 6.14 7.28v10.29a.81.81 0 00.64.86l2.69 1.14-.32 1h-9.1l.32-1.14 1.82-1.32c.09-1.37.18-4.6.18-10.51 0-3.46-2-4.92-4.28-4.92a7.93 7.93 0 00-5.05 2.51c0 3.45 0 12.14.09 13.1l2.55 1.18-.27 1.1h-9.15l.32-1 2.5-1.28c.1-.72.14-4.86.14-10.6zM867 703.64l-.05.09a6.41 6.41 0 011.6 4.42c0 4.27-3.55 7.1-8.06 7.1a8.91 8.91 0 01-3.78-.82 4.24 4.24 0 00-1.22 2 2.55 2.55 0 002.13 2 58.9 58.9 0 019.47 0 4.47 4.47 0 012.87 1.23 4.79 4.79 0 011.59 3.63c0 2.55-1.64 4.78-3.82 6.37a13.41 13.41 0 01-8.24 2.87c-4.5 0-7.87-2.23-7.87-5.32a2.19 2.19 0 01.68-1.41l3.73-4v-.09a6.87 6.87 0 01-2-1.45 5 5 0 01-1.55-3c0-.59 1.68-2.32 3.18-3.55a6.16 6.16 0 01-2.91-5.46c0-3.64 3-7.42 8.55-7.42a15.86 15.86 0 013.42.41c1.45.23 2.5.41 3.32.5l3.91-1.64.18.46-1.86 2.82zm-9.56 18.75c-.77.68-2.18 2.59-2.18 3.59 0 3 3.14 4.24 5.91 4.24 3.78 0 7.1-1.69 7.1-5.19a2.84 2.84 0 00-2.36-2.87 25.64 25.64 0 00-4.6-.27c-2.49 0-3.31.23-3.9.5zm-.86-14.33c0 2.64 1.32 5.59 4.18 5.59 2.64 0 4-2.5 4-5.64 0-2.5-1.27-5.55-4.09-5.55s-4.12 2.82-4.12 5.6z"/></g><g><path class="cls-216" d="M229.83 99.47h-3.85V67.8H216v-3.85h11.9l1.93 1.92v33.6z"/><path class="cls-216" transform="rotate(-45 232.19 61.754)" d="M230.26 54.46h3.85v14.6h-3.85z"/><path class="cls-216" d="M216.35 97.55h21.7v3.85h-21.7z"/><path class="cls-216" d="M226.85 116.89A37.1 37.1 0 11264 79.79a37.15 37.15 0 01-37.15 37.1zm0-70.35a33.25 33.25 0 1033.25 33.25 33.29 33.29 0 00-33.25-33.25z"/></g></g><g clip-path="url(#clip-path-3)" id="frame-2"><path fill="url(#linear-gradient-2)" d="M720 0h720v720H720z"/><g id="Mockups"><g id="Landing-Page"><g id="_4.-Make-Waves" data-name="4.-Make-Waves"><g id="illustration"><path id="Stroke-1" class="cls-220" d="M842.22 412.16L877 309.3c.15-92.93 75.5-168.2 167.56-168.2s167.42 75.27 167.42 167.24v181.59c0 92-75.35 167.24-167.42 167.24S877.11 581.9 877.11 489.93a3 3 0 10-6 0c0 95.29 78 173.24 173.41 173.24s173.42-77.95 173.42-173.24V308.34c0-95.29-78-173.24-173.42-173.24-95.21 0-173.14 77.68-173.4 172.75L835.2 414.2a3 3 0 002.84 4h37.28a3 3 0 000-6z"/><path id="Oval-2" class="cls-220" d="M947.17 357.67a25.5 25.5 0 1125.5-25.5 25.5 25.5 0 01-25.5 25.5zm0-6a19.5 19.5 0 10-19.5-19.5 19.5 19.5 0 0019.5 19.5z"/><path id="Stroke-3" class="cls-220" d="M1064.69 421.77a34.46 34.46 0 0068.92 0v-87.28a34.46 34.46 0 00-68.92 0 3 3 0 006 0 28.46 28.46 0 0156.92 0v87.28a28.46 28.46 0 01-56.92 0 3 3 0 00-6 0z"/><path id="Stroke-7" class="cls-217" d="M1026.67 373.28a3 3 0 00-6 0v44.53a3 3 0 005.12 2.12l43.69-43.65h288.85a21.15 21.15 0 0021.11-21.1V77.93a21.16 21.16 0 00-21.11-21.1H923.91a21.16 21.16 0 00-21.11 21.1v277.25a21.15 21.15 0 0021.11 21.1h61.3a3 3 0 000-6h-61.3a15.16 15.16 0 01-15.11-15.1V77.93a15.16 15.16 0 0115.11-15.1h434.42a15.15 15.15 0 0115.11 15.1v277.25a15.15 15.15 0 01-15.11 15.1h-290.09a3 3 0 00-2.12.88l-39.45 39.41z"/><path id="Stroke-9" class="cls-217" d="M944.64 204.35c18.28 0 33.14 3.23 46.6 9.51 10.23 4.77 17.23 9.58 32.17 21.2C1038.7 247 1046 251.94 1056.74 257c14.26 6.65 30 10.08 49.13 10.08s34.88-3.43 49.14-10.08c10.76-5 18-10 33.32-21.9 15-11.62 22-16.43 32.18-21.2 13.46-6.28 28.32-9.51 46.6-9.51s33.15 3.23 46.6 9.51c10.23 4.77 17.24 9.58 32.18 21.2 15.29 11.89 22.56 16.88 33.32 21.9 14.26 6.65 30 10.08 49.14 10.08a3 3 0 000-6c-18.28 0-33.14-3.24-46.6-9.52-10.23-4.77-17.23-9.58-32.18-21.2-15.29-11.88-22.56-16.87-33.32-21.9-14.26-6.65-30-10.07-49.14-10.07s-34.88 3.42-49.13 10.07c-10.77 5-18 10-33.33 21.9-14.94 11.62-22 16.43-32.18 21.2-13.45 6.28-28.31 9.52-46.6 9.52s-33.14-3.24-46.59-9.52c-10.23-4.77-17.24-9.58-32.18-21.2-15.29-11.88-22.56-16.87-33.33-21.9-14.25-6.65-30-10.07-49.13-10.07a3 3 0 000 6z"/><path id="Stroke-11" class="cls-217" d="M981.53 130.63c18.28 0 33.15 3.23 46.6 9.51 10.23 4.78 17.24 9.58 32.18 21.2 15.29 11.89 22.56 16.88 33.33 21.9 14.25 6.65 30 10.08 49.13 10.08s34.88-3.43 49.14-10.08c10.76-5 18-10 33.32-21.9 14.94-11.62 22-16.42 32.18-21.2 13.45-6.28 28.32-9.51 46.6-9.51s33.14 3.23 46.6 9.51c10.23 4.78 17.23 9.58 32.18 21.2 15.28 11.89 22.56 16.88 33.32 21.9 14.26 6.65 30 10.08 49.14 10.08a3 3 0 000-6c-18.28 0-33.15-3.24-46.6-9.52-10.23-4.77-17.24-9.57-32.18-21.19-15.29-11.89-22.56-16.88-33.33-21.9-14.25-6.66-30-10.08-49.13-10.08s-34.88 3.42-49.14 10.08c-10.76 5-18 10-33.32 21.9-15 11.62-22 16.42-32.18 21.19-13.46 6.28-28.32 9.52-46.6 9.52s-33.14-3.24-46.6-9.52c-10.23-4.77-17.23-9.57-32.18-21.19-15.28-11.89-22.56-16.88-33.32-21.9-14.26-6.66-30-10.08-49.14-10.08a3 3 0 000 6z"/><path id="Stroke-13" class="cls-217" d="M907.74 278.07c18.28 0 33.14 3.23 46.6 9.51 10.23 4.77 17.23 9.58 32.18 21.2 15.29 11.89 22.56 16.88 33.32 21.9 14.26 6.65 30 10.08 49.14 10.08s34.88-3.43 49.13-10.08c10.77-5 18-10 33.33-21.9 14.94-11.62 22-16.43 32.18-21.2 13.45-6.28 28.31-9.51 46.6-9.51s33.14 3.23 46.59 9.51c10.24 4.77 17.24 9.58 32.18 21.2 15.29 11.89 22.56 16.88 33.33 21.9 14.25 6.65 30 10.08 49.13 10.08a3 3 0 000-6c-18.28 0-33.14-3.24-46.6-9.52-10.23-4.77-17.23-9.58-32.17-21.2-15.29-11.89-22.56-16.87-33.33-21.9-14.26-6.65-30-10.07-49.13-10.07s-34.88 3.42-49.14 10.07c-10.76 5-18 10-33.32 21.9-15 11.62-22 16.43-32.18 21.2-13.46 6.28-28.32 9.52-46.6 9.52s-33.15-3.24-46.6-9.52c-10.23-4.77-17.23-9.58-32.18-21.2-15.29-11.89-22.56-16.87-33.32-21.9-14.26-6.65-30-10.07-49.14-10.07a3 3 0 000 6z"/></g></g></g></g></g><g clip-path="url(#clip-path-4)" id="frame-3"><path fill="url(#linear-gradient-3)" d="M1440 0h720v720h-720z"/><rect class="cls-223" x="1781.14" y="237.26" width="43.25" height="159.78" rx="21.62" ry="21.62" transform="rotate(26.3 1803.032 317.267)"/><rect class="cls-223" x="1595.77" y="72.71" width="9.98" height="36.89" rx="4.99" ry="4.99" transform="rotate(76.21 1600.794 91.176)"/><path class="cls-223" d="M1858.19 156a21.72 21.72 0 01-12.5 24.36 21.7 21.7 0 01-28.47-11.18L1806.47 144"/><rect class="cls-223" x="1755.36" y="423.25" width="43.25" height="71.82" rx="21.62" ry="21.62" transform="rotate(92.23 1776.998 459.185)"/><rect class="cls-223" x="1701.29" y="232.67" width="43.25" height="43.25" rx="21.62" ry="21.62" transform="rotate(45 1722.909 254.292)"/><rect class="cls-223" x="1886.2" y="330.27" width="43.25" height="77.77" rx="21.62" ry="21.62" transform="rotate(-59.09 1907.882 369.137)"/><rect class="cls-223" x="1543.65" y="433.96" width="19.94" height="35.85" rx="9.97" ry="9.97" transform="rotate(-59.09 1553.67 451.87)"/><rect class="cls-223" x="1636.82" y="292.32" width="43.25" height="77.77" rx="21.62" ry="21.62" transform="rotate(90 1658.44 331.2)"/><circle class="cls-223" cx="1789.24" cy="331.1" r="209.33"/><path class="cls-223" d="M1954.82 459.02l24.63 24.63-37.66 37.66-24.63-24.63"/><path class="cls-223" d="M2103.59 427h78.49v476.14a39.24 39.24 0 01-39.24 39.24 39.24 39.24 0 01-39.24-39.24V427z" transform="rotate(-45 2142.828 684.691)"/><path class="cls-223" d="M1809.05 122.7l-16.29-37.36a10.57 10.57 0 015.45-13.87 10.57 10.57 0 0113.87 5.45l21.62 49.6"/><circle class="cls-223" cx="2016.47" cy="216.99" r="9"/><circle class="cls-223" cx="1521.47" cy="247.99" r="6"/><circle class="cls-223" cx="1789.24" cy="331.1" r="188.11"/></g></svg>