<?xml version="1.0" encoding="UTF-8"?>
<svg width="720px" height="720px" viewBox="0 0 720 720" version="1.1" xmlns="http://www.w3.org/2000/svg" xmlns:xlink="http://www.w3.org/1999/xlink">
    <!-- Generator: Sketch 49 (51002) - http://www.bohemiancoding.com/sketch -->
    <title>Image</title>
    <desc>Created with Sketch.</desc>
    <defs>
        <rect id="path-1" x="0" y="0" width="720" height="720"></rect>
        <polygon id="path-3" points="0 1093.9 983.276 1093.9 983.276 0.005 0 0.005"></polygon>
    </defs>
    <g id="Page-1" stroke="none" stroke-width="1" fill="none" fill-rule="evenodd">
        <g id="Desktop-HD" transform="translate(0.000000, -534.000000)">
            <g id="Matcher" transform="translate(0.000000, 534.000000)">
                <g id="Image">
                    <mask id="mask-2" fill="white">
                        <use xlink:href="#path-1"></use>
                    </mask>
                    <use id="Rectangle" fill="#003AC5" xlink:href="#path-1"></use>
                    <g id="Page-1" mask="url(#mask-2)">
                        <g transform="translate(-180.000000, -189.000000)">
                            <path d="M486.3375,221.9524 C483.9115,224.6774 481.3935,227.3474 478.7805,229.9594 C440.8035,267.9354 390.5785,286.2004 340.8205,284.7514" id="Stroke-1" stroke="#FFFFFF" stroke-width="4" fill="none" stroke-dasharray="12,12"></path>
                            <path d="M389.2916,871.9505 C378.9776,843.8975 373.3466,813.5815 373.3466,781.9505 C373.3466,750.3195 378.9776,720.0045 389.2916,691.9515" id="Stroke-11" stroke="#FFFFFF" stroke-width="4" fill="none"></path>
                            <polyline id="Stroke-13" stroke="#FFFFFF" stroke-width="4" fill="none" points="1.9273 301.9524 281.9273 301.9524 281.9273 441.9524 1.9273 441.9524"></polyline>
                            <path d="M681.9274,221.9524 L844.9274,221.9524 L844.9274,221.9474 C883.9274,221.8334 914.7164,190.5424 914.7164,151.9524 C914.7164,113.3624 883.9274,82.0714 844.9274,81.9574 L844.9274,81.9524 L681.9274,81.9524" id="Stroke-15" stroke="#FFFFFF" stroke-width="4" fill="none"></path>
                            <polyline id="Stroke-17" stroke="#FFFFFF" stroke-width="4" fill="none" points="1.9273 81.9524 281.9273 81.9524 281.9273 221.9524 1.9273 221.9524"></polyline>
                            <path d="M173.1744,241.9524 L173.1744,182.2884 C173.1744,146.8494 193.8284,114.6614 226.0444,99.8944 L235.6544,95.4894 L301.9274,76.4004" id="Stroke-19" stroke="#FFFFFF" stroke-width="4" fill="none"></path>
                            <path d="M262.3502,222.1643 C262.3502,211.2353 271.2102,202.3753 282.1392,202.3753" id="Stroke-21" stroke="#FFFFFF" stroke-width="4" fill="none"></path>
                            <path d="M173.1744,461.9524 L173.1744,402.2884 C173.1744,366.8494 193.8284,334.6614 226.0444,319.8944 L235.6544,315.4884 L301.9274,296.4004" id="Stroke-23" stroke="#FFFFFF" stroke-width="4" fill="none" stroke-dasharray="12,12"></path>
                            <path d="M119.0524,1031.9524 L119.0524,972.2884 C119.0524,936.8494 139.7064,904.6614 171.9224,889.8944 L208.3504,871.9524" id="Stroke-25" stroke="#FFFFFF" stroke-width="4" fill="none" stroke-dasharray="12,12"></path>
                            <path d="M262.3502,442.1643 C262.3502,431.2353 271.2102,422.3753 282.1392,422.3753" id="Stroke-27" stroke="#FFFFFF" stroke-width="4" fill="none"></path>
                            <path d="M833.7574,101.5291 L833.7574,202.3751" id="Stroke-37" stroke="#FFFFFF" stroke-width="4" fill="none"></path>
                            <path d="M556.0543,311.9524 C556.0543,339.8004 533.4793,362.3754 505.6313,362.3754 C477.7823,362.3754 455.2073,339.8004 455.2073,311.9524 C455.2073,284.1044 477.7823,261.5294 505.6313,261.5294 C533.4793,261.5294 556.0543,284.1044 556.0543,311.9524 Z" id="Stroke-39" stroke="#FFFFFF" stroke-width="4" fill="none"></path>
                            <path d="M515.6315,262.5296 L341.9275,221.9526" id="Stroke-41" stroke="#FFFFFF" stroke-width="4" fill="none"></path>
                            <path d="M515.6315,361.3753 L341.9275,401.9523" id="Stroke-43" stroke="#FFFFFF" stroke-width="4" fill="none"></path>
                            <path d="M505.6314,261.5296 L505.6314,362.3756" id="Stroke-45" stroke="#FFFFFF" stroke-width="4" fill="none"></path>
                            <path d="M206.5396,788.3255 C150.7246,774.6325 109.3146,724.2655 109.3146,664.2265 C109.3146,661.3205 109.4116,658.4375 109.6026,655.5795" id="Stroke-55" stroke="#FFFFFF" stroke-width="4" fill="none" stroke-dasharray="12,12"></path>
                            <path d="M602.7252,221.9524 L602.7252,401.9524" id="Stroke-59" stroke="#FFFFFF" stroke-width="4" fill="none"></path>
                            <path d="M470.4986,732.5296 L644.2026,691.9526" id="Stroke-61" stroke="#FFFFFF" stroke-width="4" fill="none"></path>
                            <path d="M470.4986,831.3753 L644.2026,871.9523" id="Stroke-63" stroke="#FFFFFF" stroke-width="4" fill="none"></path>
                            <polyline id="Stroke-75" stroke="#FFFFFF" stroke-width="4" fill="none" points="301.9273 651.9524 21.9273 651.9524 21.9273 791.9524 301.9273 791.9524"></polyline>
                            <path d="M231.7154,631.9524 L231.7154,811.9524" id="Stroke-81" stroke="#FFFFFF" stroke-width="4" fill="none"></path>
                            <path d="M601.9264,701.8274 L601.9264,862.0774" id="Stroke-83" stroke="#FFFFFF" stroke-width="4" fill="none"></path>
                            <path d="M282.1393,721.9524 C282.1393,749.8004 259.5643,772.3754 231.7153,772.3754 C203.8683,772.3754 181.2923,749.8004 181.2923,721.9524 C181.2923,694.1044 203.8683,671.5294 231.7153,671.5294 C259.5643,671.5294 282.1393,694.1044 282.1393,721.9524 Z" id="Stroke-85" stroke="#FFFFFF" stroke-width="4" fill="none"></path>
                            <polyline id="Stroke-87" stroke="#FFFFFF" stroke-width="4" fill="none" points="1.9273 871.9524 281.9273 871.9524 281.9273 1011.9524 1.9273 1011.9524"></polyline>
                            <path d="M282.1393,893.2864 C271.2103,893.2864 262.3503,884.4264 262.3503,873.4974" id="Stroke-91" stroke="#FFFFFF" stroke-width="4" fill="none"></path>
                            <path d="M208.3502,851.9524 L208.3502,1031.9524" id="Stroke-93" stroke="#FFFFFF" stroke-width="4" fill="none"></path>
                            <path d="M253.6158,941.9524 C253.6158,966.9514 233.3498,987.2174 208.3498,987.2174 C183.3508,987.2174 163.0858,966.9514 163.0858,941.9524 C163.0858,916.9534 183.3508,896.6874 208.3498,896.6874 C233.3498,896.6874 253.6158,916.9534 253.6158,941.9524 Z" id="Stroke-95" stroke="#FFFFFF" stroke-width="4" fill="none"></path>
                            <path d="M845.1383,101.5291 C872.9873,101.5291 895.5623,124.1041 895.5623,151.9521 C895.5623,179.8001 872.9873,202.3751 845.1383,202.3751" id="Stroke-97" stroke="#FFFFFF" stroke-width="4" fill="none"></path>
                            <path d="M845.1383,202.3753 L681.9273,202.3753" id="Stroke-103" stroke="#FFFFFF" stroke-width="4" fill="none"></path>
                            <path d="M981.9274,301.9524 L818.9274,301.9524 L818.9274,301.9574 C779.9274,302.0714 749.1384,333.3624 749.1384,371.9524 C749.1384,410.5424 779.9274,441.8334 818.9274,441.9474 L818.9274,441.9524 L981.9274,441.9524" id="Stroke-111" stroke="#FFFFFF" stroke-width="4" fill="none"></path>
                            <path d="M829.8854,422.3753 L829.8854,321.5293" id="Stroke-113" stroke="#FFFFFF" stroke-width="4" fill="none"></path>
                            <path d="M818.5055,422.3753 C790.6565,422.3753 768.0815,399.8003 768.0815,371.9523 C768.0815,344.1043 790.6565,321.5293 818.5055,321.5293" id="Stroke-115" stroke="#FFFFFF" stroke-width="4" fill="none"></path>
                            <path d="M818.5055,422.3753 L981.7165,422.3753" id="Stroke-117" stroke="#FFFFFF" stroke-width="4" fill="none"></path>
                            <path d="M818.5055,402.3753 L981.7165,402.3753" id="Stroke-119" stroke="#FFFFFF" stroke-width="4" fill="none" stroke-dasharray="12,12"></path>
                            <path d="M818.5055,321.5296 L981.7165,321.5296" id="Stroke-121" stroke="#FFFFFF" stroke-width="4" fill="none"></path>
                            <path d="M818.5055,341.5296 L981.7165,341.5296" id="Stroke-123" stroke="#FFFFFF" stroke-width="4" fill="none" stroke-dasharray="12,12"></path>
                            <path d="M818.5055,402.3753 C801.7025,402.3753 788.0815,388.7553 788.0815,371.9523 C788.0815,355.1493 801.7025,341.5293 818.5055,341.5293" id="Stroke-125" stroke="#FFFFFF" stroke-width="4" fill="none"></path>
                            <polygon id="Stroke-127" stroke="#FFFFFF" stroke-width="4" fill="none" points="829.8854 354.2503 847.5874 371.9523 829.8854 389.6543 812.1844 371.9523"></polygon>
                            <path d="M767.2926,456.7903 L680.9276,377.9613" id="Stroke-129" stroke="#FFFFFF" stroke-width="4" fill="none" stroke-dasharray="12,12"></path>
                            <path d="M692.6959,350.7122 L746.6339,289.2372" id="Stroke-131" stroke="#FFFFFF" stroke-width="4" fill="none" stroke-dasharray="12,12"></path>
                            <path d="M681.9274,791.9524 L844.9274,791.9524 L844.9274,791.9474 C883.9274,791.8334 914.7164,760.5424 914.7164,721.9524 C914.7164,683.3624 883.9274,652.0714 844.9274,651.9574 L844.9274,651.9524 L681.9274,651.9524" id="Stroke-133" stroke="#FFFFFF" stroke-width="4" fill="none"></path>
                            <path d="M833.7574,671.5296 L833.7574,772.3756" id="Stroke-135" stroke="#FFFFFF" stroke-width="4" fill="none"></path>
                            <path d="M845.1383,671.5296 C872.9873,671.5296 895.5623,694.1046 895.5623,721.9526 C895.5623,749.8006 872.9873,772.3756 845.1383,772.3756" id="Stroke-137" stroke="#FFFFFF" stroke-width="4" fill="none"></path>
                            <path d="M845.1383,671.5296 L681.9273,671.5296" id="Stroke-139" stroke="#FFFFFF" stroke-width="4" fill="none"></path>
                            <path d="M845.1383,691.5296 L681.9273,691.5296" id="Stroke-141" stroke="#FFFFFF" stroke-width="4" fill="none" stroke-dasharray="12,12"></path>
                            <path d="M845.1383,772.3753 L681.9273,772.3753" id="Stroke-143" stroke="#FFFFFF" stroke-width="4" fill="none"></path>
                            <path d="M845.1383,752.3753 L681.9273,752.3753" id="Stroke-145" stroke="#FFFFFF" stroke-width="4" fill="none" stroke-dasharray="12,12"></path>
                            <path d="M845.1383,691.5296 C861.9413,691.5296 875.5623,705.1496 875.5623,721.9526 C875.5623,738.7556 861.9413,752.3756 845.1383,752.3756" id="Stroke-147" stroke="#FFFFFF" stroke-width="4" fill="none"></path>
                            <mask id="mask-4" fill="white">
                                <use xlink:href="#path-3"></use>
                            </mask>
                            <g id="Clip-152" stroke="none" fill="none"></g>
                            <polygon id="Stroke-151" stroke="#FFFFFF" stroke-width="4" fill="none" mask="url(#mask-4)" points="821.241 734.47 846.275 734.47 846.275 709.435 821.241 709.435"></polygon>
                            <path d="M981.9274,710.7815 L895.5624,631.9525" id="Stroke-153" stroke="#FFFFFF" stroke-width="4" fill="none" stroke-dasharray="12,12" mask="url(#mask-4)"></path>
                            <path d="M982.9274,1011.9524 L819.9274,1011.9524 L819.9274,1011.9474 C780.9274,1011.8334 750.1384,980.5424 750.1384,941.9524 C750.1384,903.3624 780.9274,872.0714 819.9274,871.9574 L819.9274,871.9524 L982.9274,871.9524" id="Stroke-154" stroke="#FFFFFF" stroke-width="4" fill="none" mask="url(#mask-4)"></path>
                            <path d="M831.149,891.5296 L831.149,992.3756" id="Stroke-155" stroke="#FFFFFF" stroke-width="4" fill="none" mask="url(#mask-4)"></path>
                            <path d="M819.7682,891.5296 C791.9202,891.5296 769.3442,914.1046 769.3442,941.9526 C769.3442,969.8006 791.9202,992.3756 819.7682,992.3756" id="Stroke-156" stroke="#FFFFFF" stroke-width="4" fill="none" mask="url(#mask-4)"></path>
                            <path d="M819.7682,891.5296 L982.9792,891.5296" id="Stroke-157" stroke="#FFFFFF" stroke-width="4" fill="none" mask="url(#mask-4)"></path>
                            <path d="M681.9274,921.4095 C722.4224,921.4095 755.8434,891.1145 760.7604,851.9525" id="Stroke-162" stroke="#FFFFFF" stroke-width="4" fill="none" stroke-dasharray="12,12" mask="url(#mask-4)"></path>
                            <path d="M584.0182,691.9524 C570.1112,761.0594 509.0632,813.1054 435.8592,813.1054 C400.3602,813.1054 367.7192,800.8664 341.9262,780.3774" id="Stroke-165" stroke="#FFFFFF" stroke-width="4" fill="none" stroke-dasharray="12,12" mask="url(#mask-4)"></path>
                            <path d="M430.0758,781.9524 C430.0758,809.8004 452.6508,832.3754 480.4988,832.3754 C508.3468,832.3754 530.9228,809.8004 530.9228,781.9524 C530.9228,754.1044 508.3468,731.5294 480.4988,731.5294 C452.6508,731.5294 430.0758,754.1044 430.0758,781.9524 Z" id="Stroke-166" stroke="#FFFFFF" stroke-width="4" fill="none" mask="url(#mask-4)"></path>
                            <path d="M480.4986,731.5296 L480.4986,832.3756" id="Stroke-167" stroke="#FFFFFF" stroke-width="4" fill="none" mask="url(#mask-4)"></path>
                        </g>
                    </g>
                    <g id="Matcher" mask="url(#mask-2)">
                        <g transform="translate(155.000000, 281.000000)">
                            <polygon id="Fill-1" fill="#FFFFFF" points="32.3495605 99.001324 15.9964186 57.6004561 15.9964186 117 0 117 0 33 23.2252525 33 41.3546896 80.6397499 59.8404433 33 82 33 82 117 65.6468581 117 65.6468581 57.6004561 49.7688049 99.001324"></polygon>
                            <g id="Group-22" stroke-width="1" fill="none" transform="translate(94.000000, 0.000000)">
                                <path d="M34.5270674,96.678834 L34.5270674,92.7409937 C33.5740222,93.6956465 31.9055796,93.9341049 29.7610235,93.9341049 L23.922088,93.9341049 C19.0361977,93.9341049 16.1766532,96.081459 16.1766532,99.9008896 C16.1766532,103.60191 19.1552261,106.347459 23.922088,106.347459 C29.5229667,106.347459 34.5270674,103.481862 34.5270674,96.678834 Z M34.5270674,79.8486743 C34.5270674,75.910834 31.4294661,73.4041535 25.4715022,73.4041535 C19.9896519,73.4041535 13.0782338,76.1492924 9.02676929,78.5355146 L2.94977703,66.8391743 C2.94977703,66.8391743 13.0782338,60.154966 26.3051099,60.154966 C38.6983783,60.154966 50.0187551,65.8845215 50.0187551,80.3260007 L50.0187551,116.253723 L34.5270674,116.253723 L34.5270674,111.121133 C31.6675228,115.419938 25.4715022,117.687341 19.2742545,117.687341 C7.7158209,117.687341 0.208442839,109.451105 0.208442839,100.498265 C0.208442839,90.1146743 7.83484929,83.6681049 19.9896519,83.6681049 L30.7136596,83.6681049 C33.3359654,83.6681049 34.5270674,82.4754035 34.5270674,80.4460493 L34.5270674,79.8486743 Z" id="Fill-2" fill="#FFFFFF"></path>
                                <path d="M79.6576415,40.8175931 L79.6576415,61.5868222 L91.4541319,61.5868222 L91.4541319,74.7167806 L79.6576415,74.7167806 L79.6576415,99.42385 C79.6576415,102.886412 82.3977486,103.363739 84.7815886,103.363739 C88.7140248,103.363739 91.9306545,103.004822 91.9306545,103.004822 L91.9306545,116.25401 C91.9306545,116.25401 84.4236854,116.970204 79.8956983,116.970204 C72.1502635,116.970204 64.1667719,115.658683 64.1667719,104.676899 L64.1667719,74.7167806 L55.5865022,74.7167806 L55.5865022,61.5868222 L64.1667719,61.5868222 L64.1667719,40.8175931 L79.6576415,40.8175931 Z" id="Fill-4" fill="#FFFFFF"></path>
                                <path d="M111.069233,88.9213174 C111.069233,97.515241 116.670112,103.840942 124.772632,103.840942 C130.492539,103.840942 134.78206,100.618887 136.807588,95.4854771 L151.345412,100.021512 C147.77047,110.882838 137.045645,117.687505 124.653194,117.687505 C108.446927,117.687505 95.5783632,105.631428 95.5783632,88.9213174 C95.5783632,72.2103868 108.446927,60.1551299 124.653194,60.1551299 C137.045645,60.1551299 147.77047,67.0777965 151.345412,77.9395326 L136.807588,82.355109 C134.78206,77.3421576 130.492539,74.0008729 124.772632,74.0008729 C116.670112,74.0008729 111.069233,80.3257549 111.069233,88.9213174" id="Fill-6" fill="#FFFFFF"></path>
                                <path d="M190.338989,60.1551299 C202.13507,60.1551299 210.595903,67.6751715 210.595903,80.4458035 L210.595903,116.253887 L195.105033,116.253887 L195.105033,84.3840535 C195.105033,77.462616 190.695665,74.5974285 185.811411,74.5974285 C181.281379,74.5974285 177.230323,77.1036993 174.25175,80.803491 L174.25175,116.253887 L158.760881,116.253887 L158.760881,32.7012826 L174.013694,32.7012826 L174.013694,63.7348729 C174.013694,65.6458174 173.775637,68.0332687 173.775637,68.0332687 C177.946948,62.899859 184.14215,60.1551299 190.338989,60.1551299" id="Fill-8" fill="#FFFFFF"></path>
                                <path d="M234.264023,83.0727785 L258.692247,83.0727785 C257.857821,77.5812715 253.211624,73.0452368 246.658109,73.0452368 C240.102549,73.0452368 235.456761,77.2239937 234.264023,83.0727785 Z M275.256008,93.4567785 L234.622335,93.4567785 C235.456761,99.5440215 240.222805,104.438153 247.134632,104.438153 C251.66221,104.438153 255.951731,102.527619 258.097923,98.8282368 L274.183117,100.498265 C269.296817,112.195834 259.050559,117.687341 246.896575,117.687341 C230.57087,117.687341 218.297039,105.631674 218.297039,88.9211535 C218.297039,72.2102229 230.332814,60.154966 246.658109,60.154966 C261.67082,60.154966 275.256008,69.9428201 275.256008,92.8594035 L275.256008,93.4567785 Z" id="Fill-10" fill="#FFFFFF"></path>
                                <path d="M316.594976,76.8653229 L310.04187,76.8653229 C302.176998,76.8653229 298.602465,80.5642951 298.602465,90.1145104 L298.602465,116.253969 L283.111596,116.253969 L283.111596,61.5867812 L298.125943,61.5867812 L298.125943,70.3007535 C300.269681,64.4519687 305.513883,60.8709965 312.305864,60.8709965 C313.736659,60.8709965 315.165818,60.9902257 316.594976,61.3483229 L316.594976,76.8653229 Z" id="Fill-12" fill="#FFFFFF"></path>
                                <path d="M215.021959,34.7649715 C210.547146,34.7649715 206.90635,38.4123187 206.90635,42.8950896 C206.90635,47.3774507 210.547146,51.0243882 215.021959,51.0243882 C219.496772,51.0243882 223.137568,47.3774507 223.137568,42.8950896 C223.137568,38.4123187 219.496772,34.7649715 215.021959,34.7649715 M215.021959,56.6195549 C207.466315,56.6195549 201.320196,50.4630687 201.320196,42.8950896 C201.320196,35.3271104 207.466315,29.1693951 215.021959,29.1693951 C222.577603,29.1693951 228.723313,35.3271104 228.723313,42.8950896 C228.723313,50.4630687 222.577603,56.6195549 215.021959,56.6195549" id="Fill-14" fill="#FFFFFF"></path>
                                <polygon id="Fill-16" fill="#FFFFFF" points="45.0119139 50.1963806 23.8866249 18.7756028 28.5201423 15.6498319 49.6450223 47.0706097"></polygon>
                                <polygon id="Fill-18" fill="#FFFFFF" points="25.9997265 44.3640257 21.2864477 41.3603521 39.2110594 13.1460604 43.9243381 16.149734"></polygon>
                                <path d="M193.973977,28.969041 C177.763211,14.2624715 138.082991,-6.97179236 54.4718893,16.0623812 L52.9899654,10.667159 C139.178789,-13.0746049 180.66734,9.34539514 197.723576,24.8214229 L193.973977,28.969041 Z" id="Fill-20" fill="#FFFFFF"></path>
                            </g>
                        </g>
                    </g>
                </g>
            </g>
        </g>
    </g>
</svg>