<svg xmlns="http://www.w3.org/2000/svg" viewBox="0 0 2160 720"><defs><clipPath id="clip-path"><path id="path-1" class="cls-1" d="M0 0h720v720H0z"/></clipPath><clipPath id="clip-path-2"><path class="cls-2" d="M720 0h720v720H720z"/></clipPath><clipPath id="clip-path-3"><path class="cls-2" d="M886.13 472.55c0 64 64.6 127.77 143.33 127.78s143.8-63.88 143.82-142.61l-.07-115.37c-.71-12.83-11.46-24.51-24.84-24.51S1127.71 330 1127 340.7v98c0 2.71-5.76 3.74-8.47 3.74h-.15c-2.71 0-2.08-1-2.08-3.74v-1.61"/></clipPath><clipPath id="clip-path-4"><path id="path-1-2" data-name="path-1" class="cls-2" d="M1440 0h720v720h-720z"/></clipPath><style>.cls-1{fill:#00adee}.cls-2{fill:none}.cls-5{fill:#fff}.cls-7{fill:#22313f}.cls-9{fill:#f2f2f2}.cls-11{fill:#f4cf35}</style></defs><g id="background"><g id="Rectangle"><path id="path-1-3" data-name="path-1" fill="#f2f1ef" d="M-10-10h2180v740H-10z"/></g></g><g id="frame-1"><path id="path-1-4" data-name="path-1" class="cls-1" d="M0 0h720v720H0z"/><g clip-path="url(#clip-path)"><path class="cls-2" d="M0-10h720v740H0z"/><path class="cls-5" d="M342.56 482.19c-60.22 0-85.45-31.06-86.58-32.49a3.84 3.84 0 016-4.77c.28.35 28.45 34.66 95.81 28.9a3.84 3.84 0 01.65 7.66c-5.52.51-10.82.7-15.88.7zM367.09 472.06a3.84 3.84 0 01-3.3-5.8c45.61-77.26 32.72-126.58 32.59-127.07a3.84 3.84 0 017.4-2.08c.6 2.12 14.08 52.71-33.37 133.06a3.84 3.84 0 01-3.32 1.89zM468 402.44a3.48 3.48 0 01-.63-.05 3.84 3.84 0 01-3.17-4.41c.09-.52 8.35-52.34-2.62-104.45a3.84 3.84 0 117.52-1.59c11.27 53.57 3 105.11 2.69 107.28a3.84 3.84 0 01-3.79 3.22zM490.85 382.23a2.91 2.91 0 01-.51 0 3.84 3.84 0 01-3.3-4.31c6.37-47.87-.07-85.91-.13-86.29a3.85 3.85 0 017.58-1.31c.27 1.59 6.7 39.59.17 88.61a3.85 3.85 0 01-3.81 3.3zM531.64 347.62h-.58a3.85 3.85 0 01-3.23-4.37c4.56-30.47.1-50.45 0-50.65a3.85 3.85 0 117.5-1.72c.2.87 4.82 21.61 0 53.5a3.84 3.84 0 01-3.69 3.24zM511.92 363.53a3 3 0 01-.43 0 3.84 3.84 0 01-3.4-4.24c0-.37 4.05-37.52-.14-67.16a3.85 3.85 0 013.27-4.35 3.89 3.89 0 014.35 3.27c4.32 30.62.33 67.53.16 69.08a3.85 3.85 0 01-3.81 3.4zM552.42 330.57h-.34a3.86 3.86 0 01-3.49-4.17c0-.19 1.65-19.45-1.59-32.8a3.84 3.84 0 117.47-1.82c3.55 14.6 1.85 34.46 1.78 35.29a3.86 3.86 0 01-3.83 3.5zM572 314.22h-.21a3.85 3.85 0 01-3.63-4 61.58 61.58 0 00-.71-14.38 3.84 3.84 0 017.52-1.59 68 68 0 01.87 16.39 3.85 3.85 0 01-3.84 3.58zM414.26 262.21a3.84 3.84 0 01-2.65-1.06c-29.86-28.36-74.87-29.76-75.32-29.77a3.84 3.84 0 01-3.75-3.93 3.77 3.77 0 013.93-3.75c2 .05 48.44 1.5 80.44 31.88a3.84 3.84 0 01-2.65 6.63zM405.58 231.39a3.83 3.83 0 01-2.26-.75c-23.15-16.9-60.68-19.27-61.06-19.3a3.83 3.83 0 01-3.61-4.06 3.9 3.9 0 014.05-3.61c1.63.09 40.15 2.51 65.15 20.77a3.84 3.84 0 01-2.27 6.95zM396.86 206.2a3.77 3.77 0 01-1.69-.39c-19-9.35-47.45-12.55-47.73-12.58a3.84 3.84 0 01.84-7.64c1.21.13 30.06 3.38 50.28 13.32a3.84 3.84 0 01-1.7 7.29zM388.18 184.07a3.84 3.84 0 01-1.44-.28c-13-5.25-33.43-8.75-33.63-8.79a3.84 3.84 0 111.29-7.58c.87.15 21.48 3.68 35.22 9.25a3.84 3.84 0 01-1.44 7.4zM379.94 162.51a3.58 3.58 0 01-1.19-.2c-.09 0-9.48-3.08-19.43-5.33a3.85 3.85 0 011.7-7.5c10.3 2.34 19.72 5.4 20.12 5.53a3.85 3.85 0 01-1.2 7.5zM426.15 523.4a3.84 3.84 0 01-2.43-6.82c48.79-39.62 49.35-83.94 49.35-84.39a3.85 3.85 0 017.69 0c0 2-.59 48.46-52.19 90.36a3.86 3.86 0 01-2.42.85zM406.9 308.87a3.86 3.86 0 01-3.16-1.65c-.22-.31-22.23-31.1-76.71-34.92a3.84 3.84 0 11.53-7.67c58.4 4.1 81.55 36.83 82.51 38.22a3.84 3.84 0 01-1 5.34 3.79 3.79 0 01-2.17.68zM442.8 536.45a3.84 3.84 0 01-2.28-6.94c.38-.28 37.83-28.09 47.94-69.38a3.84 3.84 0 117.47 1.82c-10.79 44.08-49.24 72.57-50.87 73.76a3.82 3.82 0 01-2.26.74zM461.34 549.33a3.84 3.84 0 01-2.53-6.73c.31-.27 30.84-27.12 41.29-54.37a3.85 3.85 0 017.18 2.76c-11.14 29-42.1 56.25-43.42 57.4a3.76 3.76 0 01-2.52.94zM481.36 562.56a3.84 3.84 0 01-2.54-6.72c.24-.22 24.6-21.84 29.91-39.41a3.85 3.85 0 017.36 2.23c-5.94 19.66-31.12 42-32.19 43a3.84 3.84 0 01-2.54.9z"/><path class="cls-5" d="M334.78 460.26c-24.54 0-42.85-6.59-54.48-19.63-17.3-19.4-13.09-45.63-12.9-46.74a3.84 3.84 0 017.58 1.27c0 .24-3.74 23.81 11.11 40.41 11.22 12.54 30.12 18.19 56.19 16.79a3.89 3.89 0 014 3.64 3.84 3.84 0 01-3.63 4q-4.02.27-7.87.26zM352.35 451.17a3.89 3.89 0 01-1.83-.47 3.84 3.84 0 01-1.54-5.22c34.08-62.6 24.7-114.85 24.6-115.37a3.85 3.85 0 017.56-1.43c.42 2.23 10 55.48-25.41 120.48a3.85 3.85 0 01-3.38 2.01zM334.23 501.18c-18.4 0-55.85-3.29-85.62-27.16a3.85 3.85 0 014.82-6c37.7 30.24 90.63 25.09 91.16 25a3.85 3.85 0 01.8 7.65c-.59.1-4.7.51-11.16.51zM325.25 523.4h-.18c-2.24-.1-55.1-2.82-82.69-26.39a3.85 3.85 0 015-5.85c25.57 21.85 77.52 24.54 78 24.56a3.84 3.84 0 01-.17 7.68zM304.91 540.23h-.26c-1.74-.11-42.9-3.07-66.76-22.33a3.85 3.85 0 014.83-6c22 17.72 62 20.63 62.45 20.65a3.84 3.84 0 01-.26 7.68zM282.43 557.28h-.21c-23.21-1.26-47.86-18.22-48.9-18.95a3.84 3.84 0 014.39-6.31c.24.17 23.92 16.45 44.92 17.57a3.85 3.85 0 01-.2 7.69zM394.7 325.89a3.84 3.84 0 01-3.12-1.59c-25.83-35.84-86.12-32.11-86.73-32.08a3.84 3.84 0 01-.54-7.67c2.66-.18 65.17-4.08 93.51 35.25a3.84 3.84 0 01-3.12 6.09zM334.92 433.26a3.79 3.79 0 01-2.19-.69 3.85 3.85 0 01-1-5.35c.31-.45 31.12-46.11 14.5-111a3.85 3.85 0 017.45-1.91c17.53 68.4-14.27 115.3-15.64 117.25a3.82 3.82 0 01-3.12 1.7zM169.72 324.74a3.84 3.84 0 01-.65-7.63c54.08-9.35 99.34-12.71 138.39-10.28a3.85 3.85 0 013.6 4.08 3.78 3.78 0 01-4.06 3.59c-38.45-2.39-83.12.94-136.6 10.19a4.89 4.89 0 01-.68.05zM320 417.2a3.94 3.94 0 01-1.56-.33 3.85 3.85 0 01-1.95-5.08c23.51-53.05 3.45-104.79 3.24-105.34a3.84 3.84 0 017.14-2.84c.89 2.22 21.49 55.2-3.38 111.3a3.84 3.84 0 01-3.49 2.29zM147.9 304.14a3.85 3.85 0 01-.7-7.63c.64-.12 64.51-11.72 141.26-11.72a3.85 3.85 0 110 7.69c-76 0-139.23 11.47-139.87 11.59a4 4 0 01-.69.07zM198.09 342a3.84 3.84 0 01-.66-7.63c70.48-12.5 110.69-3.82 112.36-3.45a3.84 3.84 0 01-1.68 7.5c-.4-.08-40.52-8.67-109.34 3.52a4 4 0 01-.68.06zM310.93 362.06a3.53 3.53 0 01-.79-.08c-.31-.06-32.38-6.53-91.3-.71a3.84 3.84 0 11-.76-7.65c60.25-6 92.3.55 93.64.83a3.85 3.85 0 01-.79 7.61zM310.93 385.83a3.73 3.73 0 01-1.31-.23c-20.45-7.38-62.25-4.52-62.66-4.49a3.84 3.84 0 11-.54-7.67c1.78-.12 43.84-3 65.81 4.93a3.84 3.84 0 01-1.3 7.46z"/><path class="cls-5" d="M316.5 440.83a4 4 0 01-1-.14c-24.82-6.7-27.58-31.85-25.58-44.21a3.84 3.84 0 017.59 1.22c-.18 1.18-4.3 29 20 35.57a3.85 3.85 0 01-1 7.56zM258.48 573.11a4.38 4.38 0 01-.71-.07c-.58-.11-14.53-2.79-30-13a3.84 3.84 0 114.22-6.42 84.27 84.27 0 0027.22 11.83 3.85 3.85 0 01-.71 7.63zM420 293.71a3.82 3.82 0 01-3.14-1.62c-.25-.34-25.25-34.6-85.13-41.31a3.84 3.84 0 11.85-7.64c63.53 7.12 89.48 43 90.55 44.52a3.83 3.83 0 01-3.13 6zM419.26 405.47a4.2 4.2 0 01-.92-.11 3.86 3.86 0 01-2.82-4.65c13.12-53.95 3.09-83.75 3-84a3.84 3.84 0 017.25-2.56c.45 1.28 11 32-2.77 88.42a3.85 3.85 0 01-3.74 2.9zM443.18 405.46a3.77 3.77 0 01-.88-.1 3.84 3.84 0 01-2.86-4.62c.13-.57 13.17-57.41-2.47-105.08a3.85 3.85 0 117.31-2.39c16.32 49.76 3.21 106.82 2.64 109.23a3.83 3.83 0 01-3.74 2.96zM435 427.21a114.82 114.82 0 01-20.78-1.91 3.84 3.84 0 011.39-7.56c28.29 5.19 48.08-2.67 48.28-2.74a3.84 3.84 0 112.89 7.12c-.71.27-12.88 5.09-31.78 5.09zM435.15 446.47a116 116 0 01-28.72-3.36 3.85 3.85 0 011.94-7.45c24 6.25 50.34 1.11 50.61 1.06a3.84 3.84 0 011.51 7.54 141 141 0 01-25.34 2.21zM436.07 464.73a197 197 0 01-41.71-4.56 3.84 3.84 0 011.65-7.51c29.88 6.56 53.53 3.75 53.77 3.73a3.84 3.84 0 011 7.63 127.83 127.83 0 01-14.71.71zM407.4 510.75a3.85 3.85 0 01-2.17-7c17.67-12.08 24.09-25.63 24.15-25.77a3.85 3.85 0 017 3.23c-.3.64-7.39 15.62-26.79 28.89a3.85 3.85 0 01-2.19.65zM393.43 500a3.85 3.85 0 01-2.28-6.95c11.37-8.32 14.47-16.59 14.5-16.68a3.84 3.84 0 017.25 2.63c-.14.42-3.75 10.48-17.21 20.33a3.82 3.82 0 01-2.26.67zM378 487.59a3.85 3.85 0 01-2.08-7.08 23.85 23.85 0 008.24-10.84 3.84 3.84 0 117.2 2.69A31.31 31.31 0 01380.08 487a3.81 3.81 0 01-2.08.59zM500.3 575.4a3.84 3.84 0 01-2.37-6.87c.12-.09 11.53-9.1 17.6-21.15a3.84 3.84 0 116.87 3.45c-6.86 13.64-19.22 23.36-19.74 23.77a3.84 3.84 0 01-2.36.8zM236.09 587.4a4 4 0 01-.91-.11 36.62 36.62 0 01-11.77-5.45 3.84 3.84 0 014.56-6.19 28.62 28.62 0 009 4.16 3.85 3.85 0 01-.9 7.59zM374 142.29a3.84 3.84 0 01-1.32-.24 33.85 33.85 0 00-6.69-1.78 3.84 3.84 0 01-3.39-4.24 3.79 3.79 0 014.21-3.4 38.42 38.42 0 018.51 2.2 3.85 3.85 0 01-1.32 7.46zM519.76 585.64a3.84 3.84 0 01-2.67-6.61 41.28 41.28 0 004.33-4.62 3.85 3.85 0 016.33 4.37 43.2 43.2 0 01-5.33 5.79 3.84 3.84 0 01-2.66 1.07z"/></g></g><g clip-path="url(#clip-path-2)" id="frame-2"><g id="Rectangle-2" data-name="Rectangle"><path id="path-1-5" data-name="path-1" class="cls-7" d="M720 0h720v720H720z"/></g><path transform="rotate(-45 950.376 182.771)" fill="#6cc396" d="M922.7 155.1h55.34v55.34H922.7z"/><path class="cls-9" d="M1127 437.88v.79c0 2.71-5.76 3.74-8.47 3.74h-.15c-2.71 0-2.08-1-2.08-3.74v-.79l6.81-265.15a24.82 24.82 0 00-49.64 0v189.62l-5.35.78c0 2.72-5.3 4.33-8 4.33h-.12c-2.72 0-2.55-1.61-2.55-4.33V143.24c0-13.56-10.52-24.57-24.09-24.57s-24.09 11-24.09 24.57v219.89c0 2.72-6.26 4.33-9 4.33h-.14c-2.72 0-6.94-1.61-6.94-4.33v-190.4c0-13.57-7.84-24.57-21.41-24.57s-21.42 11-21.42 24.57v204.65c0 2.72-5.8 6.14-8.51 6.14h-.15c-2.71 0-7.4-3.42-7.4-6.14V261.2c0-13.56-10.51-24.57-24.08-24.57s-24.1 11-24.1 31.95v204c0 64 64.61 127.76 143.33 127.78s142.92-63.78 142.94-142.51l.36-115.42c-.7-12.82-11.24-24.54-24.61-24.54s-23.93 12.13-24.61 22.84h3.47z"/><path d="M1113.91 533.63a43.3 43.3 0 1141.41 45.11 43.31 43.31 0 01-41.41-45.11z" stroke="#6cc396" stroke-miterlimit="10" stroke-width="5.35" fill="none"/><path class="cls-11" d="M1237.95 373.95l-51.82-18.03 42.9-36.11 8.92 54.14z"/><rect class="cls-11" x="1030.67" y="217.57" width="273.02" height="176.66" rx="8.86" ry="8.86"/><rect class="cls-11" x="1030.67" y="217.57" width="273.02" height="176.66" rx="8.86" ry="8.86"/><path class="cls-9" d="M889.67 472.13c0 64 62.83 128 141.56 128a142 142 0 00142-142.4l-.07-115.37c-.71-12.83-11.46-24.51-24.84-24.51S1127.71 330 1127 340.7v98c0 2.71-5.76 3.74-8.47 3.74h-.15c-2.71 0-2.08-1-2.08-3.74v-1.61"/><path class="cls-11" transform="rotate(-45 912.035 535.293)" d="M886.77 510.03h50.53v50.53h-50.53z"/><g clip-path="url(#clip-path-3)"><path opacity=".2" d="M947.76 535.3l3.78 105.45-39.5-69.72 35.72-35.73z"/></g></g><g clip-path="url(#clip-path-4)" id="frame-3"><g id="Rectangle-3" data-name="Rectangle"><path id="path-1-6" data-name="path-1" fill="#eece60" d="M1440 0h720v720h-720z"/></g><path class="cls-7" d="M1629.69 326.5v-50.05c0-16.56 9.21-24 23-24s20.69 8.54 20.69 23.36v9.48h-11.48v-9.35c0-7.61-3.2-12.41-10-12.41s-10.41 4.67-10.41 12.14v49.13c0 7.74 3.07 13.21 10.41 13.21 7.08 0 10-4.54 10-12.41v-9.08h11.48v8.41c0 13.88-6.81 24.16-21.35 24.16-14.33-.03-22.34-6.97-22.34-22.59zM1683.23 254h11.88v93.44h-11.88zM1719.42 264.83h-15.75V254h43.52v10.81h-15.76v82.63h-12zM1755.81 254h11.88v93.44h-11.88zM1776.78 343.85l24.56-79h-23.76V254h38.58v3.6l-25 79H1816v10.81h-39.24zM1825.21 254h37v10.55h-25.09v29h20.68v10.68h-20.68v32.7h25.09v10.55h-37zM1871.83 254h13.48l20.42 65.81h.4V254h10.15v93.57h-11.35l-22.56-71.14h-.4v71h-10.14zM1926.12 325.43v-3.73h10.94v1.87c0 6.27 1.47 14.68 10.55 14.68 6.94 0 9.34-5.87 9.34-14.28 0-7.35-4.4-13-9.34-16.56l-8-5.87c-6.41-4.67-13.35-10.81-13.35-24.69v-.27c0-14.42 7.87-24.16 21.89-24.16 12.68 0 20.16 8 20.16 22.42v4.41h-11v-4c0-6.4-2.8-12-9.74-12-7.34 0-10 6.14-10 12.41 0 8.82 6.4 12.82 10.94 16.42l6.27 4.94c7.48 5.88 14.15 12.55 14.15 26.17v.26c0 15.35-6.54 25.63-21.89 25.63-12.65-.02-20.92-7.76-20.92-23.65z"/><g><path class="cls-7" d="M1562.57 372.41h37v10.81h-25.09v28.57h20.69v10.81h-20.69v43.25h-11.88zM1607.14 445.16v-50.73c0-14.15 7.34-23.63 22.16-23.63s22 9.48 22 23.77v48.72c0 13.75-7.47 24.16-22.16 24.16s-22-8.45-22-22.29zm32.17-1.07V393.9c0-6.68-2.8-12-10.28-12s-10.14 5.33-10.14 12v50.19c0 6.54 2.8 12.28 10.14 12.28 7.88 0 10.28-5.37 10.28-12.28zM1662 372.41h21.63c14.81 0 22.55 8.41 22.55 24.29v.67c0 10.94-4.8 18.42-11.21 21.36v.27c6.94 2.54 9.08 7.75 9.21 15.22l.54 20.56c.13 4.27.66 7.47 2 10.41v.67h-11.75c-1.07-2.14-1.6-4.94-1.73-8.81l-.54-20.83c-.13-6.94-2.4-10.54-8.41-10.54h-10.41v40.18H1662zm20.42 43.91c8.95 0 11.62-7.6 11.62-14.15v-5.47c0-5.87-3.07-13.61-11.48-13.61h-8.68v33.23zM1737.51 372.41h37V383h-25.1v29h20.69v10.6h-20.69v32.7h25.1v10.55h-37zM1783.72 444.22v-71.81h11.88V442c0 5.88 1.2 14.82 10.55 14.82 8.81 0 10.27-8 10.27-15.35v-69h11.08v70.74c0 13.49-6.14 24.43-21.75 24.43-14.42-.06-22.03-7.93-22.03-23.42zM1838.46 372.41h21.63c14.81 0 22.56 8.41 22.56 24.29v.67c0 10.94-4.81 18.42-11.22 21.36v.27c6.94 2.54 9.08 7.75 9.21 15.22l.54 20.56c.13 4.27.66 7.47 2 10.41v.67h-11.75c-1.07-2.14-1.6-4.94-1.73-8.81l-.54-20.83c-.13-6.94-2.4-10.54-8.41-10.54h-10.41v40.18h-11.88zm20.43 43.91c8.94 0 11.61-7.6 11.61-14.15v-5.47c0-5.87-3.07-13.61-11.48-13.61h-8.68v33.23zM1892.6 445.16v-50.73c0-14.15 7.34-23.63 22.16-23.63s22 9.48 22 23.77v48.72c0 13.75-7.48 24.16-22.16 24.16s-22-8.45-22-22.29zm32.17-1.07V393.9c0-6.68-2.8-12-10.28-12s-10.14 5.33-10.14 12v50.19c0 6.54 2.8 12.28 10.14 12.28 7.88 0 10.28-5.37 10.28-12.28zM1947.42 372.41h21.63c15.62 0 22.29 10 22.29 26v.66c0 16.16-7.34 27.77-22.83 27.77h-9.21v39h-11.88zm20 44.31c9.47 0 11.48-6.27 11.48-14.68v-4.94c0-8.14-2.27-14-11.88-14h-7.75v33.63zM2000.46 372.41h37V383h-25.09v29H2033v10.6h-20.68v32.7h25.09v10.55h-37z"/></g></g></svg>