<svg xmlns="http://www.w3.org/2000/svg" xmlns:xlink="http://www.w3.org/1999/xlink" viewBox="0 0 2880 720" width="2880" height="720">
  <defs>
    <style>
      .cls-1 {
        fill: #fff;
      }

      .cls-12, .cls-15, .cls-2, .cls-5, .cls-6 {
        fill: none;
      }

      .cls-3 {
        fill: #003ac5;
      }

      .cls-4 {
        clip-path: url(#clip-path);
      }

      .cls-12, .cls-15, .cls-5, .cls-6 {
        stroke: #fff;
      }

      .cls-5, .cls-6 {
        stroke-width: 4px;
      }

      .cls-5 {
        stroke-dasharray: 12 12;
      }

      .cls-7 {
        mask: url(#mask);
      }

      .cls-8 {
        clip-path: url(#clip-path-2);
      }

      .cls-9 {
        mask: url(#mask-11);
      }

      .cls-10 {
        mask: url(#mask-18);
      }

      .cls-11 {
        clip-path: url(#clip-path-3);
      }

      .cls-12, .cls-15 {
        stroke-miterlimit: 10;
      }

      .cls-12 {
        stroke-width: 5.2px;
      }

      .cls-13 {
        mask: url(#mask-21);
      }

      .cls-14 {
        clip-path: url(#clip-path-4);
      }

      .cls-15 {
        stroke-width: 5.64px;
      }

      .cls-16 {
        mask: url(#mask-31);
      }

      .cls-17 {
        mask: url(#mask-37);
      }
    </style>
    <clipPath id="clip-path">
      <rect id="path-1" class="cls-2" width="720" height="720"/>
    </clipPath>
    <mask id="mask" x="-132.45" y="-179.43" width="983.28" height="1093.9" maskUnits="userSpaceOnUse">
      <g id="mask-4">
        <polygon id="path-3" class="cls-1" points="-132.45 914.47 850.82 914.47 850.82 -179.43 -132.45 -179.43 -132.45 914.47"/>
      </g>
    </mask>
    <clipPath id="clip-path-2">
      <rect id="path-1-2" data-name="path-1" class="cls-2" x="720" width="720" height="720"/>
    </clipPath>
    <mask id="mask-11" x="491.12" y="-80.75" width="1093.9" height="983.28" maskUnits="userSpaceOnUse">
      <g id="mask-4-12" data-name="mask-4">
        <polygon id="path-3-11" data-name="path-3" class="cls-1" points="1585.01 902.52 1585.01 -80.75 491.12 -80.75 491.12 902.52 1585.01 902.52"/>
      </g>
    </mask>
    <mask id="mask-18" x="671.12" y="-80.75" width="1093.9" height="983.28" maskUnits="userSpaceOnUse">
      <g id="mask-4-19" data-name="mask-4">
        <polygon id="path-3-18" data-name="path-3" class="cls-1" points="1765.01 902.52 1765.01 -80.75 671.12 -80.75 671.12 902.52 1765.01 902.52"/>
      </g>
    </mask>
    <clipPath id="clip-path-3">
      <rect class="cls-2" x="1440" width="720" height="720"/>
    </clipPath>
    <mask id="mask-21" x="1309.55" y="-189.66" width="983.28" height="1093.9" maskUnits="userSpaceOnUse">
      <g id="mask-4-22" data-name="mask-4">
        <polygon id="path-3-21" data-name="path-3" class="cls-1" points="1309.55 904.23 2292.82 904.23 2292.82 -189.66 1309.55 -189.66 1309.55 904.23"/>
      </g>
    </mask>
    <clipPath id="clip-path-4">
      <rect class="cls-2" x="2160" width="720" height="720"/>
    </clipPath>
    <mask id="mask-31" x="2020.18" y="-124.45" width="1093.9" height="983.28" maskUnits="userSpaceOnUse">
      <g id="mask-4-32" data-name="mask-4">
        <polygon id="path-3-31" data-name="path-3" class="cls-1" points="2020.18 -124.45 2020.18 858.82 3114.08 858.82 3114.08 -124.45 2020.18 -124.45"/>
      </g>
    </mask>
    <mask id="mask-37" x="1840.18" y="-124.45" width="1093.9" height="983.28" maskUnits="userSpaceOnUse">
      <g id="mask-4-38" data-name="mask-4">
        <polygon id="path-3-37" data-name="path-3" class="cls-1" points="1840.18 -124.45 1840.18 858.82 2934.08 858.82 2934.08 -124.45 1840.18 -124.45"/>
      </g>
    </mask>
  </defs>
  <title>thumbnail</title>
  <g id="background">
    <g id="Rectangle">
      <rect id="path-1-3" data-name="path-1" class="cls-3" x="-10" y="-10" width="2900" height="740"/>
    </g>
  </g>
  <g id="frame-1">
    <g class="cls-4">
      <g>
        <polygon id="Fill-1" class="cls-1" points="187.35 380 171 338.6 171 398 155 398 155 314 178.22 314 196.35 361.64 214.84 314 237 314 237 398 220.65 398 220.65 338.6 204.77 380 187.35 380"/>
        <path id="Fill-2" class="cls-1" d="M283.53,377.68v-3.94c-1,1-2.62,1.19-4.77,1.19h-5.84c-4.88,0-7.74,2.15-7.74,6s3,6.45,7.74,6.45C278.52,387.35,283.53,384.48,283.53,377.68Zm0-16.83c0-3.94-3.1-6.45-9.06-6.45-5.48,0-12.39,2.75-16.44,5.14L252,347.84a46.68,46.68,0,0,1,23.36-6.68c12.39,0,23.71,5.72,23.71,20.17v35.92H283.53v-5.13c-2.86,4.3-9.06,6.57-15.26,6.57-11.55,0-19.06-8.24-19.06-17.19,0-10.39,7.62-16.83,19.78-16.83h10.72c2.63,0,3.82-1.19,3.82-3.22Z"/>
        <path id="Fill-4" class="cls-1" d="M328.66,321.82v20.77h11.79v13.13H328.66v24.7c0,3.47,2.74,3.94,5.12,3.94,3.93,0,7.15-.36,7.15-.36v13.25s-7.51.72-12,.72c-7.75,0-15.73-1.31-15.73-12.29v-30h-8.58V342.59h8.58V321.82Z"/>
        <path id="Fill-6" class="cls-1" d="M360.07,369.92c0,8.6,5.6,14.92,13.7,14.92a12.51,12.51,0,0,0,12-8.35L400.35,381c-3.58,10.86-14.3,17.67-26.7,17.67-16.2,0-29.07-12.06-29.07-28.77s12.87-28.76,29.07-28.76c12.4,0,23.12,6.92,26.7,17.78l-14.54,4.42a12.67,12.67,0,0,0-12-8.36c-8.1,0-13.7,6.33-13.7,14.92"/>
        <path id="Fill-8" class="cls-1" d="M439.34,341.16c11.8,0,20.26,7.52,20.26,20.29v35.8H444.11V365.38c0-6.92-4.41-9.78-9.3-9.78-4.53,0-8.58,2.5-11.56,6.2v35.45H407.76V313.7H423v31c0,1.92-.23,4.3-.23,4.3a21.38,21.38,0,0,1,16.56-7.87"/>
        <path id="Fill-10" class="cls-1" d="M483.26,364.07h24.43a11.83,11.83,0,0,0-12-10A12.18,12.18,0,0,0,483.26,364.07Zm41,10.39H483.62a12.37,12.37,0,0,0,12.51,11c4.53,0,8.82-1.91,11-5.61l16.08,1.67c-4.88,11.7-15.13,17.19-27.28,17.19-16.33,0-28.6-12.06-28.6-28.77s12-28.76,28.36-28.76c15,0,28.6,9.78,28.6,32.7Z"/>
        <path id="Fill-12" class="cls-1" d="M565.59,357.87H559c-7.86,0-11.44,3.69-11.44,13.24v26.14H532.11V342.59h15v8.71c2.14-5.85,7.38-9.43,14.18-9.43a17.3,17.3,0,0,1,4.28.48Z"/>
        <path id="Fill-14" class="cls-1" d="M464,315.77a8.13,8.13,0,1,0,8.12,8.13,8.13,8.13,0,0,0-8.12-8.13m0,21.85a13.73,13.73,0,1,1,13.7-13.72A13.73,13.73,0,0,1,464,337.62"/>
        <polygon id="Fill-16" class="cls-1" points="294.01 331.2 272.89 299.78 277.52 296.65 298.64 328.07 294.01 331.2"/>
        <polygon id="Fill-18" class="cls-1" points="275 325.36 270.29 322.36 288.21 294.15 292.92 297.15 275 325.36"/>
        <path id="Fill-20" class="cls-1" d="M443,310c-16.21-14.71-55.89-35.94-139.5-12.91L302,291.67c86.19-23.74,127.68-1.32,144.73,14.15Z"/>
      </g>
      <g>
        <path id="Stroke-1" class="cls-5" d="M353.88,42.52q-3.63,4.08-7.55,8a186.81,186.81,0,0,1-138,54.8"/>
        <path id="Stroke-11" class="cls-6" d="M256.84,692.52a261.89,261.89,0,0,1,0-180"/>
        <polyline id="Stroke-13" class="cls-6" points="-130.53 122.52 149.47 122.52 149.47 262.52 -130.53 262.52"/>
        <path id="Stroke-15" class="cls-6" d="M549.47,42.52h163a69.71,69.71,0,0,0,69.79-70,69.72,69.72,0,0,0-69.79-70h-163"/>
        <polyline id="Stroke-17" class="cls-6" points="-130.53 -97.48 149.47 -97.48 149.47 42.52 -130.53 42.52"/>
        <path id="Stroke-19" class="cls-6" d="M40.72,62.52V2.85A90.64,90.64,0,0,1,93.59-79.54l9.61-4.41L169.47-103"/>
        <path id="Stroke-21" class="cls-6" d="M129.9,42.73a19.79,19.79,0,0,1,19.79-19.79"/>
        <path id="Stroke-23" class="cls-5" d="M40.72,282.52V222.85a90.64,90.64,0,0,1,52.87-82.39l9.61-4.41L169.47,117"/>
        <path id="Stroke-25" class="cls-5" d="M-13.4,852.52V792.85a90.63,90.63,0,0,1,52.87-82.39L75.9,692.52"/>
        <path id="Stroke-27" class="cls-6" d="M129.9,262.73a19.79,19.79,0,0,1,19.79-19.79"/>
        <path id="Stroke-37" class="cls-6" d="M701.3-77.91V22.94"/>
        <path id="Stroke-39" class="cls-6" d="M423.6,132.52a50.43,50.43,0,1,1-50.42-50.43A50.42,50.42,0,0,1,423.6,132.52Z"/>
        <path id="Stroke-41" class="cls-6" d="M383.18,83.09,209.47,42.52"/>
        <path id="Stroke-43" class="cls-6" d="M383.18,181.94,209.47,222.52"/>
        <path id="Stroke-45" class="cls-6" d="M373.18,82.09V182.94"/>
        <path id="Stroke-55" class="cls-5" d="M74.09,608.89a127.82,127.82,0,0,1-97.23-124.1c0-2.9.1-5.79.29-8.65"/>
        <path id="Stroke-59" class="cls-6" d="M470.27,42.52v180"/>
        <path id="Stroke-61" class="cls-6" d="M338.05,553.09l173.7-40.57"/>
        <path id="Stroke-63" class="cls-6" d="M338.05,651.94l173.7,40.58"/>
        <polyline id="Stroke-75" class="cls-6" points="169.47 472.52 -110.53 472.52 -110.53 612.52 169.47 612.52"/>
        <path id="Stroke-81" class="cls-6" d="M99.26,452.52v180"/>
        <path id="Stroke-83" class="cls-6" d="M469.47,522.39V682.64"/>
        <path id="Stroke-85" class="cls-6" d="M149.69,542.52a50.43,50.43,0,1,1-50.43-50.43A50.42,50.42,0,0,1,149.69,542.52Z"/>
        <polyline id="Stroke-87" class="cls-6" points="-130.53 692.52 149.47 692.52 149.47 832.52 -130.53 832.52"/>
        <path id="Stroke-91" class="cls-6" d="M149.69,713.85a19.79,19.79,0,0,1-19.79-19.79"/>
        <path id="Stroke-93" class="cls-6" d="M75.9,672.52v180"/>
        <path id="Stroke-95" class="cls-6" d="M121.16,762.52A45.27,45.27,0,1,1,75.9,717.25,45.26,45.26,0,0,1,121.16,762.52Z"/>
        <path id="Stroke-97" class="cls-6" d="M712.69-77.91a50.43,50.43,0,0,1,50.42,50.43,50.43,50.43,0,0,1-50.42,50.42"/>
        <path id="Stroke-103" class="cls-6" d="M712.69,22.94H549.47"/>
        <path id="Stroke-111" class="cls-6" d="M849.47,122.52h-163a70,70,0,0,0,0,140h163"/>
        <path id="Stroke-113" class="cls-6" d="M697.43,242.94V142.09"/>
        <path id="Stroke-115" class="cls-6" d="M686.05,242.94a50.43,50.43,0,0,1,0-100.85"/>
        <path id="Stroke-117" class="cls-6" d="M686.05,242.94H849.26"/>
        <path id="Stroke-119" class="cls-5" d="M686.05,222.94H849.26"/>
        <path id="Stroke-121" class="cls-6" d="M686.05,142.09H849.26"/>
        <path id="Stroke-123" class="cls-5" d="M686.05,162.09H849.26"/>
        <path id="Stroke-125" class="cls-6" d="M686.05,222.94a30.43,30.43,0,0,1,0-60.85"/>
        <polygon id="Stroke-127" class="cls-6" points="697.43 174.81 715.13 192.52 697.43 210.22 679.73 192.52 697.43 174.81"/>
        <path id="Stroke-129" class="cls-5" d="M634.84,277.35l-86.37-78.82"/>
        <path id="Stroke-131" class="cls-5" d="M560.24,171.28l53.94-61.48"/>
        <path id="Stroke-133" class="cls-6" d="M549.47,612.52h163a70,70,0,0,0,0-140h-163"/>
        <path id="Stroke-135" class="cls-6" d="M701.3,492.09V592.94"/>
        <path id="Stroke-137" class="cls-6" d="M712.69,492.09a50.43,50.43,0,0,1,0,100.85"/>
        <path id="Stroke-139" class="cls-6" d="M712.69,492.09H549.47"/>
        <path id="Stroke-141" class="cls-5" d="M712.69,512.09H549.47"/>
        <path id="Stroke-143" class="cls-6" d="M712.69,592.94H549.47"/>
        <path id="Stroke-145" class="cls-5" d="M712.69,572.94H549.47"/>
        <path id="Stroke-147" class="cls-6" d="M712.69,512.09a30.43,30.43,0,0,1,0,60.85"/>
        <g class="cls-7">
          <polygon id="Stroke-151" class="cls-6" points="688.79 555.03 713.82 555.03 713.82 530 688.79 530 688.79 555.03"/>
        </g>
        <g class="cls-7">
          <path id="Stroke-153" class="cls-5" d="M849.47,531.35l-86.36-78.83"/>
        </g>
        <g class="cls-7">
          <path id="Stroke-154" class="cls-6" d="M850.47,832.52h-163a70,70,0,0,1,0-140h163"/>
        </g>
        <g class="cls-7">
          <path id="Stroke-155" class="cls-6" d="M698.7,712.09V812.94"/>
        </g>
        <g class="cls-7">
          <path id="Stroke-156" class="cls-6" d="M687.31,712.09a50.43,50.43,0,0,0,0,100.85"/>
        </g>
        <g class="cls-7">
          <path id="Stroke-157" class="cls-6" d="M687.31,712.09H850.53"/>
        </g>
        <g class="cls-7">
          <path id="Stroke-162" class="cls-5" d="M549.47,742a79.47,79.47,0,0,0,78.84-69.45"/>
        </g>
        <g class="cls-7">
          <path id="Stroke-165" class="cls-5" d="M451.56,512.52a151.16,151.16,0,0,1-242.09,88.42"/>
        </g>
        <g class="cls-7">
          <path id="Stroke-166" class="cls-6" d="M297.62,602.52a50.43,50.43,0,1,0,50.43-50.43A50.42,50.42,0,0,0,297.62,602.52Z"/>
        </g>
        <g class="cls-7">
          <path id="Stroke-167" class="cls-6" d="M348.05,552.09V652.94"/>
        </g>
      </g>
    </g>
  </g>
  <g id="frame-2">
    <g class="cls-8">
      <g>
        <polygon id="Fill-1-2" data-name="Fill-1" class="cls-1" points="907.35 380 891 338.6 891 398 875 398 875 314 898.23 314 916.36 361.64 934.84 314 957 314 957 398 940.65 398 940.65 338.6 924.77 380 907.35 380"/>
        <path id="Fill-2-2" data-name="Fill-2" class="cls-1" d="M1003.53,377.68v-3.94c-1,1-2.62,1.19-4.77,1.19h-5.84c-4.88,0-7.74,2.15-7.74,6s3,6.45,7.74,6.45C998.52,387.35,1003.53,384.48,1003.53,377.68Zm0-16.83c0-3.94-3.1-6.45-9.06-6.45-5.48,0-12.39,2.75-16.44,5.14L972,347.84a46.68,46.68,0,0,1,23.36-6.68c12.39,0,23.71,5.72,23.71,20.17v35.92h-15.49v-5.13c-2.86,4.3-9.06,6.57-15.26,6.57-11.55,0-19.06-8.24-19.06-17.19,0-10.39,7.62-16.83,19.78-16.83h10.72c2.63,0,3.82-1.19,3.82-3.22Z"/>
        <path id="Fill-4-2" data-name="Fill-4" class="cls-1" d="M1048.66,321.82v20.77h11.79v13.13h-11.79v24.7c0,3.47,2.74,3.94,5.12,3.94,3.93,0,7.15-.36,7.15-.36v13.25s-7.51.72-12,.72c-7.75,0-15.73-1.31-15.73-12.29v-30h-8.58V342.59h8.58V321.82Z"/>
        <path id="Fill-6-2" data-name="Fill-6" class="cls-1" d="M1080.07,369.92c0,8.6,5.6,14.92,13.7,14.92a12.51,12.51,0,0,0,12-8.35l14.54,4.53c-3.58,10.86-14.3,17.67-26.7,17.67-16.2,0-29.07-12.06-29.07-28.77s12.87-28.76,29.07-28.76c12.4,0,23.12,6.92,26.7,17.78l-14.54,4.42a12.67,12.67,0,0,0-12-8.36c-8.1,0-13.7,6.33-13.7,14.92"/>
        <path id="Fill-8-2" data-name="Fill-8" class="cls-1" d="M1159.34,341.16c11.8,0,20.26,7.52,20.26,20.29v35.8h-15.49V365.38c0-6.92-4.41-9.78-9.3-9.78-4.53,0-8.58,2.5-11.56,6.2v35.45h-15.49V313.7H1143v31c0,1.92-.23,4.3-.23,4.3a21.38,21.38,0,0,1,16.56-7.87"/>
        <path id="Fill-10-2" data-name="Fill-10" class="cls-1" d="M1203.26,364.07h24.43a11.83,11.83,0,0,0-12-10A12.18,12.18,0,0,0,1203.26,364.07Zm41,10.39h-40.64a12.37,12.37,0,0,0,12.51,11c4.53,0,8.82-1.91,11-5.61l16.08,1.67c-4.88,11.7-15.13,17.19-27.28,17.19-16.33,0-28.6-12.06-28.6-28.77s12-28.76,28.36-28.76c15,0,28.6,9.78,28.6,32.7Z"/>
        <path id="Fill-12-2" data-name="Fill-12" class="cls-1" d="M1285.59,357.87H1279c-7.86,0-11.44,3.69-11.44,13.24v26.14h-15.49V342.59h15v8.71c2.14-5.85,7.38-9.43,14.18-9.43a17.3,17.3,0,0,1,4.28.48Z"/>
        <rect class="cls-1" x="928.84" y="397.57" width="5.29" height="29.97" transform="translate(154.1 1071) rotate(-64.15)"/>
        <rect class="cls-1" x="913.84" y="408.72" width="31.05" height="5.29" transform="translate(-56.17 659.7) rotate(-38.02)"/>
        <path class="cls-1" d="M1074.53,425.52c-27.8-11.22-119.77-11.35-120.7-11.35v-5.29c3.83,0,93.94.13,122.68,11.74Z"/>
        <path class="cls-1" d="M1169.69,453.38c-70.2,0-127.32-38.78-127.32-86.45,0-17.68,16.15-38,41.14-51.78,31-17.11,80.08-25.38,124.6,2.74l-2.83,4.47c-53.58-33.84-104.79-10.53-119.21-2.58-23.33,12.86-38.4,31.36-38.4,47.15,0,44.75,54.73,81.16,122,81.16s122-36.41,122-81.16c0-39.57-42.49-73.2-101-80l.61-5.26c61.26,7.09,105.72,42.93,105.72,85.23C1297,414.6,1239.89,453.38,1169.69,453.38Z"/>
      </g>
      <g>
        <path id="Stroke-1-2" data-name="Stroke-1" class="cls-5" d="M622.07,416.19q4.09,3.63,8,7.55a186.82,186.82,0,0,1,54.79,138"/>
        <polyline id="Stroke-13-2" data-name="Stroke-13" class="cls-6" points="953.07 840.6 953.07 560.6 1093.07 560.6 1093.07 840.6"/>
        <path id="Stroke-15-2" data-name="Stroke-15" class="cls-6" d="M843.07,220.6V57.6h0a70,70,0,0,0-140,0h0v163"/>
        <polyline id="Stroke-17-2" data-name="Stroke-17" class="cls-6" points="733.07 900.6 733.07 620.6 873.07 620.6 873.07 900.6"/>
        <path id="Stroke-19-2" data-name="Stroke-19" class="cls-6" d="M893.07,729.35H833.4A90.62,90.62,0,0,1,751,676.48l-4.41-9.61L727.51,600.6"/>
        <path id="Stroke-21-2" data-name="Stroke-21" class="cls-6" d="M873.28,640.18a19.79,19.79,0,0,1-19.79-19.79"/>
        <path id="Stroke-23-2" data-name="Stroke-23" class="cls-5" d="M1113.07,669.35H1053.4A90.62,90.62,0,0,1,971,616.48l-4.41-9.61L947.51,540.6"/>
        <path id="Stroke-25-2" data-name="Stroke-25" class="cls-5" d="M1563.07,783.47H1503.4A90.62,90.62,0,0,1,1421,730.6l-17.94-36.43"/>
        <path id="Stroke-27-2" data-name="Stroke-27" class="cls-6" d="M1093.28,580.18a19.79,19.79,0,0,1-19.79-19.79"/>
        <path id="Stroke-37-2" data-name="Stroke-37" class="cls-6" d="M722.64,68.77H823.49"/>
        <path id="Stroke-39-2" data-name="Stroke-39" class="cls-6" d="M712.07,346.47a50.43,50.43,0,1,1-50.42,50.42A50.43,50.43,0,0,1,712.07,346.47Z"/>
        <path id="Stroke-41-2" data-name="Stroke-41" class="cls-6" d="M662.65,386.89,622.07,560.6"/>
        <path id="Stroke-43-2" data-name="Stroke-43" class="cls-6" d="M761.5,386.89,802.07,560.6"/>
        <path id="Stroke-45-2" data-name="Stroke-45" class="cls-6" d="M661.65,396.89H762.5"/>
        <path id="Stroke-55-2" data-name="Stroke-55" class="cls-5" d="M1319.44,636a127.83,127.83,0,0,1-124.1,97.22q-4.36,0-8.65-.29"/>
        <path id="Stroke-59-2" data-name="Stroke-59" class="cls-6" d="M622.07,299.8h180"/>
        <path id="Stroke-61-2" data-name="Stroke-61" class="cls-6" d="M1403.64,432l-40.57-173.71"/>
        <path id="Stroke-63-2" data-name="Stroke-63" class="cls-6" d="M1502.49,432l40.58-173.71"/>
        <polyline id="Stroke-75-2" data-name="Stroke-75" class="cls-6" points="1183.07 540.6 1183.07 820.6 1323.07 820.6 1323.07 540.6"/>
        <path id="Stroke-81-2" data-name="Stroke-81" class="cls-6" d="M1163.07,610.81h180"/>
        <path id="Stroke-83-2" data-name="Stroke-83" class="cls-6" d="M1372.94,300.6h160.25"/>
        <path id="Stroke-85-2" data-name="Stroke-85" class="cls-6" d="M1253.07,560.39a50.42,50.42,0,1,1-50.43,50.42A50.42,50.42,0,0,1,1253.07,560.39Z"/>
        <polyline id="Stroke-87-2" data-name="Stroke-87" class="cls-6" points="1403.07 900.6 1403.07 620.6 1543.07 620.6 1543.07 900.6"/>
        <path id="Stroke-91-2" data-name="Stroke-91" class="cls-6" d="M1424.4,620.39a19.79,19.79,0,0,1-19.79,19.79"/>
        <path id="Stroke-93-2" data-name="Stroke-93" class="cls-6" d="M1383.07,694.18h180"/>
        <path id="Stroke-95-2" data-name="Stroke-95" class="cls-6" d="M1473.07,648.91a45.27,45.27,0,1,1-45.27,45.27A45.27,45.27,0,0,1,1473.07,648.91Z"/>
        <path id="Stroke-97-2" data-name="Stroke-97" class="cls-6" d="M722.64,57.39a50.43,50.43,0,1,1,100.85,0"/>
        <path id="Stroke-103-2" data-name="Stroke-103" class="cls-6" d="M823.49,57.39V220.6"/>
        <path id="Stroke-111-2" data-name="Stroke-111" class="cls-6" d="M923.07-79.4v163h0a70,70,0,0,0,140,0h0v-163"/>
        <path id="Stroke-113-2" data-name="Stroke-113" class="cls-6" d="M1043.49,72.64H942.64"/>
        <path id="Stroke-115-2" data-name="Stroke-115" class="cls-6" d="M1043.49,84a50.43,50.43,0,0,1-100.85,0"/>
        <path id="Stroke-117-2" data-name="Stroke-117" class="cls-6" d="M1043.49,84V-79.19"/>
        <path id="Stroke-119-2" data-name="Stroke-119" class="cls-5" d="M1023.49,84V-79.19"/>
        <path id="Stroke-121-2" data-name="Stroke-121" class="cls-6" d="M942.64,84V-79.19"/>
        <path id="Stroke-123-2" data-name="Stroke-123" class="cls-5" d="M962.64,84V-79.19"/>
        <path id="Stroke-125-2" data-name="Stroke-125" class="cls-6" d="M1023.49,84a30.43,30.43,0,0,1-60.85,0"/>
        <polygon id="Stroke-127-2" data-name="Stroke-127" class="cls-6" points="975.36 72.64 993.07 54.94 1010.77 72.64 993.07 90.34 975.36 72.64"/>
        <path id="Stroke-129-2" data-name="Stroke-129" class="cls-5" d="M1077.9,135.23,999.07,221.6"/>
        <path id="Stroke-131-2" data-name="Stroke-131" class="cls-5" d="M971.83,209.83l-61.48-53.94"/>
        <path id="Stroke-133-2" data-name="Stroke-133" class="cls-6" d="M1283.07,220.6V57.6h0a70,70,0,0,0-140,0h0v163"/>
        <path id="Stroke-135-2" data-name="Stroke-135" class="cls-6" d="M1162.64,68.77h100.85"/>
        <path id="Stroke-137-2" data-name="Stroke-137" class="cls-6" d="M1162.64,57.39a50.43,50.43,0,1,1,100.85,0"/>
        <path id="Stroke-139-2" data-name="Stroke-139" class="cls-6" d="M1162.64,57.39V220.6"/>
        <path id="Stroke-141-2" data-name="Stroke-141" class="cls-5" d="M1182.64,57.39V220.6"/>
        <path id="Stroke-143-2" data-name="Stroke-143" class="cls-6" d="M1263.49,57.39V220.6"/>
        <path id="Stroke-145-2" data-name="Stroke-145" class="cls-5" d="M1243.49,57.39V220.6"/>
        <path id="Stroke-147-2" data-name="Stroke-147" class="cls-6" d="M1182.64,57.39a30.43,30.43,0,1,1,60.85,0"/>
        <g class="cls-9">
          <polygon id="Stroke-151-2" data-name="Stroke-151" class="cls-6" points="1225.58 81.28 1225.58 56.25 1200.55 56.25 1200.55 81.28 1225.58 81.28"/>
        </g>
        <g class="cls-9">
          <path id="Stroke-153-2" data-name="Stroke-153" class="cls-5" d="M1201.89-79.4,1123.07,7"/>
        </g>
        <g class="cls-9">
          <path id="Stroke-154-2" data-name="Stroke-154" class="cls-6" d="M1503.07-80.4v163h0a70,70,0,0,1-140,0h0v-163"/>
        </g>
        <g class="cls-9">
          <path id="Stroke-155-2" data-name="Stroke-155" class="cls-6" d="M1382.64,71.38h100.85"/>
        </g>
        <g class="cls-9">
          <path id="Stroke-156-2" data-name="Stroke-156" class="cls-6" d="M1382.64,82.76a50.43,50.43,0,0,0,100.85,0"/>
        </g>
        <g class="cls-9">
          <path id="Stroke-157-2" data-name="Stroke-157" class="cls-6" d="M1382.64,82.76V-80.45"/>
        </g>
        <g class="cls-9">
          <path id="Stroke-162-2" data-name="Stroke-162" class="cls-5" d="M1412.52,220.6a79.45,79.45,0,0,0-69.45-78.83"/>
        </g>
        <g class="cls-10">
          <path id="Stroke-165-2" data-name="Stroke-165" class="cls-5" d="M1363.07,318.51a151.16,151.16,0,0,1,88.42,242.09"/>
        </g>
        <g class="cls-10">
          <path id="Stroke-166-2" data-name="Stroke-166" class="cls-6" d="M1453.07,472.45A50.43,50.43,0,1,0,1402.64,422,50.43,50.43,0,0,0,1453.07,472.45Z"/>
        </g>
        <g class="cls-10">
          <path id="Stroke-167-2" data-name="Stroke-167" class="cls-6" d="M1402.64,422h100.85"/>
        </g>
      </g>
    </g>
  </g>
  <g id="frame-3">
    <g class="cls-11">
      <g>
        <polygon id="Fill-1-3" data-name="Fill-1" class="cls-1" points="1627.05 380 1610.7 338.6 1610.7 398 1594.7 398 1594.7 314 1617.93 314 1636.06 361.64 1654.54 314 1676.7 314 1676.7 398 1660.35 398 1660.35 338.6 1644.47 380 1627.05 380"/>
        <path id="Fill-2-3" data-name="Fill-2" class="cls-1" d="M1723.23,377.68v-3.94c-1,1-2.62,1.19-4.77,1.19h-5.84c-4.88,0-7.74,2.15-7.74,6s3,6.45,7.74,6.45C1718.23,387.35,1723.23,384.48,1723.23,377.68Zm0-16.83c0-3.94-3.1-6.45-9.06-6.45-5.48,0-12.39,2.75-16.44,5.14l-6.08-11.7a46.68,46.68,0,0,1,23.36-6.68c12.39,0,23.71,5.72,23.71,20.17v35.92h-15.49v-5.13c-2.86,4.3-9.06,6.57-15.25,6.57-11.56,0-19.07-8.24-19.07-17.19,0-10.39,7.63-16.83,19.78-16.83h10.73c2.62,0,3.81-1.19,3.81-3.22Z"/>
        <path id="Fill-4-3" data-name="Fill-4" class="cls-1" d="M1768.36,321.82v20.77h11.8v13.13h-11.8v24.7c0,3.47,2.74,3.94,5.12,3.94,3.94,0,7.15-.36,7.15-.36v13.25s-7.5.72-12,.72c-7.75,0-15.73-1.31-15.73-12.29v-30h-8.58V342.59h8.58V321.82Z"/>
        <path id="Fill-6-3" data-name="Fill-6" class="cls-1" d="M1799.77,369.92c0,8.6,5.6,14.92,13.71,14.92a12.5,12.5,0,0,0,12-8.35l14.54,4.53c-3.58,10.86-14.3,17.67-26.69,17.67-16.21,0-29.08-12.06-29.08-28.77s12.87-28.76,29.08-28.76c12.39,0,23.11,6.92,26.69,17.78l-14.54,4.42a12.65,12.65,0,0,0-12-8.36c-8.11,0-13.71,6.33-13.71,14.92"/>
        <path id="Fill-8-3" data-name="Fill-8" class="cls-1" d="M1879,341.16c11.8,0,20.26,7.52,20.26,20.29v35.8h-15.49V365.38c0-6.92-4.41-9.78-9.3-9.78-4.53,0-8.58,2.5-11.56,6.2v35.45h-15.49V313.7h15.26v31c0,1.92-.24,4.3-.24,4.3a21.38,21.38,0,0,1,16.56-7.87"/>
        <path id="Fill-10-3" data-name="Fill-10" class="cls-1" d="M1923,364.07h24.42a11.83,11.83,0,0,0-12-10A12.17,12.17,0,0,0,1923,364.07Zm41,10.39h-40.64a12.38,12.38,0,0,0,12.52,11c4.52,0,8.81-1.91,11-5.61l16.09,1.67c-4.89,11.7-15.14,17.19-27.29,17.19-16.33,0-28.6-12.06-28.6-28.77s12-28.76,28.36-28.76c15,0,28.6,9.78,28.6,32.7Z"/>
        <path id="Fill-12-3" data-name="Fill-12" class="cls-1" d="M2005.3,357.87h-6.56c-7.86,0-11.44,3.69-11.44,13.24v26.14h-15.49V342.59h15v8.71c2.14-5.85,7.39-9.43,14.18-9.43a17.43,17.43,0,0,1,4.29.48Z"/>
        <path id="Fill-14-2" data-name="Fill-14" class="cls-1" d="M2019,379.22a8.13,8.13,0,1,0,8.11,8.13,8.13,8.13,0,0,0-8.11-8.13m0,21.85a13.73,13.73,0,1,1,13.7-13.72,13.72,13.72,0,0,1-13.7,13.72"/>
        <line class="cls-12" x1="1686.14" y1="427.98" x2="1711.04" y2="443.74"/>
        <line class="cls-12" x1="1683.64" y1="442.44" x2="1709.66" y2="426.49"/>
        <path class="cls-12" d="M1698.59,417.33c-9.68-160,177.91-167.83,183.41-91.83"/>
      </g>
      <g>
        <path id="Stroke-1-3" data-name="Stroke-1" class="cls-5" d="M1650.37,619.48a186.85,186.85,0,0,1,138,54.8q3.92,3.91,7.55,8"/>
        <path id="Stroke-11-2" data-name="Stroke-11" class="cls-6" d="M1698.84,212.28a261.89,261.89,0,0,1,0-180"/>
        <polyline id="Stroke-13-3" data-name="Stroke-13" class="cls-6" points="1311.47 462.28 1591.47 462.28 1591.47 602.28 1311.47 602.28"/>
        <path id="Stroke-15-3" data-name="Stroke-15" class="cls-6" d="M1991.47,822.28h163a70,70,0,0,0,0-140h-163"/>
        <polyline id="Stroke-17-3" data-name="Stroke-17" class="cls-6" points="1311.47 682.28 1591.47 682.28 1591.47 822.28 1311.47 822.28"/>
        <path id="Stroke-19-3" data-name="Stroke-19" class="cls-6" d="M1611.47,827.84l-66.27-19.09-9.61-4.41A90.64,90.64,0,0,1,1482.72,722V662.28"/>
        <path id="Stroke-21-3" data-name="Stroke-21" class="cls-6" d="M1591.69,701.86a19.79,19.79,0,0,1-19.79-19.79"/>
        <path id="Stroke-23-3" data-name="Stroke-23" class="cls-5" d="M1611.47,607.84l-66.27-19.09-9.61-4.41A90.64,90.64,0,0,1,1482.72,502V442.28"/>
        <path id="Stroke-25-3" data-name="Stroke-25" class="cls-5" d="M1517.9,32.28l-36.43-17.94A90.63,90.63,0,0,1,1428.6-68v-59.67"/>
        <path id="Stroke-27-3" data-name="Stroke-27" class="cls-6" d="M1591.69,481.86a19.79,19.79,0,0,1-19.79-19.79"/>
        <path id="Stroke-37-3" data-name="Stroke-37" class="cls-6" d="M2143.3,701.86V802.71"/>
        <path id="Stroke-39-3" data-name="Stroke-39" class="cls-6" d="M1815.18,642.71a50.43,50.43,0,1,1,50.42-50.43A50.43,50.43,0,0,1,1815.18,642.71Z"/>
        <path id="Stroke-41-3" data-name="Stroke-41" class="cls-6" d="M1651.47,682.28l173.71-40.57"/>
        <path id="Stroke-43-3" data-name="Stroke-43" class="cls-6" d="M1651.47,502.28l173.71,40.58"/>
        <path id="Stroke-45-3" data-name="Stroke-45" class="cls-6" d="M1815.18,541.86V642.71"/>
        <path id="Stroke-55-3" data-name="Stroke-55" class="cls-5" d="M1419.15,248.66c-.19-2.86-.29-5.75-.29-8.65a127.82,127.82,0,0,1,97.23-124.1"/>
        <path id="Stroke-59-3" data-name="Stroke-59" class="cls-6" d="M1912.27,502.28v180"/>
        <path id="Stroke-61-3" data-name="Stroke-61" class="cls-6" d="M1953.75,212.28l-173.7-40.57"/>
        <path id="Stroke-63-3" data-name="Stroke-63" class="cls-6" d="M1953.75,32.28l-173.7,40.58"/>
        <polyline id="Stroke-75-3" data-name="Stroke-75" class="cls-6" points="1611.47 112.28 1331.47 112.28 1331.47 252.28 1611.47 252.28"/>
        <path id="Stroke-81-3" data-name="Stroke-81" class="cls-6" d="M1541.26,92.28v180"/>
        <path id="Stroke-83-3" data-name="Stroke-83" class="cls-6" d="M1911.47,42.16V202.41"/>
        <path id="Stroke-85-3" data-name="Stroke-85" class="cls-6" d="M1541.26,232.71a50.43,50.43,0,1,1,50.43-50.43A50.43,50.43,0,0,1,1541.26,232.71Z"/>
        <polyline id="Stroke-87-3" data-name="Stroke-87" class="cls-6" points="1311.47 -107.72 1591.47 -107.72 1591.47 32.28 1311.47 32.28"/>
        <path id="Stroke-91-3" data-name="Stroke-91" class="cls-6" d="M1571.9,30.74A19.79,19.79,0,0,1,1591.69,11"/>
        <path id="Stroke-93-3" data-name="Stroke-93" class="cls-6" d="M1517.9-127.72v180"/>
        <path id="Stroke-95-3" data-name="Stroke-95" class="cls-6" d="M1517.9,7.55a45.27,45.27,0,0,1-45.27-45.27A45.26,45.26,0,0,1,1517.9-83a45.26,45.26,0,0,1,45.26,45.26A45.26,45.26,0,0,1,1517.9,7.55Z"/>
        <path id="Stroke-97-3" data-name="Stroke-97" class="cls-6" d="M2154.69,701.86a50.43,50.43,0,0,1,0,100.85"/>
        <path id="Stroke-103-3" data-name="Stroke-103" class="cls-6" d="M1991.47,701.86h163.22"/>
        <path id="Stroke-111-3" data-name="Stroke-111" class="cls-6" d="M2291.47,462.28h-163a70,70,0,0,0,0,140h163"/>
        <path id="Stroke-113-3" data-name="Stroke-113" class="cls-6" d="M2139.43,582.71V481.86"/>
        <path id="Stroke-115-3" data-name="Stroke-115" class="cls-6" d="M2128.05,582.71a50.43,50.43,0,0,1,0-100.85"/>
        <path id="Stroke-117-3" data-name="Stroke-117" class="cls-6" d="M2291.26,481.86H2128.05"/>
        <path id="Stroke-119-3" data-name="Stroke-119" class="cls-5" d="M2291.26,501.86H2128.05"/>
        <path id="Stroke-121-3" data-name="Stroke-121" class="cls-6" d="M2291.26,582.71H2128.05"/>
        <path id="Stroke-123-3" data-name="Stroke-123" class="cls-5" d="M2291.26,562.71H2128.05"/>
        <path id="Stroke-125-3" data-name="Stroke-125" class="cls-6" d="M2128.05,562.71a30.43,30.43,0,0,1,0-60.85"/>
        <polygon id="Stroke-127-3" data-name="Stroke-127" class="cls-6" points="2121.73 532.28 2139.43 514.58 2157.13 532.28 2139.43 549.99 2121.73 532.28"/>
        <path id="Stroke-129-3" data-name="Stroke-129" class="cls-5" d="M1990.47,526.27l86.37-78.82"/>
        <path id="Stroke-131-3" data-name="Stroke-131" class="cls-5" d="M2056.18,615l-53.94-61.48"/>
        <path id="Stroke-133-3" data-name="Stroke-133" class="cls-6" d="M1991.47,252.28h163a70,70,0,0,0,0-140h-163"/>
        <path id="Stroke-135-3" data-name="Stroke-135" class="cls-6" d="M2143.3,131.86V232.71"/>
        <path id="Stroke-137-3" data-name="Stroke-137" class="cls-6" d="M2154.69,131.86a50.43,50.43,0,0,1,0,100.85"/>
        <path id="Stroke-139-3" data-name="Stroke-139" class="cls-6" d="M1991.47,232.71h163.22"/>
        <path id="Stroke-141-3" data-name="Stroke-141" class="cls-5" d="M1991.47,212.71h163.22"/>
        <path id="Stroke-143-3" data-name="Stroke-143" class="cls-6" d="M1991.47,131.86h163.22"/>
        <path id="Stroke-145-3" data-name="Stroke-145" class="cls-5" d="M1991.47,151.86h163.22"/>
        <path id="Stroke-147-3" data-name="Stroke-147" class="cls-6" d="M2154.69,151.86a30.43,30.43,0,0,1,0,60.85"/>
        <g class="cls-13">
          <polygon id="Stroke-151-3" data-name="Stroke-151" class="cls-6" points="2130.79 194.8 2155.82 194.8 2155.82 169.76 2130.79 169.76 2130.79 194.8"/>
        </g>
        <g class="cls-13">
          <path id="Stroke-153-3" data-name="Stroke-153" class="cls-5" d="M2205.11,272.28l86.36-78.83"/>
        </g>
        <g class="cls-13">
          <path id="Stroke-154-3" data-name="Stroke-154" class="cls-6" d="M2292.47,32.28h-163a69.72,69.72,0,0,1-69.78-70,69.7,69.7,0,0,1,69.78-70h163"/>
        </g>
        <g class="cls-13">
          <path id="Stroke-155-3" data-name="Stroke-155" class="cls-6" d="M2140.7-88.14V12.71"/>
        </g>
        <g class="cls-13">
          <path id="Stroke-156-3" data-name="Stroke-156" class="cls-6" d="M2129.31-88.14a50.42,50.42,0,0,0-50.42,50.42,50.43,50.43,0,0,0,50.42,50.43"/>
        </g>
        <g class="cls-13">
          <path id="Stroke-157-3" data-name="Stroke-157" class="cls-6" d="M2292.53,12.71H2129.31"/>
        </g>
        <g class="cls-13">
          <path id="Stroke-162-3" data-name="Stroke-162" class="cls-5" d="M2070.31,52.28a79.47,79.47,0,0,0-78.84-69.45"/>
        </g>
        <g class="cls-13">
          <path id="Stroke-165-3" data-name="Stroke-165" class="cls-5" d="M1651.47,123.86a151.16,151.16,0,0,1,242.09,88.42"/>
        </g>
        <g class="cls-13">
          <path id="Stroke-166-3" data-name="Stroke-166" class="cls-6" d="M1790.05,172.71a50.43,50.43,0,1,0-50.43-50.43A50.43,50.43,0,0,0,1790.05,172.71Z"/>
        </g>
        <g class="cls-13">
          <path id="Stroke-167-3" data-name="Stroke-167" class="cls-6" d="M1790.05,71.86V172.71"/>
        </g>
      </g>
    </g>
  </g>
  <g id="frame-4">
    <g class="cls-14">
      <g>
        <polygon id="Fill-1-4" data-name="Fill-1" class="cls-1" points="2347.05 380 2330.7 338.6 2330.7 398 2314.7 398 2314.7 314 2337.93 314 2356.06 361.64 2374.54 314 2396.7 314 2396.7 398 2380.35 398 2380.35 338.6 2364.47 380 2347.05 380"/>
        <path id="Fill-2-4" data-name="Fill-2" class="cls-1" d="M2443.23,377.68v-3.94c-.95,1-2.62,1.19-4.77,1.19h-5.84c-4.88,0-7.74,2.15-7.74,6s3,6.45,7.74,6.45C2438.23,387.35,2443.23,384.48,2443.23,377.68Zm0-16.83c0-3.94-3.1-6.45-9.06-6.45-5.48,0-12.39,2.75-16.44,5.14l-6.08-11.7a46.68,46.68,0,0,1,23.36-6.68c12.39,0,23.71,5.72,23.71,20.17v35.92h-15.49v-5.13c-2.86,4.3-9.06,6.57-15.25,6.57-11.56,0-19.07-8.24-19.07-17.19,0-10.39,7.63-16.83,19.78-16.83h10.73c2.62,0,3.81-1.19,3.81-3.22Z"/>
        <path id="Fill-4-4" data-name="Fill-4" class="cls-1" d="M2488.36,321.82v20.77h11.8v13.13h-11.8v24.7c0,3.47,2.74,3.94,5.12,3.94,3.94,0,7.15-.36,7.15-.36v13.25s-7.5.72-12,.72c-7.75,0-15.73-1.31-15.73-12.29v-30h-8.58V342.59h8.58V321.82Z"/>
        <path id="Fill-6-4" data-name="Fill-6" class="cls-1" d="M2519.77,369.92c0,8.6,5.6,14.92,13.71,14.92a12.5,12.5,0,0,0,12-8.35l14.54,4.53c-3.58,10.86-14.3,17.67-26.69,17.67-16.21,0-29.08-12.06-29.08-28.77s12.87-28.76,29.08-28.76c12.39,0,23.11,6.92,26.69,17.78l-14.54,4.42a12.65,12.65,0,0,0-12-8.36c-8.11,0-13.71,6.33-13.71,14.92"/>
        <path id="Fill-8-4" data-name="Fill-8" class="cls-1" d="M2599,341.16c11.8,0,20.26,7.52,20.26,20.29v35.8h-15.49V365.38c0-6.92-4.41-9.78-9.3-9.78-4.53,0-8.58,2.5-11.56,6.2v35.45h-15.49V313.7h15.26v31c0,1.92-.24,4.3-.24,4.3a21.38,21.38,0,0,1,16.56-7.87"/>
        <path id="Fill-10-4" data-name="Fill-10" class="cls-1" d="M2643,364.07h24.42a11.83,11.83,0,0,0-12-10A12.17,12.17,0,0,0,2643,364.07Zm41,10.39h-40.64a12.38,12.38,0,0,0,12.52,11c4.52,0,8.81-1.91,11-5.61l16.09,1.67c-4.89,11.7-15.14,17.19-27.29,17.19-16.33,0-28.6-12.06-28.6-28.77s12-28.76,28.36-28.76c15,0,28.6,9.78,28.6,32.7Z"/>
        <path id="Fill-12-4" data-name="Fill-12" class="cls-1" d="M2725.3,357.87h-6.56c-7.86,0-11.44,3.69-11.44,13.24v26.14h-15.49V342.59h15v8.71c2.14-5.85,7.39-9.43,14.18-9.43a17.43,17.43,0,0,1,4.29.48Z"/>
        <line class="cls-15" x1="2745.49" y1="376.69" x2="2723.66" y2="400"/>
        <line class="cls-15" x1="2730.6" y1="371.1" x2="2742.31" y2="402.04"/>
        <path class="cls-15" d="M2697.52,329.74s-47.47-33.41-103.59-18.46"/>
        <path class="cls-15" d="M2433.7,441.53c-34.85-9.1-63.08-27.65-78.44-50-9.75-14.22-14.31-30-12.07-45.86a57.25,57.25,0,0,1,2.95-11.71c14.23-38.83,69.82-62.37,131.75-53.62,30.93,4.36,58.1,16,77.93,31.74,23.73,18.82,36.93,43.45,33.42,68.33-1.21,8.58-6.68,17.25-15.19,25-30.27,27.44-98.94,42.76-150.88-1.3"/>
      </g>
      <g>
        <path id="Stroke-11-3" data-name="Stroke-11" class="cls-6" d="M2062.13,264.84a261.89,261.89,0,0,1,180,0"/>
        <polyline id="Stroke-13-4" data-name="Stroke-13" class="cls-6" points="2652.13 -122.53 2652.13 157.47 2512.13 157.47 2512.13 -122.53"/>
        <path id="Stroke-15-4" data-name="Stroke-15" class="cls-6" d="M2762.13,557.47v163h0a70,70,0,0,0,140,0h0v-163"/>
        <polyline id="Stroke-17-4" data-name="Stroke-17" class="cls-6" points="2872.13 -122.53 2872.13 157.47 2732.13 157.47 2732.13 -122.53"/>
        <path id="Stroke-19-4" data-name="Stroke-19" class="cls-6" d="M2712.13,48.72h59.67a90.65,90.65,0,0,1,82.39,52.87l4.4,9.61,19.09,66.27"/>
        <path id="Stroke-21-4" data-name="Stroke-21" class="cls-6" d="M2731.92,137.9a19.79,19.79,0,0,1,19.79,19.79"/>
        <path id="Stroke-23-4" data-name="Stroke-23" class="cls-5" d="M2492.13,48.72h59.67a90.65,90.65,0,0,1,82.39,52.87l4.41,9.61,19.08,66.27"/>
        <path id="Stroke-25-4" data-name="Stroke-25" class="cls-5" d="M2042.13-5.4h59.67a90.64,90.64,0,0,1,82.39,52.87l17.94,36.43"/>
        <path id="Stroke-27-4" data-name="Stroke-27" class="cls-6" d="M2511.92,137.9a19.79,19.79,0,0,1,19.79,19.79"/>
        <path id="Stroke-37-4" data-name="Stroke-37" class="cls-6" d="M2882.55,709.3H2781.71"/>
        <path id="Stroke-39-4" data-name="Stroke-39" class="cls-6" d="M2893.12,431.6a50.43,50.43,0,1,1,50.43-50.42A50.42,50.42,0,0,1,2893.12,431.6Z"/>
        <path id="Stroke-43-4" data-name="Stroke-43" class="cls-6" d="M2843.7,391.18l-40.58-173.71"/>
        <path id="Stroke-45-4" data-name="Stroke-45" class="cls-6" d="M2943.55,381.18H2842.7"/>
        <path id="Stroke-55-4" data-name="Stroke-55" class="cls-5" d="M2285.76,82.09a127.82,127.82,0,0,1,124.1-97.23c2.9,0,5.79.1,8.64.29"/>
        <path id="Stroke-59-4" data-name="Stroke-59" class="cls-6" d="M2983.12,478.27h-180"/>
        <path id="Stroke-61-4" data-name="Stroke-61" class="cls-6" d="M2201.55,346.05l40.58,173.7"/>
        <path id="Stroke-63-4" data-name="Stroke-63" class="cls-6" d="M2102.71,346.05l-40.58,173.7"/>
        <polyline id="Stroke-75-4" data-name="Stroke-75" class="cls-6" points="2422.13 177.47 2422.13 -102.53 2282.13 -102.53 2282.13 177.47"/>
        <path id="Stroke-81-4" data-name="Stroke-81" class="cls-6" d="M2442.13,107.26h-180"/>
        <path id="Stroke-83-4" data-name="Stroke-83" class="cls-6" d="M2232.26,477.47H2072"/>
        <path id="Stroke-85-4" data-name="Stroke-85" class="cls-6" d="M2352.13,157.69a50.43,50.43,0,1,1,50.42-50.43A50.42,50.42,0,0,1,2352.13,157.69Z"/>
        <polyline id="Stroke-87-4" data-name="Stroke-87" class="cls-6" points="2202.13 -122.53 2202.13 157.47 2062.13 157.47 2062.13 -122.53"/>
        <path id="Stroke-91-4" data-name="Stroke-91" class="cls-6" d="M2180.8,157.69a19.79,19.79,0,0,1,19.79-19.79"/>
        <path id="Stroke-93-4" data-name="Stroke-93" class="cls-6" d="M2222.13,83.9h-180"/>
        <path id="Stroke-95-4" data-name="Stroke-95" class="cls-6" d="M2132.13,129.16A45.27,45.27,0,1,1,2177.4,83.9,45.26,45.26,0,0,1,2132.13,129.16Z"/>
        <path id="Stroke-103-4" data-name="Stroke-103" class="cls-6" d="M2781.71,720.69V557.47"/>
        <path id="Stroke-111-4" data-name="Stroke-111" class="cls-6" d="M2682.13,757.47v-163h0a70,70,0,0,0-140,0h0v163"/>
        <path id="Stroke-113-4" data-name="Stroke-113" class="cls-6" d="M2561.71,605.43h100.84"/>
        <path id="Stroke-115-4" data-name="Stroke-115" class="cls-6" d="M2561.71,594.05a50.42,50.42,0,1,1,100.84,0"/>
        <path id="Stroke-117-4" data-name="Stroke-117" class="cls-6" d="M2561.71,594.05V757.26"/>
        <path id="Stroke-119-4" data-name="Stroke-119" class="cls-5" d="M2581.71,594.05V757.26"/>
        <path id="Stroke-121-4" data-name="Stroke-121" class="cls-6" d="M2662.55,594.05V757.26"/>
        <path id="Stroke-123-4" data-name="Stroke-123" class="cls-5" d="M2642.55,594.05V757.26"/>
        <path id="Stroke-125-4" data-name="Stroke-125" class="cls-6" d="M2581.71,594.05a30.42,30.42,0,0,1,60.84,0"/>
        <polygon id="Stroke-127-4" data-name="Stroke-127" class="cls-6" points="2629.83 605.43 2612.13 623.13 2594.43 605.43 2612.13 587.73 2629.83 605.43"/>
        <path id="Stroke-133-4" data-name="Stroke-133" class="cls-6" d="M2322.13,557.47v163h0a70,70,0,0,0,140,0h0v-163"/>
        <path id="Stroke-135-4" data-name="Stroke-135" class="cls-6" d="M2442.55,709.3H2341.71"/>
        <path id="Stroke-139-4" data-name="Stroke-139" class="cls-6" d="M2442.55,720.69V557.47"/>
        <path id="Stroke-141-4" data-name="Stroke-141" class="cls-5" d="M2422.55,720.69V557.47"/>
        <path id="Stroke-143-4" data-name="Stroke-143" class="cls-6" d="M2341.71,720.69V557.47"/>
        <path id="Stroke-145-4" data-name="Stroke-145" class="cls-5" d="M2361.71,720.69V557.47"/>
        <g class="cls-16">
          <polygon id="Stroke-151-4" data-name="Stroke-151" class="cls-6" points="2379.61 696.79 2379.61 721.82 2404.65 721.82 2404.65 696.79 2379.61 696.79"/>
        </g>
        <g class="cls-16">
          <path id="Stroke-154-4" data-name="Stroke-154" class="cls-6" d="M2102.13,858.47v-163h0a70,70,0,0,1,140,0h0v163"/>
        </g>
        <g class="cls-16">
          <path id="Stroke-155-4" data-name="Stroke-155" class="cls-6" d="M2222.55,706.7H2121.71"/>
        </g>
        <g class="cls-16">
          <path id="Stroke-156-4" data-name="Stroke-156" class="cls-6" d="M2222.55,695.31a50.42,50.42,0,0,0-100.84,0"/>
        </g>
        <g class="cls-16">
          <path id="Stroke-157-4" data-name="Stroke-157" class="cls-6" d="M2222.55,695.31V858.53"/>
        </g>
        <g class="cls-16">
          <path id="Stroke-162-4" data-name="Stroke-162" class="cls-5" d="M2192.67,557.47a79.48,79.48,0,0,0,69.46,78.84"/>
        </g>
        <g class="cls-17">
          <path id="Stroke-165-4" data-name="Stroke-165" class="cls-5" d="M2242.13,459.56a151.16,151.16,0,0,1-88.42-242.09"/>
        </g>
        <g class="cls-17">
          <path id="Stroke-166-4" data-name="Stroke-166" class="cls-6" d="M2152.13,305.62a50.43,50.43,0,1,0,50.42,50.43A50.42,50.42,0,0,0,2152.13,305.62Z"/>
        </g>
        <g class="cls-17">
          <path id="Stroke-167-4" data-name="Stroke-167" class="cls-6" d="M2202.55,356.05H2101.71"/>
        </g>
      </g>
    </g>
  </g>
</svg>
