<svg xmlns="http://www.w3.org/2000/svg" xmlns:xlink="http://www.w3.org/1999/xlink" viewBox="0 0 2160 720">
  <defs>
    <style>
      .cls-1 {
        fill: #00adee;
      }

      .cls-10, .cls-2 {
        fill: none;
      }

      .cls-3 {
        fill: #f2f1ef;
      }

      .cls-4 {
        clip-path: url(#clip-path);
      }

      .cls-5 {
        fill: #fff;
      }

      .cls-6 {
        clip-path: url(#clip-path-2);
      }

      .cls-7 {
        fill: #22313f;
      }

      .cls-8 {
        fill: #6cc396;
      }

      .cls-9 {
        fill: #f2f2f2;
      }

      .cls-10 {
        stroke: #6cc396;
        stroke-miterlimit: 10;
        stroke-width: 5.35px;
      }

      .cls-11 {
        fill: #f4cf35;
      }

      .cls-12 {
        clip-path: url(#clip-path-3);
      }

      .cls-13 {
        opacity: 0.2;
      }

      .cls-14 {
        clip-path: url(#clip-path-4);
      }

      .cls-15 {
        fill: #eece60;
      }
    </style>
    <clipPath id="clip-path">
      <rect id="path-1" class="cls-1" width="720" height="720"/>
    </clipPath>
    <clipPath id="clip-path-2">
      <rect class="cls-2" x="720" width="720" height="720"/>
    </clipPath>
    <clipPath id="clip-path-3">
      <path class="cls-2" d="M886.13,472.55c0,64,64.6,127.77,143.33,127.78s143.8-63.88,143.82-142.61l-.07-115.37c-.71-12.83-11.46-24.51-24.84-24.51S1127.71,330,1127,340.7h0v98c0,2.71-5.76,3.74-8.47,3.74h-.15c-2.71,0-2.08-1-2.08-3.74v-1.61"/>
    </clipPath>
    <clipPath id="clip-path-4">
      <rect id="path-1-2" data-name="path-1" class="cls-2" x="1440" width="720" height="720"/>
    </clipPath>
  </defs>
  <title>thumbnail</title>
  <g id="background">
    <g id="Rectangle">
      <rect id="path-1-3" data-name="path-1" class="cls-3" x="-10" y="-10" width="2180" height="740"/>
    </g>
  </g>
  <g id="frame-1">
    <g>
      <rect id="path-1-4" data-name="path-1" class="cls-1" width="720" height="720"/>
      <g class="cls-4">
        <rect class="cls-2" y="-10" width="720" height="740"/>
        <g>
          <path class="cls-5" d="M342.56,482.19c-60.22,0-85.45-31.06-86.58-32.49a3.84,3.84,0,0,1,6-4.77c.28.35,28.45,34.66,95.81,28.9a3.84,3.84,0,0,1,.65,7.66C352.92,482,347.62,482.19,342.56,482.19Z"/>
          <path class="cls-5" d="M367.09,472.06a3.84,3.84,0,0,1-3.3-5.8C409.4,389,396.51,339.68,396.38,339.19a3.84,3.84,0,0,1,7.4-2.08c.6,2.12,14.08,52.71-33.37,133.06A3.84,3.84,0,0,1,367.09,472.06Z"/>
          <path class="cls-5" d="M468,402.44a3.48,3.48,0,0,1-.63-.05,3.84,3.84,0,0,1-3.17-4.41c.09-.52,8.35-52.34-2.62-104.45a3.84,3.84,0,1,1,7.52-1.59c11.27,53.57,3,105.11,2.69,107.28A3.84,3.84,0,0,1,468,402.44Z"/>
          <path class="cls-5" d="M490.85,382.23a2.91,2.91,0,0,1-.51,0,3.84,3.84,0,0,1-3.3-4.31c6.37-47.87-.07-85.91-.13-86.29a3.85,3.85,0,0,1,7.58-1.31c.27,1.59,6.7,39.59.17,88.61A3.85,3.85,0,0,1,490.85,382.23Z"/>
          <path class="cls-5" d="M531.64,347.62c-.19,0-.38,0-.58,0a3.85,3.85,0,0,1-3.23-4.37c4.56-30.47.1-50.45,0-50.65a3.85,3.85,0,1,1,7.5-1.72c.2.87,4.82,21.61,0,53.5A3.84,3.84,0,0,1,531.64,347.62Z"/>
          <path class="cls-5" d="M511.92,363.53a3,3,0,0,1-.43,0,3.84,3.84,0,0,1-3.4-4.24c0-.37,4.05-37.52-.14-67.16a3.85,3.85,0,0,1,3.27-4.35,3.89,3.89,0,0,1,4.35,3.27c4.32,30.62.33,67.53.16,69.08A3.85,3.85,0,0,1,511.92,363.53Z"/>
          <path class="cls-5" d="M552.42,330.57h-.34a3.86,3.86,0,0,1-3.49-4.17c0-.19,1.65-19.45-1.59-32.8a3.84,3.84,0,1,1,7.47-1.82c3.55,14.6,1.85,34.46,1.78,35.29A3.86,3.86,0,0,1,552.42,330.57Z"/>
          <path class="cls-5" d="M572,314.22h-.21a3.85,3.85,0,0,1-3.63-4,61.58,61.58,0,0,0-.71-14.38,3.84,3.84,0,0,1,7.52-1.59,68,68,0,0,1,.87,16.39A3.85,3.85,0,0,1,572,314.22Z"/>
          <path class="cls-5" d="M414.26,262.21a3.84,3.84,0,0,1-2.65-1.06c-29.86-28.36-74.87-29.76-75.32-29.77a3.84,3.84,0,0,1-3.75-3.93,3.77,3.77,0,0,1,3.93-3.75c2,.05,48.44,1.5,80.44,31.88a3.84,3.84,0,0,1-2.65,6.63Z"/>
          <path class="cls-5" d="M405.58,231.39a3.83,3.83,0,0,1-2.26-.75c-23.15-16.9-60.68-19.27-61.06-19.3a3.83,3.83,0,0,1-3.61-4.06,3.9,3.9,0,0,1,4.05-3.61c1.63.09,40.15,2.51,65.15,20.77a3.84,3.84,0,0,1-2.27,6.95Z"/>
          <path class="cls-5" d="M396.86,206.2a3.77,3.77,0,0,1-1.69-.39c-19-9.35-47.45-12.55-47.73-12.58a3.84,3.84,0,0,1,.84-7.64c1.21.13,30.06,3.38,50.28,13.32a3.84,3.84,0,0,1-1.7,7.29Z"/>
          <path class="cls-5" d="M388.18,184.07a3.84,3.84,0,0,1-1.44-.28c-13-5.25-33.43-8.75-33.63-8.79a3.84,3.84,0,1,1,1.29-7.58c.87.15,21.48,3.68,35.22,9.25a3.84,3.84,0,0,1-1.44,7.4Z"/>
          <path class="cls-5" d="M379.94,162.51a3.58,3.58,0,0,1-1.19-.2c-.09,0-9.48-3.08-19.43-5.33a3.85,3.85,0,0,1,1.7-7.5c10.3,2.34,19.72,5.4,20.12,5.53a3.85,3.85,0,0,1-1.2,7.5Z"/>
          <path class="cls-5" d="M426.15,523.4a3.84,3.84,0,0,1-2.43-6.82c48.79-39.62,49.35-83.94,49.35-84.39a3.85,3.85,0,0,1,7.69,0c0,2-.59,48.46-52.19,90.36A3.86,3.86,0,0,1,426.15,523.4Z"/>
          <path class="cls-5" d="M406.9,308.87a3.86,3.86,0,0,1-3.16-1.65c-.22-.31-22.23-31.1-76.71-34.92a3.84,3.84,0,1,1,.53-7.67c58.4,4.1,81.55,36.83,82.51,38.22a3.84,3.84,0,0,1-1,5.34A3.79,3.79,0,0,1,406.9,308.87Z"/>
          <path class="cls-5" d="M442.8,536.45a3.84,3.84,0,0,1-2.28-6.94c.38-.28,37.83-28.09,47.94-69.38a3.84,3.84,0,1,1,7.47,1.82c-10.79,44.08-49.24,72.57-50.87,73.76A3.82,3.82,0,0,1,442.8,536.45Z"/>
          <path class="cls-5" d="M461.34,549.33a3.84,3.84,0,0,1-2.53-6.73c.31-.27,30.84-27.12,41.29-54.37a3.85,3.85,0,0,1,7.18,2.76c-11.14,29-42.1,56.25-43.42,57.4A3.76,3.76,0,0,1,461.34,549.33Z"/>
          <path class="cls-5" d="M481.36,562.56a3.84,3.84,0,0,1-2.54-6.72c.24-.22,24.6-21.84,29.91-39.41a3.85,3.85,0,0,1,7.36,2.23c-5.94,19.66-31.12,42-32.19,43A3.84,3.84,0,0,1,481.36,562.56Z"/>
          <path class="cls-5" d="M334.78,460.26c-24.54,0-42.85-6.59-54.48-19.63C263,421.23,267.21,395,267.4,393.89a3.84,3.84,0,0,1,7.58,1.27c0,.24-3.74,23.81,11.11,40.41,11.22,12.54,30.12,18.19,56.19,16.79a3.89,3.89,0,0,1,4,3.64,3.84,3.84,0,0,1-3.63,4Q338.63,460.27,334.78,460.26Z"/>
          <path class="cls-5" d="M352.35,451.17a3.89,3.89,0,0,1-1.83-.47,3.84,3.84,0,0,1-1.54-5.22c34.08-62.6,24.7-114.85,24.6-115.37a3.85,3.85,0,0,1,7.56-1.43c.42,2.23,10,55.48-25.41,120.48A3.85,3.85,0,0,1,352.35,451.17Z"/>
          <path class="cls-5" d="M334.23,501.18c-18.4,0-55.85-3.29-85.62-27.16a3.85,3.85,0,0,1,4.82-6c37.7,30.24,90.63,25.09,91.16,25a3.85,3.85,0,0,1,.8,7.65C344.8,500.77,340.69,501.18,334.23,501.18Z"/>
          <path class="cls-5" d="M325.25,523.4h-.18c-2.24-.1-55.1-2.82-82.69-26.39a3.85,3.85,0,0,1,5-5.85c25.57,21.85,77.52,24.54,78,24.56a3.84,3.84,0,0,1-.17,7.68Z"/>
          <path class="cls-5" d="M304.91,540.23h-.26c-1.74-.11-42.9-3.07-66.76-22.33a3.85,3.85,0,0,1,4.83-6c22,17.72,62,20.63,62.45,20.65a3.84,3.84,0,0,1-.26,7.68Z"/>
          <path class="cls-5" d="M282.43,557.28h-.21c-23.21-1.26-47.86-18.22-48.9-18.95a3.84,3.84,0,0,1,4.39-6.31c.24.17,23.92,16.45,44.92,17.57a3.85,3.85,0,0,1-.2,7.69Z"/>
          <path class="cls-5" d="M394.7,325.89a3.84,3.84,0,0,1-3.12-1.59c-25.83-35.84-86.12-32.11-86.73-32.08a3.84,3.84,0,0,1-.54-7.67c2.66-.18,65.17-4.08,93.51,35.25a3.84,3.84,0,0,1-3.12,6.09Z"/>
          <path class="cls-5" d="M334.92,433.26a3.79,3.79,0,0,1-2.19-.69,3.85,3.85,0,0,1-1-5.35c.31-.45,31.12-46.11,14.5-111a3.85,3.85,0,0,1,7.45-1.91c17.53,68.4-14.27,115.3-15.64,117.25A3.82,3.82,0,0,1,334.92,433.26Z"/>
          <path class="cls-5" d="M169.72,324.74a3.84,3.84,0,0,1-.65-7.63c54.08-9.35,99.34-12.71,138.39-10.28a3.85,3.85,0,0,1,3.6,4.08A3.78,3.78,0,0,1,307,314.5c-38.45-2.39-83.12.94-136.6,10.19A4.89,4.89,0,0,1,169.72,324.74Z"/>
          <path class="cls-5" d="M320,417.2a3.94,3.94,0,0,1-1.56-.33,3.85,3.85,0,0,1-1.95-5.08C340,358.74,319.94,307,319.73,306.45a3.84,3.84,0,0,1,7.14-2.84c.89,2.22,21.49,55.2-3.38,111.3A3.84,3.84,0,0,1,320,417.2Z"/>
          <path class="cls-5" d="M147.9,304.14a3.85,3.85,0,0,1-.7-7.63c.64-.12,64.51-11.72,141.26-11.72a3.85,3.85,0,1,1,0,7.69c-76,0-139.23,11.47-139.87,11.59A4,4,0,0,1,147.9,304.14Z"/>
          <path class="cls-5" d="M198.09,342a3.84,3.84,0,0,1-.66-7.63c70.48-12.5,110.69-3.82,112.36-3.45a3.84,3.84,0,0,1-1.68,7.5c-.4-.08-40.52-8.67-109.34,3.52A4,4,0,0,1,198.09,342Z"/>
          <path class="cls-5" d="M310.93,362.06a3.53,3.53,0,0,1-.79-.08c-.31-.06-32.38-6.53-91.3-.71a3.84,3.84,0,1,1-.76-7.65c60.25-6,92.3.55,93.64.83a3.85,3.85,0,0,1-.79,7.61Z"/>
          <path class="cls-5" d="M310.93,385.83a3.73,3.73,0,0,1-1.31-.23c-20.45-7.38-62.25-4.52-62.66-4.49a3.84,3.84,0,1,1-.54-7.67c1.78-.12,43.84-3,65.81,4.93a3.84,3.84,0,0,1-1.3,7.46Z"/>
          <path class="cls-5" d="M316.5,440.83a4,4,0,0,1-1-.14c-24.82-6.7-27.58-31.85-25.58-44.21a3.84,3.84,0,0,1,7.59,1.22c-.18,1.18-4.3,29,20,35.57a3.85,3.85,0,0,1-1,7.56Z"/>
          <path class="cls-5" d="M258.48,573.11a4.38,4.38,0,0,1-.71-.07c-.58-.11-14.53-2.79-30-13a3.84,3.84,0,1,1,4.22-6.42,84.27,84.27,0,0,0,27.22,11.83,3.85,3.85,0,0,1-.71,7.63Z"/>
          <path class="cls-5" d="M420,293.71a3.82,3.82,0,0,1-3.14-1.62c-.25-.34-25.25-34.6-85.13-41.31a3.84,3.84,0,1,1,.85-7.64c63.53,7.12,89.48,43,90.55,44.52a3.83,3.83,0,0,1-3.13,6Z"/>
          <path class="cls-5" d="M419.26,405.47a4.2,4.2,0,0,1-.92-.11,3.86,3.86,0,0,1-2.82-4.65c13.12-53.95,3.09-83.75,3-84a3.84,3.84,0,0,1,7.25-2.56c.45,1.28,11,32-2.77,88.42A3.85,3.85,0,0,1,419.26,405.47Z"/>
          <path class="cls-5" d="M443.18,405.46a3.77,3.77,0,0,1-.88-.1,3.84,3.84,0,0,1-2.86-4.62c.13-.57,13.17-57.41-2.47-105.08a3.85,3.85,0,1,1,7.31-2.39c16.32,49.76,3.21,106.82,2.64,109.23A3.83,3.83,0,0,1,443.18,405.46Z"/>
          <path class="cls-5" d="M435,427.21a114.82,114.82,0,0,1-20.78-1.91,3.84,3.84,0,0,1,1.39-7.56c28.29,5.19,48.08-2.67,48.28-2.74a3.84,3.84,0,1,1,2.89,7.12C466.07,422.39,453.9,427.21,435,427.21Z"/>
          <path class="cls-5" d="M435.15,446.47a116,116,0,0,1-28.72-3.36,3.85,3.85,0,0,1,1.94-7.45c24,6.25,50.34,1.11,50.61,1.06a3.84,3.84,0,0,1,1.51,7.54A141,141,0,0,1,435.15,446.47Z"/>
          <path class="cls-5" d="M436.07,464.73a197,197,0,0,1-41.71-4.56,3.84,3.84,0,0,1,1.65-7.51c29.88,6.56,53.53,3.75,53.77,3.73a3.84,3.84,0,0,1,1,7.63A127.83,127.83,0,0,1,436.07,464.73Z"/>
          <path class="cls-5" d="M407.4,510.75a3.85,3.85,0,0,1-2.17-7c17.67-12.08,24.09-25.63,24.15-25.77a3.85,3.85,0,0,1,7,3.23c-.3.64-7.39,15.62-26.79,28.89A3.85,3.85,0,0,1,407.4,510.75Z"/>
          <path class="cls-5" d="M393.43,500a3.85,3.85,0,0,1-2.28-6.95c11.37-8.32,14.47-16.59,14.5-16.68A3.84,3.84,0,0,1,412.9,479c-.14.42-3.75,10.48-17.21,20.33A3.82,3.82,0,0,1,393.43,500Z"/>
          <path class="cls-5" d="M378,487.59a3.85,3.85,0,0,1-2.08-7.08,23.85,23.85,0,0,0,8.24-10.84,3.84,3.84,0,1,1,7.2,2.69A31.31,31.31,0,0,1,380.08,487,3.81,3.81,0,0,1,378,487.59Z"/>
          <path class="cls-5" d="M500.3,575.4a3.84,3.84,0,0,1-2.37-6.87c.12-.09,11.53-9.1,17.6-21.15a3.84,3.84,0,1,1,6.87,3.45c-6.86,13.64-19.22,23.36-19.74,23.77A3.84,3.84,0,0,1,500.3,575.4Z"/>
          <path class="cls-5" d="M236.09,587.4a4,4,0,0,1-.91-.11,36.62,36.62,0,0,1-11.77-5.45,3.84,3.84,0,0,1,4.56-6.19,28.62,28.62,0,0,0,9,4.16,3.85,3.85,0,0,1-.9,7.59Z"/>
          <path class="cls-5" d="M374,142.29a3.84,3.84,0,0,1-1.32-.24,33.85,33.85,0,0,0-6.69-1.78,3.84,3.84,0,0,1-3.39-4.24,3.79,3.79,0,0,1,4.21-3.4,38.42,38.42,0,0,1,8.51,2.2,3.85,3.85,0,0,1-1.32,7.46Z"/>
          <path class="cls-5" d="M519.76,585.64a3.84,3.84,0,0,1-2.67-6.61,41.28,41.28,0,0,0,4.33-4.62,3.85,3.85,0,0,1,6.33,4.37,43.2,43.2,0,0,1-5.33,5.79A3.84,3.84,0,0,1,519.76,585.64Z"/>
        </g>
      </g>
    </g>
  </g>
  <g id="frame-2">
    <g class="cls-6">
      <g id="Rectangle-2" data-name="Rectangle">
        <rect id="path-1-5" data-name="path-1" class="cls-7" x="720" width="720" height="720"/>
      </g>
      <g>
        <rect class="cls-8" x="922.7" y="155.1" width="55.34" height="55.34" transform="translate(149.12 725.55) rotate(-45)"/>
        <path class="cls-9" d="M1127,437.88v.79c0,2.71-5.76,3.74-8.47,3.74h-.15c-2.71,0-2.08-1-2.08-3.74v-.79l6.81-265.15a24.82,24.82,0,0,0-49.64,0V362.35l-5.35.78c0,2.72-5.3,4.33-8,4.33H1060c-2.72,0-2.55-1.61-2.55-4.33V143.24c0-13.56-10.52-24.57-24.09-24.57s-24.09,11-24.09,24.57V363.13c0,2.72-6.26,4.33-9,4.33h-.14c-2.72,0-6.94-1.61-6.94-4.33V172.73c0-13.57-7.84-24.57-21.41-24.57s-21.42,11-21.42,24.57V377.38c0,2.72-5.8,6.14-8.51,6.14h-.15c-2.71,0-7.4-3.42-7.4-6.14V261.2c0-13.56-10.51-24.57-24.08-24.57s-24.1,11-24.1,31.95v204c0,64,64.61,127.76,143.33,127.78s142.92-63.78,142.94-142.51l.36-115.42c-.7-12.82-11.24-24.54-24.61-24.54s-23.93,12.13-24.61,22.84H1127Z"/>
        <path class="cls-10" d="M1113.91,533.63a43.3,43.3,0,1,1,41.41,45.11A43.31,43.31,0,0,1,1113.91,533.63Z"/>
        <g>
          <polygon class="cls-11" points="1237.95 373.95 1186.13 355.92 1229.03 319.81 1237.95 373.95"/>
          <rect class="cls-11" x="1030.67" y="217.57" width="273.02" height="176.66" rx="8.86" ry="8.86"/>
          <rect class="cls-11" x="1030.67" y="217.57" width="273.02" height="176.66" rx="8.86" ry="8.86"/>
        </g>
        <path class="cls-9" d="M889.67,472.13c0,64,62.83,128,141.56,128a142,142,0,0,0,142-142.4l-.07-115.37c-.71-12.83-11.46-24.51-24.84-24.51S1127.71,330,1127,340.7h0v98c0,2.71-5.76,3.74-8.47,3.74h-.15c-2.71,0-2.08-1-2.08-3.74v-1.61"/>
        <rect class="cls-11" x="886.77" y="510.03" width="50.53" height="50.53" transform="translate(-111.38 801.69) rotate(-45)"/>
        <g class="cls-12">
          <polygon class="cls-13" points="947.76 535.3 951.54 640.75 912.04 571.03 947.76 535.3"/>
        </g>
      </g>
    </g>
  </g>
  <g id="frame-3">
    <g class="cls-14">
      <g id="Rectangle-3" data-name="Rectangle">
        <rect id="path-1-6" data-name="path-1" class="cls-15" x="1440" width="720" height="720"/>
      </g>
      <g>
        <g>
          <path class="cls-7" d="M1629.69,326.5V276.45c0-16.56,9.21-24,23-24s20.69,8.54,20.69,23.36v9.48h-11.48v-9.35c0-7.61-3.2-12.41-10-12.41s-10.41,4.67-10.41,12.14v49.13c0,7.74,3.07,13.21,10.41,13.21,7.08,0,10-4.54,10-12.41v-9.08h11.48v8.41c0,13.88-6.81,24.16-21.35,24.16C1637.7,349.06,1629.69,342.12,1629.69,326.5Z"/>
          <path class="cls-7" d="M1683.23,254h11.88v93.44h-11.88Z"/>
          <path class="cls-7" d="M1719.42,264.83h-15.75V254h43.52v10.81h-15.76v82.63h-12Z"/>
          <path class="cls-7" d="M1755.81,254h11.88v93.44h-11.88Z"/>
          <path class="cls-7" d="M1776.78,343.85l24.56-79h-23.76V254h38.58v3.6l-25,79H1816v10.81h-39.24Z"/>
          <path class="cls-7" d="M1825.21,254h37v10.55h-25.09v29h20.68v10.68h-20.68v32.7h25.09v10.55h-37Z"/>
          <path class="cls-7" d="M1871.83,254h13.48l20.42,65.81h.4V254h10.15v93.57h-11.35l-22.56-71.14h-.4v71h-10.14Z"/>
          <path class="cls-7" d="M1926.12,325.43V321.7h10.94v1.87c0,6.27,1.47,14.68,10.55,14.68,6.94,0,9.34-5.87,9.34-14.28,0-7.35-4.4-13-9.34-16.56l-8-5.87c-6.41-4.67-13.35-10.81-13.35-24.69v-.27c0-14.42,7.87-24.16,21.89-24.16,12.68,0,20.16,8,20.16,22.42v4.41h-11v-4c0-6.4-2.8-12-9.74-12-7.34,0-10,6.14-10,12.41,0,8.82,6.4,12.82,10.94,16.42l6.27,4.94c7.48,5.88,14.15,12.55,14.15,26.17v.26c0,15.35-6.54,25.63-21.89,25.63C1934.39,349.06,1926.12,341.32,1926.12,325.43Z"/>
        </g>
        <g>
          <path class="cls-7" d="M1562.57,372.41h37v10.81h-25.09v28.57h20.69V422.6h-20.69v43.25h-11.88Z"/>
          <path class="cls-7" d="M1607.14,445.16V394.43c0-14.15,7.34-23.63,22.16-23.63s22,9.48,22,23.77v48.72c0,13.75-7.47,24.16-22.16,24.16S1607.14,459,1607.14,445.16Zm32.17-1.07V393.9c0-6.68-2.8-12-10.28-12s-10.14,5.33-10.14,12v50.19c0,6.54,2.8,12.28,10.14,12.28C1636.91,456.37,1639.31,451,1639.31,444.09Z"/>
          <path class="cls-7" d="M1662,372.41h21.63c14.81,0,22.55,8.41,22.55,24.29v.67c0,10.94-4.8,18.42-11.21,21.36V419c6.94,2.54,9.08,7.75,9.21,15.22l.54,20.56c.13,4.27.66,7.47,2,10.41v.67h-11.75c-1.07-2.14-1.6-4.94-1.73-8.81l-.54-20.83c-.13-6.94-2.4-10.54-8.41-10.54h-10.41v40.18H1662Zm20.42,43.91c8.95,0,11.62-7.6,11.62-14.15V396.7c0-5.87-3.07-13.61-11.48-13.61h-8.68v33.23Z"/>
          <path class="cls-7" d="M1737.51,372.41h37V383h-25.1v29h20.69V422.6h-20.69v32.7h25.1v10.55h-37Z"/>
          <path class="cls-7" d="M1783.72,444.22V372.41h11.88V442c0,5.88,1.2,14.82,10.55,14.82,8.81,0,10.27-8,10.27-15.35v-69h11.08v70.74c0,13.49-6.14,24.43-21.75,24.43C1791.33,467.58,1783.72,459.71,1783.72,444.22Z"/>
          <path class="cls-7" d="M1838.46,372.41h21.63c14.81,0,22.56,8.41,22.56,24.29v.67c0,10.94-4.81,18.42-11.22,21.36V419c6.94,2.54,9.08,7.75,9.21,15.22l.54,20.56c.13,4.27.66,7.47,2,10.41v.67h-11.75c-1.07-2.14-1.6-4.94-1.73-8.81l-.54-20.83c-.13-6.94-2.4-10.54-8.41-10.54h-10.41v40.18h-11.88Zm20.43,43.91c8.94,0,11.61-7.6,11.61-14.15V396.7c0-5.87-3.07-13.61-11.48-13.61h-8.68v33.23Z"/>
          <path class="cls-7" d="M1892.6,445.16V394.43c0-14.15,7.34-23.63,22.16-23.63s22,9.48,22,23.77v48.72c0,13.75-7.48,24.16-22.16,24.16S1892.6,459,1892.6,445.16Zm32.17-1.07V393.9c0-6.68-2.8-12-10.28-12s-10.14,5.33-10.14,12v50.19c0,6.54,2.8,12.28,10.14,12.28C1922.37,456.37,1924.77,451,1924.77,444.09Z"/>
          <path class="cls-7" d="M1947.42,372.41h21.63c15.62,0,22.29,10,22.29,26v.66c0,16.16-7.34,27.77-22.83,27.77h-9.21v39h-11.88Zm20,44.31c9.47,0,11.48-6.27,11.48-14.68V397.1c0-8.14-2.27-14-11.88-14h-7.75v33.63Z"/>
          <path class="cls-7" d="M2000.46,372.41h37V383h-25.09v29H2033V422.6h-20.68v32.7h25.09v10.55h-37Z"/>
        </g>
      </g>
    </g>
  </g>
</svg>
