<svg version="1.0" xmlns="http://www.w3.org/2000/svg" width="933.333" height="933.333" viewBox="0 0 700 700"><path d="M329.8.5c-.1.1-4.1.5-8.8.9-10 .7-22.5 2.2-29.5 3.6-2.7.5-6.1 1.2-7.5 1.4-19.1 3.5-48.8 12.1-62.7 18.2-1.8.8-4.8 2.1-6.7 2.9-1.9.8-3.7 1.5-4.1 1.5-1.7 0-31.7 15.8-42.2 22.2-13.4 8.1-31.9 21.2-39.4 27.8-1 .8-4.2 3.5-7.3 6-6 5-30.7 29.6-37.5 37.5-6.9 8.1-23.2 30.2-29.8 40.5C42 182.3 30 206.6 21.1 230.5c-3.8 10.3-10.5 32.4-11.6 38.3-.3 1.5-.7 3.8-1 5.2-1.8 7.9-4.4 22.3-5 27.5-.4 3.3-.9 6.9-1.1 8-1.9 10-2.6 56.7-1.1 71.5 3.7 36.1 11.4 67.8 23.9 99 5.2 12.9 16.8 36.8 21.3 43.9 1.4 2.3 2.5 4.3 2.5 4.6 0 1.5 20.7 31.1 28.7 41 10.6 13.2 30.4 33.8 42.1 43.7 4.7 4 9.3 8 10.1 8.8 4.8 4.4 32.5 23.8 42.1 29.3 15.6 9 37.6 19.7 52 25.2 23.6 9.1 59 18.2 78.2 20.1 3.5.3 6.6.8 6.9 1 1.5.9 23.4 1.9 41.4 1.9 18.4-.1 33.7-.8 42.5-2.1 35.8-5.3 61.3-12.1 90-23.8 27.5-11.3 57.3-28.4 78.6-45.1 2.8-2.2 6.8-5.4 9-7 8.7-6.7 25.3-22.4 35.4-33.2 53.4-57.6 86.1-131.3 92.8-208.8 1.4-16.2.7-54-1.2-69.5-.2-1.9-.7-5.8-1-8.6-.4-2.8-.8-5.9-1-7-.2-1-1.1-6-2.1-10.9-15.4-82.3-63.8-160.3-131.5-211.7-10.6-8-29.6-20.8-31-20.8-.5 0-1-.5-1-1 0-.6-.5-1-1-1-.6 0-2.9-1.2-5.2-2.6-13.2-8.3-45-22.4-66.1-29.3C432.5 9 418.5 6 383 1.4c-4.7-.6-52.6-1.5-53.2-.9zM380 30.4c18.8 2.3 18.7 2.3 25.5 3.5 9.7 1.8 10.3 1.9 23 5.1 67.6 16.7 127.7 55.7 173.8 113 20.8 25.8 39.6 60.3 51.4 94.5 6.3 18.1 11.4 40.3 14.8 63.5 3 21 2.7 63.2-.6 84-.5 3.6-1.2 7.8-1.5 9.5-5.2 32.8-19.3 73.1-35.5 101.3-2.7 4.7-4.9 8.6-4.9 8.8 0 .8-11.8 18.5-16.6 25.1-5.8 7.9-5.6 7.5-14 17.8-6.3 7.8-29.9 31.5-38.3 38.5-24.1 20.3-56.1 39.8-84.6 51.6-13.1 5.4-37.2 13.3-45.4 14.9-.9.2-4.6 1-8.2 1.9-20.5 4.9-40.8 7-68.9 7.1-22.9 0-34.1-.9-53.5-4.1-23.7-3.9-55.9-13.5-75-22.4-20.4-9.4-34-16.9-49.5-27.3-9.9-6.6-24.2-17.4-32-24.2-7-6-28.8-28.2-34.6-35C62 506.1 36.3 444.6 30.3 377.8c-1.5-15.6-.6-60.9 1.2-67.8.2-.8.6-3.5.9-6 .3-2.5.8-5.4 1-6.5.2-1.1.7-4 1.1-6.5 1.1-7.5 6.4-27.8 10.2-39.5 16.2-50 44.1-94.9 81.6-131.2 43.5-42 99.1-72.1 155.2-83.9 12.6-2.7 29.5-5.1 41-6 4.4-.4 8.2-.8 8.4-1 .5-.4 44.7.5 49.1 1z"/><path d="M225.5 238.5c-3.8.7-8.1 1.5-9.5 1.8-5 1-18.2 5.8-24.3 8.8-10.4 5.3-17.8 10.8-26.7 19.9-20.5 20.8-30 47.7-29.4 83.1.2 15.9.7 19.8 3.9 32.7 6.4 25.3 17.9 43.3 36.5 57.5 11.5 8.7 29.7 16.4 43.5 18.3 2.2.3 6 1 8.5 1.4 8.7 1.7 34.1.7 45-1.7 5.3-1.2 7.5-1.8 13-3.5 11.5-3.6 25.6-12.1 31.8-19.3 3.2-3.6 3.2-3.6 3.2-15 0-6.3-.2-11.5-.5-11.5-.2 0-4.3 2-9 4.4-11.2 5.8-22.7 9.5-35.5 11.4-8.4 1.3-30.1.6-37.5-1.2-26.9-6.5-41.4-25.8-44.2-59.2-1.3-14.9-.7-41.7 1.1-51.2 4.8-24.6 16.1-40 34.1-46.3 10.9-3.8 32.2-3.5 37.7.5 1.4 1 1.8 3.5 2.2 12.7.7 18.1 4.1 25.6 13.8 30.5 6.6 3.3 18.8 3.8 26 1.1 11.1-4.3 16.7-16.3 14.5-31.4-1.3-8.7-6.9-19.4-13.4-25.4-8.3-7.8-24.9-15.3-38.7-17.5-2.1-.3-4.8-.8-6-1.1-5-1.2-33.4-1.1-40.1.2zM442.9 237.4c-.2.2-2.6.6-5.4.9-16 1.8-32.1 7.5-45.5 16.1-30.5 19.8-46 52.4-45.4 95.8.2 14.9.9 21.7 3.8 33.6 4.8 19.7 13.5 35.8 26.5 48.9 14.9 15 33.8 24.4 57.6 28.7 7.5 1.3 34.1 1.5 40.5.3 1.4-.2 4.3-.8 6.5-1.2 18.8-3.3 38.8-13.8 52.4-27.5 14.9-14.9 23.9-33.4 28.7-58.5 1.8-9.8 2.4-36.8 1-46.5-7-49.3-39.4-82.1-88.6-89.7-4.3-.6-31.5-1.4-32.1-.9zm28.5 31.7c18.1 6.1 28.7 21.2 33.3 47.2 1.2 7.1 1.1 53.3-.1 62.7-4.2 30.8-15.7 48.4-34.9 53.3-5.3 1.4-22.2 1.7-26.7.5-22.4-5.9-33.4-24-36.7-59.8-.9-9.4-.9-37.7-.1-49 1.7-22.7 9.3-39.8 22-49.2 3.7-2.8 11.6-6.3 15.8-7 7.3-1.3 21.8-.6 27.4 1.3z"/></svg>