<?xml version="1.0" standalone="no"?>
<!DOCTYPE svg PUBLIC "-//W3C//DTD SVG 20010904//EN"
 "http://www.w3.org/TR/2001/REC-SVG-20010904/DTD/svg10.dtd">
<svg version="1.0" xmlns="http://www.w3.org/2000/svg"
 width="700.000000pt" height="700.000000pt" viewBox="0 0 700.000000 700.000000"
 preserveAspectRatio="xMidYMid meet">
<metadata>
Created by potrace 1.11, written by Peter Selinger 2001-2013
</metadata>
<g transform="translate(0.000000,700.000000) scale(0.100000,-0.100000)"
fill="#000000" stroke="none">
<path d="M3298 6995 c-1 -1 -41 -5 -88 -9 -100 -7 -225 -22 -295 -36 -27 -5
-61 -12 -75 -14 -191 -35 -488 -121 -627 -182 -18 -8 -48 -21 -67 -29 -19 -8
-37 -15 -41 -15 -17 0 -317 -158 -422 -222 -134 -81 -319 -212 -394 -278 -10
-8 -42 -35 -73 -60 -60 -50 -307 -296 -375 -375 -69 -81 -232 -302 -298 -405
-123 -193 -243 -436 -332 -675 -38 -103 -105 -324 -116 -383 -3 -15 -7 -38
-10 -52 -18 -79 -44 -223 -50 -275 -4 -33 -9 -69 -11 -80 -19 -100 -26 -567
-11 -715 37 -361 114 -678 239 -990 52 -129 168 -368 213 -439 14 -23 25 -43
25 -46 0 -15 207 -311 287 -410 106 -132 304 -338 421 -437 47 -40 93 -80 101
-88 48 -44 325 -238 421 -293 156 -90 376 -197 520 -252 236 -91 590 -182 782
-201 35 -3 66 -8 69 -10 15 -9 234 -19 414 -19 184 1 337 8 425 21 358 53 613
121 900 238 275 113 573 284 786 451 28 22 68 54 90 70 87 67 253 224 354 332
534 576 861 1313 928 2088 14 162 7 540 -12 695 -2 19 -7 58 -10 86 -4 28 -8
59 -10 70 -2 10 -11 60 -21 109 -154 823 -638 1603 -1315 2117 -106 80 -296
208 -310 208 -5 0 -10 5 -10 10 0 6 -5 10 -10 10 -6 0 -29 12 -52 26 -132 83
-450 224 -661 293 -252 81 -392 111 -747 157 -47 6 -526 15 -532 9z m502 -299
c188 -23 187 -23 255 -35 97 -18 103 -19 230 -51 676 -167 1277 -557 1738
-1130 208 -258 396 -603 514 -945 63 -181 114 -403 148 -635 30 -210 27 -632
-6 -840 -5 -36 -12 -78 -15 -95 -52 -328 -193 -731 -355 -1013 -27 -47 -49
-86 -49 -88 0 -8 -118 -185 -166 -251 -58 -79 -56 -75 -140 -178 -63 -78 -299
-315 -383 -385 -241 -203 -561 -398 -846 -516 -131 -54 -372 -133 -454 -149
-9 -2 -46 -10 -82 -19 -205 -49 -408 -70 -689 -71 -229 0 -341 9 -535 41 -237
39 -559 135 -750 224 -204 94 -340 169 -495 273 -99 66 -242 174 -320 242 -70
60 -288 282 -346 350 -434 514 -691 1129 -751 1797 -15 156 -6 609 12 678 2 8
6 35 9 60 3 25 8 54 10 65 2 11 7 40 11 65 11 75 64 278 102 395 162 500 441
949 816 1312 435 420 991 721 1552 839 126 27 295 51 410 60 44 4 82 8 84 10
5 4 447 -5 491 -10z"/>
<path d="M2255 4615 c-38 -7 -81 -15 -95 -18 -50 -10 -182 -58 -243 -88 -104
-53 -178 -108 -267 -199 -205 -208 -300 -477 -294 -831 2 -159 7 -198 39 -327
64 -253 179 -433 365 -575 115 -87 297 -164 435 -183 22 -3 60 -10 85 -14 87
-17 341 -7 450 17 53 12 75 18 130 35 115 36 256 121 318 193 32 36 32 36 32
150 0 63 -2 115 -5 115 -2 0 -43 -20 -90 -44 -112 -58 -227 -95 -355 -114 -84
-13 -301 -6 -375 12 -269 65 -414 258 -442 592 -13 149 -7 417 11 512 48 246
161 400 341 463 109 38 322 35 377 -5 14 -10 18 -35 22 -127 7 -181 41 -256
138 -305 66 -33 188 -38 260 -11 111 43 167 163 145 314 -13 87 -69 194 -134
254 -83 78 -249 153 -387 175 -21 3 -48 8 -60 11 -50 12 -334 11 -401 -2z"/>
<path d="M4429 4626 c-2 -2 -26 -6 -54 -9 -160 -18 -321 -75 -455 -161 -305
-198 -460 -524 -454 -958 2 -149 9 -217 38 -336 48 -197 135 -358 265 -489
149 -150 338 -244 576 -287 75 -13 341 -15 405 -3 14 2 43 8 65 12 188 33 388
138 524 275 149 149 239 334 287 585 18 98 24 368 10 465 -70 493 -394 821
-886 897 -43 6 -315 14 -321 9z m285 -317 c181 -61 287 -212 333 -472 12 -71
11 -533 -1 -627 -42 -308 -157 -484 -349 -533 -53 -14 -222 -17 -267 -5 -224
59 -334 240 -367 598 -9 94 -9 377 -1 490 17 227 93 398 220 492 37 28 116 63
158 70 73 13 218 6 274 -13z"/>
</g>
</svg>
