<?xml version="1.0" standalone="no"?>
<!DOCTYPE svg PUBLIC "-//W3C//DTD SVG 20010904//EN"
 "http://www.w3.org/TR/2001/REC-SVG-20010904/DTD/svg10.dtd">
<svg version="1.0" xmlns="http://www.w3.org/2000/svg"
 width="830.000000pt" height="830.000000pt" viewBox="0 0 830.000000 830.000000"
 preserveAspectRatio="xMidYMid meet">
<metadata>
Created by potrace 1.14, written by Peter Selinger 2001-2017
</metadata>
<g transform="translate(0.000000,830.000000) scale(0.100000,-0.100000)"
fill="#000000" stroke="none">
<path d="M5675 8180 c-3 -5 -1 -10 4 -10 6 0 11 5 11 10 0 6 -2 10 -4 10 -3 0
-8 -4 -11 -10z"/>
<path d="M5617 8165 c-9 -6 -16 -14 -14 -16 1 -2 -2 -1 -7 3 -5 3 -18 1 -29
-5 -27 -16 -77 -65 -77 -77 0 -5 -9 -12 -20 -15 -11 -4 -18 -11 -15 -16 4 -5
-1 -9 -9 -9 -9 0 -16 -9 -16 -21 0 -11 -4 -18 -8 -15 -4 2 -14 -4 -21 -16 -10
-16 -10 -19 1 -13 7 5 4 -2 -7 -13 -36 -37 -44 -50 -38 -56 4 -3 1 -6 -6 -6
-7 0 -10 -4 -7 -9 3 -5 -1 -12 -10 -15 -8 -3 -12 -10 -9 -16 3 -5 2 -10 -2
-10 -10 0 -35 -57 -37 -83 0 -10 -8 -22 -16 -27 -8 -5 -12 -12 -8 -15 3 -4 -3
-18 -15 -32 -12 -13 -23 -34 -25 -46 -1 -12 -3 -28 -4 -34 -1 -7 -5 -13 -10
-13 -5 0 -7 -4 -4 -9 3 -4 -1 -17 -9 -27 -8 -10 -15 -27 -15 -36 0 -9 -7 -24
-16 -32 -8 -9 -11 -16 -6 -16 4 0 6 -14 4 -31 -3 -23 -7 -27 -14 -18 -7 11 -9
9 -7 -6 1 -11 0 -22 -1 -25 -1 -3 -3 -13 -5 -22 -2 -9 -8 -32 -13 -50 -10 -31
-12 -45 -13 -91 0 -9 -4 -15 -9 -12 -4 3 -8 -11 -8 -30 0 -20 -4 -41 -9 -48
-6 -6 -11 -32 -12 -56 -1 -28 -9 -50 -19 -59 -16 -13 -15 -13 3 -7 16 5 18 4
8 -6 -7 -7 -13 -22 -13 -34 0 -12 -6 -27 -12 -34 -11 -11 -10 -12 2 -6 12 6
13 5 3 -6 -7 -7 -13 -27 -13 -45 0 -18 -6 -35 -12 -37 -10 -4 -9 -6 1 -6 11
-1 11 -4 1 -16 -10 -12 -10 -15 1 -15 12 0 12 -2 0 -9 -8 -5 -11 -16 -8 -25 3
-8 0 -22 -8 -30 -11 -11 -12 -16 -2 -19 9 -4 9 -8 -2 -15 -13 -9 -13 -13 0
-28 9 -11 9 -15 2 -10 -10 5 -13 -3 -14 -31 -1 -21 -1 -42 0 -47 1 -4 -4 -14
-10 -22 -9 -11 -8 -14 2 -14 10 0 10 -3 3 -8 -6 -4 -12 -29 -12 -56 -1 -26 -7
-55 -14 -64 -11 -13 -11 -14 2 -7 13 8 13 7 1 -8 -11 -14 -11 -17 0 -17 10 0
11 -2 2 -8 -7 -4 -13 -36 -14 -72 -2 -36 -6 -72 -10 -81 -5 -9 -3 -22 4 -29 7
-7 7 -10 1 -7 -7 4 -11 -7 -12 -31 0 -20 -3 -86 -7 -147 -4 -60 -7 -118 -7
-128 1 -11 -4 -15 -11 -10 -9 5 -8 2 0 -9 7 -8 10 -17 7 -21 -3 -3 -8 -48 -10
-99 -3 -51 -6 -120 -8 -154 -1 -33 -6 -66 -10 -72 -3 -6 -2 -13 4 -17 15 -9
12 -28 -2 -19 -10 6 -10 4 0 -7 14 -15 16 -33 3 -25 -5 3 -11 -1 -15 -9 -3 -8
0 -17 6 -21 7 -5 8 -2 3 6 -5 9 -4 11 4 6 6 -4 8 -13 4 -19 -4 -6 -8 -23 -9
-37 -1 -14 -5 -35 -8 -48 -3 -12 -2 -20 2 -18 10 6 8 -76 -2 -92 -4 -7 -4 -12
1 -12 4 0 8 -18 8 -40 0 -22 -4 -40 -10 -40 -7 0 -7 -3 0 -8 10 -7 15 -82 5
-82 -7 0 -4 -79 3 -86 3 -3 1 -18 -3 -34 -4 -16 -6 -30 -4 -33 10 -9 10 -67 1
-67 -8 0 -8 -3 0 -11 7 -7 8 -21 3 -39 -5 -16 -6 -31 -3 -34 8 -8 8 -81 -1
-94 -4 -7 -3 -12 3 -12 5 0 8 -9 6 -21 -10 -50 -4 -167 9 -188 6 -9 5 -12 0
-8 -6 3 -11 -13 -11 -36 -2 -30 1 -37 7 -27 5 8 10 11 10 6 0 -5 -8 -18 -17
-29 -17 -19 -17 -20 0 -14 9 4 17 2 17 -3 0 -6 -4 -10 -10 -10 -5 0 -10 -5
-10 -11 0 -5 6 -7 13 -3 10 6 10 4 0 -7 -16 -16 -17 -33 -2 -23 7 4 7 -1 -1
-16 -8 -15 -8 -20 -1 -16 7 4 11 -1 11 -13 0 -12 -6 -21 -12 -21 -10 0 -10 -2
-2 -8 7 -4 12 -20 12 -37 -1 -16 0 -57 1 -90 0 -33 1 -68 1 -77 -1 -44 3 -67
9 -64 4 3 8 -5 8 -17 2 -17 0 -19 -7 -7 -6 9 -10 10 -10 3 0 -6 5 -15 10 -18
8 -5 8 -11 0 -20 -7 -9 -8 -15 -1 -20 6 -3 10 -16 10 -28 0 -12 2 -67 6 -122
4 -55 8 -120 9 -145 0 -25 6 -48 11 -52 6 -5 5 -8 -2 -8 -9 0 -10 -7 -2 -27 7
-19 6 -28 -2 -33 -7 -5 -8 -10 -1 -14 6 -3 11 -14 11 -24 1 -89 4 -108 14
-114 9 -6 8 -8 -2 -8 -11 0 -11 -3 0 -17 8 -9 9 -14 3 -10 -6 3 -11 0 -11 -8
0 -8 4 -12 9 -9 7 4 10 -40 11 -146 0 -15 -5 -24 -12 -22 -7 1 -10 -2 -7 -7 4
-5 -1 -17 -10 -25 -11 -12 -12 -16 -2 -16 8 0 7 -4 -4 -11 -10 -5 -18 -17 -18
-25 0 -8 -11 -26 -25 -40 -25 -25 -34 -51 -13 -38 7 4 8 3 4 -5 -4 -6 -10 -9
-14 -7 -7 4 -25 -12 -33 -29 -2 -5 -8 -9 -12 -7 -5 1 -6 -2 -3 -6 3 -5 -3 -20
-14 -32 -11 -12 -17 -28 -13 -34 3 -6 3 -8 -2 -4 -8 7 -44 -27 -46 -44 -1 -4
-2 -13 -3 -19 0 -6 -10 -17 -20 -25 -11 -8 -16 -14 -10 -14 5 0 1 -5 -8 -11
-10 -5 -18 -17 -18 -25 0 -9 -5 -12 -12 -8 -8 5 -9 2 -5 -9 4 -11 1 -17 -8
-17 -8 0 -15 -5 -15 -11 0 -15 -26 -39 -34 -32 -3 4 -6 -1 -6 -10 0 -10 -4
-17 -10 -17 -5 0 -12 -11 -16 -25 -3 -14 -9 -23 -13 -20 -4 2 -16 -10 -26 -28
-10 -18 -29 -42 -42 -54 -13 -12 -23 -27 -23 -33 0 -6 -4 -9 -9 -5 -6 3 -15
-4 -21 -15 -6 -11 -15 -18 -21 -15 -8 6 -13 -8 -10 -27 0 -5 -6 -8 -15 -8 -8
0 -12 -5 -9 -10 3 -5 2 -10 -4 -10 -6 0 -13 -11 -17 -25 -3 -13 -15 -27 -25
-30 -11 -4 -17 -11 -14 -16 4 -5 -1 -9 -9 -9 -9 0 -16 -7 -16 -16 0 -8 -4 -12
-10 -9 -5 3 -10 -1 -10 -10 0 -9 -4 -13 -10 -10 -5 3 -10 -1 -10 -9 0 -9 -3
-15 -7 -15 -21 3 -33 -3 -33 -17 0 -8 -4 -13 -8 -10 -4 2 -14 -9 -21 -25 -7
-16 -17 -27 -22 -23 -5 3 -9 1 -9 -5 0 -5 -12 -16 -27 -24 -16 -7 -27 -19 -26
-25 2 -7 -6 -12 -17 -12 -11 0 -20 -4 -20 -9 0 -5 -10 -13 -22 -17 -13 -4 -37
-17 -54 -30 -17 -13 -36 -24 -43 -24 -7 0 -9 -4 -6 -10 3 -5 0 -10 -8 -10 -8
0 -20 -7 -27 -15 -11 -13 -15 -13 -21 -3 -6 9 -9 6 -9 -9 0 -16 -4 -21 -15
-17 -8 4 -15 1 -15 -5 0 -6 -7 -11 -16 -11 -8 0 -12 -5 -9 -10 4 -6 3 -10 -2
-9 -20 4 -44 -2 -39 -9 2 -4 -5 -9 -16 -9 -12 -1 -24 -6 -27 -10 -6 -7 -19
-12 -48 -17 -7 -1 -15 -5 -19 -8 -3 -4 -12 -4 -20 -1 -8 3 -14 1 -14 -4 0 -5
-7 -10 -15 -11 -8 -1 -22 -3 -30 -4 -8 -1 -15 -5 -15 -9 0 -4 -18 -6 -40 -5
-23 0 -42 -4 -44 -11 -5 -13 -89 -13 -102 0 -4 4 -13 2 -21 -5 -10 -8 -20 -8
-39 1 -31 14 -37 14 -28 0 5 -8 1 -8 -14 0 -27 14 -35 14 -26 -1 5 -7 3 -8 -7
-3 -7 5 -30 10 -50 11 -20 1 -46 7 -59 14 -12 7 -20 8 -17 3 4 -5 0 -10 -7
-10 -9 0 -12 7 -9 16 5 13 3 14 -7 4 -9 -9 -19 -9 -32 -2 -10 6 -29 7 -41 4
-18 -5 -19 -4 -7 5 12 9 8 11 -18 7 -18 -2 -35 0 -38 5 -3 4 -21 8 -40 8 -21
0 -33 4 -29 10 4 6 -5 10 -19 10 -14 0 -26 5 -26 11 0 5 -3 8 -7 6 -14 -8 -53
12 -53 28 0 8 -6 15 -14 15 -8 0 -18 9 -21 20 -3 11 -11 20 -17 20 -6 0 -9 3
-5 6 3 4 -15 27 -41 53 -63 63 -91 96 -72 87 9 -4 8 -2 -3 7 -9 8 -17 22 -17
31 0 9 -7 16 -16 16 -8 0 -12 5 -9 10 3 6 1 10 -4 10 -6 0 -11 8 -11 19 0 10
-7 24 -15 31 -8 7 -15 19 -15 26 0 8 -4 14 -10 14 -5 0 -10 9 -10 21 0 11 -5
17 -10 14 -6 -3 -10 2 -10 13 0 10 -9 28 -20 40 -11 12 -20 30 -20 42 0 11 -4
20 -9 20 -9 0 -37 60 -33 73 1 4 -3 7 -8 7 -6 0 -10 9 -10 19 0 11 -4 21 -9
23 -5 2 -12 19 -16 38 -3 19 -8 42 -9 50 -7 33 -19 52 -26 40 -4 -6 -8 3 -8
22 -1 59 -3 69 -11 64 -4 -3 -7 8 -6 25 1 16 -2 32 -7 35 -4 3 -6 10 -2 15 3
5 10 7 15 4 5 -4 9 -1 9 6 0 6 9 20 21 30 11 9 21 21 21 26 3 24 11 43 19 43
5 0 9 8 9 18 0 10 9 24 20 32 11 8 20 23 20 33 0 10 4 16 9 13 5 -4 15 7 22
23 7 16 17 27 21 25 4 -3 8 1 8 9 0 8 9 22 20 32 12 10 18 25 16 32 -3 7 1 13
10 13 8 0 12 5 9 10 -3 6 -1 10 5 10 6 0 9 4 5 10 -3 5 8 23 26 39 19 19 28
35 23 43 -4 7 -4 10 1 6 9 -8 35 15 35 31 0 6 4 11 10 11 5 0 9 3 9 8 -3 18 2
33 9 28 5 -3 14 11 21 30 7 19 17 32 22 29 5 -4 9 6 9 20 0 16 4 24 11 20 6
-4 9 -1 8 6 -2 8 2 24 9 37 7 12 10 22 6 22 -4 0 3 8 14 19 12 10 22 28 22 40
0 12 4 19 10 16 6 -3 10 -1 10 5 0 6 7 18 15 26 8 8 12 21 8 30 -3 9 0 14 8
12 8 -2 13 3 11 11 -2 8 1 17 5 20 13 10 33 50 33 66 0 9 4 14 9 10 9 -5 28
60 23 78 -1 5 2 6 8 2 9 -5 12 1 9 21 0 3 8 12 18 21 10 8 12 12 6 8 -9 -4
-11 -1 -7 9 3 9 10 13 16 10 5 -3 9 2 8 12 -4 34 0 45 12 38 6 -4 8 -3 4 4 -3
6 1 18 10 26 8 9 12 16 8 16 -3 0 -1 7 6 15 7 8 9 15 4 15 -4 0 0 6 11 13 10
8 15 19 11 25 -4 7 -2 12 5 12 7 0 9 3 6 7 -4 3 1 15 10 26 13 15 14 18 3 12
-12 -6 -13 -5 -2 6 6 7 12 21 12 31 0 10 4 18 8 18 5 0 9 6 10 13 1 12 9 47
12 57 1 3 2 8 1 13 0 4 4 7 9 7 6 0 10 12 10 26 0 15 4 23 11 19 6 -4 10 -1 8
6 -3 26 1 40 10 35 5 -4 8 2 7 11 -2 10 4 24 13 31 12 11 13 12 1 6 -12 -6
-13 -4 -2 7 6 7 12 21 12 31 0 10 6 18 13 18 9 0 9 2 -1 9 -11 7 -10 9 3 15 9
3 14 10 10 15 -3 5 -1 12 5 16 5 3 10 15 10 26 0 10 6 19 13 19 8 0 8 3 -2 9
-11 7 -10 14 6 37 18 26 35 98 34 147 0 9 4 15 10 12 5 -4 9 3 9 14 0 11 5 23
11 26 6 4 8 13 5 21 -3 7 -1 16 5 20 6 3 8 12 5 20 -3 8 -1 14 3 14 5 0 8 14
7 31 -1 16 2 33 7 36 6 4 7 0 2 -8 -5 -8 -4 -11 0 -6 9 7 15 36 16 70 0 9 4
15 10 12 13 -9 11 9 -3 24 -10 11 -10 13 0 7 8 -5 12 0 13 13 3 38 4 42 19 51
8 5 10 10 5 10 -6 0 -10 12 -9 28 1 15 6 26 11 25 5 -1 10 4 10 12 0 8 -5 11
-11 8 -6 -4 -4 1 4 11 8 10 13 31 12 47 -1 16 1 29 5 29 5 0 9 12 9 28 3 60 9
112 14 112 3 0 5 30 5 68 0 37 2 72 5 77 8 18 7 236 -2 241 -5 3 -5 11 0 17
13 16 12 49 -2 66 -8 12 -8 13 2 7 9 -6 12 -1 10 16 -2 12 -7 29 -12 37 -6 9
-5 12 1 8 13 -8 11 73 -2 93 -5 9 -4 11 3 6 7 -4 12 -3 12 3 0 5 -4 12 -8 15
-5 3 -8 24 -7 46 1 23 -2 43 -6 46 -5 2 -6 11 -2 19 3 8 1 15 -4 15 -5 0 -7
14 -5 31 3 21 1 30 -6 25 -7 -4 -9 1 -7 14 2 11 0 20 -5 20 -4 0 -6 9 -3 20 4
14 1 19 -8 17 -8 -2 -11 -2 -6 0 13 8 7 32 -10 42 -13 7 -14 10 -4 11 11 0 11
3 -2 18 -8 9 -16 19 -16 22 0 16 -17 47 -34 62 -10 9 -16 21 -13 27 4 5 1 13
-6 18 -7 4 -22 25 -33 46 -11 20 -26 37 -33 37 -9 0 -12 6 -8 16 3 8 2 13 -3
10 -5 -3 -23 8 -41 24 -18 17 -36 30 -41 30 -12 0 -59 49 -59 61 0 6 -4 7 -10
4 -5 -3 -10 -1 -10 5 0 7 -7 10 -15 6 -8 -3 -14 -1 -12 5 1 6 -13 19 -30 28
-18 10 -30 21 -26 25 3 3 1 6 -6 6 -13 0 -28 11 -72 53 -15 15 -33 27 -39 27
-5 0 -10 5 -10 10 0 6 -9 10 -20 10 -11 0 -20 5 -20 10 0 6 -13 10 -29 10 -16
0 -31 5 -33 11 -5 15 -198 15 -226 0 -12 -6 -22 -9 -22 -5 0 4 -10 -1 -22 -12
-13 -12 -18 -13 -13 -4 8 13 7 13 -11 0 -10 -8 -22 -19 -26 -25 -5 -6 -8 -4
-8 5 0 13 -2 13 -9 0 -6 -8 -7 -18 -4 -24 3 -5 1 -6 -6 -2 -16 10 -53 -3 -45
-16 4 -6 2 -8 -3 -5 -13 8 -55 -27 -45 -38 4 -5 2 -5 -5 -2 -6 4 -19 -1 -29
-10 -10 -10 -21 -18 -25 -18 -24 0 -102 -72 -93 -86 3 -5 -3 -6 -12 -2 -12 4
-15 3 -10 -5 4 -7 3 -12 -3 -12 -5 0 -18 -13 -28 -30 -9 -16 -24 -30 -32 -30
-8 0 -12 -3 -9 -6 4 -3 -11 -23 -33 -44 -21 -21 -39 -44 -39 -53 0 -8 -10 -22
-23 -31 -12 -9 -16 -14 -10 -11 8 4 11 1 7 -9 -3 -9 -10 -13 -15 -10 -5 3 -9
-4 -9 -14 0 -11 -7 -25 -15 -32 -8 -7 -12 -16 -9 -21 3 -5 2 -9 -3 -8 -19 3
-34 -2 -28 -10 3 -5 0 -15 -7 -23 -13 -14 -20 -33 -21 -55 0 -7 -5 -11 -11
-10 -6 1 -10 -4 -9 -10 2 -7 -2 -13 -7 -13 -6 0 -10 -9 -10 -20 0 -11 -6 -20
-12 -20 -9 0 -8 -4 2 -10 9 -6 10 -10 3 -10 -6 0 -14 -14 -18 -30 -4 -19 -11
-28 -18 -23 -7 3 -9 3 -5 -2 4 -4 2 -17 -4 -29 -7 -11 -11 -24 -10 -28 1 -5
-2 -8 -7 -8 -5 0 -7 -8 -4 -19 3 -10 0 -22 -6 -25 -6 -4 -11 -18 -11 -32 0
-14 -4 -22 -10 -19 -9 6 -14 -14 -11 -42 1 -6 -3 -14 -9 -18 -5 -3 -10 -19
-10 -36 0 -16 -5 -29 -12 -29 -9 0 -8 -4 2 -10 10 -6 11 -10 3 -10 -8 0 -13
-13 -13 -31 0 -17 -4 -28 -10 -24 -6 4 -10 -6 -10 -24 0 -16 -5 -33 -10 -36
-8 -5 -8 -11 -1 -19 6 -7 7 -16 2 -22 -10 -10 -24 -108 -24 -162 0 -21 -3 -28
-8 -20 -5 8 -9 0 -9 -22 -1 -61 -4 -80 -13 -80 -4 0 -5 -4 -2 -10 3 -5 1 -18
-4 -28 -7 -13 -7 -22 1 -30 9 -9 9 -12 -1 -12 -7 0 -10 -4 -6 -9 3 -5 1 -13
-5 -16 -8 -5 -7 -12 2 -23 7 -9 8 -13 2 -9 -11 7 -14 -6 -13 -68 0 -11 0 -27
-1 -35 0 -8 0 -23 -1 -33 0 -10 -5 -15 -11 -11 -7 4 -8 2 -4 -5 12 -18 15 -61
5 -61 -5 0 -9 -5 -9 -11 0 -5 4 -8 8 -5 4 2 8 -4 8 -14 0 -10 -4 -16 -8 -14
-4 3 -8 -4 -8 -15 0 -11 5 -23 10 -26 7 -4 7 -11 2 -18 -13 -16 -12 -327 0
-351 6 -11 6 -16 1 -13 -6 4 -10 -29 -10 -83 1 -59 4 -87 11 -83 6 3 5 0 -1
-8 -15 -15 -18 -33 -5 -25 5 3 9 -1 9 -9 0 -8 -4 -12 -9 -9 -4 3 -8 1 -8 -5 0
-5 5 -13 10 -16 6 -3 7 -14 2 -23 -9 -21 -9 -43 1 -59 5 -7 5 -17 2 -23 -3 -5
-1 -10 4 -10 13 0 10 -22 -4 -32 -6 -5 -6 -8 1 -8 6 0 10 -11 9 -25 -2 -14 0
-27 3 -29 4 -2 7 -25 7 -50 -1 -25 3 -46 7 -46 4 0 3 -11 -2 -25 -6 -17 -6
-25 1 -25 6 0 7 -4 4 -10 -3 -5 -1 -10 4 -10 6 0 11 -7 11 -15 0 -8 -6 -15
-12 -15 -8 0 -9 -3 -3 -8 11 -8 17 -25 19 -57 1 -11 6 -26 10 -34 7 -10 6 -12
-4 -6 -9 5 -11 4 -6 -3 10 -16 15 -45 22 -127 3 -38 11 -76 18 -84 9 -12 8
-13 -2 -7 -11 7 -12 4 -3 -12 6 -11 11 -32 11 -46 0 -14 6 -26 13 -26 9 0 8
-3 -2 -9 -8 -5 -9 -10 -3 -12 6 -2 12 -24 13 -49 3 -43 6 -54 30 -101 7 -15 7
-19 0 -14 -6 3 -11 1 -11 -4 0 -6 5 -11 10 -11 6 0 10 -13 10 -28 0 -15 6 -34
13 -41 10 -11 9 -12 -3 -6 -12 6 -13 5 -2 -6 6 -7 12 -23 12 -36 0 -13 5 -23
11 -23 6 0 9 -6 6 -14 -3 -7 1 -26 9 -41 8 -15 14 -41 14 -57 0 -16 4 -27 8
-24 4 2 9 -7 10 -20 1 -15 -2 -22 -8 -19 -6 3 -10 -3 -10 -15 0 -12 -5 -18
-10 -15 -9 6 -14 -8 -11 -28 1 -5 -3 -6 -9 -2 -5 3 -10 1 -10 -5 0 -6 -5 -8
-12 -4 -6 4 -8 3 -4 -4 3 -6 -1 -17 -9 -25 -8 -9 -15 -21 -15 -27 0 -6 -4 -8
-10 -5 -5 3 -10 1 -10 -6 0 -7 -11 -27 -25 -45 -14 -18 -25 -37 -25 -43 0 -6
-6 -10 -12 -9 -7 2 -11 -4 -10 -12 2 -8 0 -12 -4 -8 -11 12 -34 -12 -34 -36 0
-17 -2 -18 -10 -6 -8 12 -10 10 -10 -9 0 -13 -3 -22 -6 -18 -8 7 -28 -12 -37
-35 -3 -10 -14 -18 -22 -18 -9 0 -13 -5 -10 -10 3 -6 2 -10 -3 -10 -5 0 -15
-11 -22 -25 -7 -14 -20 -25 -27 -25 -8 0 -11 -4 -8 -10 3 -5 -1 -10 -10 -10
-8 0 -20 -10 -25 -22 -5 -14 -9 -17 -10 -8 0 13 -2 13 -9 0 -6 -8 -7 -18 -5
-22 3 -4 -2 -8 -10 -8 -9 0 -16 -4 -16 -10 0 -5 -7 -10 -16 -10 -8 0 -12 -4
-9 -10 3 -5 -2 -10 -11 -10 -10 0 -15 -3 -12 -6 8 -7 -28 -42 -80 -78 -23 -16
-39 -33 -35 -39 3 -6 1 -7 -5 -3 -7 4 -12 2 -12 -5 0 -7 -3 -10 -6 -6 -4 3
-27 -16 -53 -42 -25 -27 -56 -54 -69 -60 -12 -7 -20 -16 -17 -21 3 -6 0 -7 -8
-4 -8 3 -18 1 -22 -5 -3 -6 -15 -11 -26 -11 -11 0 -17 -4 -14 -10 3 -5 -1 -10
-10 -10 -9 0 -13 -4 -10 -10 3 -5 1 -10 -5 -10 -6 0 -18 -7 -27 -15 -8 -8 -19
-12 -25 -9 -6 4 -8 2 -5 -3 7 -11 -20 -28 -37 -24 -5 1 -6 -5 -3 -12 3 -8 0
-14 -6 -14 -37 1 -57 -4 -52 -13 3 -5 -1 -10 -9 -10 -9 0 -16 -4 -16 -10 0 -5
-7 -10 -15 -10 -8 0 -15 -4 -15 -10 0 -5 -8 -10 -18 -10 -10 0 -34 -8 -55 -19
-20 -10 -34 -14 -30 -7 3 6 -3 3 -14 -7 -11 -9 -23 -14 -26 -10 -4 3 -7 1 -7
-5 0 -7 -6 -12 -14 -12 -8 0 -16 -5 -18 -10 -2 -6 -13 -12 -25 -13 -12 0 -19
-5 -17 -9 3 -4 -4 -8 -15 -8 -12 0 -21 -4 -21 -8 0 -4 -12 -9 -27 -10 -16 -1
-33 -9 -39 -17 -6 -8 -14 -12 -17 -8 -4 3 -7 2 -7 -4 0 -9 -25 -22 -55 -27 -5
-1 -9 -7 -8 -13 1 -6 -9 -14 -22 -17 -14 -4 -25 -13 -25 -21 0 -8 -4 -15 -10
-15 -5 0 -10 -5 -10 -11 0 -5 5 -7 12 -3 7 5 8 3 3 -7 -12 -18 -14 -49 -3 -43
4 3 8 -3 8 -13 0 -11 6 -25 12 -32 11 -11 10 -12 -2 -6 -12 6 -13 5 -3 -6 7
-7 13 -23 13 -35 0 -13 7 -29 15 -37 8 -8 11 -17 8 -21 -4 -3 4 -6 16 -6 12 0
19 -4 16 -10 -3 -5 3 -10 15 -10 12 0 19 -4 16 -9 -3 -5 3 -11 14 -14 11 -3
20 -12 20 -21 0 -9 5 -16 10 -16 6 0 10 5 10 10 0 6 4 10 10 10 5 0 7 -7 3
-15 -5 -16 42 -65 62 -65 6 0 3 5 -5 10 -11 7 -12 10 -2 10 8 0 16 -9 19 -19
3 -11 12 -18 21 -16 10 1 23 -3 31 -9 12 -9 13 -8 6 4 -8 13 -6 13 8 1 9 -7
15 -16 12 -20 -2 -4 15 -8 38 -9 30 -2 38 0 27 7 -10 7 -6 10 18 9 18 -1 38 5
45 12 9 10 9 11 -2 5 -9 -5 -12 -4 -7 3 4 7 14 12 22 12 12 0 18 23 17 67 -1
7 9 13 22 13 13 0 25 7 29 15 3 8 9 14 13 14 10 -3 40 8 74 27 14 7 30 10 34
6 5 -4 5 -1 1 6 -4 7 -1 12 8 12 9 0 16 5 16 10 0 6 10 10 23 10 13 0 28 5 35
12 7 7 12 9 12 4 0 -4 7 0 16 8 8 9 20 14 25 11 5 -4 9 -1 9 6 0 7 3 10 6 7 3
-4 14 2 25 13 11 11 24 17 29 14 6 -4 10 1 10 10 0 9 4 13 10 10 13 -8 52 19
42 30 -4 4 1 6 10 2 9 -3 26 3 38 13 13 11 26 18 29 15 4 -2 15 7 25 21 22 28
74 56 89 47 6 -3 7 -1 3 5 -4 7 -1 12 6 12 8 0 20 9 28 20 8 11 19 20 25 20
17 0 56 45 48 55 -5 4 0 5 10 2 11 -4 17 -1 17 8 0 8 6 15 13 15 6 0 25 11 41
25 16 14 33 25 38 25 4 0 10 0 13 0 9 0 42 35 39 41 -2 3 8 12 21 19 14 7 25
20 25 28 0 9 3 13 6 10 3 -4 31 18 61 48 31 30 62 54 70 54 7 0 13 6 13 13 0
20 40 58 52 51 6 -4 8 -3 5 3 -8 12 31 59 45 55 5 -1 7 2 3 8 -3 5 -2 10 3 10
5 0 15 11 22 25 7 13 18 23 24 22 6 -1 10 3 10 8 -1 6 9 20 22 33 l24 23 0
-26 c0 -15 4 -24 10 -20 5 3 10 -1 10 -9 0 -9 5 -16 10 -16 6 0 10 -9 10 -21
0 -11 5 -17 10 -14 6 3 10 -3 10 -14 0 -12 5 -21 10 -21 6 0 10 -5 10 -11 0
-6 7 -17 15 -26 8 -8 12 -19 9 -25 -4 -7 -2 -8 4 -4 11 6 16 -6 13 -26 0 -5 4
-8 10 -8 5 0 7 -5 4 -10 -3 -5 1 -10 10 -10 9 0 14 -4 10 -9 -3 -5 3 -16 13
-23 19 -13 22 -18 22 -38 0 -5 7 -10 17 -10 9 0 13 -3 10 -6 -4 -4 3 -15 15
-25 11 -11 18 -19 14 -19 -4 0 -1 -7 8 -15 8 -8 20 -15 26 -15 6 0 9 -4 5 -9
-3 -6 1 -13 8 -18 8 -4 19 -18 26 -30 6 -13 19 -23 27 -23 8 0 13 -4 9 -9 -3
-5 4 -16 15 -24 11 -7 17 -17 13 -20 -3 -4 5 -7 18 -7 19 0 21 -2 9 -10 -13
-8 -12 -10 3 -10 10 0 16 -4 13 -9 -4 -5 7 -15 23 -22 16 -7 28 -16 25 -20 -2
-4 7 -10 21 -13 14 -4 24 -10 22 -14 -1 -4 0 -7 3 -7 11 0 38 -30 34 -37 -3
-4 5 -5 16 -3 11 2 20 0 20 -4 0 -4 7 -16 16 -27 8 -10 12 -12 8 -4 -4 8 8 0
26 -17 18 -18 37 -33 42 -33 5 0 7 -3 5 -7 -3 -5 1 -13 8 -20 11 -10 15 -10
18 0 3 7 6 4 6 -6 1 -10 6 -15 11 -12 5 3 10 2 10 -3 0 -6 14 -15 30 -21 17
-5 30 -15 30 -21 0 -6 5 -8 10 -5 6 3 10 1 10 -4 0 -6 7 -11 15 -11 9 0 18 -7
22 -16 3 -8 12 -13 20 -10 8 3 11 1 8 -4 -3 -6 1 -10 10 -10 9 0 13 -4 10 -10
-4 -6 5 -10 19 -10 14 0 26 -4 26 -10 0 -5 7 -10 16 -10 8 0 22 -7 31 -15 8
-8 19 -13 24 -10 5 4 9 1 9 -4 0 -6 9 -11 20 -11 11 0 20 -6 20 -12 0 -9 4 -8
10 2 5 8 10 10 10 4 0 -7 21 -15 48 -19 26 -5 53 -10 60 -12 6 -1 18 -4 25 -6
6 -1 18 -7 26 -11 9 -6 12 -5 7 2 -4 6 5 5 21 -3 18 -10 29 -11 34 -4 4 7 9 4
13 -6 3 -10 11 -13 18 -9 7 4 25 7 40 7 42 -2 44 -3 29 -12 -10 -7 -7 -9 12
-8 14 1 23 5 20 10 -7 12 12 8 26 -5 11 -11 12 -10 6 2 -8 13 -7 13 8 1 13
-10 17 -10 17 -1 0 9 3 10 13 1 8 -6 17 -8 20 -5 9 10 67 13 62 3 -3 -4 -1
-10 5 -14 5 -3 10 -2 10 4 0 9 30 10 65 1 25 -6 46 1 39 13 -5 8 -2 8 9 -2 13
-10 17 -10 17 -1 0 9 4 9 17 -1 10 -8 14 -9 10 -2 -5 7 0 12 13 12 11 1 29 1
40 2 11 0 20 4 20 9 0 4 7 11 16 14 8 3 12 2 9 -4 -8 -13 28 1 37 14 5 7 8 5
8 -4 0 -11 2 -12 8 -3 4 7 23 15 42 18 19 3 39 10 45 16 5 5 20 9 33 9 13 0
20 4 17 10 -6 9 25 15 50 10 5 -1 7 2 2 6 -4 4 18 19 48 34 30 15 52 30 48 33
-3 4 4 7 16 7 12 0 19 4 16 10 -6 10 7 14 33 11 6 -1 12 2 12 7 0 11 80 65 97
65 6 0 11 5 10 10 -1 6 8 16 20 22 13 7 20 15 16 18 -3 4 0 7 9 7 20 0 89 60
82 71 -3 5 -1 9 5 9 5 0 22 11 37 25 15 14 33 25 41 25 8 0 11 5 8 10 -3 6 -2
10 4 10 6 0 21 11 35 25 14 14 23 25 20 25 -5 0 9 18 41 53 12 12 22 25 23 30
1 4 5 8 10 8 4 1 13 10 20 21 7 10 17 16 21 13 5 -2 13 7 20 21 6 14 16 22 21
19 6 -3 10 0 10 8 0 8 7 18 16 21 8 3 13 10 10 14 -3 5 6 20 20 35 13 14 24
30 24 34 0 5 9 15 21 23 38 27 59 47 59 57 0 5 11 20 25 33 13 12 22 27 19 31
-3 5 2 9 10 9 9 0 17 -7 17 -15 1 -8 2 -24 3 -35 0 -12 8 -25 16 -30 8 -5 10
-10 4 -10 -7 0 -9 -10 -6 -25 2 -14 8 -23 12 -20 4 2 6 -7 4 -20 -1 -14 2 -27
7 -31 5 -3 7 -10 3 -15 -3 -5 0 -17 7 -25 6 -8 9 -17 6 -21 -4 -3 -2 -12 3
-19 6 -6 10 -16 9 -20 -3 -21 2 -35 11 -29 6 3 7 -1 4 -9 -4 -10 -1 -16 7 -16
12 0 12 -2 1 -9 -11 -7 -10 -9 3 -14 12 -5 14 -11 5 -26 -8 -15 -7 -22 4 -28
8 -4 15 -11 15 -16 -1 -24 14 -67 22 -67 6 0 7 -5 4 -10 -3 -6 1 -13 9 -16 12
-4 13 -11 6 -24 -6 -11 -6 -20 -1 -22 6 -2 11 -15 13 -30 2 -15 7 -30 11 -34
4 -4 7 -18 7 -30 0 -13 5 -26 10 -29 6 -3 10 -15 10 -26 0 -10 5 -19 10 -19 6
0 10 -9 10 -20 0 -11 5 -20 10 -20 6 0 10 -9 10 -21 0 -11 4 -17 10 -14 6 3 7
-1 4 -9 -3 -9 -1 -16 5 -16 6 0 8 -7 4 -17 -4 -11 -3 -14 5 -9 8 5 12 -1 12
-18 0 -13 4 -26 8 -28 10 -4 67 -120 64 -130 -1 -5 2 -8 6 -8 4 0 9 -10 9 -22
1 -13 10 -28 19 -35 9 -7 13 -17 8 -24 -4 -8 -3 -10 4 -5 7 4 12 1 12 -7 0 -8
7 -17 15 -21 8 -3 14 -9 13 -13 -3 -15 36 -83 49 -83 7 0 10 -6 7 -14 -3 -8 3
-20 13 -27 10 -8 24 -26 30 -42 7 -15 17 -27 22 -27 6 0 7 -7 4 -17 -4 -11 -3
-14 5 -9 7 4 12 2 12 -3 0 -10 17 -34 46 -65 5 -6 13 -19 17 -28 3 -10 13 -18
21 -18 8 0 25 -15 37 -33 13 -17 31 -39 41 -48 10 -9 15 -19 11 -23 -3 -3 1
-6 10 -6 10 0 17 -4 17 -10 0 -5 5 -10 11 -10 6 0 24 -14 39 -30 15 -17 35
-30 43 -30 8 0 17 -7 21 -15 3 -8 9 -15 13 -14 19 3 34 -2 29 -10 -3 -5 2 -15
11 -22 14 -12 16 -12 9 1 -4 8 2 4 14 -10 12 -14 25 -25 29 -25 3 0 5 -3 3 -7
-2 -8 13 -12 31 -9 4 0 7 -3 7 -8 0 -5 9 -13 20 -16 11 -3 20 -13 20 -21 0 -8
7 -14 16 -14 8 0 12 -5 9 -10 -4 -6 -3 -9 2 -8 12 3 57 -13 64 -24 3 -5 15
-10 27 -11 11 0 18 -5 16 -9 -3 -4 2 -8 10 -8 9 0 16 -4 16 -10 0 -5 9 -10 21
-10 13 0 18 -4 13 -12 -5 -8 -2 -9 9 -5 9 3 22 1 29 -6 7 -7 22 -14 33 -15 11
-2 25 -8 31 -13 6 -5 23 -10 38 -11 14 -1 26 -6 26 -10 0 -4 7 -8 15 -8 8 0
15 -6 15 -12 0 -9 4 -8 10 2 6 10 10 11 10 3 0 -8 13 -13 31 -13 17 0 28 -4
24 -10 -9 -14 8 -12 24 2 11 10 13 10 7 1 -5 -9 3 -13 28 -13 20 0 36 -4 36
-10 0 -5 5 -10 11 -10 5 0 7 6 3 13 -6 9 -4 9 7 -1 7 -6 28 -12 46 -12 18 0
33 -3 33 -7 0 -5 15 -9 33 -10 17 -1 75 -4 127 -7 52 -3 95 -6 95 -6 0 -1 12
-3 26 -4 14 -2 32 -6 39 -11 9 -5 11 -4 6 3 -9 15 -1 15 26 1 16 -8 19 -8 13
1 -6 9 -2 9 14 1 11 -7 21 -8 21 -3 0 12 32 11 49 -2 11 -8 13 -8 7 2 -4 7 -1
12 9 12 10 0 14 -5 9 -12 -5 -10 -4 -10 6 -1 9 9 17 9 31 0 14 -9 21 -9 30 0
9 9 18 9 32 2 11 -6 17 -7 14 -2 -4 5 0 10 8 10 8 0 12 -4 9 -9 -3 -4 0 -8 5
-8 6 0 11 5 11 10 0 6 5 10 11 10 5 0 8 -4 5 -8 -3 -5 1 -9 9 -9 8 0 15 4 15
9 0 4 5 8 11 8 5 0 7 -6 3 -12 -6 -10 -4 -11 7 0 16 14 33 16 24 2 -3 -6 -1
-10 4 -10 6 0 11 5 11 10 0 6 5 10 11 10 5 0 7 -6 3 -12 -6 -10 -5 -10 7 -1
12 10 18 10 29 0 10 -10 11 -9 5 1 -6 11 4 13 49 10 31 -1 56 -1 56 2 0 9 64
5 79 -5 10 -5 12 -4 7 3 -5 8 0 11 16 8 13 -2 22 -10 20 -17 -2 -10 1 -10 10
1 7 9 22 17 33 18 11 1 29 4 40 6 11 2 23 5 26 5 17 2 51 42 46 55 -3 8 2 17
11 21 14 5 14 7 2 15 -8 6 -10 10 -4 10 7 0 14 11 16 25 3 13 2 22 -3 20 -4
-3 -10 9 -14 26 -4 19 -15 33 -26 36 -10 3 -19 12 -19 19 0 8 -7 14 -15 14 -9
0 -18 7 -21 15 -3 8 -14 17 -25 20 -11 4 -17 11 -14 16 3 5 -1 6 -9 3 -11 -4
-16 0 -16 10 0 9 -8 16 -20 16 -11 0 -20 6 -20 14 0 16 -27 29 -41 21 -5 -4
-6 1 -3 9 3 9 -3 19 -16 26 -17 9 -21 9 -15 0 5 -8 1 -11 -12 -8 -11 2 -28 -4
-38 -12 -11 -8 -16 -10 -12 -3 5 8 -4 10 -32 8 -21 -1 -44 1 -52 5 -8 5 -19 4
-26 -2 -7 -6 -13 -7 -13 -3 0 4 -8 1 -17 -6 -11 -10 -14 -10 -9 -1 4 6 2 12
-3 12 -6 0 -11 -5 -11 -11 0 -8 -6 -7 -17 2 -10 8 -14 9 -10 2 5 -7 1 -12 -10
-12 -156 -1 -173 -2 -167 -12 3 -6 -3 -5 -14 2 -17 10 -23 10 -36 0 -13 -11
-19 -11 -31 -1 -12 10 -15 10 -15 -1 0 -11 -2 -11 -10 1 -6 10 -10 11 -10 3 0
-7 -5 -13 -11 -13 -5 0 -7 6 -3 13 6 9 4 9 -7 0 -15 -14 -33 -18 -25 -5 3 5
-8 8 -24 8 -16 0 -27 -3 -24 -8 8 -13 -21 -9 -34 4 -9 9 -12 9 -12 -3 0 -12
-2 -12 -10 1 -7 11 -10 11 -10 2 0 -10 -5 -10 -20 -2 -11 6 -20 7 -20 2 0 -5
-7 -9 -15 -9 -8 0 -12 4 -10 7 3 4 -6 7 -20 7 -14 0 -22 -4 -19 -9 4 -6 -2 -6
-13 1 -11 5 -61 11 -112 12 -60 1 -91 5 -91 13 0 6 -5 4 -10 -4 -5 -8 -10 -10
-10 -3 0 13 -18 12 -39 -1 -10 -6 -12 -5 -7 2 8 13 5 13 -61 16 -22 0 -39 4
-37 7 2 4 -28 10 -66 13 -38 4 -72 11 -75 17 -4 5 -17 9 -30 9 -13 0 -27 5
-30 11 -4 6 -13 8 -20 5 -8 -3 -19 2 -26 10 -7 8 -18 13 -25 10 -7 -3 -16 -1
-19 5 -4 5 -11 7 -16 4 -5 -4 -9 -1 -9 5 0 7 -5 10 -12 8 -14 -5 -38 18 -57
54 -8 15 -18 25 -23 22 -4 -3 -8 4 -8 15 0 12 -4 20 -9 19 -11 -4 -71 58 -71
72 0 5 -4 10 -10 10 -5 0 -10 7 -10 15 0 8 -4 15 -10 15 -5 0 -10 7 -10 15 0
8 -4 15 -9 15 -5 0 -12 12 -16 27 -6 26 -63 115 -78 121 -4 2 -5 8 -1 13 3 5
0 9 -6 9 -6 0 -8 5 -5 10 3 6 1 10 -6 10 -7 0 -10 3 -6 6 3 4 0 13 -8 21 -8 8
-15 23 -15 33 0 13 -5 17 -15 14 -11 -5 -13 -2 -9 10 3 9 2 16 -4 16 -9 0 -26
52 -25 77 0 7 -3 13 -8 13 -5 0 -9 9 -9 21 0 11 -4 17 -10 14 -6 -3 -10 5 -10
19 0 14 -4 28 -10 31 -5 3 -10 13 -10 21 0 8 -9 24 -20 36 -11 12 -19 27 -19
32 3 22 -1 37 -8 33 -5 -3 -9 9 -10 26 -2 18 -7 33 -13 35 -5 2 -10 12 -10 23
0 10 -9 35 -20 54 -11 20 -17 34 -12 31 5 -3 9 1 9 9 0 8 -4 12 -8 10 -4 -3
-10 14 -14 37 -4 24 -12 49 -19 57 -8 11 -8 13 2 7 6 -4 12 -2 12 3 0 6 -6 11
-14 11 -8 0 -13 9 -12 22 1 13 -4 32 -11 44 -7 11 -10 24 -7 27 4 4 1 14 -7
24 -12 15 -12 16 1 8 9 -5 8 0 -4 13 -14 16 -15 22 -6 22 9 0 7 5 -5 14 -12 8
-16 20 -13 34 4 12 0 26 -8 33 -8 6 -14 17 -14 23 0 6 5 4 11 -4 9 -12 10 -12
5 3 -3 10 -6 23 -6 28 0 6 -4 8 -9 5 -5 -3 -7 10 -4 29 3 19 1 35 -5 35 -5 0
-9 6 -9 13 -1 12 -9 61 -15 87 -2 8 -7 21 -11 28 -5 6 -6 12 -2 12 3 0 1 10
-6 21 -6 12 -7 19 -2 16 5 -4 10 0 10 8 0 8 -4 12 -9 8 -6 -3 -8 3 -7 13 2 11
0 25 -4 32 -5 7 -3 12 3 12 6 0 8 5 4 12 -9 15 -13 38 -16 95 -1 24 -6 43 -11
43 -5 0 -4 7 3 15 9 10 9 15 1 15 -6 0 -11 18 -11 43 0 24 -6 49 -12 56 -10
11 -10 13 0 7 6 -4 12 -2 12 3 0 6 -4 11 -10 11 -5 0 -10 5 -10 11 0 5 6 7 13
3 10 -6 10 -4 0 7 -15 16 -18 83 -3 74 6 -3 10 3 10 14 0 12 5 21 12 21 6 0 8
3 5 6 -3 4 -1 16 5 28 7 11 11 25 10 29 -1 4 5 15 13 23 8 9 12 20 9 26 -4 6
-2 8 4 4 6 -3 13 3 17 14 3 11 11 20 16 20 6 0 7 5 4 10 -3 6 2 10 12 10 13 0
14 3 5 8 -10 7 -8 14 8 32 11 12 17 27 14 31 -3 5 0 9 5 9 6 0 11 9 11 21 0
11 5 17 10 14 9 -5 15 15 11 38 0 4 3 7 7 7 9 0 45 77 45 97 0 7 4 13 9 13 4
0 8 9 8 21 0 11 5 17 10 14 6 -4 10 7 10 26 0 18 3 29 7 26 9 -10 32 25 33 51
0 13 4 20 10 17 6 -3 7 1 4 9 -3 9 -1 16 6 16 6 0 9 4 6 9 -4 5 0 12 6 14 10
4 9 6 -1 6 -9 1 -6 8 9 21 15 13 18 20 9 20 -9 0 -10 3 -3 8 12 7 29 52 26 65
-1 4 3 7 9 7 5 0 8 4 5 8 -3 5 2 21 10 37 8 16 13 33 11 39 -2 6 3 17 12 24 9
8 10 10 2 7 -9 -6 -9 -1 3 17 9 14 13 28 9 32 -4 4 1 4 12 0 17 -7 18 -6 7 8
-10 13 -10 18 1 30 8 7 13 21 11 31 -1 9 1 17 6 17 5 0 11 18 15 40 4 22 11
40 15 40 5 0 10 12 12 28 2 18 8 26 18 24 11 -3 12 -1 4 8 -12 12 -7 50 6 50
5 0 7 8 5 18 -1 9 0 22 4 27 3 6 7 19 9 30 7 37 8 40 16 54 7 10 5 12 -5 7 -8
-4 -6 -1 4 7 12 10 14 16 6 19 -8 3 -7 9 5 20 9 9 16 21 15 25 -5 28 3 73 11
68 6 -4 10 6 10 24 0 16 5 33 10 36 6 3 10 17 10 31 0 13 5 24 12 24 6 0 3 7
-8 15 -10 9 -13 14 -5 13 13 -3 18 11 23 60 1 12 5 22 9 22 4 0 9 17 12 38 3
20 8 53 12 72 4 19 8 40 9 45 1 6 5 16 9 23 5 7 3 12 -5 12 -8 0 -9 3 -3 8 6
4 12 18 14 32 2 14 4 30 5 35 1 6 6 16 10 24 7 10 5 12 -3 6 -10 -6 -11 -3 -1
15 10 18 9 24 -1 31 -11 7 -11 9 -1 9 7 0 10 5 7 10 -3 6 -2 10 4 10 7 0 7 8
1 25 -7 17 -6 24 2 22 7 -1 11 16 11 46 1 26 3 47 7 47 3 0 7 21 8 48 3 67 4
72 14 72 5 0 7 3 4 8 -2 4 -1 26 3 49 5 22 4 48 -1 56 -5 10 -4 18 3 23 8 5 9
3 4 -6 -5 -9 -4 -11 4 -6 9 6 9 11 0 22 -7 9 -8 14 -1 14 6 0 11 20 12 45 1
68 3 75 12 75 4 0 8 5 8 11 0 5 -4 8 -9 5 -5 -4 -8 2 -6 11 2 10 4 18 5 18 3
0 10 59 13 103 1 17 5 32 9 32 5 0 8 5 8 11 0 5 -6 7 -12 3 -9 -5 -9 -2 1 9 7
9 10 17 5 17 -5 0 -2 5 6 10 9 6 10 10 3 10 -7 0 -10 10 -7 28 3 15 6 43 7 62
1 19 6 41 11 49 6 10 5 12 -2 7 -7 -4 -12 -2 -12 3 0 6 5 11 11 11 8 0 7 6 -2
17 -8 9 -9 14 -3 10 7 -4 14 0 18 8 3 8 0 17 -6 21 -7 5 -8 2 -3 -6 5 -9 4
-11 -4 -6 -9 6 -9 11 0 22 6 8 9 14 6 14 -3 0 -2 13 3 30 5 18 5 32 -1 36 -5
3 -6 10 -3 16 4 6 8 31 9 57 1 25 6 55 10 66 5 16 5 17 -4 5 -9 -12 -11 -11
-11 8 0 14 4 21 11 16 7 -4 7 1 -1 16 -7 12 -8 20 -2 16 5 -3 10 5 10 19 0 15
-5 22 -12 19 -6 -3 -3 1 7 9 15 13 16 15 2 21 -8 3 -15 11 -15 18 0 9 3 8 10
-2 8 -13 10 -12 10 3 0 10 -5 28 -11 39 -7 12 -7 18 -1 14 11 -6 9 70 -1 81
-3 3 -2 15 3 27 4 13 4 29 0 36 -5 9 -4 20 3 29 9 12 9 13 -1 7 -9 -5 -12 4
-10 38 2 25 7 46 11 46 4 0 3 9 -3 19 -12 24 -13 34 -2 27 5 -3 9 1 9 9 0 8
-4 12 -9 9 -12 -8 -10 10 4 24 8 8 8 15 -2 27 -10 12 -10 15 1 15 9 0 10 3 4
8 -12 8 -13 52 -2 69 4 6 3 22 -2 35 -5 13 -8 41 -7 63 2 22 0 44 -3 50 -2 5
-4 35 -3 67 1 32 -3 56 -7 53 -5 -3 -7 8 -5 25 4 20 1 30 -7 30 -10 0 -10 3
-2 11 8 8 8 20 3 35 -7 17 -6 24 3 24 7 0 8 3 2 8 -12 9 -17 25 -20 75 -1 21
-8 44 -14 50 -6 6 -11 16 -11 22 0 5 5 3 10 -5 9 -13 10 -13 10 1 0 8 -5 20
-12 27 -9 9 -9 12 3 12 10 0 11 2 2 8 -7 5 -14 27 -15 50 -1 23 -5 42 -10 42
-4 0 -8 5 -8 11 0 5 6 7 13 3 9 -6 9 -5 0 8 -7 8 -10 18 -6 21 3 4 1 7 -6 7
-8 0 -9 5 -3 18 5 9 6 26 1 37 -4 11 -8 14 -8 6 -1 -8 -4 -11 -7 -8 -4 4 -1
14 7 24 9 11 10 14 2 9 -9 -4 -14 -1 -15 11 -2 25 -4 36 -11 53 -4 8 -8 24
-10 35 -1 11 -6 26 -10 33 -5 6 -5 12 0 12 4 0 1 5 -7 10 -11 7 -11 10 -2 10
7 0 -1 13 -17 29 -20 19 -26 31 -18 35 8 3 6 5 -3 5 -9 1 -23 10 -33 21 -10
12 -22 18 -27 15 -6 -3 -10 1 -10 10 0 9 -3 14 -7 12 -10 -6 -34 19 -26 27 4
3 1 6 -6 6 -16 0 -42 26 -34 34 4 3 -1 6 -10 6 -9 0 -17 5 -17 11 0 5 -4 7
-10 4 -5 -3 -10 1 -10 9 0 9 -7 16 -15 16 -8 0 -15 3 -15 8 0 8 -62 46 -72 44
-4 -1 -10 7 -13 18 -4 11 -13 20 -21 20 -8 0 -13 4 -10 8 2 4 -4 14 -16 21
-16 10 -19 10 -13 -1 6 -10 5 -11 -6 0 -7 6 -25 12 -40 12 -15 0 -31 5 -34 10
-5 8 -11 7 -20 0 -8 -7 -20 -8 -27 -4 -20 13 -33 13 -51 -1z m209 -587 c4 -7
3 -8 -4 -4 -7 4 -12 2 -12 -3 0 -6 4 -11 8 -11 8 0 9 -3 13 -92 2 -31 7 -54
12 -51 5 3 4 -4 -2 -14 -6 -11 -7 -24 -3 -27 8 -8 10 -37 17 -239 2 -76 7
-142 10 -148 4 -5 2 -9 -3 -9 -5 0 -6 -18 -2 -42 5 -24 4 -50 -1 -60 -6 -11
-5 -19 2 -24 6 -3 7 -10 2 -15 -4 -4 -6 -40 -3 -79 3 -40 3 -73 0 -75 -3 -2
-4 -65 -3 -142 1 -77 -3 -143 -8 -150 -6 -6 -6 -14 -2 -16 11 -7 9 -99 -2
-117 -5 -9 -4 -11 3 -6 7 4 12 2 12 -3 0 -6 -3 -11 -7 -11 -5 0 -8 -29 -8 -65
1 -36 -3 -65 -7 -65 -5 0 -5 -8 -1 -17 7 -16 9 -50 3 -63 -3 -5 -6 -57 -11
-147 -1 -29 -5 -51 -8 -49 -3 2 -7 -7 -7 -20 -1 -14 2 -21 9 -17 6 4 7 1 2 -7
-4 -7 -10 -31 -13 -54 -2 -23 -9 -47 -16 -55 -8 -12 -8 -13 2 -7 7 4 12 1 12
-8 0 -9 -4 -16 -10 -16 -5 0 -10 -5 -10 -11 0 -5 4 -8 8 -5 5 3 9 -1 9 -9 0
-8 -4 -12 -9 -9 -4 3 -8 -12 -8 -34 0 -21 -3 -42 -7 -46 -4 -3 -8 -17 -10 -29
-2 -17 -1 -19 7 -7 7 12 9 10 7 -7 0 -12 -4 -20 -8 -17 -4 2 -7 -13 -7 -34 -1
-49 -5 -65 -17 -74 -6 -5 -4 -12 5 -18 10 -6 11 -10 3 -10 -9 0 -13 -16 -13
-44 0 -25 -5 -48 -10 -51 -8 -5 -7 -12 2 -23 10 -12 10 -14 1 -8 -10 5 -13 -2
-13 -28 0 -19 -4 -37 -9 -40 -5 -3 -9 -27 -9 -52 -1 -26 -6 -52 -12 -58 -14
-14 -13 -29 3 -20 8 6 8 3 -1 -9 -8 -9 -12 -24 -10 -34 2 -10 -3 -23 -12 -30
-13 -11 -13 -12 0 -13 11 0 12 -2 3 -8 -7 -5 -15 -33 -17 -63 -2 -29 -5 -56
-6 -59 -1 -3 -1 -13 0 -24 1 -12 -3 -16 -10 -11 -9 6 -9 2 -1 -13 14 -25 14
-43 1 -22 -10 16 -11 14 -13 -37 -1 -10 -6 -21 -12 -25 -6 -5 -5 -11 3 -17 11
-7 11 -9 -1 -14 -10 -4 -14 -18 -13 -40 1 -20 -1 -34 -4 -32 -3 2 -12 -5 -19
-17 -10 -16 -10 -19 1 -13 10 6 11 5 1 -6 -7 -7 -13 -26 -13 -42 0 -16 -4 -26
-10 -22 -5 3 -10 -1 -10 -10 0 -9 5 -13 10 -10 6 4 1 -10 -10 -30 -11 -20 -18
-41 -15 -46 4 -5 -1 -12 -9 -15 -9 -3 -16 -10 -16 -16 0 -5 4 -7 9 -3 5 3 3
-8 -5 -25 -9 -16 -16 -40 -18 -52 -1 -13 -7 -32 -13 -43 -6 -11 -9 -28 -8 -37
2 -10 -1 -18 -6 -18 -5 0 -9 -9 -9 -19 0 -11 -4 -23 -10 -26 -5 -3 -10 -17
-10 -30 0 -13 -5 -27 -11 -30 -6 -4 -8 -13 -5 -20 2 -7 -2 -22 -10 -34 -8 -12
-13 -25 -9 -30 3 -6 0 -13 -7 -18 -14 -9 -38 -69 -38 -96 0 -9 -5 -19 -12 -23
-7 -4 -8 -3 -4 4 4 7 4 12 -1 12 -4 0 -7 22 -7 50 1 28 -3 50 -8 50 -6 0 -4 7
3 17 12 14 12 17 0 21 -11 4 -11 6 0 13 12 7 12 9 0 9 -11 0 -11 3 0 17 11 13
11 17 1 21 -10 3 -10 7 -1 18 6 8 7 14 2 14 -6 0 -9 86 -9 220 1 121 -1 220
-4 220 -3 0 -4 57 -3 127 1 71 3 216 4 323 1 107 6 200 11 207 5 7 5 14 -2 18
-8 5 -7 11 2 23 10 12 10 14 1 8 -7 -4 -13 -3 -13 3 0 5 5 13 11 17 8 4 8 9 0
17 -6 6 -11 16 -11 21 0 6 4 4 10 -4 6 -10 9 -6 8 18 -1 20 -5 29 -12 25 -7
-4 -6 -1 1 8 7 8 12 24 11 34 -2 78 6 182 16 194 8 12 8 13 -1 7 -8 -4 -13 -1
-13 9 0 9 4 14 8 11 5 -3 9 1 9 9 0 8 -5 15 -11 15 -6 0 -4 5 4 10 13 8 13 13
2 31 -8 11 -9 18 -3 14 10 -5 17 70 12 114 -2 7 2 10 8 6 6 -3 11 1 11 10 0
10 -5 13 -12 9 -10 -6 -10 -4 -2 7 6 8 12 45 13 84 2 38 7 73 13 76 14 9 12
20 -4 30 -7 5 -8 9 -2 9 10 0 13 24 14 105 0 30 3 36 10 25 13 -21 13 -3 -1
22 -8 15 -8 19 0 14 7 -5 11 6 11 31 0 64 5 117 14 131 4 7 5 19 2 27 -3 8 -2
15 3 15 4 0 6 11 3 25 -3 16 0 25 8 25 9 0 9 4 -1 17 -8 9 -9 14 -3 10 7 -4
11 10 13 40 1 26 7 51 14 55 9 6 9 8 -2 8 -10 0 -11 3 -2 14 8 10 9 16 1 21
-6 3 -7 12 -3 18 10 17 14 34 19 96 2 30 8 59 13 65 5 6 7 19 6 29 -2 9 0 17
5 17 4 0 7 13 6 29 -1 17 2 28 6 25 8 -5 10 4 11 44 0 12 4 22 10 22 5 0 7 9
4 20 -3 11 -1 23 5 26 5 3 7 13 4 21 -3 8 -1 11 4 8 8 -5 15 31 11 58 0 4 4 7
10 7 5 0 7 5 4 10 -4 6 1 22 10 36 8 13 14 32 13 42 -2 10 2 16 11 14 12 -3
12 -1 0 14 -11 15 -12 16 0 9 11 -6 13 -1 9 24 -3 18 0 35 5 38 6 3 7 1 3 -5
-4 -7 -3 -12 2 -12 5 0 12 19 15 41 3 23 11 46 19 50 11 7 11 9 0 9 -10 0 -9
4 2 16 9 8 14 20 11 25 -4 5 -1 9 5 9 6 0 8 5 5 10 -3 6 -1 10 5 10 6 0 9 4 6
9 -4 5 -1 11 4 13 6 2 12 13 13 25 0 12 3 20 6 18 2 -3 10 3 17 13 9 13 9 19
1 24 -7 5 -2 8 13 9 14 0 20 3 13 5 -8 4 -5 13 9 30 25 28 25 28 34 12z
m-2885 -1080 c13 -17 18 -29 13 -25 -6 3 -11 0 -11 -8 0 -8 4 -12 8 -10 11 8
18 -22 7 -33 -6 -6 -6 -12 3 -17 8 -6 10 -4 4 6 -5 8 -4 11 1 6 7 -7 11 -27
15 -77 1 -8 9 -23 17 -32 8 -10 10 -18 5 -18 -7 0 -8 -12 -3 -36 5 -20 6 -47
4 -61 -3 -13 -1 -22 4 -19 10 6 8 -36 -2 -53 -4 -5 -1 -13 5 -17 8 -4 7 -9 -2
-15 -12 -8 -11 -11 1 -19 10 -6 11 -10 3 -10 -7 0 -13 -5 -13 -11 0 -5 5 -7
10 -4 6 3 10 1 10 -4 0 -6 -4 -11 -10 -11 -5 0 -10 -5 -10 -11 0 -5 6 -7 13
-3 10 6 10 4 0 -7 -7 -7 -13 -17 -13 -22 0 -4 6 -5 13 -1 10 6 10 4 0 -7 -7
-7 -13 -17 -13 -22 0 -4 6 -5 13 -1 9 5 9 4 0 -6 -9 -9 -9 -19 -2 -33 9 -15 8
-18 -3 -11 -11 6 -11 5 1 -9 9 -11 10 -17 2 -17 -6 0 -11 -7 -11 -15 0 -8 6
-15 13 -15 8 0 8 -3 1 -8 -5 -4 -11 -27 -12 -52 -2 -64 -9 -145 -11 -145 -4 0
-12 -40 -12 -60 0 -10 -5 -26 -12 -34 -9 -12 -9 -13 1 -7 6 4 12 2 12 -3 0 -6
-4 -11 -9 -11 -5 0 -8 -11 -6 -25 1 -14 -2 -25 -7 -25 -5 0 -6 -5 -3 -10 4 -6
1 -18 -7 -27 -11 -14 -11 -16 2 -8 12 7 13 6 3 -6 -6 -8 -11 -17 -11 -22 1
-32 -16 -125 -25 -136 -10 -12 -9 -13 3 -6 13 8 13 6 2 -8 -8 -9 -11 -20 -8
-25 3 -5 -1 -18 -9 -28 -8 -10 -15 -31 -15 -46 0 -16 -6 -28 -12 -28 -9 0 -8
-4 2 -10 10 -6 11 -10 3 -10 -7 0 -13 -10 -13 -23 0 -13 -6 -29 -12 -36 -11
-11 -10 -12 1 -6 9 5 8 0 -3 -18 -13 -20 -14 -26 -4 -30 8 -4 7 -6 -4 -6 -10
-1 -17 -4 -17 -8 4 -23 -2 -43 -11 -38 -6 4 -10 -8 -10 -29 0 -19 -4 -38 -10
-41 -5 -3 -10 -17 -10 -31 0 -13 -4 -32 -9 -42 -14 -26 -24 -55 -25 -72 0 -8
-4 -18 -9 -21 -5 -4 -10 -20 -10 -37 -1 -17 -5 -28 -9 -26 -8 5 -12 -10 -9
-35 2 -8 -2 -10 -10 -5 -9 5 -11 1 -7 -14 4 -13 0 -23 -9 -26 -8 -3 -12 -10
-9 -15 4 -5 0 -15 -7 -23 -8 -7 -13 -21 -11 -31 1 -9 -4 -17 -11 -17 -8 0 -12
-8 -10 -20 2 -11 -2 -25 -8 -32 -7 -7 -12 -19 -13 -25 -2 -29 -4 -34 -12 -29
-4 2 -9 -5 -9 -16 -1 -12 -6 -24 -10 -27 -10 -7 -17 -34 -22 -84 -1 -5 -6 -5
-13 -1 -7 4 -8 3 -4 -4 4 -6 1 -22 -6 -34 -7 -13 -11 -27 -10 -31 1 -4 -5 -10
-13 -13 -8 -3 -13 -10 -10 -14 3 -5 0 -14 -7 -22 -13 -14 -20 -33 -21 -55 0
-7 -4 -10 -9 -7 -4 3 -8 -2 -8 -10 0 -9 -4 -16 -10 -16 -5 0 -10 -5 -10 -11 0
-5 6 -7 12 -3 7 5 3 -5 -10 -20 -12 -16 -22 -36 -22 -44 0 -8 -3 -12 -7 -9 -8
9 -42 -60 -43 -86 0 -10 -5 -15 -11 -11 -6 4 -9 -1 -7 -13 1 -10 -7 -30 -20
-43 -12 -13 -22 -31 -22 -41 0 -9 -7 -20 -16 -23 -9 -4 -14 -13 -10 -22 3 -8
2 -12 -4 -9 -9 5 -15 -16 -11 -38 1 -5 -3 -6 -8 -3 -5 3 -15 -1 -22 -10 -10
-13 -10 -17 2 -25 11 -7 11 -9 -3 -9 -11 0 -26 -17 -39 -45 -12 -25 -26 -45
-32 -45 -6 0 -8 -3 -4 -6 3 -4 -1 -13 -9 -21 -8 -8 -12 -19 -9 -24 4 -5 0 -9
-8 -9 -13 0 -17 12 -18 55 0 10 -5 25 -10 31 -6 7 -11 28 -11 46 0 18 -6 39
-12 47 -8 11 -8 13 2 7 6 -4 12 -2 12 3 0 6 -4 11 -10 11 -5 0 -10 5 -10 11 0
5 6 7 13 3 10 -6 10 -4 0 7 -7 7 -13 28 -13 46 0 19 -5 33 -12 34 -10 0 -10 2
0 6 10 4 10 8 0 21 -11 13 -11 14 2 7 13 -8 13 -7 1 8 -7 9 -11 28 -9 42 3 14
2 28 -2 30 -4 3 -6 18 -4 34 2 17 -1 33 -7 36 -7 5 -6 12 2 21 6 8 7 14 2 14
-5 0 -10 41 -11 92 -1 54 -7 97 -15 107 -8 10 -8 13 0 8 8 -5 11 70 11 304 0
204 4 315 11 322 7 7 7 15 -1 24 -8 10 -8 17 0 25 9 9 8 15 -1 27 -9 12 -9 13
1 7 6 -4 12 -3 12 1 0 5 -6 15 -12 22 -9 9 -9 12 -1 7 8 -4 11 8 11 39 0 25 5
52 12 60 8 9 8 15 0 20 -6 4 -7 12 -2 18 4 7 9 28 11 47 2 19 8 41 14 49 9 12
9 13 0 7 -7 -4 -13 -2 -13 3 0 6 5 11 10 11 6 0 10 18 10 40 0 25 5 40 13 40
8 0 7 4 -3 10 -10 6 -11 10 -2 10 7 0 12 15 12 40 0 22 4 40 8 40 12 0 11 32
-2 50 -5 8 -6 12 -2 8 5 -5 14 2 21 15 8 15 8 24 1 29 -7 5 -7 8 2 8 7 0 12
13 12 30 0 16 9 46 20 65 11 20 15 33 9 29 -8 -5 -9 -3 -3 7 4 8 9 19 11 24 1
6 4 22 7 36 3 15 13 42 21 61 8 20 11 39 7 43 -4 5 -2 5 5 1 14 -8 27 10 13
19 -6 4 -8 11 -4 16 3 5 10 7 15 4 5 -4 9 3 9 14 0 10 3 21 8 23 4 2 17 22 29
46 12 23 17 39 11 36 -5 -3 -4 3 3 14 7 12 17 18 21 16 7 -5 13 19 9 39 -1 5
2 6 7 3 5 -3 14 13 21 35 7 22 19 43 27 46 7 3 11 9 8 14 -3 5 3 9 13 10 10 0
13 3 6 5 -8 4 -1 16 17 36 16 17 27 36 23 42 -3 6 -2 8 2 3 11 -9 45 21 45 40
0 8 3 12 8 10 4 -3 12 1 19 8 10 11 10 15 0 18 -7 3 -4 6 6 6 9 1 17 8 17 16
0 9 10 19 23 24 12 5 21 11 20 15 -2 3 0 5 3 4 3 -2 10 5 15 15 6 9 14 15 20
12 5 -4 12 1 15 9 3 9 12 16 20 16 7 0 18 8 23 18 6 9 11 13 11 8 0 -5 7 -3
15 4 8 7 12 16 9 21 -3 5 4 9 14 9 11 0 22 7 26 15 3 8 12 12 21 9 8 -3 15 -1
15 5 0 6 7 11 16 11 8 0 12 5 9 10 -4 6 -3 10 2 9 26 -5 63 2 58 11 -15 24 6
7 26 -22z"/>
</g>
</svg>
