<svg width="2880" height="720" viewBox="0 0 2880 720" fill="none" xmlns="http://www.w3.org/2000/svg">
<g clip-path="url(#clip0_2_2316)">
<path d="M-13.3335 -10H2880V730H-13.3335V-10Z" fill="#EAEAE4"/>
<path d="M2880 0H2160V720H2880V0Z" fill="#EFDECB"/>
<mask id="mask0_2_2316" style="mask-type:alpha" maskUnits="userSpaceOnUse" x="2160" y="0" width="720" height="720">
<path d="M2880 0H2160V720H2880V0Z" fill="#ECDACA"/>
</mask>
<g mask="url(#mask0_2_2316)">
<path d="M2703.06 4561.78C2232.51 5074.25 1666.15 5567.96 949.446 5664.01C6.78069 5790.32 -918.913 5191.36 -1245.53 4322.94C-1540.44 3538.82 -1304.77 2551.08 -733.132 1952.17C-157.894 1349.46 718.429 1121.61 1226.28 443.375C1605.57 -63.1966 1337.75 -726.275 1001.16 -1178.04" stroke="#0086A5" stroke-width="3.24535" stroke-miterlimit="10"/>
<path d="M4405.8 1449.23C4126.46 1294.81 3897.21 1059.82 3625.34 892.263C3471.28 797.306 3299.36 807.674 3128.82 868.627C3052.07 896.09 2979.56 936.451 2907.41 973.994L2883.88 984.958C2874.89 987.92 2865.2 987.776 2856.56 984.094M3138.37 534.65C3137.14 463.946 3095.46 399.351 3034.26 365.141C2973.18 331.034 2899.27 348.581 2838.95 375.241C2739.12 419.367 2646.61 477.687 2543.51 515.045C2470.42 541.459 2360.89 583.795 2290.48 530.412C2274.41 518.213 2265.56 501.9 2262.03 484.291C2258.96 469.047 2267.62 453.68 2282.27 448.496C2407.03 404.391 2524.7 360.533 2636.39 283.308C2755.39 201.022 2887.44 80.7822 3044.4 122.316C3170.87 155.888 3277.31 235.788 3392.98 293.47C3575.9 384.684 3764.17 464.665 3946.25 557.751C4123.35 648.348 4300.02 744.026 4491.93 800.248C4648.77 846.204 4839.32 867.742 4987.84 784.099C5121 709.116 5175.85 558.697 5217.17 419.799C5270.95 239.017 5365.16 -226.658 5049.19 -216.969C4798.18 -209.296 4483.06 -112.466 4342.5 -395.487C4290.29 -500.607 4294.83 -622.884 4295.2 -735.945C4295.39 -795.149 4303.35 -867.767 4229.54 -877.271C4200.84 -880.953 4104.05 -868.631 4104.79 -916.418C4105.06 -943.264 4136.41 -968.175 4154.15 -984.365C4176.14 -1004.67 4200.76 -1023.45 4216.5 -1049.43C4273.46 -1143.36 4265.15 -1255.81 4269.88 -1361.25C4275.29 -1482.4 4230.12 -1614.53 4257.11 -1739.67C4337.83 -2113.72 4742.02 -2373.08 5091.96 -2448.97C5277.24 -2489.1 5473.97 -2479.46 5649.44 -2404.95C6122.26 -2203.98 6338.21 -1665.16 6123.59 -1211.49C6014.26 -980.477 5848.31 -769.374 5859.04 -500.875C5869.43 -240.174 6000.55 -1.48277 6152.39 203.656C6392.79 528.396 6634.96 852.313 6852.99 1192.67C7067.12 1526.83 7356.19 1907.09 7337.22 2325.45C7315.85 2797.63 6860.58 3052.8 6450.35 3154.54C6445.86 3155.72 6441.48 3156.79 6437 3157.84" stroke="#0086A5" stroke-width="3.24535" stroke-miterlimit="10"/>
<path d="M2810.56 164.838C2711.37 137.519 2584.73 193.35 2496.21 223.611C2444.95 241.138 2389.55 253.254 2337.11 233.115C2309.47 222.479 2281.18 198.575 2270.42 170.269C2261.86 147.743 2277.21 123.14 2301.03 119.519C2301.79 119.417 2302.55 119.314 2303.31 119.293C2347.11 116.146 2390.15 105.017 2431.62 90.8841C2500.53 67.371 2567.74 39.085 2636.1 14.029C2683.84 -3.45667 2732.35 -23.8633 2783.72 -26.9079C2850.6 -30.8782 2910.91 6.93226 2967.09 38.0568C3022.86 68.9757 3187.15 177.12 3242.13 209.273" stroke="#0086A5" stroke-width="3.24535" stroke-miterlimit="10"/>
<path d="M3007.08 712.641C3006.97 821.073 2919.01 908.893 2810.58 908.79C2702.15 908.687 2614.33 820.723 2614.43 712.271C2614.53 603.839 2702.49 516.04 2810.95 516.143C2919.36 516.246 3007.18 604.209 3007.08 712.641Z" stroke="#0086A5" stroke-width="3.24535" stroke-miterlimit="10"/>
</g>
<path d="M1440 0H720V720H1440V0Z" fill="#5B507A"/>
<mask id="mask1_2_2316" style="mask-type:alpha" maskUnits="userSpaceOnUse" x="720" y="0" width="720" height="720">
<path d="M1440 0H720V720H1440V0Z" fill="#ECDACA"/>
</mask>
<g mask="url(#mask1_2_2316)">
<path d="M2597.69 3052.19C2098.67 3595.68 1498.05 4119.27 737.971 4221.13C-261.732 4355.08 -1243.44 3719.88 -1589.81 2798.91C-1902.57 1967.34 -1652.64 919.839 -1046.42 284.684C-436.37 -354.486 492.976 -596.122 1031.55 -1315.4C1433.8 -1852.62 1149.77 -2555.82 792.817 -3034.93" stroke="#EFDECB" stroke-width="3.24535" stroke-miterlimit="10"/>
<path d="M2161.72 -243.264C1743.13 -164.922 1351.75 86.2039 1158.53 470.67C1005.9 774.438 1021.37 1141.32 1153.84 1449.36C1308.36 1808.72 1629.32 2068.05 1736.9 2456.44" stroke="#EFDECB" stroke-width="3.24535" stroke-miterlimit="10"/>
<path d="M551.316 166.834C636.53 111.704 745.175 93.0079 840.009 134.568C927.187 172.768 989.646 265.835 986.221 361.87C984.476 410.324 964.776 456.116 930.001 490.062C886.26 532.734 822.775 539.301 795.33 473.59C751.829 369.418 834.621 267.515 921.1 221.156C1026.01 164.936 1181.26 122.918 1338.46 201.456" stroke="#EFDECB" stroke-width="3.24535" stroke-miterlimit="10"/>
</g>
<rect width="720" height="720" fill="#0086A5"/>
<mask id="mask2_2_2316" style="mask-type:alpha" maskUnits="userSpaceOnUse" x="0" y="0" width="720" height="720">
<rect width="720" height="720" fill="#EAEAE4"/>
</mask>
<g mask="url(#mask2_2_2316)">
<path d="M-102.095 121.726C-59.2386 78.9687 -2.49133 49.61 60.2166 56.999C122.087 64.2895 153.86 135.47 128.836 189.459C118.639 211.429 94.0584 239.852 68.1477 220.739C40.8577 200.641 55.0443 162.908 68.246 139.362C93.9104 93.55 146.077 47.2455 202.233 48.3292C248.735 49.2651 279.768 87.0474 285.63 130.987C289.522 160.1 284.054 194.385 265.138 217.34C246.321 240.197 202.923 249.605 196.47 210.296C186.618 150.445 238.636 109.264 286.714 87.5402C329.964 67.984 376.909 56.2601 424.297 55.1764" stroke="#EFDECB" stroke-width="3.24535" stroke-miterlimit="10" stroke-linecap="round" stroke-linejoin="round"/>
<path d="M1961.77 852.451C2027.19 1094.37 2148.77 1359.68 2064.48 1610.12C1994.24 1818.73 1791.19 1944.99 1588.48 2002.23C1308.74 2081.24 986.625 2043.02 744.217 1870.9C669.982 1818.19 603.087 1754.35 549.492 1680.51C316.936 1360.22 459.347 928.016 587.127 601.078C594.072 583.344 611.067 571.67 630.229 571.62C649.736 571.522 667.371 583.443 674.76 601.619C704.021 673.736 774.659 857.427 768.847 960.725C762.936 1066.09 675.006 1143.48 568.851 1135.35C467.819 1127.62 391.663 1050.53 362.501 955.848C330.433 851.762 369.447 762.355 407.131 670.19C427.82 619.649 442.943 564.133 476.784 520.784C517.227 468.913 584.664 460.785 646.633 460.687C678.898 460.638 711.065 457.337 743.281 456.647C780.768 455.81 819.929 452.51 856.332 466.352C881.455 475.908 903.523 496.055 913.08 521.473C926.478 557.187 915.198 615.855 955.197 637.727C1003.23 663.982 1061.06 657.037 1112.53 649.796C1160.46 642.998 1221.69 627.53 1269.08 644.821C1332.97 668.121 1344.99 783.241 1299.67 825.851C1270.02 853.683 1224.65 852.845 1186.37 854.767" stroke="#EFDECB" stroke-width="3.24535" stroke-miterlimit="10" stroke-linecap="round" stroke-linejoin="round"/>
<path d="M-594.45 -952.823L-802.524 -952.035C-844.493 -951.887 -877.891 -917.701 -877.103 -875.731L-873.507 -680.564C-961.289 -634.456 -1062.12 -581.107 -1154.78 -517.759C-1339.36 -391.654 -1491.67 -226.239 -1445.02 -0.332849C-1435.56 45.2326 -1418.27 89.123 -1396.45 130.304C-1326.3 262.567 -1177.19 351.284 -1028.77 350.693C-966.116 350.447 -903.457 350.201 -840.848 349.955C-740.062 349.561 -639.375 349.215 -538.638 348.821C-480.758 348.624 -422.976 348.378 -365.145 348.181C-281.797 347.885 -198.498 347.541 -115.2 347.245C-56.7282 347.048 -19.537 285.72 -45.9896 233.208L-158.007 14.6421C-165.002 0.997061 -155.347 -15.0123 -140.175 -15.0615L271.392 -16.6379C313.312 -16.7857 346.711 -50.972 345.923 -92.8922L331.342 -880.313C330.554 -922.331 295.924 -956.222 253.905 -956.074L-594.45 -952.823Z" stroke="#EFDECB" stroke-width="3.24535" stroke-miterlimit="10" stroke-linecap="round" stroke-linejoin="round"/>
<path d="M951.665 -558.589C821.126 -521.496 687.631 -488.541 580.885 -402.779C397.096 -255.098 355.077 28.2451 502.808 228.979C503.301 229.669 503.793 230.408 504.384 231.048C578.176 123.317 643.888 8.83682 744.92 -75.9395C855.509 -168.745 1033.53 -222.734 1172.99 -146.578C1298.41 -78.1071 1355.35 75.436 1294.51 200.606C1242.15 308.239 1125.26 384.099 1011.86 411.98C829.056 456.954 621.032 387.794 504.384 231.048C466.553 286.318 426.504 339.765 378.624 386.71C242.912 519.515 44.7397 541.386 -139.985 544.982L-266.337 545.474L-483.82 546.312C-551.651 546.558 -597.462 475.772 -569.039 414.542L-538.547 348.829L-383.723 15.3883C-377.32 1.69403 -387.615 -14.1183 -402.738 -14.0691L-785.143 -12.6406C-827.063 -12.4928 -861.742 -46.3837 -862.481 -88.3531L-866.175 -288.25L-873.466 -680.605" stroke="#EFDECB" stroke-width="3.24535" stroke-miterlimit="10" stroke-linecap="round" stroke-linejoin="round"/>
</g>
<path d="M2160 0H1440V720H2160V0Z" fill="#538A7B"/>
<mask id="mask3_2_2316" style="mask-type:alpha" maskUnits="userSpaceOnUse" x="1440" y="0" width="720" height="720">
<path d="M1440 0H2160V720H1440V0Z" fill="#ECDACA"/>
</mask>
<g mask="url(#mask3_2_2316)">
<path d="M2058.18 -358.008C1519.28 -622.796 1061 -145.059 1020.45 346.786C978.846 851.208 1544.38 1417.65 2057.7 1196.43C2380.45 1057.37 2363.23 634.289 1999.41 587.232C1487.57 521.047 1171.23 1294.75 1513.83 1639.26C1703.34 1829.88 2203.32 1863.4 2247.03 1525.44" stroke="#EFDECB" stroke-width="3.24535" stroke-miterlimit="10" stroke-linecap="round" stroke-linejoin="round"/>
<path d="M2900.74 460.798C2937.41 443.821 2979.45 425.649 3018.04 406.329C3101.11 364.724 3185.61 324.506 3275.7 301.074C3490.81 245.123 3746.08 354.347 3779.7 593.025C3790.03 666.335 3776.97 742.945 3743.97 809.752C3741.73 803.965 3739.14 798.275 3736.27 792.632C3658.8 641.707 3484.64 569.736 3320.94 565.097C3171.26 560.841 2919.34 620.665 2933.16 815.873C2942.96 953.408 3091.78 1015.82 3210.09 1034.27C3364.8 1058.33 3551.59 1022.94 3669.23 911.756C3700.17 882.489 3725.32 847.722 3744.02 809.752C3778.02 896.213 3746.7 1002.43 3668.42 1055.79C3598.12 1103.76 3505.92 1110.21 3425.1 1112.8C3324.87 1116 3224.97 1108.54 3124.83 1107.73C2969.36 1106.68 2813.8 1105.34 2658.33 1104.43C2538.63 1107.06 2417.31 1088.93 2304.59 1049.96C2007.05 947.095 1710.55 637.929 1749.58 306.717C1756.75 245.553 1775.4 183.624 1807.58 122.078C1885.82 -27.3644 2034.07 -120.043 2183.56 -186.467C2237.16 -210.33 2293.45 -228.694 2343.38 -260.208C2367.53 -275.463 2390.53 -293.874 2407.07 -317.45C2427.97 -347.195 2429.69 -377.275 2424.39 -412.185C2420.7 -436.096 2419.22 -460.676 2413.86 -484.348C2411.57 -494.39 2416.93 -504.72 2426.49 -508.832C2429.17 -509.98 2432.08 -510.649 2435 -510.602C2496.07 -509.406 2506.11 -442.695 2532.7 -396.978C2573.88 -326.058 2636.47 -317.355 2712.56 -318.12C2775.11 -318.789 2837.99 -320.941 2900.54 -318.216" stroke="#EFDECB" stroke-width="3.24535" stroke-miterlimit="10" stroke-linecap="round" stroke-linejoin="round"/>
<path d="M1613.12 -1066.24C1613.08 -1066.09 1612.98 -1065.85 1612.89 -1065.71C1519.11 -799.488 1319.17 -563.153 1290.52 -275.459C1264.7 -16.1703 1448.76 261.099 1715.75 303.278C2038.5 354.256 2237.82 41.5977 2473.24 -117.457C2601.98 -204.492 2763.95 -214.726 2917.03 -216.447" stroke="#EFDECB" stroke-width="3.24535" stroke-miterlimit="10" stroke-linecap="round" stroke-linejoin="round"/>
</g>
<path d="M392.07 359.063C388.693 362.515 388.618 368.067 391.769 371.744C395.971 376.621 398.297 382.85 398.297 389.228C398.297 404.161 385.991 416.316 370.833 416.316H324.01C322.809 416.316 321.759 415.34 321.759 414.139V305.786C321.759 304.585 322.734 303.609 324.01 303.609H359.427C369.708 303.609 378.112 311.788 378.112 321.993C378.112 327.321 376.836 330.398 369.108 338.052L339.243 367.466C335.716 370.993 335.266 376.696 338.568 380.372C342.17 384.424 348.472 384.575 352.299 380.823L382.389 351.184C390.418 343.23 397.096 335.501 396.946 321.544C396.721 301.209 379.688 285 359.128 285H313.505C307.652 285 303 289.653 303 295.431V424.571C303 430.348 307.727 435 313.505 435H370.908C396.421 435 417.207 414.514 417.207 389.301C417.207 378.421 413.23 367.841 406.102 359.587C402.425 355.385 395.971 355.086 392.07 359.063Z" fill="white"/>
<path d="M1112.07 359.063C1108.69 362.515 1108.62 368.067 1111.77 371.744C1115.97 376.621 1118.3 382.85 1118.3 389.228C1118.3 404.161 1105.99 416.316 1090.83 416.316H1044.01C1042.81 416.316 1041.76 415.34 1041.76 414.139V305.786C1041.76 304.585 1042.73 303.609 1044.01 303.609H1079.43C1089.71 303.609 1098.11 311.788 1098.11 321.993C1098.11 327.321 1096.84 330.398 1089.11 338.052L1059.24 367.466C1055.72 370.993 1055.27 376.696 1058.57 380.372C1062.17 384.424 1068.47 384.575 1072.3 380.823L1102.39 351.184C1110.42 343.23 1117.1 335.501 1116.95 321.544C1116.72 301.209 1099.69 285 1079.13 285H1033.5C1027.65 285 1023 289.653 1023 295.431V424.571C1023 430.348 1027.73 435 1033.5 435H1090.91C1116.42 435 1137.21 414.514 1137.21 389.301C1137.21 378.421 1133.23 367.841 1126.1 359.587C1122.42 355.385 1115.97 355.086 1112.07 359.063Z" fill="white"/>
<path d="M1855.31 358.861C1850.48 363.795 1850.38 371.731 1854.88 376.986C1860.89 383.958 1864.21 392.861 1864.21 401.977C1864.21 423.321 1846.62 440.695 1824.96 440.695H1758.03C1756.31 440.695 1754.81 439.3 1754.81 437.584V282.71C1754.81 280.994 1756.21 279.599 1758.03 279.599H1808.65C1823.35 279.599 1835.36 291.289 1835.36 305.876C1835.36 313.491 1833.54 317.889 1822.49 328.829L1779.8 370.872C1774.76 375.913 1774.12 384.064 1778.84 389.32C1783.99 395.111 1793 395.326 1798.47 389.964L1841.47 347.599C1852.95 336.23 1862.5 325.183 1862.28 305.234C1861.96 276.168 1837.61 253 1808.23 253H1743.01C1734.65 253 1728 259.651 1728 267.91V452.494C1728 460.752 1734.76 467.401 1743.01 467.401H1825.06C1861.53 467.401 1891.24 438.12 1891.24 402.082C1891.24 386.53 1885.56 371.408 1875.37 359.61C1870.11 353.604 1860.89 353.177 1855.31 358.861Z" fill="white"/>
<path d="M2575.31 358.861C2570.48 363.795 2570.38 371.731 2574.88 376.986C2580.89 383.958 2584.21 392.861 2584.21 401.977C2584.21 423.321 2566.62 440.695 2544.96 440.695H2478.03C2476.31 440.695 2474.81 439.3 2474.81 437.584V282.71C2474.81 280.994 2476.21 279.599 2478.03 279.599H2528.65C2543.35 279.599 2555.36 291.289 2555.36 305.876C2555.36 313.491 2553.54 317.889 2542.49 328.829L2499.8 370.872C2494.76 375.913 2494.12 384.064 2498.84 389.32C2503.99 395.111 2513 395.326 2518.47 389.964L2561.47 347.599C2572.95 336.23 2582.5 325.183 2582.28 305.234C2581.96 276.168 2557.61 253 2528.23 253H2463.01C2454.65 253 2448 259.651 2448 267.91V452.494C2448 460.752 2454.76 467.401 2463.01 467.401H2545.06C2581.53 467.401 2611.24 438.12 2611.24 402.082C2611.24 386.53 2605.56 371.408 2595.37 359.61C2590.11 353.604 2580.89 353.177 2575.31 358.861Z" fill="#0086A5"/>
</g>
<defs>
<clipPath id="clip0_2_2316">
<rect width="2880" height="720" fill="white"/>
</clipPath>
</defs>
</svg>
