<svg xmlns="http://www.w3.org/2000/svg" xmlns:xlink="http://www.w3.org/1999/xlink" viewBox="0 0 2880 720">
  <defs>
    <style>
      .cls-1 {
        fill: #fff;
      }

      .cls-16, .cls-17, .cls-2, .cls-21, .cls-23, .cls-34, .cls-35 {
        fill: none;
      }

      .cls-3 {
        fill: #231f20;
      }

      .cls-4 {
        fill: #f5eeec;
      }

      .cls-5 {
        clip-path: url(#clip-path);
      }

      .cls-6 {
        mask: url(#mask);
      }

      .cls-7 {
        mask: url(#mask-2-2);
      }

      .cls-8 {
        fill: #ffa433;
      }

      .cls-9 {
        fill: #ada8b6;
      }

      .cls-10 {
        fill: #514663;
      }

      .cls-11 {
        fill: #3b1c32;
      }

      .cls-12 {
        fill: #ee4266;
      }

      .cls-13 {
        fill: #00d1da;
      }

      .cls-14 {
        mask: url(#mask-3);
      }

      .cls-15 {
        clip-path: url(#clip-path-2);
      }

      .cls-16, .cls-17 {
        stroke: #3b1c32;
        stroke-width: 15px;
      }

      .cls-16, .cls-21 {
        stroke-miterlimit: 10;
      }

      .cls-17, .cls-23, .cls-34, .cls-35 {
        stroke-linecap: round;
        stroke-linejoin: round;
      }

      .cls-18 {
        clip-path: url(#clip-path-3);
      }

      .cls-19 {
        clip-path: url(#clip-path-4);
      }

      .cls-20 {
        opacity: 0.5;
      }

      .cls-21 {
        stroke: #ada8b6;
      }

      .cls-22 {
        fill: url(#_10_dpi_10_);
      }

      .cls-23 {
        stroke: #00341c;
        stroke-width: 6px;
      }

      .cls-24 {
        fill: #005942;
      }

      .cls-25 {
        fill: #006837;
      }

      .cls-26 {
        fill: url(#_10_dpi_10_3);
      }

      .cls-27 {
        fill: #00341c;
      }

      .cls-28 {
        fill: #39b54a;
      }

      .cls-29 {
        fill: url(#_10_dpi_10_5);
      }

      .cls-30 {
        fill: #009245;
      }

      .cls-31 {
        fill: url(#_10_dpi_10_7);
      }

      .cls-32 {
        fill: url(#_10_dpi_20_);
      }

      .cls-33 {
        fill: #eda331;
      }

      .cls-34 {
        stroke: #0071bc;
      }

      .cls-34, .cls-35 {
        stroke-width: 2px;
      }

      .cls-35 {
        stroke: #eda331;
      }
    </style>
    <clipPath id="clip-path">
      <rect id="path-1" class="cls-2" width="720" height="720"/>
    </clipPath>
    <mask id="mask" x="0" y="-0.5" width="720" height="720" maskUnits="userSpaceOnUse">
      <g id="mask-2">
        <rect id="path-1-2" data-name="path-1" class="cls-1" y="-0.5" width="720" height="720"/>
      </g>
    </mask>
    <mask id="mask-2-2" x="223.58" y="149.6" width="315.59" height="459.74" maskUnits="userSpaceOnUse">
      <g id="mask-4">
        <polygon id="path-3" class="cls-1" points="223.58 149.6 539.17 149.6 539.17 609.34 223.58 609.34 223.58 149.6"/>
      </g>
    </mask>
    <mask id="mask-3" x="600.86" y="403.87" width="42.94" height="42.94" maskUnits="userSpaceOnUse">
      <g id="mask-6">
        <polygon id="path-5" class="cls-1" points="600.86 403.87 643.81 403.87 643.81 446.81 600.86 446.81 600.86 403.87"/>
      </g>
    </mask>
    <clipPath id="clip-path-2">
      <rect id="path-1-3" data-name="path-1" class="cls-2" x="720" width="720" height="720"/>
    </clipPath>
    <clipPath id="clip-path-3">
      <rect id="path-1-4" data-name="path-1" class="cls-2" x="1440" width="720" height="720"/>
    </clipPath>
    <clipPath id="clip-path-4">
      <rect id="path-1-5" data-name="path-1" class="cls-2" x="2160" width="720" height="720"/>
    </clipPath>
    <pattern id="_10_dpi_10_" data-name="10 dpi 10%" width="28.8" height="28.8" patternTransform="translate(13.76 -2.64) scale(0.49)" patternUnits="userSpaceOnUse" viewBox="0 0 28.8 28.8">
      <rect class="cls-2" width="28.8" height="28.8"/>
      <g>
        <circle class="cls-3" cx="28.8" cy="28.8" r="0.72"/>
        <path class="cls-3" d="M14.4,29.52a.72.72,0,1,0-.72-.72A.72.72,0,0,0,14.4,29.52Z"/>
        <path class="cls-3" d="M28.8,15.12a.72.72,0,1,0-.72-.72A.72.72,0,0,0,28.8,15.12Z"/>
        <path class="cls-3" d="M14.4,15.12a.72.72,0,1,0-.72-.72A.72.72,0,0,0,14.4,15.12Z"/>
        <path class="cls-3" d="M7.2,22.32a.72.72,0,1,0-.72-.72A.72.72,0,0,0,7.2,22.32Z"/>
        <path class="cls-3" d="M21.6,22.32a.72.72,0,1,0-.72-.72A.72.72,0,0,0,21.6,22.32Z"/>
        <path class="cls-3" d="M7.2,7.92a.72.72,0,1,0-.72-.72A.72.72,0,0,0,7.2,7.92Z"/>
        <path class="cls-3" d="M21.6,7.92a.72.72,0,1,0-.72-.72A.72.72,0,0,0,21.6,7.92Z"/>
      </g>
      <g>
        <circle class="cls-3" cy="28.8" r="0.72"/>
        <path class="cls-3" d="M0,15.12a.72.72,0,0,0,0-1.44.72.72,0,0,0-.72.72A.72.72,0,0,0,0,15.12Z"/>
      </g>
      <g>
        <path class="cls-3" d="M28.8.72A.72.72,0,0,0,29.52,0a.72.72,0,0,0-.72-.72.72.72,0,0,0-.72.72A.72.72,0,0,0,28.8.72Z"/>
        <path class="cls-3" d="M14.4.72A.72.72,0,0,0,15.12,0a.72.72,0,0,0-.72-.72.72.72,0,0,0-.72.72A.72.72,0,0,0,14.4.72Z"/>
      </g>
      <path class="cls-3" d="M0,.72A.72.72,0,0,0,.72,0,.72.72,0,0,0,0-.72.72.72,0,0,0-.72,0,.72.72,0,0,0,0,.72Z"/>
    </pattern>
    <pattern id="_10_dpi_10_3" data-name="10 dpi 10%" width="28.8" height="28.8" patternTransform="matrix(-0.3, 0, 0, 0.3, 6.52, 23.28)" patternUnits="userSpaceOnUse" viewBox="0 0 28.8 28.8">
      <rect class="cls-2" width="28.8" height="28.8"/>
      <g>
        <circle class="cls-3" cx="28.8" cy="28.8" r="0.72"/>
        <path class="cls-3" d="M14.4,29.52a.72.72,0,1,0-.72-.72A.72.72,0,0,0,14.4,29.52Z"/>
        <path class="cls-3" d="M28.8,15.12a.72.72,0,1,0-.72-.72A.72.72,0,0,0,28.8,15.12Z"/>
        <path class="cls-3" d="M14.4,15.12a.72.72,0,1,0-.72-.72A.72.72,0,0,0,14.4,15.12Z"/>
        <path class="cls-3" d="M7.2,22.32a.72.72,0,1,0-.72-.72A.72.72,0,0,0,7.2,22.32Z"/>
        <path class="cls-3" d="M21.6,22.32a.72.72,0,1,0-.72-.72A.72.72,0,0,0,21.6,22.32Z"/>
        <path class="cls-3" d="M7.2,7.92a.72.72,0,1,0-.72-.72A.72.72,0,0,0,7.2,7.92Z"/>
        <path class="cls-3" d="M21.6,7.92a.72.72,0,1,0-.72-.72A.72.72,0,0,0,21.6,7.92Z"/>
      </g>
      <g>
        <circle class="cls-3" cy="28.8" r="0.72"/>
        <path class="cls-3" d="M0,15.12a.72.72,0,0,0,0-1.44.72.72,0,0,0-.72.72A.72.72,0,0,0,0,15.12Z"/>
      </g>
      <g>
        <path class="cls-3" d="M28.8.72A.72.72,0,0,0,29.52,0a.72.72,0,0,0-.72-.72.72.72,0,0,0-.72.72A.72.72,0,0,0,28.8.72Z"/>
        <path class="cls-3" d="M14.4.72A.72.72,0,0,0,15.12,0a.72.72,0,0,0-.72-.72.72.72,0,0,0-.72.72A.72.72,0,0,0,14.4.72Z"/>
      </g>
      <path class="cls-3" d="M0,.72A.72.72,0,0,0,.72,0,.72.72,0,0,0,0-.72.72.72,0,0,0-.72,0,.72.72,0,0,0,0,.72Z"/>
    </pattern>
    <pattern id="_10_dpi_10_5" data-name="10 dpi 10%" width="28.8" height="28.8" patternTransform="translate(26.79 19.03) scale(0.37)" patternUnits="userSpaceOnUse" viewBox="0 0 28.8 28.8">
      <rect class="cls-2" width="28.8" height="28.8"/>
      <g>
        <circle class="cls-3" cx="28.8" cy="28.8" r="0.72"/>
        <path class="cls-3" d="M14.4,29.52a.72.72,0,1,0-.72-.72A.72.72,0,0,0,14.4,29.52Z"/>
        <path class="cls-3" d="M28.8,15.12a.72.72,0,1,0-.72-.72A.72.72,0,0,0,28.8,15.12Z"/>
        <path class="cls-3" d="M14.4,15.12a.72.72,0,1,0-.72-.72A.72.72,0,0,0,14.4,15.12Z"/>
        <path class="cls-3" d="M7.2,22.32a.72.72,0,1,0-.72-.72A.72.72,0,0,0,7.2,22.32Z"/>
        <path class="cls-3" d="M21.6,22.32a.72.72,0,1,0-.72-.72A.72.72,0,0,0,21.6,22.32Z"/>
        <path class="cls-3" d="M7.2,7.92a.72.72,0,1,0-.72-.72A.72.72,0,0,0,7.2,7.92Z"/>
        <path class="cls-3" d="M21.6,7.92a.72.72,0,1,0-.72-.72A.72.72,0,0,0,21.6,7.92Z"/>
      </g>
      <g>
        <circle class="cls-3" cy="28.8" r="0.72"/>
        <path class="cls-3" d="M0,15.12a.72.72,0,0,0,0-1.44.72.72,0,0,0-.72.72A.72.72,0,0,0,0,15.12Z"/>
      </g>
      <g>
        <path class="cls-3" d="M28.8.72A.72.72,0,0,0,29.52,0a.72.72,0,0,0-.72-.72.72.72,0,0,0-.72.72A.72.72,0,0,0,28.8.72Z"/>
        <path class="cls-3" d="M14.4.72A.72.72,0,0,0,15.12,0a.72.72,0,0,0-.72-.72.72.72,0,0,0-.72.72A.72.72,0,0,0,14.4.72Z"/>
      </g>
      <path class="cls-3" d="M0,.72A.72.72,0,0,0,.72,0,.72.72,0,0,0,0-.72.72.72,0,0,0-.72,0,.72.72,0,0,0,0,.72Z"/>
    </pattern>
    <pattern id="_10_dpi_10_7" data-name="10 dpi 10%" width="28.8" height="28.8" patternTransform="translate(29.48 33.34) scale(0.37)" patternUnits="userSpaceOnUse" viewBox="0 0 28.8 28.8">
      <rect class="cls-2" width="28.8" height="28.8"/>
      <g>
        <circle class="cls-3" cx="28.8" cy="28.8" r="0.72"/>
        <path class="cls-3" d="M14.4,29.52a.72.72,0,1,0-.72-.72A.72.72,0,0,0,14.4,29.52Z"/>
        <path class="cls-3" d="M28.8,15.12a.72.72,0,1,0-.72-.72A.72.72,0,0,0,28.8,15.12Z"/>
        <path class="cls-3" d="M14.4,15.12a.72.72,0,1,0-.72-.72A.72.72,0,0,0,14.4,15.12Z"/>
        <path class="cls-3" d="M7.2,22.32a.72.72,0,1,0-.72-.72A.72.72,0,0,0,7.2,22.32Z"/>
        <path class="cls-3" d="M21.6,22.32a.72.72,0,1,0-.72-.72A.72.72,0,0,0,21.6,22.32Z"/>
        <path class="cls-3" d="M7.2,7.92a.72.72,0,1,0-.72-.72A.72.72,0,0,0,7.2,7.92Z"/>
        <path class="cls-3" d="M21.6,7.92a.72.72,0,1,0-.72-.72A.72.72,0,0,0,21.6,7.92Z"/>
      </g>
      <g>
        <circle class="cls-3" cy="28.8" r="0.72"/>
        <path class="cls-3" d="M0,15.12a.72.72,0,0,0,0-1.44.72.72,0,0,0-.72.72A.72.72,0,0,0,0,15.12Z"/>
      </g>
      <g>
        <path class="cls-3" d="M28.8.72A.72.72,0,0,0,29.52,0a.72.72,0,0,0-.72-.72.72.72,0,0,0-.72.72A.72.72,0,0,0,28.8.72Z"/>
        <path class="cls-3" d="M14.4.72A.72.72,0,0,0,15.12,0a.72.72,0,0,0-.72-.72.72.72,0,0,0-.72.72A.72.72,0,0,0,14.4.72Z"/>
      </g>
      <path class="cls-3" d="M0,.72A.72.72,0,0,0,.72,0,.72.72,0,0,0,0-.72.72.72,0,0,0-.72,0,.72.72,0,0,0,0,.72Z"/>
    </pattern>
    <pattern id="_10_dpi_20_" data-name="10 dpi 20%" width="28.8" height="28.8" patternTransform="matrix(-1.09, -0.12, 0.12, -1.09, -159.96, 441.94)" patternUnits="userSpaceOnUse" viewBox="0 0 28.8 28.8">
      <rect class="cls-2" width="28.8" height="28.8"/>
      <g>
        <path class="cls-3" d="M28.8,30.24a1.44,1.44,0,1,0-1.44-1.44A1.44,1.44,0,0,0,28.8,30.24Z"/>
        <path class="cls-3" d="M14.4,30.24A1.44,1.44,0,1,0,13,28.8,1.44,1.44,0,0,0,14.4,30.24Z"/>
        <path class="cls-3" d="M28.8,15.84a1.44,1.44,0,1,0-1.44-1.44A1.44,1.44,0,0,0,28.8,15.84Z"/>
        <path class="cls-3" d="M14.4,15.84A1.44,1.44,0,1,0,13,14.4,1.44,1.44,0,0,0,14.4,15.84Z"/>
        <path class="cls-3" d="M7.2,23A1.44,1.44,0,1,0,5.76,21.6,1.44,1.44,0,0,0,7.2,23Z"/>
        <path class="cls-3" d="M21.6,23a1.44,1.44,0,1,0-1.44-1.44A1.44,1.44,0,0,0,21.6,23Z"/>
        <path class="cls-3" d="M7.2,8.64A1.44,1.44,0,1,0,5.76,7.2,1.44,1.44,0,0,0,7.2,8.64Z"/>
        <path class="cls-3" d="M21.6,8.64A1.44,1.44,0,1,0,20.16,7.2,1.44,1.44,0,0,0,21.6,8.64Z"/>
      </g>
      <g>
        <path class="cls-3" d="M0,30.24A1.44,1.44,0,0,0,1.44,28.8,1.45,1.45,0,0,0,0,27.36,1.44,1.44,0,0,0-1.44,28.8,1.43,1.43,0,0,0,0,30.24Z"/>
        <path class="cls-3" d="M0,15.84A1.44,1.44,0,0,0,1.44,14.4,1.45,1.45,0,0,0,0,13,1.44,1.44,0,0,0-1.44,14.4,1.43,1.43,0,0,0,0,15.84Z"/>
      </g>
      <g>
        <path class="cls-3" d="M28.8,1.44A1.45,1.45,0,0,0,30.24,0,1.44,1.44,0,0,0,28.8-1.44,1.43,1.43,0,0,0,27.36,0,1.44,1.44,0,0,0,28.8,1.44Z"/>
        <path class="cls-3" d="M14.4,1.44A1.45,1.45,0,0,0,15.84,0,1.44,1.44,0,0,0,14.4-1.44,1.43,1.43,0,0,0,13,0,1.44,1.44,0,0,0,14.4,1.44Z"/>
      </g>
      <path class="cls-3" d="M0,1.44A1.45,1.45,0,0,0,1.44,0,1.44,1.44,0,0,0,0-1.44,1.43,1.43,0,0,0-1.44,0,1.44,1.44,0,0,0,0,1.44Z"/>
    </pattern>
  </defs>
  <title>thumbnail</title>
  <g id="background">
    <g id="Rectangle">
      <rect id="path-1-6" data-name="path-1" class="cls-4" x="-10" y="-10" width="2900" height="740"/>
    </g>
  </g>
  <g id="frame-1">
    <g class="cls-5">
      <g id="Page-1">
        <g id="Desktop-HD">
          <g id="Lanneberg-Bexelius">
            <g id="Group-2">
              <g class="cls-6">
                <g id="Page-1-2" data-name="Page-1">
                  <g>
                    <g id="Group-3">
                      <g class="cls-7">
                        <path id="Fill-1" class="cls-8" d="M328.63,362.3a33,33,0,1,1,33-33,33,33,0,0,1-33,33M453.79,152.16c-92-13.63-198.16,26.14-198.67,142.53-.11,25-1.49,37.61-1.49,37.61s-21.72,57.64-29.91,97c-2.65,12.73,33.74-1,32.91,12-2,31,8.7,73.75,16,88,24,47,25,87.06,92,79,92.28-11.1,174.54-36.14,166.15-114.14-6.59-61.13-5.4-162.42,5-212.6,15-72.4-21-120.36-82-129.4"/>
                      </g>
                    </g>
                    <path id="Fill-4" class="cls-9" d="M115.67,512.36a4,4,0,0,1-3.17-1.56l-9.67-12.56a4,4,0,1,1,6.33-4.88l9.67,12.56a4,4,0,0,1-3.16,6.44"/>
                    <path id="Fill-6" class="cls-9" d="M89.19,570.76a4,4,0,0,1-2.79-6.87l17.15-16.69a4,4,0,0,1,5.58,5.74L92,569.62a4,4,0,0,1-2.79,1.14"/>
                    <path id="Fill-8" class="cls-9" d="M107.49,533.12a3.51,3.51,0,0,1-.72-.07l-26.48-4.81a4,4,0,1,1,1.43-7.87l26.48,4.81a4,4,0,0,1-.71,7.94"/>
                    <polygon id="Fill-10" class="cls-10" points="474.61 254.29 492.32 271.99 510.02 254.29 492.32 236.59 474.61 254.29"/>
                    <path id="Fill-12" class="cls-11" d="M227.74,560.35a4,4,0,0,1-4-3.62l-2.61-27.37a4,4,0,0,1,1.42-3.44l14.86-12.46-18.93-4.21a4,4,0,0,1-2.84-2.41l-10.28-25.5a4,4,0,0,1,7.42-3l9.5,23.54,24.78,5.53a4,4,0,0,1,1.7,7L229.32,530.7l2.4,25.27a4,4,0,0,1-3.6,4.36,2.48,2.48,0,0,1-.38,0"/>
                    <polygon id="Fill-14" class="cls-12" points="193.82 264.29 183.54 302.66 145.16 312.95 117.06 284.85 127.34 246.47 165.72 236.19 193.82 264.29"/>
                    <path id="Fill-16" class="cls-11" d="M155.44,344.66a4,4,0,0,1-1.86-7.55l24.33-12.79a4,4,0,0,1,3.73,0l17.16,9-3.28-19.11a4,4,0,0,1,1.15-3.54l19.69-19.19a4,4,0,0,1,5.58,5.73L203.76,315l4.29,25a4,4,0,0,1-5.8,4.22l-22.47-11.82L157.3,344.2a4,4,0,0,1-1.86.46"/>
                    <path id="Fill-18" class="cls-11" d="M381.54,536.74c-30.53,0-63-6.83-95.68-20.28a4,4,0,0,1,3-7.4C333.19,527.29,377,533,415.61,525.59c35.09-6.75,65.23-23.93,87.16-49.7,20.84-24.49,32.8-54.93,34.6-88,1.91-34.95-7.85-70.93-28.22-104a4,4,0,0,1,6.82-4.19c21.22,34.52,31.38,72.09,29.39,108.67-1.9,34.86-14.52,66.94-36.5,92.77-23.12,27.17-54.84,45.28-91.75,52.37a187.8,187.8,0,0,1-35.57,3.3"/>
                    <path id="Fill-20" class="cls-11" d="M466.69,230.58a4,4,0,0,1-2.53-.91A289.07,289.07,0,0,0,292.39,164a4,4,0,0,1,.35-8,297.05,297.05,0,0,1,176.49,67.52,4,4,0,0,1-2.54,7.1"/>
                    <path id="Fill-22" class="cls-11" d="M466.69,230.58a4,4,0,0,1-4-3.61L460.23,202a4,4,0,1,1,8-.79l2.48,24.93a4,4,0,0,1-3.58,4.38l-.4,0"/>
                    <path id="Fill-24" class="cls-11" d="M441.32,233.58a4,4,0,0,1-.39-8l24.93-2.48a4,4,0,0,1,.8,8l-24.94,2.48a2.68,2.68,0,0,1-.4,0"/>
                    <polygon id="Fill-26" class="cls-13" points="158.45 161.82 200.04 116.15 216.74 173.13 158.45 161.82"/>
                    <polygon id="Fill-28" class="cls-13" points="187.15 482.35 208.42 563.39 131.25 540.33 187.15 482.35"/>
                    <polygon id="Fill-30" class="cls-8" points="183.27 220.11 176.48 189.47 205.04 199.21 183.27 220.11"/>
                    <g id="Group-34">
                      <g class="cls-14">
                        <path id="Fill-32" class="cls-10" d="M600.86,425.34a21.48,21.48,0,1,0,21.47-21.47,21.47,21.47,0,0,0-21.47,21.47"/>
                      </g>
                    </g>
                    <path id="Fill-35" class="cls-12" d="M271.44,134.73a25.23,25.23,0,1,1-25.23-25.23,25.23,25.23,0,0,1,25.23,25.23"/>
                    <polygon id="Fill-37" class="cls-13" points="557.5 368.45 575.2 386.15 592.91 368.45 575.2 350.74 557.5 368.45"/>
                    <path id="Fill-39" class="cls-12" d="M470.45,546.88a4,4,0,0,1-1.77-7.59c31.19-15.34,57.05-35.64,74.77-58.72,18.42-24,27.75-49.9,27.75-77.05a4,4,0,0,1,8,0c0,28.55-10.17,56.87-29.4,81.92-18.47,24.05-45.3,45.15-77.59,61a4,4,0,0,1-1.76.41"/>
                    <path id="Fill-41" class="cls-13" d="M568.73,239.26a4,4,0,0,1-4-3.44c-5.35-38.15-22.24-67-50.22-85.9-22.95-15.46-52.59-23.14-83.48-21.63a4,4,0,0,1-.39-8c57.72-2.83,129.55,25.44,142,114.41a4,4,0,0,1-3.41,4.51,3.52,3.52,0,0,1-.56,0"/>
                  </g>
                </g>
              </g>
            </g>
          </g>
        </g>
      </g>
    </g>
  </g>
  <g id="frame-2">
    <g class="cls-15">
      <g>
        <g id="PG6Qqp">
          <path class="cls-12" d="M1060.83,507.69c-8.42-4.61-17.73-3.43-27.21-1.24-30,7-43.55-14.05-37.61-39.17,3.38-14.34,12.78-26.58,19.38-39.37,10.24-19.85,19.84-25.79,21.88-40.41,2.48-17.63,4.37-28.3,7.18-45.87,2.66-16.63,1.61-35,16.06-47.52,4.93-4.25,11.39-6.73,17.15-10h3.77c1,.69,2,1.77,3.07,2,18.14,3.7,26.22,16.5,30.14,33.11,3.44,14.58-3.4,33.07,0,47.65,3,12.45,12,22.86,19.22,33.39,8.2,11.93,12.6,18.29,23,35.3,3,4.86,7.57,14,10.7,19,9.59,15.15,1.47,45.64-15.08,49.62-6.11,1.47-12.91.79-19.31.19-9.18-.86-17.83-1.73-25.59,5.27-5.69,5.14-17.64,8.22-25.34,8.67C1074.31,518.75,1060.83,507.69,1060.83,507.69Z"/>
        </g>
        <g>
          <circle class="cls-16" cx="1203.06" cy="344.38" r="91.17"/>
          <path class="cls-16" d="M1044.51,316.49a36.32,36.32,0,0,1,72.64,0"/>
          <circle class="cls-16" cx="956.94" cy="344.38" r="91.17"/>
        </g>
        <path class="cls-17" d="M1153.21,211.83a90.85,90.85,0,0,1,69.53-5.75"/>
      </g>
    </g>
  </g>
  <g id="frame-3">
    <g class="cls-18">
      <path class="cls-11" d="M1873.94,300.79c23.24-10.41,38.65-33.41,38.65-61.43,0-38.43-29-67.41-67.42-67.41h-184.5a7.09,7.09,0,0,0-7.1,7.09V541a7.09,7.09,0,0,0,7.1,7.09H1828.4c70.59,0,128-57.3,128-127.73A127.94,127.94,0,0,0,1873.94,300.79Zm24.46-61.43c0,30.34-22.88,53.22-53.23,53.22H1788.4V246.46h56.77a7.1,7.1,0,1,0,0-14.19H1788.4V186.14h56.77C1875.52,186.14,1898.4,209,1898.4,239.36Zm-170.32-53.22h46.13v287.4h-46.13Zm60.32,241.28h39a7.1,7.1,0,0,0,0-14.2h-39V367.1h39c30.34,0,53.23,22.88,53.23,53.22s-22.89,53.22-53.23,53.22h-39ZM1667.76,186.14h46.13v294.5a7.09,7.09,0,0,0,7.1,7.09h53.22v46.13H1667.76ZM1828.4,533.86h-40V487.73h39c38.43,0,67.42-29,67.42-67.41s-29-67.42-67.42-67.42h-39V306.78H1829c62.44,0,113.25,50.93,113.25,113.54S1891.17,533.86,1828.4,533.86Z"/>
    </g>
  </g>
  <g id="frame-4">
    <g class="cls-19">
      <g class="cls-20">
        <path class="cls-21" d="M2352.52,604.32c-.8-3.87-5.29-5-11.08-6-32.34-5.79-47.43-18.57-59-30.09l-.47-.48c-10.38-10.33-29.7-29.55-69.21-29.74h-.57c-39.49.19-58.81,19.41-69.2,29.74l-.47.47c-11.6,11.53-26.7,24.31-59,30.1-5.79,1-10.28,2.13-11.08,6s3.56,6.86,5.66,8.24c4.72,3.11,4.8,5.89,4.86,8.34,0,.51,0,1,.06,1.37s.08,1.28.16,2.79c1.74,34.29,4.31,54.42,7.92,61.68,5.68,11.43,11,22.22,40.39,28.29.2,0,11.84,2.59,30.06,4.76l2,8.1a3.52,3.52,0,0,0,3,2.65l6.34.66-1.14,3.69h0l-45.67,148.81s0,0,0,.06l-.56,1.8a3.68,3.68,0,0,0-.15,1v4.22a3.52,3.52,0,0,0,.09,7h6.88a3.52,3.52,0,0,0,.09-7v-2.6a12.76,12.76,0,0,0,9.14-5.12c4.36-6.39,62.59-84.37,68.1-91.75h5.55c5.51,7.38,63.74,85.36,68.1,91.75a12.76,12.76,0,0,0,9.14,5.12v2.6a3.52,3.52,0,0,0,.09,7h6.88a3.52,3.52,0,0,0,.09-7v-4.22a3.68,3.68,0,0,0-.15-1L2253.12,734.9h0l-1.13-3.7,6.25-.65a3.53,3.53,0,0,0,3.06-2.65l2-8.09c18.25-2.17,29.91-4.72,30.08-4.76,29.4-6.08,34.76-16.87,40.51-28.43,3.53-7.13,6.11-27.27,7.85-61.56.08-1.51.13-2.48.15-2.77s.06-.87.07-1.38c.07-2.45.14-5.23,4.86-8.34C2349,611.18,2353.33,608.31,2352.52,604.32ZM2169,720.61c5.62.57,11.68,1.09,18.14,1.48l-1.52,3.34-15.83-1.65Zm8.3,66.46-30.52,53.43,26.78-87.26Zm6.8-2.77-4.78-43.19,21.87,43.19Zm-48.32,94.83a4,4,0,0,1-1.2,1.13l2.76-9,45.64-79.87h17.93C2187.16,809.7,2139.78,873.19,2135.73,879.13Zm115.64-125.89,26.78,87.26-30.52-53.43Zm-10.54,31.06h-17.09l21.87-43.19Zm48.32,94.83c-4.05-5.94-51.43-69.42-65.13-87.77h17.92l45.64,79.87,2.77,9A4,4,0,0,1,2289.15,879.13Zm-73.32-94.83h-6.78l-26.37-52.07,4.69.49.37,0a3.52,3.52,0,0,0,3.21-2.07l3.71-8.19c5.45.23,11.11.37,16.93.37h1.7c5.8,0,11.42-.14,16.85-.36l3.71,8.18a3.52,3.52,0,0,0,3.21,2.07l.37,0,4.77-.5Zm39.23-60.52-15.83,1.65-1.52-3.34c6.46-.38,12.52-.9,18.14-1.47Z"/>
        <path class="cls-21" d="M2285.1,672.33a7.41,7.41,0,0,0-3-.88c-7.23-.48-37.5-2.37-69.38-2.39h-.47c-31.87,0-62.14,1.91-69.37,2.39a7.41,7.41,0,0,0-3,.88l-14.64,7.95a7.43,7.43,0,0,0,1.67,13.72c13.85,3.56,39.28,7.29,85.08,7.34h1.1c45.8-.05,71.23-3.78,85.08-7.34a7.43,7.43,0,0,0,1.67-13.72Z"/>
      </g>
      <path class="cls-1" d="M1888.37,676.4c5.65,4.75-.35,16.12-11.31,29.53a17.32,17.32,0,0,1-3.28,3.29c-10.25,7.82-19.44-3.15-28.24-8.12-3.46-2.07-9.51-4.89-10.92,1-1.56,6.87-1.66,14.16-1.82,21.42-.06,2.42-.11,4.83-.24,7.23-.94,7.7-6.39,15.49-12.45,18.38-5.66,3.19-13.06-7.66-18.77-2-9.09,10-5.47,24.9-7.34,37.24a12.66,12.66,0,0,1-5.45,5c-11,2.43-24.71-6.52-36.77-8-1.1-.22-2-1.54-2.45-2.55-1.62-4.43,1-9.38-.77-12-10.33-14.4-6.57-33,8.18-40.55a32.61,32.61,0,0,1,5.29-2.22c12.66-5.34,11.93-19.86,17.52-29.45s20.57-3.61,30.8-8.63a10.75,10.75,0,0,0,1.72-4.26c.59-10.66-1.29-21.64-1.13-33,.35-2.89,3.86-3.32,5.83-1.79,12.31,10.24,24.56,23,41.51,22.84,2.77-.25,5.37-.67,7.94-.82A30.61,30.61,0,0,1,1888.37,676.4Z"/>
      <g class="cls-20">
        <rect class="cls-21" x="2503.28" y="513.5" width="643.52" height="352.47"/>
        <rect class="cls-21" x="2521.08" y="584.69" width="178" height="281.27"/>
        <rect class="cls-21" x="2738.57" y="584.69" width="178" height="281.27"/>
        <rect class="cls-21" x="2521.08" y="526.84" width="178" height="44.5"/>
        <circle class="cls-21" cx="2610.07" cy="549.09" r="6.33"/>
        <rect class="cls-21" x="2738.57" y="526.84" width="178" height="44.5"/>
        <circle class="cls-21" cx="2827.57" cy="549.09" r="6.33"/>
        <line class="cls-21" x1="2521.08" y1="620.3" x2="2699.07" y2="620.3"/>
        <line class="cls-21" x1="2738.57" y1="620.3" x2="2916.56" y2="620.3"/>
      </g>
      <g class="cls-20">
        <path class="cls-21" d="M2472.68,395.19H2230.27V65.9h242.41Z"/>
        <path class="cls-21" d="M2518.59,441.09H2184.37V20h334.22Zm-318.92-15.3h303.62V35.3H2199.67Z"/>
        <path class="cls-22" d="M2199.67,35.3V425.79h303.62V35.3Zm273,359.89H2230.27V65.9h242.41Z"/>
      </g>
      <g class="cls-20">
        <path class="cls-21" d="M2158.18,138.86V287.07H1971.45V138.86Zm-16.79,131.43V155.65H1988.23V270.29Z"/>
      </g>
      <g>
        <g>
          <path class="cls-23" d="M2656.68,401.15a171.26,171.26,0,0,1,66.6,53.1c39.72,53.13,37.93,126.9,37.93,126.9"/>
          <path class="cls-24" d="M2733.12,431.54c2.34-7.15.44-19.67-1.22-29.35-2.48-14.41-16.73-18.71-24.46-16.7-10.39,2.69-11.84,4.06-15.15,7.48s-2.43,3.87-5.3,3.89,2.14-6.56,2.14-6.56c4.93-7.74,5.92-14,2.44-16.79s-8.93-2.78-17.86-3.49a98.68,98.68,0,0,0-21.77,1c-1.91.43-8.35-3.27-19.13,11.65-1.11,1.54-3.29,5.64-5,8.13-1.47,2.11.27,4.42,2.81,3.74,6-1.63,13-3.28,21.5-1.82a49.26,49.26,0,0,1,13.38,4.26c.86.42.29,1.73-.75,1.72-5.57-.07-15.78,0-21.75,1.18-8.5,1.67-21.25,4.33-25.3,9.48s-5.44,11.46-5.61,19.06c-.13,5.93.07,17.76,1,23.46a27.14,27.14,0,0,0,5.22,10.92c3.89,4.72,4.11,3.21,6.9,7.2s1.2,8.88,1.2,8.88,10.09-2.51,17.62-1.78a27.71,27.71,0,0,1,9,2.53,5.86,5.86,0,0,0,7-2.24c2.53-3.76,5.66-9,5.78-12.26.2-5.12-.92-9.54-2.39-16.25-.63-2.9,3.85-5,5.52-2.63,2.59,3.73,4.41,10,3.38,17.64-1.3,9.64-3.16,13.13-5.89,16.27a.76.76,0,0,0,.79,1.28,106.9,106.9,0,0,0,10.36-3.14c3.21-.78,6.86-3.4,9.14-5.57s4.16-9.26,3.13-16.68c-.72-5.23-3.46-16.36-3.36-26.52,0-2,3.07-3.05,4-1.35,2.72,4.91,6,8.91,9,19.75,2.69,9.74,2.4,14.76,1.78,17.17-.21.84.63,1.42,1.51,1,3.63-1.57,11-5,15.48-11.4C2722.33,449.07,2731.08,437.79,2733.12,431.54Z"/>
        </g>
        <g>
          <path class="cls-23" d="M2732.08,436.59a269.36,269.36,0,0,1,23.31,65c7,32.06,5.35,79.52,5.35,79.52"/>
          <path class="cls-25" d="M2735.44,434c-1.49-2.5,12.65-16.63,2.17-20.6s-36.5,1.81-44.45,17c-7.74,14.79-5.89,42.93-7.12,56.41a.36.36,0,0,0,.62.28c18.4-19.11,50-12.91,63.73-27.82s10.71-23.81,2.4-24.89S2737.61,437.58,2735.44,434Z"/>
          <path class="cls-26" d="M2731.43,438c-1.5-2.49,12.65-16.62,2.17-20.6s-36.5,1.81-44.46,17c-7.74,14.78-5.88,42.93-7.12,56.41a.36.36,0,0,0,.62.28c18.4-19.11,50-12.92,63.73-27.83s10.72-23.8,2.41-24.88S2733.6,441.6,2731.43,438Z"/>
        </g>
        <g>
          <path class="cls-27" d="M2327.55,277.29c0,6-16.91,22.92-22.88,22.92s-14-17.51-14-23.48,9.44,6.3,15.41,6.3S2327.55,271.33,2327.55,277.29Z"/>
          <path class="cls-23" d="M2778.92,586.45c9.2-123.29-52.73-240.74-158.4-300.49-153.52-86.81-308.29-.31-315,3.6"/>
          <path class="cls-12" d="M2303.5,279.48c.49-16.85-3.54-27.22-11.11-27.64s-23.64,11.5-38,15-16.33.69-18.77,3.39-12,17.78-22.62,51.58c-7.07,22.6-5.94,40.24-4.42,49.44a.65.65,0,0,0,1.3-.07c.28-4.69,1.58-10.88,5.84-15.95,8-9.56,18.18-23.47,35.32-32.16a86.11,86.11,0,0,1,23.42-8.1c1.65-.3,2,2.26.41,3.37-8.27,5.92-23.24,17-31,25.21-11.06,11.67-27.52,29.39-29,41.42s2.72,22.32,8.45,34.43c4.73,10,10.12,16.32,13.47,18.51a.73.73,0,0,0,1.09-.87c-3.31-9,1.4-19.41,4.91-27,3.22-6.95,10.19-23.4,24.76-31.86,2.69-1.55,4.7,1.51,3,4.54-17,30.36-18.95,49.34-20.14,55.95a138,138,0,0,0-1.65,15.83s4,6.47,13.88,9.31,8.86.35,16.46,3.27a138.84,138.84,0,0,1,15.12,7.28,2.36,2.36,0,0,0,3.16-.89,45.8,45.8,0,0,1,15.68-16.12c11.74-7,20.16-10.91,20.16-10.91s-2.11-14.43-6.94-22.39c-3.72-6.13-7.83-19.3-10.44-30.77-1.07-4.72,3.59-10.13,7.4-8.54,7,2.9,14.85,10.18,19.92,22.4,7.61,18.32,6.93,32.38,3.72,36.21s-6.86,5.83-9.72,5.63c6.89,3.17,14-1.54,18-6.15s8.2-10.46,9.31-16.22c1.56-8.11-.36-18.77-3.73-30.62-2.74-9.6-18.15-40.09-26.9-55.36-2-3.51,1.39-9.25,5.2-8.78,8,1,19.09,5.71,32.33,18,20.17,18.68,20.27,24.53,20.27,24.53s8.87-10.25,11.24-30.48,2.6-20.71-7.08-26-28.66-14.66-40-17.44a72,72,0,0,1-10-3.24c-3.56-1.45-2.2-8.19,1.93-9.53,6.32-2.05,15.59-3.12,27.78.43,25.15,7.33,33.47,14.22,33.47,14.22s-.35-38-16.62-56.73-44.8-15.57-56.79-9.86-21.55,25.82-23.43,34.49-1.85,18.28-6.06,21.42S2303.5,279.48,2303.5,279.48Z"/>
        </g>
        <g>
          <path class="cls-23" d="M2736.12,415.18c16.61,36.66,36.3,94.54,34.09,166"/>
          <path class="cls-28" d="M2676.75,469.58s4.38-3.71,7.51-2.29,38.26,13.22,65.75-2.45,23-46.1,16.89-50.62c-5.49-4.09-17.34-8.49-27.88-2.11a.87.87,0,0,1-1.23-1.12c6.24-13.23-4.52-23.34-8.12-25.82-3.91-2.69-7.37-7.1-27.25-4.32-4.91.69-13.84,5.39-16.39,6.94s-22.56,18.61-24.59,38.54c18.51-10.92,36-10.36,42.54-7.89s-.47,6.4-3.4,5.47-20.1-6.2-32,3.5S2681.66,460.14,2676.75,469.58Z"/>
          <path class="cls-29" d="M2681.75,474.58s4.38-3.71,7.51-2.29,38.26,13.22,65.75-2.45,23-46.1,16.89-50.62c-5.49-4.09-17.34-8.49-27.88-2.11a.87.87,0,0,1-1.23-1.12c6.24-13.23-4.52-23.34-8.12-25.82-3.91-2.69-7.37-7.1-27.25-4.32-4.91.69-13.84,5.39-16.39,6.94s-22.56,18.61-24.59,38.54c18.51-10.92,36-10.36,42.54-7.89s-.47,6.4-3.4,5.47-20.1-6.2-32,3.5S2686.66,465.14,2681.75,474.58Z"/>
        </g>
        <g>
          <path class="cls-23" d="M2731.67,322a492.92,492.92,0,0,1,56.54,259.2"/>
          <path class="cls-25" d="M2738.41,315.35s1.5-19.75-11.25-28.25-15.26-9.25-27.26-8-17.5,4-20,12.25c8.76-5,15.26-3.5,21.76,1s10.75,8.25,10.5,10.5-12.75-1.75-19.5-4.5-12.76-5.25-15.26-3.75-8.25,6.25-11,11.5a67.19,67.19,0,0,0-4.5,11.75s3.5-3.25,5.75-3.25c-3,6-7,13-7.25,18.51-1,15,5,20,5,20s8.5-20.75,25.26-22.75a83.13,83.13,0,0,1,18.85-.36,1.74,1.74,0,0,1,.47,3.34c-8,3.3-22.3,9.31-25.32,11.27-4.26,2.75-11.76,10.25-12.26,12.75-1,8.25,9.76,12.26,12.76,11.26-3.75-5.76-4.51-8.51-1-12s11.25-10,20-12.25a33,33,0,0,1,5.84-1,1.81,1.81,0,0,1,1.22,3.27,169,169,0,0,0-14.06,11.26,22.64,22.64,0,0,0-4.74,6.43,4,4,0,0,0,2.46,5.6,44.81,44.81,0,0,1,9.28,3.73c2.44,1.52,4.13,5.72,5.09,8.76a.89.89,0,0,0,1.71,0c1.27-4.19,4.37-11.07,11.45-13.76,6.93-2.64,14.83-2.45,19.41-2a4,4,0,0,0,4.43-3.65c.4-4.3.36-10.8-2.83-13.84-5-4.75-7.25-11.5-4.5-13.5s7,0,10.25,6.25c2.92,5.62,8.28,13.54,7,20.32a1.06,1.06,0,0,0,1.52,1.13c10.73-5.45,15.52-10.22,16.86-11.72a1,1,0,0,0,.21-1.06c-1-2.77-5.88-14.7-15.8-18.32-11.25-4.1-10-6.35-9.25-7.6s11.75-2,16.5,2.75,9.07,11.44,8.76,17c6.62-6.06,11.56-11.38,11.56-11.38,2.76-4.46,4.78-7.27,4-14.07-10.52-7-11.27-3.81-19.33-13.37C2757.29,302.35,2745,306.6,2738.41,315.35Z"/>
        </g>
        <g>
          <ellipse class="cls-27" cx="2881.34" cy="292.41" rx="5.5" ry="5.21"/>
          <path class="cls-23" d="M2885,287a596.8,596.8,0,0,0-63.9,146.6c-16.39,57.68-22.63,108.77-23.64,147.6"/>
          <path class="cls-30" d="M2905.25,333.85m-3.54-49.14c-1.76-2.31,1.37-5.69,3.9-7.14a13.14,13.14,0,0,1,9.53-.95,32.08,32.08,0,0,1,17.5,10.74,27.63,27.63,0,0,1,1.74,2.59c.42-2.51-.81-4.78-2.23-7-4-6.2-9.21-11.49-14.64-16.51a62.45,62.45,0,0,0-8.52-6.6c-5.54-3.56-11.25-5.85-17-5.69a7,7,0,0,0-6.34,3.66c-1.47,2.59-1.81,5.74-2,9-.21,3.42-.38,6.87-.73,10.23v0a1.72,1.72,0,0,1-3.12.81l-.14-.18c-3.57-5.08-8.05-7.85-13.24-7.85-7.45,0-13.37,2.65-16.34,8.71-5.3,10.85-3,23.32,5.42,36.42,2.38,3.74,5.23,7.22,6.54,11.32a13.43,13.43,0,0,0,1.4,2.4c1-4.32,1.89-8.44,2.79-12.57a15.12,15.12,0,0,0-.21-7.2,16.59,16.59,0,0,1-.45-4.81c.11-3.69,1.7-6,5.59-6.14.47,0,.91-.13,1.37-.18,2.74-.29,4.91.82,6.8,3.61a.61.61,0,0,1,.07.1,1.47,1.47,0,0,1-1.18,2.23h0c-1.29.07-2.82-.22-3.84.26a9.3,9.3,0,0,0-5.27,8.15,79.79,79.79,0,0,0,0,11.15c1.1,9.44,11.13,32.41,19.93,31.08a1.24,1.24,0,0,0,1-1.6l-4.21-13.41c-1.1-5.7-2.11-11.36-4.2-17.13-1.89-5.21-.15-8.58,3.52-10.7,1.86-1.07,3.87.16,4.29,2.72a11.47,11.47,0,0,1-.11,3.47c-.36,2.61-.89,5.15-1.23,7.77-.84,6.47-.09,13.35,1.3,20.34a21.15,21.15,0,0,0,5.09,10.1h0a22.85,22.85,0,0,0,6.84,5.13,24,24,0,0,0,5.63,2.46c.74.19,2.24.54,3,.68a15.76,15.76,0,0,0,3.19.23.53.53,0,0,0,.21,0l.24,0a18.45,18.45,0,0,0,2-.19c2.42-.08,4.82.92,7.46,2.14a2.12,2.12,0,0,0-.55-.83c-4.08-3.53-8.92-6.33-12.2-10.62-2.83-3.69-6.86-12.18-8.59-16.49-1.11-2.74-1.72-5.68-2.55-8.51a32.76,32.76,0,0,1-.94-3.69c-.16-1,.3-1.62,1.37-1.55a5.51,5.51,0,0,1,4.94,4.44c.58,3.16,1.94,9.6,2.89,12.67a47.06,47.06,0,0,0,5.12,10.32,22.51,22.51,0,0,0,5.24,5c3.74,3.13,7.59,6.07,12,7.35,5.5,1.58,11,3.24,16.66,4.92-1.28-5.4-.85-10,1.17-14a21,21,0,0,0,1.06-2.78c1-2.88,1.42-6.75-.47-10.14-1.59-2.86-3.24-4.49-5.31-7.07-3.87-4.83-7.72-8.9-12.86-10.51-2.45-.77-4.91-1.23-7.36-2.05a68.62,68.62,0,0,1-7.53-3.05c-1.54-.74-2-2.49-1-3.37a8,8,0,0,1,2.07-1.24c3.42-1.52,7.21-.17,11,2.27,4.83,3.11,9.66,6.25,14.39,9.56a75,75,0,0,1,14.15,12.94,24.37,24.37,0,0,1,1.87,2.18.53.53,0,0,0,1-.3,18,18,0,0,0-.34-3c-.9-6.76-4.33-13.35-7.63-19.83a24.12,24.12,0,0,0-12.77-11.61,33.4,33.4,0,0,0-14.09-2.8c-4.84.18-9.71.25-14.57.36-.77,0-1.6-.12-2.4-.18l-.24-.52c.49-.73,1-1.46,1.47-2.17,1.45-2,3.35-3,6.39-3.19,4.5-.24,12.63.19,16.63,1.39a40.59,40.59,0,0,1,10.88,5.93c1.48,1.21,2.93,2.68,4.53,4a.42.42,0,0,0,.69-.37,10.33,10.33,0,0,0-1.75-4.58,76.41,76.41,0,0,0-10.74-12.3,22.55,22.55,0,0,0-8.91-5.53,48.28,48.28,0,0,0-13.2-2.38C2909.9,285,2903.36,286.89,2901.71,284.71Zm-16.95,9.8c-1.7.22-4.7-1.45-5.82-3.23-.76-1.21-.38-2.18.93-2.12a8.28,8.28,0,0,1,4.93,2.14C2886.45,293,2886.31,294.31,2884.76,294.51Zm7.75-10.51c.52,2.23-.06,4-1.57,5.07-.94.68-2.06.12-2.57-1.29a5.75,5.75,0,0,1,.85-5.68c.46,0,1.21-.32,1.8,0A3.63,3.63,0,0,1,2892.51,284Z"/>
          <path class="cls-31" d="M2910.25,338.85m-3.54-49.14c-1.76-2.31,1.37-5.69,3.9-7.14a13.14,13.14,0,0,1,9.53-.95,32.08,32.08,0,0,1,17.5,10.74,27.63,27.63,0,0,1,1.74,2.59c.42-2.51-.81-4.78-2.23-7-4-6.2-9.21-11.49-14.64-16.51a62.45,62.45,0,0,0-8.52-6.6c-5.54-3.56-11.25-5.85-17-5.69a7,7,0,0,0-6.34,3.66c-1.47,2.59-1.81,5.74-2,9-.21,3.42-.38,6.87-.73,10.23v0a1.72,1.72,0,0,1-3.12.81l-.14-.18c-3.57-5.08-8.05-7.85-13.24-7.85-7.45,0-13.37,2.65-16.34,8.71-5.3,10.85-3,23.32,5.42,36.42,2.38,3.74,5.23,7.22,6.54,11.32a13.43,13.43,0,0,0,1.4,2.4c1-4.32,1.89-8.44,2.79-12.57a15.12,15.12,0,0,0-.21-7.2,16.59,16.59,0,0,1-.45-4.81c.11-3.69,1.7-6,5.59-6.14.47,0,.91-.13,1.37-.18,2.74-.29,4.91.82,6.8,3.61a.61.61,0,0,1,.07.1,1.47,1.47,0,0,1-1.18,2.23h0c-1.29.07-2.82-.22-3.84.26a9.3,9.3,0,0,0-5.27,8.15,79.79,79.79,0,0,0,0,11.15c1.1,9.44,11.13,32.41,19.93,31.08a1.24,1.24,0,0,0,1-1.6l-4.21-13.41c-1.1-5.7-2.11-11.36-4.2-17.13-1.89-5.21-.15-8.58,3.52-10.7,1.86-1.07,3.87.16,4.29,2.72a11.47,11.47,0,0,1-.11,3.47c-.36,2.61-.89,5.15-1.23,7.77-.84,6.47-.09,13.35,1.3,20.34a21.15,21.15,0,0,0,5.09,10.1h0a22.85,22.85,0,0,0,6.84,5.13,24,24,0,0,0,5.63,2.46c.74.19,2.24.54,3,.68a15.76,15.76,0,0,0,3.19.23.53.53,0,0,0,.21,0l.24,0a18.45,18.45,0,0,0,2-.19c2.42-.08,4.82.92,7.46,2.14a2.12,2.12,0,0,0-.55-.83c-4.08-3.53-8.92-6.33-12.2-10.62-2.83-3.69-6.86-12.18-8.59-16.49-1.11-2.74-1.72-5.68-2.55-8.51a32.76,32.76,0,0,1-.94-3.69c-.16-1,.3-1.62,1.37-1.55a5.51,5.51,0,0,1,4.94,4.44c.58,3.16,1.94,9.6,2.89,12.67a47.06,47.06,0,0,0,5.12,10.32,22.51,22.51,0,0,0,5.24,5c3.74,3.13,7.59,6.07,12,7.35,5.5,1.58,11,3.24,16.66,4.92-1.28-5.4-.85-10,1.17-14a21,21,0,0,0,1.06-2.78c1-2.88,1.42-6.75-.47-10.14-1.59-2.86-3.24-4.49-5.31-7.07-3.87-4.83-7.72-8.9-12.86-10.51-2.45-.77-4.91-1.23-7.36-2.05a68.62,68.62,0,0,1-7.53-3.05c-1.54-.74-2-2.49-1-3.37a8,8,0,0,1,2.07-1.24c3.42-1.52,7.21-.17,11,2.27,4.83,3.11,9.66,6.25,14.39,9.56a75,75,0,0,1,14.15,12.94,24.37,24.37,0,0,1,1.87,2.18.53.53,0,0,0,1-.3,18,18,0,0,0-.34-3c-.9-6.76-4.33-13.35-7.63-19.83a24.12,24.12,0,0,0-12.77-11.61,33.4,33.4,0,0,0-14.09-2.8c-4.84.18-9.71.25-14.57.36-.77,0-1.6-.12-2.4-.18l-.24-.52c.49-.73,1-1.46,1.47-2.17,1.45-2,3.35-3,6.39-3.19,4.5-.24,12.63.19,16.63,1.39a40.59,40.59,0,0,1,10.88,5.93c1.48,1.21,2.93,2.68,4.53,4a.42.42,0,0,0,.69-.37,10.33,10.33,0,0,0-1.75-4.58,76.41,76.41,0,0,0-10.74-12.3,22.55,22.55,0,0,0-8.91-5.53,48.28,48.28,0,0,0-13.2-2.38C2914.9,290,2908.36,291.89,2906.71,289.71Zm-16.95,9.8c-1.7.22-4.7-1.45-5.82-3.23-.76-1.21-.38-2.18.93-2.12a8.28,8.28,0,0,1,4.93,2.14C2891.45,298,2891.31,299.31,2889.76,299.51Zm7.75-10.51c.52,2.23-.06,4-1.57,5.07-.94.68-2.06.12-2.57-1.29a5.75,5.75,0,0,1,.85-5.68c.46,0,1.21-.32,1.8,0A3.63,3.63,0,0,1,2897.51,289Z"/>
        </g>
        <g>
          <path class="cls-23" d="M2816.6,401.15a335.85,335.85,0,0,0-29,81c-8.74,39.92-6.66,99-6.66,99"/>
          <path class="cls-30" d="M2812.42,397.89c1.87-3.11-15.75-20.7-2.7-25.65s45.45,2.25,55.35,21.15c9.64,18.4,7.33,53.45,8.87,70.23a.45.45,0,0,1-.77.35c-22.91-23.79-62.3-16.08-79.35-34.65s-13.35-29.63-3-31S2809.72,402.39,2812.42,397.89Z"/>
        </g>
      </g>
      <path class="cls-10" d="M2791.68,677.35h-23a34.4,34.4,0,0,1-33.74-27.72l-12.52-63.18h115.52l-12.51,63.18A34.41,34.41,0,0,1,2791.68,677.35Z"/>
      <path class="cls-12" d="M2866.05,371.82c7.37,5.78,15.36-3.68,21.44-2.51,5.54.69-.5,9-4.89,11.29a14.08,14.08,0,0,1-8.93,1.49c-2-.38-4.1-1.77-5.65-2.69-2.08-1.38-3.19-3.32-5.3-5.21-1.06-.94-.61-2-.36-3.09C2862.76,370.38,2864.05,370.5,2866.05,371.82Z"/>
      <path class="cls-32" d="M1834.78,683.46c5.25,5.42,28.68,44.3,57.19,32.21,6.94-2.94,4.5-30.23.74-36.77-8.73-15.21-33.67-36.61-52-29.7C1835.35,654.47,1829.54,678,1834.78,683.46Z"/>
      <path class="cls-9" d="M2787.62,388.42c-5.43-2-10.79-8.49-10.21-14.86a2.49,2.49,0,0,1,3.08-2.16c8.11,1.94,17.87,7.18,20.93,16,.49,1.41-.38,3.21-1.88,3.23A43.22,43.22,0,0,1,2787.62,388.42Z"/>
      <rect class="cls-11" x="2710.96" y="577" width="137.48" height="18.9" rx="9" ry="9"/>
      <path class="cls-11" d="M2740.56,685.27s-19.65,45.57-28.93,72.32c-7.48,21.55-17.8,54.81-21.52,66.9a3.56,3.56,0,0,0,3.4,4.6h0a3.55,3.55,0,0,0,3.24-2.08c5.27-11.57,31.12-68.36,39.44-88.21,9.28-22.15,16.37-50.53,16.37-50.53Z"/>
      <path class="cls-11" d="M2818.85,685.27s19.65,45.57,28.92,72.32c7.48,21.55,17.8,54.81,21.52,66.9a3.56,3.56,0,0,1-3.4,4.6h0a3.54,3.54,0,0,1-3.23-2.08c-5.28-11.57-31.13-68.36-39.45-88.21-9.28-22.15-16.37-50.53-16.37-50.53Z"/>
      <path class="cls-11" d="M2772.49,685.27s1.23,31.37,1.23,51.3c0,14.8,2.31,43.65,3.2,54.17a4.33,4.33,0,0,0,4.32,4h0a4.32,4.32,0,0,0,4.32-4.21c.31-11.57,1.12-44.31,1.12-64.6,0-23-.82-40.62-.82-40.62Z"/>
      <rect class="cls-33" x="2694.16" y="677.35" width="170.84" height="15.83" rx="7.91" ry="7.91"/>
      <path class="cls-34" d="M2324.28,465.85s29.2,22.15,62.25-10.76"/>
      <rect class="cls-33" x="2137.13" y="335.11" width="22.07" height="22.07" transform="translate(1422.19 -1705.04) rotate(61.36)"/>
      <path class="cls-35" d="M2800,355a45.53,45.53,0,0,0-38.25-75"/>
    </g>
  </g>
</svg>
