<svg xmlns="http://www.w3.org/2000/svg" xmlns:xlink="http://www.w3.org/1999/xlink" viewBox="0 0 2880 720">
  <defs>
    <style>
      .cls-1 {
        fill: #fff;
      }

      .cls-15, .cls-16, .cls-2 {
        fill: none;
      }

      .cls-3 {
        fill: #f5eeec;
      }

      .cls-4 {
        clip-path: url(#clip-path);
      }

      .cls-5 {
        mask: url(#mask);
      }

      .cls-6 {
        mask: url(#mask-2-2);
      }

      .cls-7 {
        fill: #ffa433;
      }

      .cls-8 {
        fill: #ada8b6;
      }

      .cls-9 {
        fill: #514663;
      }

      .cls-10 {
        fill: #3b1c32;
      }

      .cls-11 {
        fill: #ee4266;
      }

      .cls-12 {
        fill: #00d1da;
      }

      .cls-13 {
        mask: url(#mask-3);
      }

      .cls-14 {
        clip-path: url(#clip-path-2);
      }

      .cls-15, .cls-16 {
        stroke: #3b1c32;
      }

      .cls-15 {
        stroke-miterlimit: 10;
      }

      .cls-15, .cls-16, .cls-19 {
        stroke-width: 10px;
      }

      .cls-16, .cls-19 {
        stroke-linecap: round;
        stroke-linejoin: round;
      }

      .cls-17 {
        clip-path: url(#clip-path-3);
      }

      .cls-18 {
        clip-path: url(#clip-path-4);
      }

      .cls-19 {
        fill: #eda331;
        stroke: #eda331;
      }
    </style>
    <clipPath id="clip-path">
      <rect id="path-1" class="cls-2" width="720" height="720"/>
    </clipPath>
    <mask id="mask" x="0" y="-0.5" width="720" height="720" maskUnits="userSpaceOnUse">
      <g id="mask-2">
        <rect id="path-1-2" data-name="path-1" class="cls-1" y="-0.5" width="720" height="720"/>
      </g>
    </mask>
    <mask id="mask-2-2" x="223.58" y="149.6" width="315.59" height="459.74" maskUnits="userSpaceOnUse">
      <g id="mask-4">
        <polygon id="path-3" class="cls-1" points="223.58 149.6 539.17 149.6 539.17 609.34 223.58 609.34 223.58 149.6"/>
      </g>
    </mask>
    <mask id="mask-3" x="600.86" y="403.87" width="42.94" height="42.94" maskUnits="userSpaceOnUse">
      <g id="mask-6">
        <polygon id="path-5" class="cls-1" points="600.86 403.87 643.81 403.87 643.81 446.81 600.86 446.81 600.86 403.87"/>
      </g>
    </mask>
    <clipPath id="clip-path-2">
      <rect id="path-1-3" data-name="path-1" class="cls-2" x="720" width="720" height="720"/>
    </clipPath>
    <clipPath id="clip-path-3">
      <rect id="path-1-4" data-name="path-1" class="cls-2" x="1440" width="720" height="720"/>
    </clipPath>
    <clipPath id="clip-path-4">
      <rect id="path-1-5" data-name="path-1" class="cls-2" x="2160" width="720" height="720"/>
    </clipPath>
  </defs>
  <title>thumbnail</title>
  <g id="background">
    <g id="Rectangle">
      <rect id="path-1-6" data-name="path-1" class="cls-3" x="-10" y="-10" width="2900" height="740"/>
    </g>
  </g>
  <g id="frame-1">
    <g class="cls-4">
      <g id="Page-1">
        <g id="Desktop-HD">
          <g id="Lanneberg-Bexelius">
            <g id="Group-2">
              <g class="cls-5">
                <g id="Page-1-2" data-name="Page-1">
                  <g>
                    <g id="Group-3">
                      <g class="cls-6">
                        <path id="Fill-1" class="cls-7" d="M328.63,362.3a33,33,0,1,1,33-33,33,33,0,0,1-33,33M453.79,152.16c-92-13.63-198.16,26.14-198.67,142.53-.11,25-1.49,37.61-1.49,37.61s-21.72,57.64-29.91,97c-2.65,12.73,33.74-1,32.91,12-2,31,8.7,73.75,16,88,24,47,25,87.06,92,79,92.28-11.1,174.54-36.14,166.15-114.14-6.59-61.13-5.4-162.42,5-212.6,15-72.4-21-120.36-82-129.4"/>
                      </g>
                    </g>
                    <path id="Fill-4" class="cls-8" d="M115.67,512.36a4,4,0,0,1-3.17-1.56l-9.67-12.56a4,4,0,1,1,6.33-4.88l9.67,12.56a4,4,0,0,1-3.16,6.44"/>
                    <path id="Fill-6" class="cls-8" d="M89.19,570.76a4,4,0,0,1-2.79-6.87l17.15-16.69a4,4,0,0,1,5.58,5.74L92,569.62a4,4,0,0,1-2.79,1.14"/>
                    <path id="Fill-8" class="cls-8" d="M107.49,533.12a3.51,3.51,0,0,1-.72-.07l-26.48-4.81a4,4,0,1,1,1.43-7.87l26.48,4.81a4,4,0,0,1-.71,7.94"/>
                    <polygon id="Fill-10" class="cls-9" points="474.61 254.29 492.32 271.99 510.02 254.29 492.32 236.59 474.61 254.29"/>
                    <path id="Fill-12" class="cls-10" d="M227.74,560.35a4,4,0,0,1-4-3.62l-2.61-27.37a4,4,0,0,1,1.42-3.44l14.86-12.46-18.93-4.21a4,4,0,0,1-2.84-2.41l-10.28-25.5a4,4,0,0,1,7.42-3l9.5,23.54,24.78,5.53a4,4,0,0,1,1.7,7L229.32,530.7l2.4,25.27a4,4,0,0,1-3.6,4.36,2.48,2.48,0,0,1-.38,0"/>
                    <polygon id="Fill-14" class="cls-11" points="193.82 264.29 183.54 302.66 145.16 312.95 117.06 284.85 127.34 246.47 165.72 236.19 193.82 264.29"/>
                    <path id="Fill-16" class="cls-10" d="M155.44,344.66a4,4,0,0,1-1.86-7.55l24.33-12.79a4,4,0,0,1,3.73,0l17.16,9-3.28-19.11a4,4,0,0,1,1.15-3.54l19.69-19.19a4,4,0,0,1,5.58,5.73L203.76,315l4.29,25a4,4,0,0,1-5.8,4.22l-22.47-11.82L157.3,344.2a4,4,0,0,1-1.86.46"/>
                    <path id="Fill-18" class="cls-10" d="M381.54,536.74c-30.53,0-63-6.83-95.68-20.28a4,4,0,0,1,3-7.4C333.19,527.29,377,533,415.61,525.59c35.09-6.75,65.23-23.93,87.16-49.7,20.84-24.49,32.8-54.93,34.6-88,1.91-34.95-7.85-70.93-28.22-104a4,4,0,0,1,6.82-4.19c21.22,34.52,31.38,72.09,29.39,108.67-1.9,34.86-14.52,66.94-36.5,92.77-23.12,27.17-54.84,45.28-91.75,52.37a187.8,187.8,0,0,1-35.57,3.3"/>
                    <path id="Fill-20" class="cls-10" d="M466.69,230.58a4,4,0,0,1-2.53-.91A289.07,289.07,0,0,0,292.39,164a4,4,0,0,1,.35-8,297.05,297.05,0,0,1,176.49,67.52,4,4,0,0,1-2.54,7.1"/>
                    <path id="Fill-22" class="cls-10" d="M466.69,230.58a4,4,0,0,1-4-3.61L460.23,202a4,4,0,1,1,8-.79l2.48,24.93a4,4,0,0,1-3.58,4.38l-.4,0"/>
                    <path id="Fill-24" class="cls-10" d="M441.32,233.58a4,4,0,0,1-.39-8l24.93-2.48a4,4,0,0,1,.8,8l-24.94,2.48a2.68,2.68,0,0,1-.4,0"/>
                    <polygon id="Fill-26" class="cls-12" points="158.45 161.82 200.04 116.15 216.74 173.13 158.45 161.82"/>
                    <polygon id="Fill-28" class="cls-12" points="187.15 482.35 208.42 563.39 131.25 540.33 187.15 482.35"/>
                    <polygon id="Fill-30" class="cls-7" points="183.27 220.11 176.48 189.47 205.04 199.21 183.27 220.11"/>
                    <g id="Group-34">
                      <g class="cls-13">
                        <path id="Fill-32" class="cls-9" d="M600.86,425.34a21.48,21.48,0,1,0,21.47-21.47,21.47,21.47,0,0,0-21.47,21.47"/>
                      </g>
                    </g>
                    <path id="Fill-35" class="cls-11" d="M271.44,134.73a25.23,25.23,0,1,1-25.23-25.23,25.23,25.23,0,0,1,25.23,25.23"/>
                    <polygon id="Fill-37" class="cls-12" points="557.5 368.45 575.2 386.15 592.91 368.45 575.2 350.74 557.5 368.45"/>
                    <path id="Fill-39" class="cls-11" d="M470.45,546.88a4,4,0,0,1-1.77-7.59c31.19-15.34,57.05-35.64,74.77-58.72,18.42-24,27.75-49.9,27.75-77.05a4,4,0,0,1,8,0c0,28.55-10.17,56.87-29.4,81.92-18.47,24.05-45.3,45.15-77.59,61a4,4,0,0,1-1.76.41"/>
                    <path id="Fill-41" class="cls-12" d="M568.73,239.26a4,4,0,0,1-4-3.44c-5.35-38.15-22.24-67-50.22-85.9-22.95-15.46-52.59-23.14-83.48-21.63a4,4,0,0,1-.39-8c57.72-2.83,129.55,25.44,142,114.41a4,4,0,0,1-3.41,4.51,3.52,3.52,0,0,1-.56,0"/>
                  </g>
                </g>
              </g>
            </g>
          </g>
        </g>
      </g>
    </g>
  </g>
  <g id="frame-2">
    <g class="cls-14">
      <g id="PG6Qqp">
        <path class="cls-11" d="M1067.22,458.46c-5.61-3.07-11.82-2.29-18.14-.82-20,4.64-29-9.37-25.08-26.12,2.26-9.56,8.52-17.72,12.93-26.25,6.83-13.23,13.22-17.19,14.59-26.94,1.64-11.75,2.91-18.87,4.78-30.58,1.77-11.08,1.07-23.34,10.71-31.67,3.28-2.84,7.59-4.49,11.43-6.69H1081c.68.46,1.31,1.19,2,1.34,12.1,2.47,17.48,11,20.09,22.07,2.3,9.72-2.26,22.05,0,31.76,2,8.3,8,15.24,12.81,22.27,5.47,7.95,8.4,12.19,15.36,23.53,2,3.24,5,9.36,7.13,12.66,6.4,10.1,1,30.43-10,33.08-4.07,1-8.61.53-12.88.13-6.11-.58-11.88-1.16-17,3.51-3.8,3.43-11.76,5.48-16.9,5.78C1076.21,465.83,1067.22,458.46,1067.22,458.46Z"/>
      </g>
      <g>
        <circle class="cls-15" cx="1162.04" cy="349.58" r="60.78"/>
        <path class="cls-15" d="M1056.34,331a24.22,24.22,0,0,1,48.43,0"/>
        <circle class="cls-15" cx="997.96" cy="349.58" r="60.78"/>
      </g>
      <path class="cls-16" d="M1128.8,261.22a60.54,60.54,0,0,1,46.36-3.83"/>
    </g>
  </g>
  <g id="frame-3">
    <g class="cls-17">
      <path class="cls-10" d="M1873.94,300.79c23.24-10.41,38.65-33.41,38.65-61.43,0-38.43-29-67.41-67.42-67.41h-184.5a7.09,7.09,0,0,0-7.1,7.09V541a7.09,7.09,0,0,0,7.1,7.09H1828.4c70.59,0,128-57.3,128-127.73A127.94,127.94,0,0,0,1873.94,300.79Zm24.46-61.43c0,30.34-22.88,53.22-53.23,53.22H1788.4V246.46h56.77a7.1,7.1,0,1,0,0-14.19H1788.4V186.14h56.77C1875.52,186.14,1898.4,209,1898.4,239.36Zm-170.32-53.22h46.13v287.4h-46.13Zm60.32,241.28h39a7.1,7.1,0,0,0,0-14.2h-39V367.1h39c30.34,0,53.23,22.88,53.23,53.22s-22.89,53.22-53.23,53.22h-39ZM1667.76,186.14h46.13v294.5a7.09,7.09,0,0,0,7.1,7.09h53.22v46.13H1667.76ZM1828.4,533.86h-40V487.73h39c38.43,0,67.42-29,67.42-67.41s-29-67.42-67.42-67.42h-39V306.78H1829c62.44,0,113.25,50.93,113.25,113.54S1891.17,533.86,1828.4,533.86Z"/>
    </g>
  </g>
  <g id="frame-4">
    <g class="cls-18">
      <path class="cls-16" d="M2550.29,483.74c-22.23-1.13-62.63.93-88.88-5.58-10.67-2.65-30.88-5.32-28.87-24.07,0,0,13.41-145.21,28.35-201,2.85-10.62,17.56-19.27,28.45-17.69l95,13.79c10.89,1.58,28.8,12.76,21.6,39.57-11.74,43.72-24.69,123.46-31.47,168.22C2572.82,467.86,2567.48,484.62,2550.29,483.74Z"/>
      <circle class="cls-10" cx="2506.17" cy="453.56" r="9.01"/>
      <path class="cls-19" d="M2555.41,356.81s-68.43,35.61-69.7,17.68c-.95-13.3-3.15-55.73,10.31-70.34C2506.12,305.33,2555.41,356.81,2555.41,356.81Z"/>
    </g>
  </g>
</svg>
