<?xml version="1.0" encoding="UTF-8"?>
<svg width="720px" height="720px" viewBox="0 0 720 720" version="1.1" xmlns="http://www.w3.org/2000/svg" xmlns:xlink="http://www.w3.org/1999/xlink">
    <!-- Generator: Sketch 49 (51002) - http://www.bohemiancoding.com/sketch -->
    <title>Group 2</title>
    <desc>Created with Sketch.</desc>
    <defs>
        <rect id="path-1" x="0" y="0" width="720" height="720"></rect>
        <polygon id="path-3" points="0.58315489 0.25760798 316.172484 0.25760798 316.172484 460 0.58315489 460"></polygon>
        <polygon id="path-5" points="0.8633 0.5282 43.806 0.5282 43.806 43.4722 0.8633 43.4722"></polygon>
    </defs>
    <g id="Page-1" stroke="none" stroke-width="1" fill="none" fill-rule="evenodd">
        <g id="Desktop-HD" transform="translate(-720.000000, -1354.000000)">
            <g id="Lanneberg-Bexelius" transform="translate(720.000000, 1354.000000)">
                <g id="Group-2">
                    <mask id="mask-2" fill="white">
                        <use xlink:href="#path-1"></use>
                    </mask>
                    <use id="Rectangle-Copy-3" fill="#F5EEEC" xlink:href="#path-1"></use>
                    <g id="Page-1" mask="url(#mask-2)">
                        <g transform="translate(77.000000, 110.000000)">
                            <g id="Group-3" stroke-width="1" fill="none" transform="translate(146.000000, 39.841000)">
                                <mask id="mask-4" fill="white">
                                    <use xlink:href="#path-3"></use>
                                </mask>
                                <g id="Clip-2"></g>
                                <path d="M105.6269,212.9621 C87.4009,212.9621 72.6269,198.1871 72.6269,179.9621 C72.6269,161.7361 87.4009,146.9621 105.6269,146.9621 C123.8519,146.9621 138.6269,161.7361 138.6269,179.9621 C138.6269,198.1871 123.8519,212.9621 105.6269,212.9621 M230.7869,2.8201 C138.8409,-10.8089 32.6269,28.9621 32.1189,145.3531 C32.0099,170.3531 30.6269,182.9621 30.6269,182.9621 C30.6269,182.9621 8.9059,240.5981 0.7209,279.9621 C-1.9261,292.6901 34.4639,278.9891 33.6269,291.9621 C31.6269,322.9621 42.3319,365.7091 49.6019,379.9621 C73.5719,426.9571 74.6269,467.0221 141.6269,458.9621 C233.9109,447.8591 316.1719,422.8201 307.7759,344.8201 C301.1949,283.6911 302.3779,182.4021 312.7759,132.2181 C327.7759,59.8201 291.7759,11.8601 230.7869,2.8201" id="Fill-1" fill="#FFA433" mask="url(#mask-4)"></path>
                            </g>
                            <path d="M38.6689,402.8588 C37.4699,402.8588 36.2849,402.3228 35.4969,401.2988 L25.8259,388.7418 C24.4789,386.9918 24.8049,384.4798 26.5549,383.1318 C28.3059,381.7848 30.8179,382.1108 32.1649,383.8608 L41.8349,396.4188 C43.1829,398.1688 42.8569,400.6798 41.1069,402.0278 C40.3789,402.5878 39.5209,402.8588 38.6689,402.8588" id="Fill-4" fill="#ADA8B6"></path>
                            <path d="M12.1914,461.2567 C11.1494,461.2567 10.1084,460.8517 9.3244,460.0467 C7.7834,458.4627 7.8184,455.9307 9.4014,454.3897 L26.5504,437.7037 C28.1334,436.1637 30.6664,436.1987 32.2064,437.7807 C33.7474,439.3647 33.7124,441.8967 32.1294,443.4377 L14.9804,460.1237 C14.2034,460.8807 13.1964,461.2567 12.1914,461.2567" id="Fill-6" fill="#ADA8B6"></path>
                            <path d="M30.4873,423.618 C30.2503,423.618 30.0093,423.597 29.7673,423.553 L3.2853,418.739 C1.1123,418.344 -0.3297,416.262 0.0653,414.088 C0.4603,411.915 2.5423,410.471 4.7163,410.868 L31.1983,415.682 C33.3723,416.077 34.8133,418.16 34.4183,420.333 C34.0673,422.264 32.3833,423.618 30.4873,423.618" id="Fill-8" fill="#ADA8B6"></path>
                            <polygon id="Fill-10" fill="#514663" points="397.6133 144.7889 415.3183 162.4939 433.0223 144.7889 415.3183 127.0849"></polygon>
                            <path d="M150.7368,450.8529 C148.6988,450.8529 146.9568,449.3019 146.7598,447.2309 L144.1548,419.8619 C144.0298,418.5519 144.5588,417.2639 145.5678,416.4179 L160.4258,403.9629 L141.5028,399.7459 C140.2168,399.4589 139.1558,398.5589 138.6628,397.3379 L128.3768,371.8419 C127.5498,369.7929 128.5408,367.4629 130.5898,366.6359 C132.6388,365.8099 134.9688,366.7999 135.7958,368.8489 L145.2958,392.3949 L170.0768,397.9179 C171.5638,398.2489 172.7328,399.3949 173.0928,400.8739 C173.4538,402.3539 172.9438,403.9099 171.7768,404.8879 L152.3188,421.1979 L154.7238,446.4739 C154.9328,448.6729 153.3198,450.6249 151.1208,450.8339 C150.9918,450.8469 150.8638,450.8529 150.7368,450.8529" id="Fill-12" fill="#3B1C32"></path>
                            <polygon id="Fill-14" fill="#EE4266" points="116.8203 154.7845 106.5363 193.1635 68.1573 203.4475 40.0613 175.3515 50.3453 136.9725 88.7243 126.6885"></polygon>
                            <path d="M78.4448,235.1556 C77.0068,235.1556 75.6168,234.3776 74.9008,233.0156 C73.8728,231.0606 74.6248,228.6416 76.5798,227.6136 L100.9148,214.8206 C102.0798,214.2086 103.4718,214.2086 104.6368,214.8206 L121.7978,223.8426 L118.5208,204.7336 C118.2978,203.4356 118.7278,202.1126 119.6708,201.1936 L139.3578,182.0036 C140.9408,180.4606 143.4728,180.4936 145.0138,182.0756 C146.5558,183.6576 146.5238,186.1896 144.9418,187.7316 L126.7608,205.4536 L131.0528,230.4786 C131.3098,231.9796 130.6938,233.4956 129.4618,234.3906 C128.2298,235.2856 126.5958,235.4036 125.2488,234.6956 L102.7758,222.8806 L80.3028,234.6956 C79.7088,235.0076 79.0718,235.1556 78.4448,235.1556" id="Fill-16" fill="#3B1C32"></path>
                            <path d="M304.539,427.2426 C274.014,427.2426 241.527,420.4056 208.856,406.9596 C206.813,406.1186 205.839,403.7816 206.68,401.7386 C207.521,399.6956 209.859,398.7216 211.901,399.5616 C256.194,417.7896 300.006,423.5046 338.605,416.0876 C373.702,409.3436 403.843,392.1566 425.768,366.3866 C446.605,341.8966 458.571,311.4596 460.374,278.3666 C462.277,243.4216 452.518,207.4436 432.152,174.3206 C430.995,172.4386 431.582,169.9746 433.464,168.8186 C435.346,167.6596 437.809,168.2486 438.966,170.1306 C460.189,204.6466 470.354,242.2236 468.362,278.8016 C466.463,313.6566 453.842,345.7356 431.862,371.5706 C408.744,398.7426 377.018,416.8526 340.115,423.9446 C328.649,426.1476 316.748,427.2426 304.539,427.2426" id="Fill-18" fill="#3B1C32"></path>
                            <path d="M389.688,121.0756 C388.796,121.0756 387.899,120.7796 387.156,120.1706 C338.033,79.9386 278.637,57.2156 215.387,54.4566 C213.18,54.3606 211.469,52.4936 211.565,50.2866 C211.661,48.0796 213.535,46.3466 215.735,46.4646 C280.726,49.2996 341.755,72.6456 392.225,113.9806 C393.934,115.3806 394.185,117.9006 392.785,119.6106 C391.994,120.5756 390.846,121.0756 389.688,121.0756" id="Fill-20" fill="#3B1C32"></path>
                            <path d="M389.6855,121.076 C387.6545,121.076 385.9155,119.535 385.7095,117.472 L383.2285,92.537 C383.0105,90.339 384.6155,88.38 386.8135,88.161 C389.0175,87.94 390.9705,89.547 391.1895,91.745 L393.6705,116.68 C393.8895,118.878 392.2845,120.837 390.0865,121.056 C389.9525,121.069 389.8175,121.076 389.6855,121.076" id="Fill-22" fill="#3B1C32"></path>
                            <path d="M364.3208,124.0829 C362.2898,124.0829 360.5508,122.5419 360.3448,120.4789 C360.1268,118.2799 361.7318,116.3209 363.9298,116.1019 L388.8638,113.6209 C391.0608,113.4019 393.0208,115.0069 393.2398,117.2059 C393.4588,119.4039 391.8538,121.3629 389.6558,121.5819 L364.7218,124.0629 C364.5868,124.0759 364.4528,124.0829 364.3208,124.0829" id="Fill-24" fill="#3B1C32"></path>
                            <polygon id="Fill-26" fill="#00D1DA" points="81.4507 52.3207 123.0427 6.6467 139.7437 63.6307"></polygon>
                            <polygon id="Fill-28" fill="#00D1DA" points="110.1484 372.8519 131.4164 453.8869 54.2534 430.8299"></polygon>
                            <polygon id="Fill-30" fill="#FFA433" points="106.2729 110.6102 99.4839 79.9662 128.0369 89.7142"></polygon>
                            <g id="Group-34" stroke-width="1" fill="none" transform="translate(523.000000, 293.841000)">
                                <mask id="mask-6" fill="white">
                                    <use xlink:href="#path-5"></use>
                                </mask>
                                <g id="Clip-33"></g>
                                <path d="M0.8633,22.0002 C0.8633,33.8582 10.4763,43.4722 22.3343,43.4722 C34.1933,43.4722 43.8063,33.8582 43.8063,22.0002 C43.8063,10.1422 34.1933,0.5282 22.3343,0.5282 C10.4763,0.5282 0.8633,10.1422 0.8633,22.0002" id="Fill-32" fill="#514663" mask="url(#mask-6)"></path>
                            </g>
                            <path d="M194.437,25.2303 C194.437,39.1653 183.141,50.4603 169.207,50.4603 C155.272,50.4603 143.976,39.1653 143.976,25.2303 C143.976,11.2953 155.272,0.0003 169.207,0.0003 C183.141,0.0003 194.437,11.2953 194.437,25.2303" id="Fill-35" fill="#EE4266"></path>
                            <polygon id="Fill-37" fill="#00D1DA" points="480.498 258.9472 498.203 276.6512 515.907 258.9472 498.203 241.2422"></polygon>
                            <path d="M393.4502,437.3837 C391.9732,437.3837 390.5542,436.5627 389.8582,435.1477 C388.8832,433.1657 389.7002,430.7687 391.6822,429.7937 C422.8712,414.4537 448.7252,394.1477 466.4502,371.0697 C484.8662,347.0927 494.2022,321.1707 494.2022,294.0207 C494.2022,291.8117 495.9932,290.0207 498.2022,290.0207 C500.4112,290.0207 502.2022,291.8117 502.2022,294.0207 C502.2022,322.5657 492.0332,350.8937 472.7952,375.9427 C454.3252,399.9897 427.4982,421.0927 395.2122,436.9717 C394.6452,437.2517 394.0432,437.3837 393.4502,437.3837" id="Fill-39" fill="#EE4266"></path>
                            <path d="M491.7329,129.7621 C489.7699,129.7621 488.0559,128.3161 487.7769,126.3161 C482.4329,88.1701 465.5389,59.2701 437.5619,40.4191 C414.6149,24.9581 384.9679,17.2761 354.0839,18.7861 C351.8759,18.9021 350.0009,17.1931 349.8929,14.9871 C349.7849,12.7801 351.4859,10.9041 353.6929,10.7961 C411.4099,7.9731 483.2379,36.2421 495.6989,125.2071 C496.0049,127.3941 494.4799,129.4161 492.2929,129.7231 C492.1049,129.7491 491.9179,129.7621 491.7329,129.7621" id="Fill-41" fill="#00D1DA"></path>
                        </g>
                    </g>
                </g>
            </g>
        </g>
    </g>
</svg>