<svg xmlns="http://www.w3.org/2000/svg" xmlns:xlink="http://www.w3.org/1999/xlink" viewBox="0 0 2160 720" width="2160" height="720">
  <defs>
    <style>
      .cls-1 {
        fill: #fff;
      }

      .cls-15, .cls-16, .cls-2 {
        fill: none;
      }

      .cls-3 {
        fill: #f5eeec;
      }

      .cls-4 {
        clip-path: url(#clip-path);
      }

      .cls-5 {
        mask: url(#mask);
      }

      .cls-6 {
        mask: url(#mask-2-2);
      }

      .cls-7 {
        fill: #ffa433;
      }

      .cls-8 {
        fill: #ada8b6;
      }

      .cls-9 {
        fill: #514663;
      }

      .cls-10 {
        fill: #3b1c32;
      }

      .cls-11 {
        fill: #ee4266;
      }

      .cls-12 {
        fill: #00d1da;
      }

      .cls-13 {
        mask: url(#mask-3);
      }

      .cls-14 {
        clip-path: url(#clip-path-2);
      }

      .cls-15, .cls-16 {
        stroke: #3b1c32;
        stroke-width: 15px;
      }

      .cls-15 {
        stroke-miterlimit: 10;
      }

      .cls-16 {
        stroke-linecap: round;
        stroke-linejoin: round;
      }

      .cls-17 {
        clip-path: url(#clip-path-3);
      }
    </style>
    <clipPath id="clip-path">
      <rect id="path-1" class="cls-2" width="720" height="720"/>
    </clipPath>
    <mask id="mask" x="0" y="-0.5" width="720" height="720" maskUnits="userSpaceOnUse">
      <g id="mask-2">
        <rect id="path-1-2" data-name="path-1" class="cls-1" y="-0.5" width="720" height="720"/>
      </g>
    </mask>
    <mask id="mask-2-2" x="223.58" y="149.6" width="315.59" height="459.74" maskUnits="userSpaceOnUse">
      <g id="mask-4">
        <polygon id="path-3" class="cls-1" points="223.58 149.6 539.17 149.6 539.17 609.34 223.58 609.34 223.58 149.6"/>
      </g>
    </mask>
    <mask id="mask-3" x="600.86" y="403.87" width="42.94" height="42.94" maskUnits="userSpaceOnUse">
      <g id="mask-6">
        <polygon id="path-5" class="cls-1" points="600.86 403.87 643.81 403.87 643.81 446.81 600.86 446.81 600.86 403.87"/>
      </g>
    </mask>
    <clipPath id="clip-path-2">
      <rect id="path-1-3" data-name="path-1" class="cls-2" x="720" width="720" height="720"/>
    </clipPath>
    <clipPath id="clip-path-3">
      <rect id="path-1-4" data-name="path-1" class="cls-2" x="1440" width="720" height="720"/>
    </clipPath>
  </defs>
  <title>thumbnail</title>
  <g id="background">
    <g id="Rectangle">
      <rect id="path-1-5" data-name="path-1" class="cls-3" x="-10" y="-10" width="2180" height="740"/>
    </g>
  </g>
  <g id="frame-1">
    <g class="cls-4">
      <g id="Page-1">
        <g id="Desktop-HD">
          <g id="Lanneberg-Bexelius">
            <g id="Group-2">
              <g class="cls-5">
                <g id="Page-1-2" data-name="Page-1">
                  <g>
                    <g id="Group-3">
                      <g class="cls-6">
                        <path id="Fill-1" class="cls-7" d="M328.63,362.3a33,33,0,1,1,33-33,33,33,0,0,1-33,33M453.79,152.16c-92-13.63-198.16,26.14-198.67,142.53-.11,25-1.49,37.61-1.49,37.61s-21.72,57.64-29.91,97c-2.65,12.73,33.74-1,32.91,12-2,31,8.7,73.75,16,88,24,47,25,87.06,92,79,92.28-11.1,174.54-36.14,166.15-114.14-6.59-61.13-5.4-162.42,5-212.6,15-72.4-21-120.36-82-129.4"/>
                      </g>
                    </g>
                    <path id="Fill-4" class="cls-8" d="M115.67,512.36a4,4,0,0,1-3.17-1.56l-9.67-12.56a4,4,0,1,1,6.33-4.88l9.67,12.56a4,4,0,0,1-3.16,6.44"/>
                    <path id="Fill-6" class="cls-8" d="M89.19,570.76a4,4,0,0,1-2.79-6.87l17.15-16.69a4,4,0,0,1,5.58,5.74L92,569.62a4,4,0,0,1-2.79,1.14"/>
                    <path id="Fill-8" class="cls-8" d="M107.49,533.12a3.51,3.51,0,0,1-.72-.07l-26.48-4.81a4,4,0,1,1,1.43-7.87l26.48,4.81a4,4,0,0,1-.71,7.94"/>
                    <polygon id="Fill-10" class="cls-9" points="474.61 254.29 492.32 271.99 510.02 254.29 492.32 236.59 474.61 254.29"/>
                    <path id="Fill-12" class="cls-10" d="M227.74,560.35a4,4,0,0,1-4-3.62l-2.61-27.37a4,4,0,0,1,1.42-3.44l14.86-12.46-18.93-4.21a4,4,0,0,1-2.84-2.41l-10.28-25.5a4,4,0,0,1,7.42-3l9.5,23.54,24.78,5.53a4,4,0,0,1,1.7,7L229.32,530.7l2.4,25.27a4,4,0,0,1-3.6,4.36,2.48,2.48,0,0,1-.38,0"/>
                    <polygon id="Fill-14" class="cls-11" points="193.82 264.29 183.54 302.66 145.16 312.95 117.06 284.85 127.34 246.47 165.72 236.19 193.82 264.29"/>
                    <path id="Fill-16" class="cls-10" d="M155.44,344.66a4,4,0,0,1-1.86-7.55l24.33-12.79a4,4,0,0,1,3.73,0l17.16,9-3.28-19.11a4,4,0,0,1,1.15-3.54l19.69-19.19a4,4,0,0,1,5.58,5.73L203.76,315l4.29,25a4,4,0,0,1-5.8,4.22l-22.47-11.82L157.3,344.2a4,4,0,0,1-1.86.46"/>
                    <path id="Fill-18" class="cls-10" d="M381.54,536.74c-30.53,0-63-6.83-95.68-20.28a4,4,0,0,1,3-7.4C333.19,527.29,377,533,415.61,525.59c35.09-6.75,65.23-23.93,87.16-49.7,20.84-24.49,32.8-54.93,34.6-88,1.91-34.95-7.85-70.93-28.22-104a4,4,0,0,1,6.82-4.19c21.22,34.52,31.38,72.09,29.39,108.67-1.9,34.86-14.52,66.94-36.5,92.77-23.12,27.17-54.84,45.28-91.75,52.37a187.8,187.8,0,0,1-35.57,3.3"/>
                    <path id="Fill-20" class="cls-10" d="M466.69,230.58a4,4,0,0,1-2.53-.91A289.07,289.07,0,0,0,292.39,164a4,4,0,0,1,.35-8,297.05,297.05,0,0,1,176.49,67.52,4,4,0,0,1-2.54,7.1"/>
                    <path id="Fill-22" class="cls-10" d="M466.69,230.58a4,4,0,0,1-4-3.61L460.23,202a4,4,0,1,1,8-.79l2.48,24.93a4,4,0,0,1-3.58,4.38l-.4,0"/>
                    <path id="Fill-24" class="cls-10" d="M441.32,233.58a4,4,0,0,1-.39-8l24.93-2.48a4,4,0,0,1,.8,8l-24.94,2.48a2.68,2.68,0,0,1-.4,0"/>
                    <polygon id="Fill-26" class="cls-12" points="158.45 161.82 200.04 116.15 216.74 173.13 158.45 161.82"/>
                    <polygon id="Fill-28" class="cls-12" points="187.15 482.35 208.42 563.39 131.25 540.33 187.15 482.35"/>
                    <polygon id="Fill-30" class="cls-7" points="183.27 220.11 176.48 189.47 205.04 199.21 183.27 220.11"/>
                    <g id="Group-34">
                      <g class="cls-13">
                        <path id="Fill-32" class="cls-9" d="M600.86,425.34a21.48,21.48,0,1,0,21.47-21.47,21.47,21.47,0,0,0-21.47,21.47"/>
                      </g>
                    </g>
                    <path id="Fill-35" class="cls-11" d="M271.44,134.73a25.23,25.23,0,1,1-25.23-25.23,25.23,25.23,0,0,1,25.23,25.23"/>
                    <polygon id="Fill-37" class="cls-12" points="557.5 368.45 575.2 386.15 592.91 368.45 575.2 350.74 557.5 368.45"/>
                    <path id="Fill-39" class="cls-11" d="M470.45,546.88a4,4,0,0,1-1.77-7.59c31.19-15.34,57.05-35.64,74.77-58.72,18.42-24,27.75-49.9,27.75-77.05a4,4,0,0,1,8,0c0,28.55-10.17,56.87-29.4,81.92-18.47,24.05-45.3,45.15-77.59,61a4,4,0,0,1-1.76.41"/>
                    <path id="Fill-41" class="cls-12" d="M568.73,239.26a4,4,0,0,1-4-3.44c-5.35-38.15-22.24-67-50.22-85.9-22.95-15.46-52.59-23.14-83.48-21.63a4,4,0,0,1-.39-8c57.72-2.83,129.55,25.44,142,114.41a4,4,0,0,1-3.41,4.51,3.52,3.52,0,0,1-.56,0"/>
                  </g>
                </g>
              </g>
            </g>
          </g>
        </g>
      </g>
    </g>
  </g>
  <g id="frame-2">
    <g class="cls-14">
      <g>
        <g id="PG6Qqp">
          <path class="cls-11" d="M1060.83,507.69c-8.42-4.61-17.73-3.43-27.21-1.24-30,7-43.55-14.05-37.61-39.17,3.38-14.34,12.78-26.58,19.38-39.37,10.24-19.85,19.84-25.79,21.88-40.41,2.48-17.63,4.37-28.3,7.18-45.87,2.66-16.63,1.61-35,16.06-47.52,4.93-4.25,11.39-6.73,17.15-10h3.77c1,.69,2,1.77,3.07,2,18.14,3.7,26.22,16.5,30.14,33.11,3.44,14.58-3.4,33.07,0,47.65,3,12.45,12,22.86,19.22,33.39,8.2,11.93,12.6,18.29,23,35.3,3,4.86,7.57,14,10.7,19,9.59,15.15,1.47,45.64-15.08,49.62-6.11,1.47-12.91.79-19.31.19-9.18-.86-17.83-1.73-25.59,5.27-5.69,5.14-17.64,8.22-25.34,8.67C1074.31,518.75,1060.83,507.69,1060.83,507.69Z"/>
        </g>
        <g>
          <circle class="cls-15" cx="1203.06" cy="344.38" r="91.17"/>
          <path class="cls-15" d="M1044.51,316.49a36.32,36.32,0,0,1,72.64,0"/>
          <circle class="cls-15" cx="956.94" cy="344.38" r="91.17"/>
        </g>
        <path class="cls-16" d="M1153.21,211.83a90.85,90.85,0,0,1,69.53-5.75"/>
      </g>
    </g>
  </g>
  <g id="frame-3">
    <g class="cls-17">
      <path class="cls-10" d="M1873.94,300.79c23.24-10.41,38.65-33.41,38.65-61.43,0-38.43-29-67.41-67.42-67.41h-184.5a7.09,7.09,0,0,0-7.1,7.09V541a7.09,7.09,0,0,0,7.1,7.09H1828.4c70.59,0,128-57.3,128-127.73A127.94,127.94,0,0,0,1873.94,300.79Zm24.46-61.43c0,30.34-22.88,53.22-53.23,53.22H1788.4V246.46h56.77a7.1,7.1,0,1,0,0-14.19H1788.4V186.14h56.77C1875.52,186.14,1898.4,209,1898.4,239.36Zm-170.32-53.22h46.13v287.4h-46.13Zm60.32,241.28h39a7.1,7.1,0,0,0,0-14.2h-39V367.1h39c30.34,0,53.23,22.88,53.23,53.22s-22.89,53.22-53.23,53.22h-39ZM1667.76,186.14h46.13v294.5a7.09,7.09,0,0,0,7.1,7.09h53.22v46.13H1667.76ZM1828.4,533.86h-40V487.73h39c38.43,0,67.42-29,67.42-67.41s-29-67.42-67.42-67.42h-39V306.78H1829c62.44,0,113.25,50.93,113.25,113.54S1891.17,533.86,1828.4,533.86Z"/>
    </g>
  </g>
</svg>
