<svg width="22" height="22" xmlns="http://www.w3.org/2000/svg"><g transform="translate(1 1)" fill="none" fill-rule="evenodd"><circle stroke="#4A4A4A" cx="10" cy="10" r="10"/><path d="M8.888 9.574l.574-.219c.382-.146.574-.566.574-1.26 0-.702-.206-1.227-.616-1.574C9.01 6.174 8.505 6 7.905 6H4v7.834h3.905l.373-.023c.249-.016.523-.095.823-.237.3-.142.574-.369.822-.68.249-.312.373-.768.373-1.367l-.006-.308a2.196 2.196 0 00-.13-.669 1.851 1.851 0 00-.414-.668c-.194-.205-.48-.308-.858-.308zm-3.16-2.178h2.177l.267.101c.177.067.266.306.266.716 0 .402-.067.659-.201.77a.705.705 0 01-.462.165H5.728V7.396zm2.07 5.042h-2.07v-2.083h2.177l.397.13c.264.087.396.399.396.935 0 .466-.11.752-.331.858-.221.107-.41.16-.568.16zM13.48 8c-.718 0-1.274.156-1.668.467-.395.312-.68.655-.858 1.03-.178.375-.282.72-.314 1.036l-.047.473.017.467c.012.312.103.655.273 1.03.17.375.451.718.846 1.03.394.311.978.467 1.751.467l.403-.012c.268-.008.564-.07.887-.19.324-.118.618-.32.882-.609.264-.288.396-.712.396-1.272h-1.313l-.136.42c-.091.28-.448.42-1.071.42l-.663-.136c-.442-.09-.663-.499-.663-1.225h3.894l.017-.532a3.532 3.532 0 00-.183-1.172c-.134-.426-.385-.814-.751-1.165C14.81 8.176 14.245 8 13.479 8zm1.184 2.355h-2.474l.225-.604c.15-.402.517-.603 1.1-.603.577 0 .912.201 1.007.603l.142.604zm.307-3.893h-3.1v.97h3.1v-.97z" fill="#4A4A4A"/></g></svg>