<svg width="22" height="22" xmlns="http://www.w3.org/2000/svg"><g transform="translate(1 1)" fill="none" fill-rule="evenodd"><circle stroke="#4A4A4A" cx="10" cy="10" r="10"/><path d="M10 8.302c-.233-.436-.466-.849-.699-1.238-.233-.389-.443-.733-.632-1.032a19.46 19.46 0 00-.47-.719c-.126-.18-.197-.285-.215-.313-.376.19-.726.422-1.049.698a5.935 5.935 0 00-.873.925c-.26.341-.48.714-.659 1.117C5.224 8.144 5.09 8.563 5 9l.477-.007c.282-.005.65-.026 1.102-.064a18.87 18.87 0 001.56-.207c.586-.1 1.207-.24 1.861-.42zm.785 1.56l.107-.024.108-.024c-.072-.141-.143-.28-.215-.413A9.125 9.125 0 0010.556 9c-.7.18-1.377.319-2.031.413-.655.094-1.24.161-1.756.2-.516.04-.933.062-1.251.065A4.867 4.867 0 015 9.673v.153c0 .614.123 1.192.37 1.734A4.686 4.686 0 006.386 13l.275-.372c.184-.247.46-.542.828-.885a9.66 9.66 0 011.372-1.038 7.317 7.317 0 011.924-.844zm-3.67 4.227l-.032-.025A3.47 3.47 0 007 14a.296.296 0 00.057.045c.022.012.04.027.058.044zM9.013 5H9 9.013zM14 6.22a5.973 5.973 0 00-1.683-.89A6.06 6.06 0 0010.316 5c-.231 0-.455.012-.672.037A8.438 8.438 0 009 5.134c.018.025.095.116.229.275.133.158.297.365.491.621.194.257.411.553.651.89.24.338.48.698.72 1.08 1.044-.35 1.787-.73 2.23-1.14.444-.41.67-.624.679-.64zM10 16a5.822 5.822 0 01-2.338-.471 6.08 6.08 0 01-1.904-1.287 6.08 6.08 0 01-1.287-1.904A5.822 5.822 0 014 10c0-.824.157-1.6.471-2.331a6.06 6.06 0 011.287-1.911 6.08 6.08 0 011.904-1.287A5.822 5.822 0 0110 4c.832 0 1.611.157 2.338.471a6.08 6.08 0 011.904 1.287 6.06 6.06 0 011.287 1.91C15.843 8.4 16 9.177 16 10c0 .832-.157 1.611-.471 2.338a6.08 6.08 0 01-1.287 1.904 6.08 6.08 0 01-1.904 1.287A5.822 5.822 0 0110 16zm.899-4.988c-.727.245-1.337.536-1.832.872a8.092 8.092 0 00-1.2.968c-.306.308-.527.573-.663.795A5.126 5.126 0 007 13.99 5.053 5.053 0 0010.057 15 5.279 5.279 0 0012 14.632a8.308 8.308 0 00-.099-.504 19.534 19.534 0 00-.514-1.881A20.06 20.06 0 0010.936 11c-.009 0-.015.002-.019.006s-.01.006-.018.006zM11 8.9a8.702 8.702 0 01.33.694c.026.04.047.081.064.125l.05.126c.44-.056.87-.078 1.29-.066.418.012.795.034 1.13.066.334.031.605.065.812.101.208.036.316.054.324.054a4.553 4.553 0 00-.317-1.62A4.707 4.707 0 0013.844 7c-.008.008-.232.23-.673.663-.44.435-1.164.847-2.171 1.237zm1 1.21a25.094 25.094 0 01.86 3.422c.04.23.068.387.084.468.271-.208.52-.445.747-.712a5.614 5.614 0 001.046-1.85c.12-.352.207-.718.263-1.097a22.063 22.063 0 00-.95-.238c-.586-.14-1.27-.137-2.05.007z" fill="#4A4A4A"/></g></svg>