<svg width="22" height="22" xmlns="http://www.w3.org/2000/svg"><g transform="translate(1 1)" fill="none" fill-rule="evenodd"><circle stroke="#4A4A4A" cx="10" cy="10" r="10"/><path d="M12.076 11.16c-.237 0-.44.114-.605.343-.165.23-.248.505-.248.828 0 .323.083.601.248.835.166.233.368.35.605.35.23 0 .427-.117.593-.35.165-.234.248-.512.248-.835 0-.323-.083-.599-.248-.828-.166-.23-.363-.344-.593-.344zm2.956-3.058c.042-.119.047-.467.013-1.045-.034-.577-.179-1.189-.434-1.834l-.815.216c-.543.145-1.261.523-2.153 1.134a4.209 4.209 0 00-.726-.114 10.74 10.74 0 00-1.834 0c-.297.025-.54.063-.726.114-.892-.611-1.61-.99-2.153-1.134l-.815-.216c-.255.645-.4 1.257-.434 1.834-.034.578-.025.926.026 1.045-.306.331-.546.7-.72 1.108-.174.408-.261.883-.261 1.427 0 1.172.208 2.078.624 2.72.416.64.898 1.112 1.446 1.414.548.301 1.09.48 1.624.535.535.055.926.083 1.172.083.11 0 .27.002.478.006a32.209 32.209 0 001.318 0c.204-.004.361-.006.472-.006.246 0 .637-.028 1.172-.083.535-.055 1.076-.234 1.624-.535.548-.302 1.03-.773 1.446-1.414.416-.642.624-1.548.624-2.72 0-.544-.087-1.02-.261-1.427a4.002 4.002 0 00-.707-1.108zm-5.02 6.713h-.025c-.62 0-1.195-.027-1.726-.083a4.265 4.265 0 01-1.388-.363 2.186 2.186 0 01-.93-.808c-.225-.353-.338-.826-.338-1.42 0-.29.053-.566.16-.829.105-.263.282-.505.528-.726.4-.365.921-.514 1.567-.446a20.42 20.42 0 002.127.102H10.013c.773 0 1.482-.034 2.127-.102.646-.068 1.168.08 1.567.446.246.22.423.463.529.726.106.263.159.54.159.828 0 .595-.113 1.068-.338 1.42a2.186 2.186 0 01-.93.81 4.265 4.265 0 01-1.388.362c-.53.056-1.106.083-1.726.083zM7.925 11.16c-.23 0-.427.115-.593.344-.165.23-.248.505-.248.828 0 .323.083.601.248.835.166.233.363.35.593.35.237 0 .44-.117.605-.35.165-.234.248-.512.248-.835 0-.323-.083-.599-.248-.828-.166-.23-.368-.344-.605-.344z" fill="#4A4A4A"/></g></svg>