<svg width="22" height="22" viewBox="0 0 22 22" fill="none" xmlns="http://www.w3.org/2000/svg">
<path d="M11 21C16.5228 21 21 16.5228 21 11C21 5.47715 16.5228 1 11 1C5.47715 1 1 5.47715 1 11C1 16.5228 5.47715 21 11 21Z" stroke="#4A4A4A"/>
<path d="M8.9918 9.09836H7.14754V15H8.9918V9.09836ZM9.15779 7.06967C9.15876 6.93017 9.13224 6.79184 9.07975 6.66258C9.02727 6.53333 8.94983 6.41568 8.85187 6.31635C8.75391 6.21702 8.63735 6.13796 8.50883 6.08368C8.38032 6.0294 8.24237 6.00097 8.10287 6H8.06967C7.78598 6 7.5139 6.1127 7.3133 6.3133C7.1127 6.5139 7 6.78598 7 7.06967C7 7.35337 7.1127 7.62544 7.3133 7.82604C7.5139 8.02665 7.78598 8.13934 8.06967 8.13934C8.20919 8.14278 8.34801 8.11869 8.47821 8.06845C8.60841 8.01821 8.72743 7.94281 8.82848 7.84656C8.92953 7.7503 9.01062 7.63508 9.06713 7.50748C9.12363 7.37987 9.15444 7.24238 9.15779 7.10287V7.06967ZM16 11.4148C16 9.64057 14.8713 8.95082 13.75 8.95082C13.3829 8.93244 13.0173 9.01063 12.6898 9.17761C12.3623 9.34459 12.0844 9.59452 11.8836 9.90246H11.832V9.09836H10.0984V15H11.9426V11.8611C11.916 11.5396 12.0172 11.2206 12.2244 10.9733C12.4316 10.7261 12.728 10.5706 13.0492 10.5406H13.1193C13.7057 10.5406 14.141 10.9094 14.141 11.8389V15H15.9852L16 11.4148Z" fill="#4A4A4A"/>
</svg>
