<svg width="22" height="22" xmlns="http://www.w3.org/2000/svg"><g transform="translate(1 1)" fill="none" fill-rule="evenodd"><circle stroke="#4A4A4A" cx="10" cy="10" r="10"/><path d="M13.093 14.459c-.212.099-.414.184-.605.254-.19.071-.371.128-.541.17-.17.043-.349.073-.536.09a6.16 6.16 0 01-.579.027 4.51 4.51 0 01-.637-.042 2.904 2.904 0 01-1.04-.334 1.957 1.957 0 01-.403-.293 1.976 1.976 0 01-.319-.329 1.312 1.312 0 01-.191-.35 1.855 1.855 0 01-.111-.44 4.286 4.286 0 01-.038-.6V9.097H7V7.686c.198-.064.38-.142.547-.234.166-.092.316-.198.45-.318a2.628 2.628 0 00.67-.86c.085-.163.155-.35.212-.563.057-.212.103-.45.138-.711h1.401v2.527h2.346v1.57h-2.346v2.57c0 .29.007.527.021.71.015.185.04.32.075.404.028.085.07.16.127.223a.95.95 0 00.202.17c.113.064.232.113.356.149.123.035.256.053.398.053.247 0 .497-.04.748-.122.251-.082.5-.207.748-.377v1.582z" fill="#4A4A4A"/></g></svg>