<svg width="22" height="22" viewBox="0 0 22 22" fill="none" xmlns="http://www.w3.org/2000/svg">
<path d="M11 21C16.5228 21 21 16.5228 21 11C21 5.47715 16.5228 1 11 1C5.47715 1 1 5.47715 1 11C1 16.5228 5.47715 21 11 21Z" stroke="#4A4A4A"/>
<path d="M17 8.06547C16.5953 8.24636 16.1603 8.36818 15.7038 8.42309C16.17 8.14207 16.5279 7.69678 16.6961 7.16612C16.2603 7.42637 15.7772 7.61557 15.2629 7.71755C14.8518 7.27594 14.2647 7 13.6157 7C12.1586 7 11.088 8.36864 11.417 9.78943C9.542 9.69483 7.87917 8.7904 6.76588 7.41576C6.17463 8.43694 6.45925 9.77282 7.46392 10.4493C7.0945 10.4373 6.74617 10.3353 6.44229 10.165C6.41754 11.2176 7.16692 12.2023 8.25225 12.4215C7.93463 12.5083 7.58675 12.5286 7.23292 12.4603C7.51983 13.3628 8.35308 14.0195 9.34125 14.0379C8.3925 14.7869 7.19717 15.1214 6 14.9793C6.99871 15.6239 8.18533 16 9.4595 16C13.6496 16 16.0169 12.4372 15.8739 9.24169C16.3148 8.92099 16.6975 8.52092 17 8.06547V8.06547Z" fill="#4A4A4A"/>
</svg>
