<svg width="2880" height="720" viewBox="0 0 2880 720" fill="none" xmlns="http://www.w3.org/2000/svg">
<rect width="720" height="720" fill="#E8E9F3"/>
<path fill-rule="evenodd" clip-rule="evenodd" d="M498 269C498 260.716 491.284 254 483 254H172C163.716 254 157 260.716 157 269V329C157 337.284 163.716 344 172 344H217C225.284 344 232 350.716 232 359V390C232 398.284 238.716 405 247 405H302C310.284 405 317 411.716 317 420V451C317 459.284 323.716 466 332 466H547C555.284 466 562 459.284 562 451V391C562 382.716 555.284 376 547 376H473C464.716 376 458 369.284 458 361V359C458 350.716 464.716 344 473 344H483C491.284 344 498 337.284 498 329V269Z" fill="#87BF86"/>
<path d="M172 256.5H483V251.5H172V256.5ZM159.5 329V269H154.5V329H159.5ZM217 341.5H172V346.5H217V341.5ZM229.5 359V390H234.5V359H229.5ZM247 407.5H302V402.5H247V407.5ZM314.5 420V451H319.5V420H314.5ZM332 468.5H547V463.5H332V468.5ZM564.5 451V391H559.5V451H564.5ZM547 373.5H473V378.5H547V373.5ZM460.5 361V359H455.5V361H460.5ZM483 341.5H473V346.5H483V341.5ZM495.5 269V329H500.5V269H495.5ZM483 346.5C492.665 346.5 500.5 338.665 500.5 329H495.5C495.5 335.904 489.904 341.5 483 341.5V346.5ZM460.5 359C460.5 352.096 466.096 346.5 473 346.5V341.5C463.335 341.5 455.5 349.335 455.5 359H460.5ZM473 373.5C466.096 373.5 460.5 367.904 460.5 361H455.5C455.5 370.665 463.335 378.5 473 378.5V373.5ZM564.5 391C564.5 381.335 556.665 373.5 547 373.5V378.5C553.904 378.5 559.5 384.096 559.5 391H564.5ZM547 468.5C556.665 468.5 564.5 460.665 564.5 451H559.5C559.5 457.904 553.904 463.5 547 463.5V468.5ZM314.5 451C314.5 460.665 322.335 468.5 332 468.5V463.5C325.096 463.5 319.5 457.904 319.5 451H314.5ZM302 407.5C308.904 407.5 314.5 413.096 314.5 420H319.5C319.5 410.335 311.665 402.5 302 402.5V407.5ZM229.5 390C229.5 399.665 237.335 407.5 247 407.5V402.5C240.096 402.5 234.5 396.904 234.5 390H229.5ZM217 346.5C223.904 346.5 229.5 352.096 229.5 359H234.5C234.5 349.335 226.665 341.5 217 341.5V346.5ZM154.5 329C154.5 338.665 162.335 346.5 172 346.5V341.5C165.096 341.5 159.5 335.904 159.5 329H154.5ZM483 256.5C489.904 256.5 495.5 262.096 495.5 269H500.5C500.5 259.335 492.665 251.5 483 251.5V256.5ZM172 251.5C162.335 251.5 154.5 259.335 154.5 269H159.5C159.5 262.096 165.096 256.5 172 256.5V251.5Z" fill="black"/>
<path d="M209.46 277.8H177.66V282.9H177.72V283.14H190.86V321H196.2V283.14H209.46V277.8ZM230.025 289.68C226.125 289.68 222.525 291.54 220.125 294.84V277.8H214.785V321H220.125V302.58C220.125 298.44 223.545 294.9 227.805 294.9C232.005 294.9 235.425 298.38 235.425 302.58V321H240.765V302.58C240.765 294.66 235.905 289.68 230.025 289.68ZM262.61 321.36H262.67C271.19 321.36 277.55 314.28 277.55 305.52C277.55 296.76 271.19 289.68 262.67 289.68H262.61C254.09 289.68 247.73 296.76 247.73 305.52C247.73 314.28 254.09 321.36 262.61 321.36ZM262.61 316.02C257.03 316.02 253.07 311.34 253.07 305.52C253.07 299.7 257.03 295.08 262.61 295.02H262.67C268.25 295.02 272.21 299.88 272.21 305.52C272.21 311.34 268.25 316.02 262.67 316.02H262.61ZM309.953 290.04H304.613V308.46C304.613 312.6 301.193 316.14 296.933 316.14C292.733 316.14 289.313 312.66 289.313 308.46V290.04H283.973V308.46C283.973 316.32 288.833 321.36 294.713 321.36C298.553 321.36 302.153 319.5 304.613 316.2V321H309.953V290.04ZM347.517 290.04H342.177V295.26C339.777 291.84 336.117 289.68 331.617 289.68C324.357 289.68 318.237 296.64 318.237 305.52C318.237 314.4 324.357 321.36 331.617 321.36C336.117 321.36 339.777 319.26 342.177 315.84V319.74C342.177 326.1 338.157 330.6 332.457 330.6C326.997 330.6 323.277 327.18 322.917 323.82H317.337C317.757 329.58 323.457 335.76 332.337 335.76C341.217 335.76 347.517 329.04 347.517 319.86V290.04ZM333.177 316.14C327.357 316.14 323.577 311.52 323.577 305.52C323.577 299.58 327.357 294.96 333.177 294.96C338.817 294.96 342.177 299.58 342.177 305.52C342.177 311.46 338.817 316.14 333.177 316.14ZM371.881 289.68C367.981 289.68 364.381 291.54 361.981 294.84V277.8H356.641V321H361.981V302.58C361.981 298.44 365.401 294.9 369.661 294.9C373.861 294.9 377.281 298.38 377.281 302.58V321H382.621V302.58C382.621 294.66 377.761 289.68 371.881 289.68ZM402.378 316.26C400.038 316.26 398.238 315.3 398.238 312.54V294.66H406.758V290.04H398.238V281.34H392.898V290.04H387.618V294.66H392.898V312.72C392.898 318.12 396.858 321.36 401.838 321.36C404.058 321.36 406.038 320.22 406.818 319.92V314.88C406.338 315.24 404.358 316.26 402.378 316.26ZM424.401 282.54C425.961 282.54 427.341 282.9 428.361 283.44V278.46C427.221 277.86 425.421 277.44 423.801 277.44C418.881 277.44 414.861 281.16 414.861 286.5V290.04H409.941V294.66H414.861V321H420.201V294.66H428.361V290.04H420.201V286.62C420.201 283.92 422.121 282.54 424.401 282.54ZM458.547 290.04H453.207V308.46C453.207 312.6 449.787 316.14 445.527 316.14C441.327 316.14 437.907 312.66 437.907 308.46V290.04H432.567V308.46C432.567 316.32 437.427 321.36 443.307 321.36C447.147 321.36 450.747 319.5 453.207 316.2V321H458.547V290.04ZM473.309 277.8H467.969V321H473.309V277.8Z" fill="black"/>
<path d="M272.28 338.8H257.1V382H272.28C283.5 382 293.82 373.42 293.82 360.4C293.82 347.38 283.44 338.8 272.28 338.8ZM272.28 376.66H262.44V344.14H272.28C281.22 344.14 288.54 351.4 288.54 360.4C288.54 369.4 281.22 376.66 272.28 376.66ZM304.268 338.02C301.988 338.02 300.188 339.82 300.188 342.1C300.188 344.38 301.988 346.18 304.268 346.18C306.548 346.18 308.348 344.38 308.348 342.1C308.348 339.82 306.548 338.02 304.268 338.02ZM306.848 351.04H301.508V382H306.848V351.04ZM344.646 351.04H339.306V356.26C336.906 352.84 333.246 350.68 328.746 350.68C321.486 350.68 315.366 357.64 315.366 366.52C315.366 375.4 321.486 382.36 328.746 382.36C333.246 382.36 336.906 380.26 339.306 376.84V380.74C339.306 387.1 335.286 391.6 329.586 391.6C324.126 391.6 320.406 388.18 320.046 384.82H314.466C314.886 390.58 320.586 396.76 329.466 396.76C338.346 396.76 344.646 390.04 344.646 380.86V351.04ZM330.306 377.14C324.486 377.14 320.706 372.52 320.706 366.52C320.706 360.58 324.486 355.96 330.306 355.96C335.946 355.96 339.306 360.58 339.306 366.52C339.306 372.46 335.946 377.14 330.306 377.14ZM356.71 338.02C354.43 338.02 352.63 339.82 352.63 342.1C352.63 344.38 354.43 346.18 356.71 346.18C358.99 346.18 360.79 344.38 360.79 342.1C360.79 339.82 358.99 338.02 356.71 338.02ZM359.29 351.04H353.95V382H359.29V351.04ZM380.464 377.26C378.124 377.26 376.324 376.3 376.324 373.54V355.66H384.844V351.04H376.324V342.34H370.984V351.04H365.704V355.66H370.984V373.72C370.984 379.12 374.944 382.36 379.924 382.36C382.144 382.36 384.124 381.22 384.904 380.92V375.88C384.424 376.24 382.444 377.26 380.464 377.26ZM412.881 351.04V356.32C410.601 352.84 406.941 350.68 402.081 350.68H402.021C394.761 350.68 388.941 357.64 388.941 366.52C388.941 375.52 394.761 382.36 402.021 382.36H402.081C406.941 382.36 410.601 380.2 412.881 376.72C412.881 377.8 412.881 379.48 412.881 382H418.221V377.62V377.5C418.221 372.7 418.221 370.78 418.221 365.98V355.54V351.04H412.881ZM403.881 377.14H403.821C397.941 377.14 394.281 372.76 394.281 366.52C394.281 360.4 397.881 355.9 403.821 355.9H403.881C409.221 355.9 412.881 360.58 412.881 366.52C412.881 372.46 409.221 377.14 403.881 377.14ZM432.821 338.8H427.481V382H432.821V338.8Z" fill="black"/>
<path d="M386.32 399.8H379.96L364.24 436.64L348.46 399.8H342.1V443H347.44V410.54L361.54 443H367.06L380.98 410.66V443H386.32V399.8ZM417.725 412.04V417.32C415.445 413.84 411.785 411.68 406.925 411.68H406.865C399.605 411.68 393.785 418.64 393.785 427.52C393.785 436.52 399.605 443.36 406.865 443.36H406.925C411.785 443.36 415.445 441.2 417.725 437.72C417.725 438.8 417.725 440.48 417.725 443H423.065V438.62V438.5C423.065 433.7 423.065 431.78 423.065 426.98V416.54V412.04H417.725ZM408.725 438.14H408.665C402.785 438.14 399.125 433.76 399.125 427.52C399.125 421.4 402.725 416.9 408.665 416.9H408.725C414.065 416.9 417.725 421.58 417.725 427.52C417.725 433.46 414.065 438.14 408.725 438.14ZM458.065 440.78L446.725 424.52C451.345 419.6 456.265 414.38 458.545 412.04H451.525C451.405 412.16 442.585 421.52 437.665 426.8V399.8H432.325V443H437.665V434.24C438.805 433.04 440.785 430.88 443.125 428.36L453.325 443H459.565L458.065 440.78ZM466.393 429.26H489.973C490.033 428.6 490.093 427.82 490.093 427.04C490.093 418.7 484.033 411.68 475.633 411.68C467.113 411.68 460.933 418.7 460.933 427.52C460.933 436.46 466.933 443.36 475.873 443.36C485.293 443.36 489.193 435.8 489.553 433.22H483.973C483.493 434.84 480.913 438.26 475.873 438.26C470.233 438.26 466.933 434.48 466.393 429.26ZM475.633 416.78C480.673 416.78 483.913 420.32 484.693 424.88H466.513C467.413 420.2 470.713 416.78 475.633 416.78ZM509.98 411.68C506.5 411.68 503.86 413.6 502.06 416.42V412.04H496.72V443H502.06V425.66C502.06 419.6 505.78 416.9 510.1 416.9C510.76 416.9 512.56 416.96 512.98 417.08V411.86C512.38 411.8 511.3 411.68 509.98 411.68ZM521.332 432.92H516.292C516.292 437.6 520.132 443.36 527.632 443.36C534.592 443.36 538.792 439.22 538.792 434C538.792 429.62 535.912 426.32 529.912 425L526.312 424.22C523.612 423.62 522.292 422.54 522.292 420.38C522.292 418.16 524.452 416.54 527.572 416.54C529.132 416.54 530.392 417.08 531.292 417.92C532.372 418.88 532.912 420.2 532.912 421.46H538.072C538.072 416.96 534.112 411.74 527.632 411.68C521.272 411.62 517.012 415.7 517.012 420.44C517.012 425.66 520.672 427.88 524.512 428.78L527.872 429.56C531.772 430.46 533.512 431.54 533.512 434.06C533.512 436.52 531.352 438.5 527.632 438.5C525.892 438.5 524.392 437.9 523.312 436.94C522.052 435.92 521.332 434.42 521.332 432.92Z" fill="black"/>
<rect width="720" height="720" transform="translate(720)" fill="#E8E9F3"/>
<path fill-rule="evenodd" clip-rule="evenodd" d="M1238 299C1238 290.716 1231.28 284 1223 284H1006C997.716 284 991 290.716 991 299V330C991 338.284 984.284 345 976 345H937C928.716 345 922 351.716 922 360V420C922 428.284 928.716 435 937 435H1169C1177.28 435 1184 428.284 1184 420V389C1184 380.716 1190.72 374 1199 374H1223C1231.28 374 1238 367.284 1238 359V299Z" fill="#FFF170"/>
<path d="M1006 286.5H1223V281.5H1006V286.5ZM993.5 330V299H988.5V330H993.5ZM937 347.5H976V342.5H937V347.5ZM924.5 420V360H919.5V420H924.5ZM1169 432.5H937V437.5H1169V432.5ZM1181.5 389V420H1186.5V389H1181.5ZM1223 371.5H1199V376.5H1223V371.5ZM1235.5 299V359H1240.5V299H1235.5ZM1223 376.5C1232.66 376.5 1240.5 368.665 1240.5 359H1235.5C1235.5 365.904 1229.9 371.5 1223 371.5V376.5ZM1186.5 389C1186.5 382.096 1192.1 376.5 1199 376.5V371.5C1189.34 371.5 1181.5 379.335 1181.5 389H1186.5ZM1169 437.5C1178.66 437.5 1186.5 429.665 1186.5 420H1181.5C1181.5 426.904 1175.9 432.5 1169 432.5V437.5ZM919.5 420C919.5 429.665 927.335 437.5 937 437.5V432.5C930.096 432.5 924.5 426.904 924.5 420H919.5ZM937 342.5C927.335 342.5 919.5 350.335 919.5 360H924.5C924.5 353.096 930.096 347.5 937 347.5V342.5ZM988.5 330C988.5 336.904 982.904 342.5 976 342.5V347.5C985.665 347.5 993.5 339.665 993.5 330H988.5ZM1223 286.5C1229.9 286.5 1235.5 292.096 1235.5 299H1240.5C1240.5 289.335 1232.66 281.5 1223 281.5V286.5ZM1006 281.5C996.335 281.5 988.5 289.335 988.5 299H993.5C993.5 292.096 999.096 286.5 1006 286.5V281.5Z" fill="black"/>
<path d="M1012.98 336.12L1037.82 349.2V343.74L1018.26 333.42L1037.82 323.1V317.64L1012.98 330.72V336.12ZM1061.66 319.68H1061.6C1057.1 319.68 1053.44 321.84 1051.04 325.2V307.8H1045.7V351H1051.04V345.96C1053.44 349.26 1057.1 351.36 1061.6 351.36H1061.66C1068.92 351.3 1074.98 344.4 1074.98 335.52C1074.98 326.7 1068.92 319.68 1061.66 319.68ZM1060.1 346.14H1060.04C1054.4 346.14 1051.04 341.46 1051.04 335.52C1051.04 329.58 1054.4 324.96 1060.04 324.96H1060.1C1065.8 324.96 1069.64 329.58 1069.64 335.52C1069.64 341.46 1065.74 346.08 1060.1 346.14ZM1095.52 351.36H1095.58C1104.1 351.36 1110.46 344.28 1110.46 335.52C1110.46 326.76 1104.1 319.68 1095.58 319.68H1095.52C1087 319.68 1080.64 326.76 1080.64 335.52C1080.64 344.28 1087 351.36 1095.52 351.36ZM1095.52 346.02C1089.94 346.02 1085.98 341.34 1085.98 335.52C1085.98 329.7 1089.94 325.08 1095.52 325.02H1095.58C1101.16 325.02 1105.12 329.88 1105.12 335.52C1105.12 341.34 1101.16 346.02 1095.58 346.02H1095.52ZM1145.36 307.8H1140.02V325.2C1137.62 321.84 1133.96 319.68 1129.46 319.68C1122.2 319.68 1116.08 326.64 1116.08 335.52C1116.08 344.4 1122.2 351.36 1129.46 351.36C1133.96 351.36 1137.62 349.26 1140.02 345.96V351H1145.36V307.8ZM1131.02 346.14C1125.38 346.14 1121.42 341.46 1121.42 335.52C1121.42 329.58 1125.38 324.96 1131.02 324.96C1136.66 324.96 1140.02 329.58 1140.02 335.52C1140.02 341.46 1136.66 346.14 1131.02 346.14ZM1179 320.04H1173.66V338.46C1173.66 342.6 1170.24 346.14 1165.98 346.14C1161.72 346.14 1158.36 342.66 1158.36 338.46V320.04H1153.02V338.82C1153.02 345.72 1157.52 351.36 1163.7 351.36C1167.78 351.36 1171.26 349.5 1173.66 346.2V349.86C1173.66 356.04 1170.42 360.6 1164.72 360.6C1159.5 360.6 1156.44 357.06 1156.02 353.82H1150.44C1150.92 359.22 1155.96 365.76 1164.66 365.76C1173.42 365.76 1179 359.1 1179 349.98V320.04ZM1209.99 330.72L1185.15 317.64V323.16L1204.65 333.42L1185.15 343.74V349.2L1209.99 336.12V330.72Z" fill="black"/>
<path d="M970.86 389.62C974.22 387.7 976.26 384.28 976.26 380.26C976.26 373.96 970.62 368.8 964.08 368.8H947.1V412H965.82C972.18 412 977.94 406.84 977.94 400.54C977.94 395.86 975.24 391.48 970.86 389.62ZM964.08 374.14C967.86 374.14 970.92 377.14 970.92 380.86C970.92 384.22 967.92 387.28 964.08 387.28H952.44V374.14H964.08ZM965.82 406.66H952.44V392.62H965.82C969.54 392.62 972.6 396.1 972.6 399.88C972.6 403.66 969.54 406.66 965.82 406.66ZM1010.27 381.04H1004.93V399.46C1004.93 403.6 1001.51 407.14 997.246 407.14C993.046 407.14 989.626 403.66 989.626 399.46V381.04H984.286V399.46C984.286 407.32 989.146 412.36 995.026 412.36C998.866 412.36 1002.47 410.5 1004.93 407.2V412H1010.27V381.04ZM1022.63 368.02C1020.35 368.02 1018.55 369.82 1018.55 372.1C1018.55 374.38 1020.35 376.18 1022.63 376.18C1024.91 376.18 1026.71 374.38 1026.71 372.1C1026.71 369.82 1024.91 368.02 1022.63 368.02ZM1025.21 381.04H1019.87V412H1025.21V381.04ZM1040.32 368.8H1034.98V412H1040.32V368.8ZM1076.64 368.8H1071.3V386.2C1068.9 382.84 1065.24 380.68 1060.74 380.68C1053.48 380.68 1047.36 387.64 1047.36 396.52C1047.36 405.4 1053.48 412.36 1060.74 412.36C1065.24 412.36 1068.9 410.26 1071.3 406.96V412H1076.64V368.8ZM1062.3 407.14C1056.66 407.14 1052.7 402.46 1052.7 396.52C1052.7 390.58 1056.66 385.96 1062.3 385.96C1067.94 385.96 1071.3 390.58 1071.3 396.52C1071.3 402.46 1067.94 407.14 1062.3 407.14ZM1089.15 398.26H1112.73C1112.79 397.6 1112.85 396.82 1112.85 396.04C1112.85 387.7 1106.79 380.68 1098.39 380.68C1089.87 380.68 1083.69 387.7 1083.69 396.52C1083.69 405.46 1089.69 412.36 1098.63 412.36C1108.05 412.36 1111.95 404.8 1112.31 402.22H1106.73C1106.25 403.84 1103.67 407.26 1098.63 407.26C1092.99 407.26 1089.69 403.48 1089.15 398.26ZM1098.39 385.78C1103.43 385.78 1106.67 389.32 1107.45 393.88H1089.27C1090.17 389.2 1093.47 385.78 1098.39 385.78ZM1132.73 380.68C1129.25 380.68 1126.61 382.6 1124.81 385.42V381.04H1119.47V412H1124.81V394.66C1124.81 388.6 1128.53 385.9 1132.85 385.9C1133.51 385.9 1135.31 385.96 1135.73 386.08V380.86C1135.13 380.8 1134.05 380.68 1132.73 380.68ZM1144.09 401.92H1139.05C1139.05 406.6 1142.89 412.36 1150.39 412.36C1157.35 412.36 1161.55 408.22 1161.55 403C1161.55 398.62 1158.67 395.32 1152.67 394L1149.07 393.22C1146.37 392.62 1145.05 391.54 1145.05 389.38C1145.05 387.16 1147.21 385.54 1150.33 385.54C1151.89 385.54 1153.15 386.08 1154.05 386.92C1155.13 387.88 1155.67 389.2 1155.67 390.46H1160.83C1160.83 385.96 1156.87 380.74 1150.39 380.68C1144.03 380.62 1139.77 384.7 1139.77 389.44C1139.77 394.66 1143.43 396.88 1147.27 397.78L1150.63 398.56C1154.53 399.46 1156.27 400.54 1156.27 403.06C1156.27 405.52 1154.11 407.5 1150.39 407.5C1148.65 407.5 1147.15 406.9 1146.07 405.94C1144.81 404.92 1144.09 403.42 1144.09 401.92Z" fill="black"/>
<g clip-path="url(#clip0_0_3)">
<rect width="720" height="720" transform="translate(1440)" fill="#E8E9F3"/>
<path fill-rule="evenodd" clip-rule="evenodd" d="M1897 151C1897 142.716 1890.28 136 1882 136H1555C1546.72 136 1540 142.716 1540 151V211C1540 219.284 1546.72 226 1555 226H1752C1760.28 226 1767 232.716 1767 241V243C1767 251.284 1760.28 258 1752 258H1713C1704.72 258 1698 264.716 1698 273V333C1698 341.284 1704.72 348 1713 348H1790C1798.28 348 1805 354.716 1805 363V365C1805 373.284 1798.28 380 1790 380H1510C1501.72 380 1495 386.716 1495 395V455C1495 463.284 1501.72 470 1510 470H1754C1762.28 470 1769 476.716 1769 485V516C1769 524.284 1775.72 531 1784 531H1889C1897.28 531 1904 537.716 1904 546V577C1904 585.284 1910.72 592 1919 592H1981C1989.28 592 1996 598.716 1996 607V655C1996 663.284 2002.72 670 2011 670H2061C2069.28 670 2076 676.716 2076 685V716C2076 724.284 2082.72 731 2091 731H2285C2293.28 731 2300 724.284 2300 716V656C2300 647.716 2293.28 641 2285 641H2181C2172.72 641 2166 634.284 2166 626V607C2166 598.716 2172.72 592 2181 592H2511C2519.28 592 2526 585.284 2526 577V517C2526 508.716 2519.28 502 2511 502H2144C2135.72 502 2129 495.284 2129 487V456C2129 447.716 2122.28 441 2114 441H2014C2005.72 441 1999 434.284 1999 426V424C1999 415.716 2005.72 409 2014 409H2077C2085.28 409 2092 402.284 2092 394V334C2092 325.716 2085.28 319 2077 319H1941C1932.72 319 1926 312.284 1926 304V302C1926 293.716 1932.72 287 1941 287H2026C2034.28 287 2041 280.284 2041 272V212C2041 203.716 2034.28 197 2026 197H1912C1903.72 197 1897 190.284 1897 182V151Z" fill="#FF9B71"/>
<path d="M1555 138.5H1882V133.5H1555V138.5ZM1542.5 211V151H1537.5V211H1542.5ZM1752 223.5H1555V228.5H1752V223.5ZM1764.5 241V243H1769.5V241H1764.5ZM1752 255.5H1713V260.5H1752V255.5ZM1695.5 273V333H1700.5V273H1695.5ZM1713 350.5H1790V345.5H1713V350.5ZM1802.5 363V365H1807.5V363H1802.5ZM1790 377.5H1510V382.5H1790V377.5ZM1492.5 395V455H1497.5V395H1492.5ZM1510 472.5H1754V467.5H1510V472.5ZM1766.5 485V516H1771.5V485H1766.5ZM1784 533.5H1889V528.5H1784V533.5ZM1901.5 546V577H1906.5V546H1901.5ZM1919 594.5H1981V589.5H1919V594.5ZM1993.5 607V655H1998.5V607H1993.5ZM2011 672.5H2061V667.5H2011V672.5ZM2073.5 685V716H2078.5V685H2073.5ZM2091 733.5H2285V728.5H2091V733.5ZM2302.5 716V656H2297.5V716H2302.5ZM2285 638.5H2181V643.5H2285V638.5ZM2168.5 626V607H2163.5V626H2168.5ZM2181 594.5H2511V589.5H2181V594.5ZM2528.5 577V517H2523.5V577H2528.5ZM2511 499.5H2144V504.5H2511V499.5ZM2131.5 487V456H2126.5V487H2131.5ZM2114 438.5H2014V443.5H2114V438.5ZM2001.5 426V424H1996.5V426H2001.5ZM2014 411.5H2077V406.5H2014V411.5ZM2094.5 394V334H2089.5V394H2094.5ZM2077 316.5H1941V321.5H2077V316.5ZM1928.5 304V302H1923.5V304H1928.5ZM1941 289.5H2026V284.5H1941V289.5ZM2043.5 272V212H2038.5V272H2043.5ZM2026 194.5H1912V199.5H2026V194.5ZM1894.5 151V182H1899.5V151H1894.5ZM1912 194.5C1905.1 194.5 1899.5 188.904 1899.5 182H1894.5C1894.5 191.665 1902.34 199.5 1912 199.5V194.5ZM2043.5 212C2043.5 202.335 2035.66 194.5 2026 194.5V199.5C2032.9 199.5 2038.5 205.096 2038.5 212H2043.5ZM2026 289.5C2035.66 289.5 2043.5 281.665 2043.5 272H2038.5C2038.5 278.904 2032.9 284.5 2026 284.5V289.5ZM1928.5 302C1928.5 295.096 1934.1 289.5 1941 289.5V284.5C1931.34 284.5 1923.5 292.335 1923.5 302H1928.5ZM1941 316.5C1934.1 316.5 1928.5 310.904 1928.5 304H1923.5C1923.5 313.665 1931.34 321.5 1941 321.5V316.5ZM2094.5 334C2094.5 324.335 2086.66 316.5 2077 316.5V321.5C2083.9 321.5 2089.5 327.096 2089.5 334H2094.5ZM2077 411.5C2086.66 411.5 2094.5 403.665 2094.5 394H2089.5C2089.5 400.904 2083.9 406.5 2077 406.5V411.5ZM2001.5 424C2001.5 417.096 2007.1 411.5 2014 411.5V406.5C2004.34 406.5 1996.5 414.335 1996.5 424H2001.5ZM2014 438.5C2007.1 438.5 2001.5 432.904 2001.5 426H1996.5C1996.5 435.665 2004.34 443.5 2014 443.5V438.5ZM2131.5 456C2131.5 446.335 2123.66 438.5 2114 438.5V443.5C2120.9 443.5 2126.5 449.096 2126.5 456H2131.5ZM2144 499.5C2137.1 499.5 2131.5 493.904 2131.5 487H2126.5C2126.5 496.665 2134.34 504.5 2144 504.5V499.5ZM2528.5 517C2528.5 507.335 2520.66 499.5 2511 499.5V504.5C2517.9 504.5 2523.5 510.096 2523.5 517H2528.5ZM2511 594.5C2520.66 594.5 2528.5 586.665 2528.5 577H2523.5C2523.5 583.904 2517.9 589.5 2511 589.5V594.5ZM2168.5 607C2168.5 600.096 2174.1 594.5 2181 594.5V589.5C2171.34 589.5 2163.5 597.335 2163.5 607H2168.5ZM2181 638.5C2174.1 638.5 2168.5 632.904 2168.5 626H2163.5C2163.5 635.665 2171.34 643.5 2181 643.5V638.5ZM2302.5 656C2302.5 646.335 2294.66 638.5 2285 638.5V643.5C2291.9 643.5 2297.5 649.096 2297.5 656H2302.5ZM2285 733.5C2294.66 733.5 2302.5 725.665 2302.5 716H2297.5C2297.5 722.904 2291.9 728.5 2285 728.5V733.5ZM2073.5 716C2073.5 725.665 2081.34 733.5 2091 733.5V728.5C2084.1 728.5 2078.5 722.904 2078.5 716H2073.5ZM2061 672.5C2067.9 672.5 2073.5 678.096 2073.5 685H2078.5C2078.5 675.335 2070.66 667.5 2061 667.5V672.5ZM1993.5 655C1993.5 664.665 2001.34 672.5 2011 672.5V667.5C2004.1 667.5 1998.5 661.904 1998.5 655H1993.5ZM1981 594.5C1987.9 594.5 1993.5 600.096 1993.5 607H1998.5C1998.5 597.335 1990.66 589.5 1981 589.5V594.5ZM1901.5 577C1901.5 586.665 1909.34 594.5 1919 594.5V589.5C1912.1 589.5 1906.5 583.904 1906.5 577H1901.5ZM1889 533.5C1895.9 533.5 1901.5 539.096 1901.5 546H1906.5C1906.5 536.335 1898.66 528.5 1889 528.5V533.5ZM1766.5 516C1766.5 525.665 1774.34 533.5 1784 533.5V528.5C1777.1 528.5 1771.5 522.904 1771.5 516H1766.5ZM1754 472.5C1760.9 472.5 1766.5 478.096 1766.5 485H1771.5C1771.5 475.335 1763.66 467.5 1754 467.5V472.5ZM1492.5 455C1492.5 464.665 1500.34 472.5 1510 472.5V467.5C1503.1 467.5 1497.5 461.904 1497.5 455H1492.5ZM1510 377.5C1500.34 377.5 1492.5 385.335 1492.5 395H1497.5C1497.5 388.096 1503.1 382.5 1510 382.5V377.5ZM1802.5 365C1802.5 371.904 1796.9 377.5 1790 377.5V382.5C1799.66 382.5 1807.5 374.665 1807.5 365H1802.5ZM1790 350.5C1796.9 350.5 1802.5 356.096 1802.5 363H1807.5C1807.5 353.335 1799.66 345.5 1790 345.5V350.5ZM1695.5 333C1695.5 342.665 1703.34 350.5 1713 350.5V345.5C1706.1 345.5 1700.5 339.904 1700.5 333H1695.5ZM1713 255.5C1703.34 255.5 1695.5 263.335 1695.5 273H1700.5C1700.5 266.096 1706.1 260.5 1713 260.5V255.5ZM1764.5 243C1764.5 249.904 1758.9 255.5 1752 255.5V260.5C1761.66 260.5 1769.5 252.665 1769.5 243H1764.5ZM1752 228.5C1758.9 228.5 1764.5 234.096 1764.5 241H1769.5C1769.5 231.335 1761.66 223.5 1752 223.5V228.5ZM1537.5 211C1537.5 220.665 1545.34 228.5 1555 228.5V223.5C1548.1 223.5 1542.5 217.904 1542.5 211H1537.5ZM1882 138.5C1888.9 138.5 1894.5 144.096 1894.5 151H1899.5C1899.5 141.335 1891.66 133.5 1882 133.5V138.5ZM1555 133.5C1545.34 133.5 1537.5 141.335 1537.5 151H1542.5C1542.5 144.096 1548.1 138.5 1555 138.5V133.5Z" fill="black"/>
<path d="M1831.76 239.28V234.42H1823.96L1826.06 225.06H1821.2L1819.1 234.42H1807.76L1809.86 225.06H1805L1802.9 234.42H1793.66V239.28H1801.82L1799.18 250.98H1790.36V255.84H1798.1L1796.24 264H1801.1L1802.96 255.84H1814.3L1812.44 264H1817.3L1819.16 255.84H1828.46V250.98H1820.24L1822.88 239.28H1831.76ZM1815.38 250.98H1804.04L1806.68 239.28H1818.02L1815.38 250.98ZM1867.26 220.8H1861.92V238.2C1859.52 234.84 1855.86 232.68 1851.36 232.68C1844.1 232.68 1837.98 239.64 1837.98 248.52C1837.98 257.4 1844.1 264.36 1851.36 264.36C1855.86 264.36 1859.52 262.26 1861.92 258.96V264H1867.26V220.8ZM1852.92 259.14C1847.28 259.14 1843.32 254.46 1843.32 248.52C1843.32 242.58 1847.28 237.96 1852.92 237.96C1858.56 237.96 1861.92 242.58 1861.92 248.52C1861.92 254.46 1858.56 259.14 1852.92 259.14ZM1879.77 250.26H1903.35C1903.41 249.6 1903.47 248.82 1903.47 248.04C1903.47 239.7 1897.41 232.68 1889.01 232.68C1880.49 232.68 1874.31 239.7 1874.31 248.52C1874.31 257.46 1880.31 264.36 1889.25 264.36C1898.67 264.36 1902.57 256.8 1902.93 254.22H1897.35C1896.87 255.84 1894.29 259.26 1889.25 259.26C1883.61 259.26 1880.31 255.48 1879.77 250.26ZM1889.01 237.78C1894.05 237.78 1897.29 241.32 1898.07 245.88H1879.89C1880.79 241.2 1884.09 237.78 1889.01 237.78ZM1913.32 253.92H1908.28C1908.28 258.6 1912.12 264.36 1919.62 264.36C1926.58 264.36 1930.78 260.22 1930.78 255C1930.78 250.62 1927.9 247.32 1921.9 246L1918.3 245.22C1915.6 244.62 1914.28 243.54 1914.28 241.38C1914.28 239.16 1916.44 237.54 1919.56 237.54C1921.12 237.54 1922.38 238.08 1923.28 238.92C1924.36 239.88 1924.9 241.2 1924.9 242.46H1930.06C1930.06 237.96 1926.1 232.74 1919.62 232.68C1913.26 232.62 1909 236.7 1909 241.44C1909 246.66 1912.66 248.88 1916.5 249.78L1919.86 250.56C1923.76 251.46 1925.5 252.54 1925.5 255.06C1925.5 257.52 1923.34 259.5 1919.62 259.5C1917.88 259.5 1916.38 258.9 1915.3 257.94C1914.04 256.92 1913.32 255.42 1913.32 253.92ZM1940.69 220.02C1938.41 220.02 1936.61 221.82 1936.61 224.1C1936.61 226.38 1938.41 228.18 1940.69 228.18C1942.97 228.18 1944.77 226.38 1944.77 224.1C1944.77 221.82 1942.97 220.02 1940.69 220.02ZM1943.27 233.04H1937.93V264H1943.27V233.04ZM1981.07 233.04H1975.73V238.26C1973.33 234.84 1969.67 232.68 1965.17 232.68C1957.91 232.68 1951.79 239.64 1951.79 248.52C1951.79 257.4 1957.91 264.36 1965.17 264.36C1969.67 264.36 1973.33 262.26 1975.73 258.84V262.74C1975.73 269.1 1971.71 273.6 1966.01 273.6C1960.55 273.6 1956.83 270.18 1956.47 266.82H1950.89C1951.31 272.58 1957.01 278.76 1965.89 278.76C1974.77 278.76 1981.07 272.04 1981.07 262.86V233.04ZM1966.73 259.14C1960.91 259.14 1957.13 254.52 1957.13 248.52C1957.13 242.58 1960.91 237.96 1966.73 237.96C1972.37 237.96 1975.73 242.58 1975.73 248.52C1975.73 254.46 1972.37 259.14 1966.73 259.14ZM2005.56 232.68C2001.72 232.68 1998 234.54 1995.6 237.84V233.04H1990.26V264H1995.6V245.58C1995.6 241.44 1999.02 237.9 2003.28 237.9C2007.48 237.9 2010.9 241.38 2010.9 245.58V264H2016.24V245.46C2016.24 237.96 2011.44 232.68 2005.56 232.68Z" fill="black"/>
<path d="M1604.76 178.28V173.42H1596.96L1599.06 164.06H1594.2L1592.1 173.42H1580.76L1582.86 164.06H1578L1575.9 173.42H1566.66V178.28H1574.82L1572.18 189.98H1563.36V194.84H1571.1L1569.24 203H1574.1L1575.96 194.84H1587.3L1585.44 203H1590.3L1592.16 194.84H1601.46V189.98H1593.24L1595.88 178.28H1604.76ZM1588.38 189.98H1577.04L1579.68 178.28H1591.02L1588.38 189.98ZM1625.86 203.36H1625.92C1634.44 203.36 1640.8 196.28 1640.8 187.52C1640.8 178.76 1634.44 171.68 1625.92 171.68H1625.86C1617.34 171.68 1610.98 178.76 1610.98 187.52C1610.98 196.28 1617.34 203.36 1625.86 203.36ZM1625.86 198.02C1620.28 198.02 1616.32 193.34 1616.32 187.52C1616.32 181.7 1620.28 177.08 1625.86 177.02H1625.92C1631.5 177.02 1635.46 181.88 1635.46 187.52C1635.46 193.34 1631.5 198.02 1625.92 198.02H1625.86ZM1675.71 159.8H1670.37V177.2C1667.97 173.84 1664.31 171.68 1659.81 171.68C1652.55 171.68 1646.43 178.64 1646.43 187.52C1646.43 196.4 1652.55 203.36 1659.81 203.36C1664.31 203.36 1667.97 201.26 1670.37 197.96V203H1675.71V159.8ZM1661.37 198.14C1655.73 198.14 1651.77 193.46 1651.77 187.52C1651.77 181.58 1655.73 176.96 1661.37 176.96C1667.01 176.96 1670.37 181.58 1670.37 187.52C1670.37 193.46 1667.01 198.14 1661.37 198.14ZM1712.04 159.8H1706.7V177.2C1704.3 173.84 1700.64 171.68 1696.14 171.68C1688.88 171.68 1682.76 178.64 1682.76 187.52C1682.76 196.4 1688.88 203.36 1696.14 203.36C1700.64 203.36 1704.3 201.26 1706.7 197.96V203H1712.04V159.8ZM1697.7 198.14C1692.06 198.14 1688.1 193.46 1688.1 187.52C1688.1 181.58 1692.06 176.96 1697.7 176.96C1703.34 176.96 1706.7 181.58 1706.7 187.52C1706.7 193.46 1703.34 198.14 1697.7 198.14ZM1741.89 182.3H1747.53C1747.11 178.64 1742.85 171.68 1734.15 171.68C1725.63 171.68 1719.09 178.76 1719.09 187.52C1719.09 196.28 1725.63 203.36 1734.15 203.36C1742.43 203.36 1746.93 196.16 1747.41 192.8H1741.89C1741.71 193.58 1740.99 195.14 1739.49 196.34C1738.23 197.3 1736.49 198.14 1734.15 198.14C1728.45 198.14 1724.43 193.34 1724.43 187.52C1724.43 181.7 1728.39 176.9 1734.15 176.9C1736.31 176.9 1737.99 177.56 1739.13 178.46C1740.87 179.78 1741.65 181.46 1741.89 182.3ZM1776.25 172.04V177.32C1773.97 173.84 1770.31 171.68 1765.45 171.68H1765.39C1758.13 171.68 1752.31 178.64 1752.31 187.52C1752.31 196.52 1758.13 203.36 1765.39 203.36H1765.45C1770.31 203.36 1773.97 201.2 1776.25 197.72C1776.25 198.8 1776.25 200.48 1776.25 203H1781.59V198.62V198.5C1781.59 193.7 1781.59 191.78 1781.59 186.98V176.54V172.04H1776.25ZM1767.25 198.14H1767.19C1761.31 198.14 1757.65 193.76 1757.65 187.52C1757.65 181.4 1761.25 176.9 1767.19 176.9H1767.25C1772.59 176.9 1776.25 181.58 1776.25 187.52C1776.25 193.46 1772.59 198.14 1767.25 198.14ZM1824.51 171.68C1820.19 171.68 1816.53 174.2 1814.61 177.86L1814.43 177.44C1812.57 173.78 1808.97 171.68 1805.01 171.68C1801.53 171.68 1798.29 173.36 1796.25 175.94V172.04H1790.91V203H1796.25V184.04C1796.25 180.14 1799.49 176.9 1803.45 176.9C1807.29 176.9 1810.53 180.14 1810.53 184.04V203H1815.87V184.04C1815.87 180.14 1819.05 176.9 1823.01 176.9C1826.97 176.9 1830.15 180.14 1830.15 184.04V203H1835.49V183.62C1835.49 176.6 1830.39 171.68 1824.51 171.68ZM1859.95 171.68C1855.45 171.68 1851.79 173.78 1849.39 177.2V172.04H1844.05V217.04H1849.39V197.78C1851.79 201.2 1855.45 203.36 1859.95 203.36C1867.21 203.36 1873.33 196.4 1873.33 187.52C1873.33 178.64 1867.21 171.68 1859.95 171.68ZM1858.39 198.08C1852.75 198.08 1849.39 193.46 1849.39 187.52C1849.39 181.58 1852.75 176.9 1858.39 176.9C1864.03 176.9 1867.81 181.58 1867.81 187.52C1867.81 193.46 1864.03 198.08 1858.39 198.08Z" fill="black"/>
<path d="M1762.76 300.28V295.42H1754.96L1757.06 286.06H1752.2L1750.1 295.42H1738.76L1740.86 286.06H1736L1733.9 295.42H1724.66V300.28H1732.82L1730.18 311.98H1721.36V316.84H1729.1L1727.24 325H1732.1L1733.96 316.84H1745.3L1743.44 325H1748.3L1750.16 316.84H1759.46V311.98H1751.24L1753.88 300.28H1762.76ZM1746.38 311.98H1735.04L1737.68 300.28H1749.02L1746.38 311.98ZM1791.78 304.3H1797.42C1797 300.64 1792.74 293.68 1784.04 293.68C1775.52 293.68 1768.98 300.76 1768.98 309.52C1768.98 318.28 1775.52 325.36 1784.04 325.36C1792.32 325.36 1796.82 318.16 1797.3 314.8H1791.78C1791.6 315.58 1790.88 317.14 1789.38 318.34C1788.12 319.3 1786.38 320.14 1784.04 320.14C1778.34 320.14 1774.32 315.34 1774.32 309.52C1774.32 303.7 1778.28 298.9 1784.04 298.9C1786.2 298.9 1787.88 299.56 1789.02 300.46C1790.76 301.78 1791.54 303.46 1791.78 304.3ZM1817.09 325.36H1817.15C1825.67 325.36 1832.03 318.28 1832.03 309.52C1832.03 300.76 1825.67 293.68 1817.15 293.68H1817.09C1808.57 293.68 1802.21 300.76 1802.21 309.52C1802.21 318.28 1808.57 325.36 1817.09 325.36ZM1817.09 320.02C1811.51 320.02 1807.55 315.34 1807.55 309.52C1807.55 303.7 1811.51 299.08 1817.09 299.02H1817.15C1822.73 299.02 1826.69 303.88 1826.69 309.52C1826.69 315.34 1822.73 320.02 1817.15 320.02H1817.09ZM1866.94 281.8H1861.6V299.2C1859.2 295.84 1855.54 293.68 1851.04 293.68C1843.78 293.68 1837.66 300.64 1837.66 309.52C1837.66 318.4 1843.78 325.36 1851.04 325.36C1855.54 325.36 1859.2 323.26 1861.6 319.96V325H1866.94V281.8ZM1852.6 320.14C1846.96 320.14 1843 315.46 1843 309.52C1843 303.58 1846.96 298.96 1852.6 298.96C1858.24 298.96 1861.6 303.58 1861.6 309.52C1861.6 315.46 1858.24 320.14 1852.6 320.14ZM1879.44 311.26H1903.02C1903.08 310.6 1903.14 309.82 1903.14 309.04C1903.14 300.7 1897.08 293.68 1888.68 293.68C1880.16 293.68 1873.98 300.7 1873.98 309.52C1873.98 318.46 1879.98 325.36 1888.92 325.36C1898.34 325.36 1902.24 317.8 1902.6 315.22H1897.02C1896.54 316.84 1893.96 320.26 1888.92 320.26C1883.28 320.26 1879.98 316.48 1879.44 311.26ZM1888.68 298.78C1893.72 298.78 1896.96 302.32 1897.74 306.88H1879.56C1880.46 302.2 1883.76 298.78 1888.68 298.78Z" fill="black"/>
<path d="M1869.76 361.28V356.42H1861.96L1864.06 347.06H1859.2L1857.1 356.42H1845.76L1847.86 347.06H1843L1840.9 356.42H1831.66V361.28H1839.82L1837.18 372.98H1828.36V377.84H1836.1L1834.24 386H1839.1L1840.96 377.84H1852.3L1850.44 386H1855.3L1857.16 377.84H1866.46V372.98H1858.24L1860.88 361.28H1869.76ZM1853.38 372.98H1842.04L1844.68 361.28H1856.02L1853.38 372.98ZM1893.2 354.68C1889.36 354.68 1885.64 356.54 1883.24 359.84V355.04H1877.9V386H1883.24V367.58C1883.24 363.44 1886.66 359.9 1890.92 359.9C1895.12 359.9 1898.54 363.38 1898.54 367.58V386H1903.88V367.46C1903.88 359.96 1899.08 354.68 1893.2 354.68ZM1925.73 386.36H1925.79C1934.31 386.36 1940.67 379.28 1940.67 370.52C1940.67 361.76 1934.31 354.68 1925.79 354.68H1925.73C1917.21 354.68 1910.85 361.76 1910.85 370.52C1910.85 379.28 1917.21 386.36 1925.73 386.36ZM1925.73 381.02C1920.15 381.02 1916.19 376.34 1916.19 370.52C1916.19 364.7 1920.15 360.08 1925.73 360.02H1925.79C1931.37 360.02 1935.33 364.88 1935.33 370.52C1935.33 376.34 1931.37 381.02 1925.79 381.02H1925.73ZM1971.2 342.02C1968.92 342.02 1967.12 343.82 1967.12 346.1C1967.12 348.38 1968.92 350.18 1971.2 350.18C1973.48 350.18 1975.28 348.38 1975.28 346.1C1975.28 343.82 1973.48 342.02 1971.2 342.02ZM1973.78 355.04H1955V351.62C1955 348.98 1956.92 347.54 1959.2 347.54C1960.76 347.54 1962.14 347.9 1963.16 348.44V343.46C1962.02 342.86 1960.22 342.44 1958.6 342.44C1953.68 342.44 1949.66 346.16 1949.66 351.5V355.04H1944.74V359.66H1949.66V386H1955V359.66H1968.44V386H1973.78V355.04ZM1988.83 342.8H1983.49V386H1988.83V342.8ZM2009.6 381.26C2007.26 381.26 2005.46 380.3 2005.46 377.54V359.66H2013.98V355.04H2005.46V346.34H2000.12V355.04H1994.84V359.66H2000.12V377.72C2000.12 383.12 2004.08 386.36 2009.06 386.36C2011.28 386.36 2013.26 385.22 2014.04 384.92V379.88C2013.56 380.24 2011.58 381.26 2009.6 381.26ZM2023.53 372.26H2047.11C2047.17 371.6 2047.23 370.82 2047.23 370.04C2047.23 361.7 2041.17 354.68 2032.77 354.68C2024.25 354.68 2018.07 361.7 2018.07 370.52C2018.07 379.46 2024.07 386.36 2033.01 386.36C2042.43 386.36 2046.33 378.8 2046.69 376.22H2041.11C2040.63 377.84 2038.05 381.26 2033.01 381.26C2027.37 381.26 2024.07 377.48 2023.53 372.26ZM2032.77 359.78C2037.81 359.78 2041.05 363.32 2041.83 367.88H2023.65C2024.55 363.2 2027.85 359.78 2032.77 359.78ZM2067.12 354.68C2063.64 354.68 2061 356.6 2059.2 359.42V355.04H2053.86V386H2059.2V368.66C2059.2 362.6 2062.92 359.9 2067.24 359.9C2067.9 359.9 2069.7 359.96 2070.12 360.08V354.86C2069.52 354.8 2068.44 354.68 2067.12 354.68Z" fill="black"/>
<path d="M1559.76 422.28V417.42H1551.96L1554.06 408.06H1549.2L1547.1 417.42H1535.76L1537.86 408.06H1533L1530.9 417.42H1521.66V422.28H1529.82L1527.18 433.98H1518.36V438.84H1526.1L1524.24 447H1529.1L1530.96 438.84H1542.3L1540.44 447H1545.3L1547.16 438.84H1556.46V433.98H1548.24L1550.88 422.28H1559.76ZM1543.38 433.98H1532.04L1534.68 422.28H1546.02L1543.38 433.98ZM1583.5 415.68C1579 415.68 1575.34 417.78 1572.94 421.2V416.04H1567.6V461.04H1572.94V441.78C1575.34 445.2 1579 447.36 1583.5 447.36C1590.76 447.36 1596.88 440.4 1596.88 431.52C1596.88 422.64 1590.76 415.68 1583.5 415.68ZM1581.94 442.08C1576.3 442.08 1572.94 437.46 1572.94 431.52C1572.94 425.58 1576.3 420.9 1581.94 420.9C1587.58 420.9 1591.36 425.58 1591.36 431.52C1591.36 437.46 1587.58 442.08 1581.94 442.08ZM1619.24 415.68C1615.34 415.68 1611.74 417.54 1609.34 420.84V403.8H1604V447H1609.34V428.58C1609.34 424.44 1612.76 420.9 1617.02 420.9C1621.22 420.9 1624.64 424.38 1624.64 428.58V447H1629.98V428.58C1629.98 420.66 1625.12 415.68 1619.24 415.68ZM1651.82 447.36H1651.88C1660.4 447.36 1666.76 440.28 1666.76 431.52C1666.76 422.76 1660.4 415.68 1651.88 415.68H1651.82C1643.3 415.68 1636.94 422.76 1636.94 431.52C1636.94 440.28 1643.3 447.36 1651.82 447.36ZM1651.82 442.02C1646.24 442.02 1642.28 437.34 1642.28 431.52C1642.28 425.7 1646.24 421.08 1651.82 421.02H1651.88C1657.46 421.02 1661.42 425.88 1661.42 431.52C1661.42 437.34 1657.46 442.02 1651.88 442.02H1651.82ZM1685.12 442.26C1682.78 442.26 1680.98 441.3 1680.98 438.54V420.66H1689.5V416.04H1680.98V407.34H1675.64V416.04H1670.36V420.66H1675.64V438.72C1675.64 444.12 1679.6 447.36 1684.58 447.36C1686.8 447.36 1688.78 446.22 1689.56 445.92V440.88C1689.08 441.24 1687.1 442.26 1685.12 442.26ZM1708.48 447.36H1708.54C1717.06 447.36 1723.42 440.28 1723.42 431.52C1723.42 422.76 1717.06 415.68 1708.54 415.68H1708.48C1699.96 415.68 1693.6 422.76 1693.6 431.52C1693.6 440.28 1699.96 447.36 1708.48 447.36ZM1708.48 442.02C1702.9 442.02 1698.94 437.34 1698.94 431.52C1698.94 425.7 1702.9 421.08 1708.48 421.02H1708.54C1714.12 421.02 1718.08 425.88 1718.08 431.52C1718.08 437.34 1714.12 442.02 1708.54 442.02H1708.48ZM1743.93 447.36H1743.99C1752.51 447.36 1758.87 440.28 1758.87 431.52C1758.87 422.76 1752.51 415.68 1743.99 415.68H1743.93C1735.41 415.68 1729.05 422.76 1729.05 431.52C1729.05 440.28 1735.41 447.36 1743.93 447.36ZM1743.93 442.02C1738.35 442.02 1734.39 437.34 1734.39 431.52C1734.39 425.7 1738.35 421.08 1743.93 421.02H1743.99C1749.57 421.02 1753.53 425.88 1753.53 431.52C1753.53 437.34 1749.57 442.02 1743.99 442.02H1743.93ZM1796.24 442.26C1793.9 442.26 1792.1 441.3 1792.1 438.54V420.66H1800.62V416.04H1792.1V407.34H1786.76V416.04H1773.2V412.62C1773.2 409.98 1775.12 408.54 1777.4 408.54C1778.96 408.54 1780.34 408.9 1781.36 409.44V404.46C1780.22 403.86 1778.42 403.44 1776.8 403.44C1771.88 403.44 1767.86 407.16 1767.86 412.5V416.04H1762.94V420.66H1767.86V447H1773.2V420.66H1786.76V438.72C1786.76 444.12 1790.72 447.36 1795.7 447.36C1797.92 447.36 1799.9 446.22 1800.68 445.92V440.88C1800.2 441.24 1798.22 442.26 1796.24 442.26ZM1822.38 415.68C1818.48 415.68 1814.88 417.54 1812.48 420.84V403.8H1807.14V447H1812.48V428.58C1812.48 424.44 1815.9 420.9 1820.16 420.9C1824.36 420.9 1827.78 424.38 1827.78 428.58V447H1833.12V428.58C1833.12 420.66 1828.26 415.68 1822.38 415.68ZM1845.55 433.26H1869.13C1869.19 432.6 1869.25 431.82 1869.25 431.04C1869.25 422.7 1863.19 415.68 1854.79 415.68C1846.27 415.68 1840.09 422.7 1840.09 431.52C1840.09 440.46 1846.09 447.36 1855.03 447.36C1864.45 447.36 1868.35 439.8 1868.71 437.22H1863.13C1862.65 438.84 1860.07 442.26 1855.03 442.26C1849.39 442.26 1846.09 438.48 1845.55 433.26ZM1854.79 420.78C1859.83 420.78 1863.07 424.32 1863.85 428.88H1845.67C1846.57 424.2 1849.87 420.78 1854.79 420.78ZM1903.88 403.8H1898.54V421.2C1896.14 417.84 1892.48 415.68 1887.98 415.68C1880.72 415.68 1874.6 422.64 1874.6 431.52C1874.6 440.4 1880.72 447.36 1887.98 447.36C1892.48 447.36 1896.14 445.26 1898.54 441.96V447H1903.88V403.8ZM1889.54 442.14C1883.9 442.14 1879.94 437.46 1879.94 431.52C1879.94 425.58 1883.9 420.96 1889.54 420.96C1895.18 420.96 1898.54 425.58 1898.54 431.52C1898.54 437.46 1895.18 442.14 1889.54 442.14ZM1934.87 416.04V421.32C1932.59 417.84 1928.93 415.68 1924.07 415.68H1924.01C1916.75 415.68 1910.93 422.64 1910.93 431.52C1910.93 440.52 1916.75 447.36 1924.01 447.36H1924.07C1928.93 447.36 1932.59 445.2 1934.87 441.72C1934.87 442.8 1934.87 444.48 1934.87 447H1940.21V442.62V442.5C1940.21 437.7 1940.21 435.78 1940.21 430.98V420.54V416.04H1934.87ZM1925.87 442.14H1925.81C1919.93 442.14 1916.27 437.76 1916.27 431.52C1916.27 425.4 1919.87 420.9 1925.81 420.9H1925.87C1931.21 420.9 1934.87 425.58 1934.87 431.52C1934.87 437.46 1931.21 442.14 1925.87 442.14ZM1974.61 416.04H1969.27V434.46C1969.27 438.6 1965.85 442.14 1961.59 442.14C1957.33 442.14 1953.97 438.66 1953.97 434.46V416.04H1948.63V434.82C1948.63 441.72 1953.13 447.36 1959.31 447.36C1963.39 447.36 1966.87 445.5 1969.27 442.2V445.86C1969.27 452.04 1966.03 456.6 1960.33 456.6C1955.11 456.6 1952.05 453.06 1951.63 449.82H1946.05C1946.53 455.22 1951.57 461.76 1960.27 461.76C1969.03 461.76 1974.61 455.1 1974.61 445.98V416.04Z" fill="black"/>
<path d="M1833.76 483.28V478.42H1825.96L1828.06 469.06H1823.2L1821.1 478.42H1809.76L1811.86 469.06H1807L1804.9 478.42H1795.66V483.28H1803.82L1801.18 494.98H1792.36V499.84H1800.1L1798.24 508H1803.1L1804.96 499.84H1816.3L1814.44 508H1819.3L1821.16 499.84H1830.46V494.98H1822.24L1824.88 483.28H1833.76ZM1817.38 494.98H1806.04L1808.68 483.28H1820.02L1817.38 494.98ZM1844.78 464.02C1842.5 464.02 1840.7 465.82 1840.7 468.1C1840.7 470.38 1842.5 472.18 1844.78 472.18C1847.06 472.18 1848.86 470.38 1848.86 468.1C1848.86 465.82 1847.06 464.02 1844.78 464.02ZM1847.36 477.04H1842.02V508H1847.36V477.04ZM1872.5 476.68C1868.66 476.68 1864.94 478.54 1862.54 481.84V477.04H1857.2V508H1862.54V489.58C1862.54 485.44 1865.96 481.9 1870.22 481.9C1874.42 481.9 1877.84 485.38 1877.84 489.58V508H1883.18V489.46C1883.18 481.96 1878.38 476.68 1872.5 476.68ZM1894.64 497.92H1889.6C1889.6 502.6 1893.44 508.36 1900.94 508.36C1907.9 508.36 1912.1 504.22 1912.1 499C1912.1 494.62 1909.22 491.32 1903.22 490L1899.62 489.22C1896.92 488.62 1895.6 487.54 1895.6 485.38C1895.6 483.16 1897.76 481.54 1900.88 481.54C1902.44 481.54 1903.7 482.08 1904.6 482.92C1905.68 483.88 1906.22 485.2 1906.22 486.46H1911.38C1911.38 481.96 1907.42 476.74 1900.94 476.68C1894.58 476.62 1890.32 480.7 1890.32 485.44C1890.32 490.66 1893.98 492.88 1897.82 493.78L1901.18 494.56C1905.08 495.46 1906.82 496.54 1906.82 499.06C1906.82 501.52 1904.66 503.5 1900.94 503.5C1899.2 503.5 1897.7 502.9 1896.62 501.94C1895.36 500.92 1894.64 499.42 1894.64 497.92ZM1930.18 503.26C1927.84 503.26 1926.04 502.3 1926.04 499.54V481.66H1934.56V477.04H1926.04V468.34H1920.7V477.04H1915.42V481.66H1920.7V499.72C1920.7 505.12 1924.66 508.36 1929.64 508.36C1931.86 508.36 1933.84 507.22 1934.62 506.92V501.88C1934.14 502.24 1932.16 503.26 1930.18 503.26ZM1962.6 477.04V482.32C1960.32 478.84 1956.66 476.68 1951.8 476.68H1951.74C1944.48 476.68 1938.66 483.64 1938.66 492.52C1938.66 501.52 1944.48 508.36 1951.74 508.36H1951.8C1956.66 508.36 1960.32 506.2 1962.6 502.72C1962.6 503.8 1962.6 505.48 1962.6 508H1967.94V503.62V503.5C1967.94 498.7 1967.94 496.78 1967.94 491.98V481.54V477.04H1962.6ZM1953.6 503.14H1953.54C1947.66 503.14 1944 498.76 1944 492.52C1944 486.4 1947.6 481.9 1953.54 481.9H1953.6C1958.94 481.9 1962.6 486.58 1962.6 492.52C1962.6 498.46 1958.94 503.14 1953.6 503.14ZM2004.62 464.8H1999.28V482.2C1996.88 478.84 1993.22 476.68 1988.72 476.68C1981.46 476.68 1975.34 483.64 1975.34 492.52C1975.34 501.4 1981.46 508.36 1988.72 508.36C1993.22 508.36 1996.88 506.26 1999.28 502.96V508H2004.62V464.8ZM1990.28 503.14C1984.64 503.14 1980.68 498.46 1980.68 492.52C1980.68 486.58 1984.64 481.96 1990.28 481.96C1995.92 481.96 1999.28 486.58 1999.28 492.52C1999.28 498.46 1995.92 503.14 1990.28 503.14ZM2035.6 477.04V482.32C2033.32 478.84 2029.66 476.68 2024.8 476.68H2024.74C2017.48 476.68 2011.66 483.64 2011.66 492.52C2011.66 501.52 2017.48 508.36 2024.74 508.36H2024.8C2029.66 508.36 2033.32 506.2 2035.6 502.72C2035.6 503.8 2035.6 505.48 2035.6 508H2040.94V503.62V503.5C2040.94 498.7 2040.94 496.78 2040.94 491.98V481.54V477.04H2035.6ZM2026.6 503.14H2026.54C2020.66 503.14 2017 498.76 2017 492.52C2017 486.4 2020.6 481.9 2026.54 481.9H2026.6C2031.94 481.9 2035.6 486.58 2035.6 492.52C2035.6 498.46 2031.94 503.14 2026.6 503.14ZM2053.14 464.02C2050.86 464.02 2049.06 465.82 2049.06 468.1C2049.06 470.38 2050.86 472.18 2053.14 472.18C2055.42 472.18 2057.22 470.38 2057.22 468.1C2057.22 465.82 2055.42 464.02 2053.14 464.02ZM2055.72 477.04H2050.38V508H2055.72V477.04ZM2070.84 464.8H2065.5V508H2070.84V464.8ZM2104.47 477.04H2099.13V495.46C2099.13 499.6 2095.71 503.14 2091.45 503.14C2087.19 503.14 2083.83 499.66 2083.83 495.46V477.04H2078.49V495.82C2078.49 502.72 2082.99 508.36 2089.17 508.36C2093.25 508.36 2096.73 506.5 2099.13 503.2V506.86C2099.13 513.04 2095.89 517.6 2090.19 517.6C2084.97 517.6 2081.91 514.06 2081.49 510.82H2075.91C2076.39 516.22 2081.43 522.76 2090.13 522.76C2098.89 522.76 2104.47 516.1 2104.47 506.98V477.04Z" fill="black"/>
<path d="M1968.76 544.28V539.42H1960.96L1963.06 530.06H1958.2L1956.1 539.42H1944.76L1946.86 530.06H1942L1939.9 539.42H1930.66V544.28H1938.82L1936.18 555.98H1927.36V560.84H1935.1L1933.24 569H1938.1L1939.96 560.84H1951.3L1949.44 569H1954.3L1956.16 560.84H1965.46V555.98H1957.24L1959.88 544.28H1968.76ZM1952.38 555.98H1941.04L1943.68 544.28H1955.02L1952.38 555.98ZM1997.78 548.3H2003.42C2003 544.64 1998.74 537.68 1990.04 537.68C1981.52 537.68 1974.98 544.76 1974.98 553.52C1974.98 562.28 1981.52 569.36 1990.04 569.36C1998.32 569.36 2002.82 562.16 2003.3 558.8H1997.78C1997.6 559.58 1996.88 561.14 1995.38 562.34C1994.12 563.3 1992.38 564.14 1990.04 564.14C1984.34 564.14 1980.32 559.34 1980.32 553.52C1980.32 547.7 1984.28 542.9 1990.04 542.9C1992.2 542.9 1993.88 543.56 1995.02 544.46C1996.76 545.78 1997.54 547.46 1997.78 548.3ZM2032.15 538.04V543.32C2029.87 539.84 2026.21 537.68 2021.35 537.68H2021.29C2014.03 537.68 2008.21 544.64 2008.21 553.52C2008.21 562.52 2014.03 569.36 2021.29 569.36H2021.35C2026.21 569.36 2029.87 567.2 2032.15 563.72C2032.15 564.8 2032.15 566.48 2032.15 569H2037.49V564.62V564.5C2037.49 559.7 2037.49 557.78 2037.49 552.98V542.54V538.04H2032.15ZM2023.15 564.14H2023.09C2017.21 564.14 2013.55 559.76 2013.55 553.52C2013.55 547.4 2017.15 542.9 2023.09 542.9H2023.15C2028.49 542.9 2032.15 547.58 2032.15 553.52C2032.15 559.46 2028.49 564.14 2023.15 564.14ZM2049.39 558.92H2044.35C2044.35 563.6 2048.19 569.36 2055.69 569.36C2062.65 569.36 2066.85 565.22 2066.85 560C2066.85 555.62 2063.97 552.32 2057.97 551L2054.37 550.22C2051.67 549.62 2050.35 548.54 2050.35 546.38C2050.35 544.16 2052.51 542.54 2055.63 542.54C2057.19 542.54 2058.45 543.08 2059.35 543.92C2060.43 544.88 2060.97 546.2 2060.97 547.46H2066.13C2066.13 542.96 2062.17 537.74 2055.69 537.68C2049.33 537.62 2045.07 541.7 2045.07 546.44C2045.07 551.66 2048.73 553.88 2052.57 554.78L2055.93 555.56C2059.83 556.46 2061.57 557.54 2061.57 560.06C2061.57 562.52 2059.41 564.5 2055.69 564.5C2053.95 564.5 2052.45 563.9 2051.37 562.94C2050.11 561.92 2049.39 560.42 2049.39 558.92ZM2077.42 555.26H2101C2101.06 554.6 2101.12 553.82 2101.12 553.04C2101.12 544.7 2095.06 537.68 2086.66 537.68C2078.14 537.68 2071.96 544.7 2071.96 553.52C2071.96 562.46 2077.96 569.36 2086.9 569.36C2096.32 569.36 2100.22 561.8 2100.58 559.22H2095C2094.52 560.84 2091.94 564.26 2086.9 564.26C2081.26 564.26 2077.96 560.48 2077.42 555.26ZM2086.66 542.78C2091.7 542.78 2094.94 546.32 2095.72 550.88H2077.54C2078.44 546.2 2081.74 542.78 2086.66 542.78ZM2121.35 569.36H2121.41C2129.93 569.36 2136.29 562.28 2136.29 553.52C2136.29 544.76 2129.93 537.68 2121.41 537.68H2121.35C2112.83 537.68 2106.47 544.76 2106.47 553.52C2106.47 562.28 2112.83 569.36 2121.35 569.36ZM2121.35 564.02C2115.77 564.02 2111.81 559.34 2111.81 553.52C2111.81 547.7 2115.77 543.08 2121.35 543.02H2121.41C2126.99 543.02 2130.95 547.88 2130.95 553.52C2130.95 559.34 2126.99 564.02 2121.41 564.02H2121.35ZM2173.66 564.26C2171.32 564.26 2169.52 563.3 2169.52 560.54V542.66H2178.04V538.04H2169.52V529.34H2164.18V538.04H2150.62V534.62C2150.62 531.98 2152.54 530.54 2154.82 530.54C2156.38 530.54 2157.76 530.9 2158.78 531.44V526.46C2157.64 525.86 2155.84 525.44 2154.22 525.44C2149.3 525.44 2145.28 529.16 2145.28 534.5V538.04H2140.36V542.66H2145.28V569H2150.62V542.66H2164.18V560.72C2164.18 566.12 2168.14 569.36 2173.12 569.36C2175.34 569.36 2177.32 568.22 2178.1 567.92V562.88C2177.62 563.24 2175.64 564.26 2173.66 564.26ZM2199.8 537.68C2195.9 537.68 2192.3 539.54 2189.9 542.84V525.8H2184.56V569H2189.9V550.58C2189.9 546.44 2193.32 542.9 2197.58 542.9C2201.78 542.9 2205.2 546.38 2205.2 550.58V569H2210.54V550.58C2210.54 542.66 2205.68 537.68 2199.8 537.68ZM2222.96 555.26H2246.54C2246.6 554.6 2246.66 553.82 2246.66 553.04C2246.66 544.7 2240.6 537.68 2232.2 537.68C2223.68 537.68 2217.5 544.7 2217.5 553.52C2217.5 562.46 2223.5 569.36 2232.44 569.36C2241.86 569.36 2245.76 561.8 2246.12 559.22H2240.54C2240.06 560.84 2237.48 564.26 2232.44 564.26C2226.8 564.26 2223.5 560.48 2222.96 555.26ZM2232.2 542.78C2237.24 542.78 2240.48 546.32 2241.26 550.88H2223.08C2223.98 546.2 2227.28 542.78 2232.2 542.78ZM2286.89 537.68C2282.57 537.68 2278.91 540.2 2276.99 543.86L2276.81 543.44C2274.95 539.78 2271.35 537.68 2267.39 537.68C2263.91 537.68 2260.67 539.36 2258.63 541.94V538.04H2253.29V569H2258.63V550.04C2258.63 546.14 2261.87 542.9 2265.83 542.9C2269.67 542.9 2272.91 546.14 2272.91 550.04V569H2278.25V550.04C2278.25 546.14 2281.43 542.9 2285.39 542.9C2289.35 542.9 2292.53 546.14 2292.53 550.04V569H2297.87V549.62C2297.87 542.6 2292.77 537.68 2286.89 537.68ZM2319.69 569.36H2319.75C2328.27 569.36 2334.63 562.28 2334.63 553.52C2334.63 544.76 2328.27 537.68 2319.75 537.68H2319.69C2311.17 537.68 2304.81 544.76 2304.81 553.52C2304.81 562.28 2311.17 569.36 2319.69 569.36ZM2319.69 564.02C2314.11 564.02 2310.15 559.34 2310.15 553.52C2310.15 547.7 2314.11 543.08 2319.69 543.02H2319.75C2325.33 543.02 2329.29 547.88 2329.29 553.52C2329.29 559.34 2325.33 564.02 2319.75 564.02H2319.69ZM2356.83 537.68C2352.99 537.68 2349.27 539.54 2346.87 542.84V538.04H2341.53V569H2346.87V550.58C2346.87 546.44 2350.29 542.9 2354.55 542.9C2358.75 542.9 2362.17 546.38 2362.17 550.58V569H2367.51V550.46C2367.51 542.96 2362.71 537.68 2356.83 537.68ZM2403.76 525.8H2398.42V543.2C2396.02 539.84 2392.36 537.68 2387.86 537.68C2380.6 537.68 2374.48 544.64 2374.48 553.52C2374.48 562.4 2380.6 569.36 2387.86 569.36C2392.36 569.36 2396.02 567.26 2398.42 563.96V569H2403.76V525.8ZM2389.42 564.14C2383.78 564.14 2379.82 559.46 2379.82 553.52C2379.82 547.58 2383.78 542.96 2389.42 542.96C2395.06 542.96 2398.42 547.58 2398.42 553.52C2398.42 559.46 2395.06 564.14 2389.42 564.14ZM2434.74 538.04V543.32C2432.46 539.84 2428.8 537.68 2423.94 537.68H2423.88C2416.62 537.68 2410.8 544.64 2410.8 553.52C2410.8 562.52 2416.62 569.36 2423.88 569.36H2423.94C2428.8 569.36 2432.46 567.2 2434.74 563.72C2434.74 564.8 2434.74 566.48 2434.74 569H2440.08V564.62V564.5C2440.08 559.7 2440.08 557.78 2440.08 552.98V542.54V538.04H2434.74ZM2425.74 564.14H2425.68C2419.8 564.14 2416.14 559.76 2416.14 553.52C2416.14 547.4 2419.74 542.9 2425.68 542.9H2425.74C2431.08 542.9 2434.74 547.58 2434.74 553.52C2434.74 559.46 2431.08 564.14 2425.74 564.14ZM2474.49 538.04H2469.15V556.46C2469.15 560.6 2465.73 564.14 2461.47 564.14C2457.21 564.14 2453.85 560.66 2453.85 556.46V538.04H2448.51V556.82C2448.51 563.72 2453.01 569.36 2459.19 569.36C2463.27 569.36 2466.75 567.5 2469.15 564.2V567.86C2469.15 574.04 2465.91 578.6 2460.21 578.6C2454.99 578.6 2451.93 575.06 2451.51 571.82H2445.93C2446.41 577.22 2451.45 583.76 2460.15 583.76C2468.91 583.76 2474.49 577.1 2474.49 567.98V538.04ZM2485.97 558.92H2480.93C2480.93 563.6 2484.77 569.36 2492.27 569.36C2499.23 569.36 2503.43 565.22 2503.43 560C2503.43 555.62 2500.55 552.32 2494.55 551L2490.95 550.22C2488.25 549.62 2486.93 548.54 2486.93 546.38C2486.93 544.16 2489.09 542.54 2492.21 542.54C2493.77 542.54 2495.03 543.08 2495.93 543.92C2497.01 544.88 2497.55 546.2 2497.55 547.46H2502.71C2502.71 542.96 2498.75 537.74 2492.27 537.68C2485.91 537.62 2481.65 541.7 2481.65 546.44C2481.65 551.66 2485.31 553.88 2489.15 554.78L2492.51 555.56C2496.41 556.46 2498.15 557.54 2498.15 560.06C2498.15 562.52 2495.99 564.5 2492.27 564.5C2490.53 564.5 2489.03 563.9 2487.95 562.94C2486.69 561.92 2485.97 560.42 2485.97 558.92Z" fill="black"/>
<path d="M2060.76 622.28V617.42H2052.96L2055.06 608.06H2050.2L2048.1 617.42H2036.76L2038.86 608.06H2034L2031.9 617.42H2022.66V622.28H2030.82L2028.18 633.98H2019.36V638.84H2027.1L2025.24 647H2030.1L2031.96 638.84H2043.3L2041.44 647H2046.3L2048.16 638.84H2057.46V633.98H2049.24L2051.88 622.28H2060.76ZM2044.38 633.98H2033.04L2035.68 622.28H2047.02L2044.38 633.98ZM2080.3 642.26C2077.96 642.26 2076.16 641.3 2076.16 638.54V620.66H2084.68V616.04H2076.16V607.34H2070.82V616.04H2065.54V620.66H2070.82V638.72C2070.82 644.12 2074.78 647.36 2079.76 647.36C2081.98 647.36 2083.96 646.22 2084.74 645.92V640.88C2084.26 641.24 2082.28 642.26 2080.3 642.26ZM2107.19 615.68H2107.13C2102.63 615.68 2098.97 617.84 2096.57 621.2V603.8H2091.23V647H2096.57V641.96C2098.97 645.26 2102.63 647.36 2107.13 647.36H2107.19C2114.45 647.3 2120.51 640.4 2120.51 631.52C2120.51 622.7 2114.45 615.68 2107.19 615.68ZM2105.63 642.14H2105.57C2099.93 642.14 2096.57 637.46 2096.57 631.52C2096.57 625.58 2099.93 620.96 2105.57 620.96H2105.63C2111.33 620.96 2115.17 625.58 2115.17 631.52C2115.17 637.46 2111.27 642.08 2105.63 642.14ZM2138.9 642.26C2136.56 642.26 2134.76 641.3 2134.76 638.54V620.66H2143.28V616.04H2134.76V607.34H2129.42V616.04H2124.14V620.66H2129.42V638.72C2129.42 644.12 2133.38 647.36 2138.36 647.36C2140.58 647.36 2142.56 646.22 2143.34 645.92V640.88C2142.86 641.24 2140.88 642.26 2138.9 642.26Z" fill="black"/>
<path d="M2140.76 683.28V678.42H2132.96L2135.06 669.06H2130.2L2128.1 678.42H2116.76L2118.86 669.06H2114L2111.9 678.42H2102.66V683.28H2110.82L2108.18 694.98H2099.36V699.84H2107.1L2105.24 708H2110.1L2111.96 699.84H2123.3L2121.44 708H2126.3L2128.16 699.84H2137.46V694.98H2129.24L2131.88 683.28H2140.76ZM2124.38 694.98H2113.04L2115.68 683.28H2127.02L2124.38 694.98ZM2151.78 664.02C2149.5 664.02 2147.7 665.82 2147.7 668.1C2147.7 670.38 2149.5 672.18 2151.78 672.18C2154.06 672.18 2155.86 670.38 2155.86 668.1C2155.86 665.82 2154.06 664.02 2151.78 664.02ZM2154.36 677.04H2149.02V708H2154.36V677.04ZM2192.16 677.04H2186.82V682.26C2184.42 678.84 2180.76 676.68 2176.26 676.68C2169 676.68 2162.88 683.64 2162.88 692.52C2162.88 701.4 2169 708.36 2176.26 708.36C2180.76 708.36 2184.42 706.26 2186.82 702.84V706.74C2186.82 713.1 2182.8 717.6 2177.1 717.6C2171.64 717.6 2167.92 714.18 2167.56 710.82H2161.98C2162.4 716.58 2168.1 722.76 2176.98 722.76C2185.86 722.76 2192.16 716.04 2192.16 706.86V677.04ZM2177.82 703.14C2172 703.14 2168.22 698.52 2168.22 692.52C2168.22 686.58 2172 681.96 2177.82 681.96C2183.46 681.96 2186.82 686.58 2186.82 692.52C2186.82 698.46 2183.46 703.14 2177.82 703.14ZM2204.89 694.26H2228.47C2228.53 693.6 2228.59 692.82 2228.59 692.04C2228.59 683.7 2222.53 676.68 2214.13 676.68C2205.61 676.68 2199.43 683.7 2199.43 692.52C2199.43 701.46 2205.43 708.36 2214.37 708.36C2223.79 708.36 2227.69 700.8 2228.05 698.22H2222.47C2221.99 699.84 2219.41 703.26 2214.37 703.26C2208.73 703.26 2205.43 699.48 2204.89 694.26ZM2214.13 681.78C2219.17 681.78 2222.41 685.32 2223.19 689.88H2205.01C2205.91 685.2 2209.21 681.78 2214.13 681.78ZM2248.47 676.68C2244.99 676.68 2242.35 678.6 2240.55 681.42V677.04H2235.21V708H2240.55V690.66C2240.55 684.6 2244.27 681.9 2248.59 681.9C2249.25 681.9 2251.05 681.96 2251.47 682.08V676.86C2250.87 676.8 2249.79 676.68 2248.47 676.68ZM2259.82 697.92H2254.78C2254.78 702.6 2258.62 708.36 2266.12 708.36C2273.08 708.36 2277.28 704.22 2277.28 699C2277.28 694.62 2274.4 691.32 2268.4 690L2264.8 689.22C2262.1 688.62 2260.78 687.54 2260.78 685.38C2260.78 683.16 2262.94 681.54 2266.06 681.54C2267.62 681.54 2268.88 682.08 2269.78 682.92C2270.86 683.88 2271.4 685.2 2271.4 686.46H2276.56C2276.56 681.96 2272.6 676.74 2266.12 676.68C2259.76 676.62 2255.5 680.7 2255.5 685.44C2255.5 690.66 2259.16 692.88 2263 693.78L2266.36 694.56C2270.26 695.46 2272 696.54 2272 699.06C2272 701.52 2269.84 703.5 2266.12 703.5C2264.38 703.5 2262.88 702.9 2261.8 701.94C2260.54 700.92 2259.82 699.42 2259.82 697.92Z" fill="black"/>
</g>
<rect width="720" height="720" transform="translate(2160)" fill="#E8E9F3"/>
<path fill-rule="evenodd" clip-rule="evenodd" d="M2552 299C2552 290.716 2545.28 284 2537 284H2357C2348.72 284 2342 290.716 2342 299V359C2342 367.284 2348.72 374 2357 374H2422C2430.28 374 2437 380.716 2437 389V420C2437 428.284 2443.72 435 2452 435H2684C2692.28 435 2699 428.284 2699 420V360C2699 351.716 2692.28 345 2684 345H2567C2558.72 345 2552 338.284 2552 330V299Z" fill="#A096C8"/>
<path d="M2357 286.5H2537V281.5H2357V286.5ZM2344.5 359V299H2339.5V359H2344.5ZM2422 371.5H2357V376.5H2422V371.5ZM2439.5 420V389H2434.5V420H2439.5ZM2684 432.5H2452V437.5H2684V432.5ZM2696.5 360V420H2701.5V360H2696.5ZM2567 347.5H2684V342.5H2567V347.5ZM2549.5 299V330H2554.5V299H2549.5ZM2567 342.5C2560.1 342.5 2554.5 336.904 2554.5 330H2549.5C2549.5 339.665 2557.34 347.5 2567 347.5V342.5ZM2701.5 360C2701.5 350.335 2693.66 342.5 2684 342.5V347.5C2690.9 347.5 2696.5 353.096 2696.5 360H2701.5ZM2684 437.5C2693.66 437.5 2701.5 429.665 2701.5 420H2696.5C2696.5 426.904 2690.9 432.5 2684 432.5V437.5ZM2434.5 420C2434.5 429.665 2442.34 437.5 2452 437.5V432.5C2445.1 432.5 2439.5 426.904 2439.5 420H2434.5ZM2422 376.5C2428.9 376.5 2434.5 382.096 2434.5 389H2439.5C2439.5 379.335 2431.66 371.5 2422 371.5V376.5ZM2339.5 359C2339.5 368.665 2347.34 376.5 2357 376.5V371.5C2350.1 371.5 2344.5 365.904 2344.5 359H2339.5ZM2537 286.5C2543.9 286.5 2549.5 292.096 2549.5 299H2554.5C2554.5 289.335 2546.66 281.5 2537 281.5V286.5ZM2357 281.5C2347.34 281.5 2339.5 289.335 2339.5 299H2344.5C2344.5 292.096 2350.1 286.5 2357 286.5V281.5Z" fill="black"/>
<path d="M2386.84 351.36C2398.96 351.36 2408.8 341.52 2408.8 329.4C2408.8 317.28 2398.96 307.44 2386.84 307.44C2374.72 307.44 2364.82 317.28 2364.82 329.4C2364.82 341.52 2374.72 351.36 2386.84 351.36ZM2386.84 346.02C2377.66 346.02 2370.22 338.58 2370.22 329.4C2370.22 320.22 2377.66 312.78 2386.84 312.78C2396.02 312.78 2403.46 320.22 2403.46 329.4C2403.46 338.58 2396.02 346.02 2386.84 346.02ZM2443.14 307.8H2437.8V325.2C2435.4 321.84 2431.74 319.68 2427.24 319.68C2419.98 319.68 2413.86 326.64 2413.86 335.52C2413.86 344.4 2419.98 351.36 2427.24 351.36C2431.74 351.36 2435.4 349.26 2437.8 345.96V351H2443.14V307.8ZM2428.8 346.14C2423.16 346.14 2419.2 341.46 2419.2 335.52C2419.2 329.58 2423.16 324.96 2428.8 324.96C2434.44 324.96 2437.8 329.58 2437.8 335.52C2437.8 341.46 2434.44 346.14 2428.8 346.14ZM2479.47 307.8H2474.13V325.2C2471.73 321.84 2468.07 319.68 2463.57 319.68C2456.31 319.68 2450.19 326.64 2450.19 335.52C2450.19 344.4 2456.31 351.36 2463.57 351.36C2468.07 351.36 2471.73 349.26 2474.13 345.96V351H2479.47V307.8ZM2465.13 346.14C2459.49 346.14 2455.53 341.46 2455.53 335.52C2455.53 329.58 2459.49 324.96 2465.13 324.96C2470.77 324.96 2474.13 329.58 2474.13 335.52C2474.13 341.46 2470.77 346.14 2465.13 346.14ZM2494.19 307.8H2488.85V351H2494.19V307.8ZM2527.82 320.04H2522.48V338.46C2522.48 342.6 2519.06 346.14 2514.8 346.14C2510.54 346.14 2507.18 342.66 2507.18 338.46V320.04H2501.84V338.82C2501.84 345.72 2506.34 351.36 2512.52 351.36C2516.6 351.36 2520.08 349.5 2522.48 346.2V349.86C2522.48 356.04 2519.24 360.6 2513.54 360.6C2508.32 360.6 2505.26 357.06 2504.84 353.82H2499.26C2499.74 359.22 2504.78 365.76 2513.48 365.76C2522.24 365.76 2527.82 359.1 2527.82 349.98V320.04Z" fill="black"/>
<path d="M2459.52 397.9C2459.52 406.12 2466.06 412.36 2474.22 412.36C2482.68 412.36 2487.9 406.54 2487.9 400C2487.9 393.64 2484.24 389.92 2475.9 387.64L2472.06 386.56C2467.5 385.3 2466.3 383.5 2466.3 380.2C2466.3 376.9 2469.24 373.66 2474.1 373.66C2476.38 373.66 2478.3 374.56 2479.56 375.88C2480.94 377.32 2481.66 379.36 2481.66 381.4H2487C2487 375.28 2482.74 368.44 2474.22 368.44C2466.54 368.44 2460.84 373.9 2460.84 380.14C2460.84 386.44 2464.32 389.98 2470.92 391.72L2474.82 392.74C2480.04 394.12 2482.5 396.16 2482.5 400.06C2482.5 403.66 2479.68 407.14 2474.22 407.14C2471.88 407.14 2469.9 406.3 2468.4 404.98C2466.3 403.18 2465.1 400.54 2465.1 397.9H2459.52ZM2510.62 380.68C2506.12 380.68 2502.46 382.78 2500.06 386.2V381.04H2494.72V426.04H2500.06V406.78C2502.46 410.2 2506.12 412.36 2510.62 412.36C2517.88 412.36 2524 405.4 2524 396.52C2524 387.64 2517.88 380.68 2510.62 380.68ZM2509.06 407.08C2503.42 407.08 2500.06 402.46 2500.06 396.52C2500.06 390.58 2503.42 385.9 2509.06 385.9C2514.7 385.9 2518.48 390.58 2518.48 396.52C2518.48 402.46 2514.7 407.08 2509.06 407.08ZM2535.18 398.26H2558.76C2558.82 397.6 2558.88 396.82 2558.88 396.04C2558.88 387.7 2552.82 380.68 2544.42 380.68C2535.9 380.68 2529.72 387.7 2529.72 396.52C2529.72 405.46 2535.72 412.36 2544.66 412.36C2554.08 412.36 2557.98 404.8 2558.34 402.22H2552.76C2552.28 403.84 2549.7 407.26 2544.66 407.26C2539.02 407.26 2535.72 403.48 2535.18 398.26ZM2544.42 385.78C2549.46 385.78 2552.7 389.32 2553.48 393.88H2535.3C2536.2 389.2 2539.5 385.78 2544.42 385.78ZM2587.03 391.3H2592.67C2592.25 387.64 2587.99 380.68 2579.29 380.68C2570.77 380.68 2564.23 387.76 2564.23 396.52C2564.23 405.28 2570.77 412.36 2579.29 412.36C2587.57 412.36 2592.07 405.16 2592.55 401.8H2587.03C2586.85 402.58 2586.13 404.14 2584.63 405.34C2583.37 406.3 2581.63 407.14 2579.29 407.14C2573.59 407.14 2569.57 402.34 2569.57 396.52C2569.57 390.7 2573.53 385.9 2579.29 385.9C2581.45 385.9 2583.13 386.56 2584.27 387.46C2586.01 388.78 2586.79 390.46 2587.03 391.3ZM2602.26 368.02C2599.98 368.02 2598.18 369.82 2598.18 372.1C2598.18 374.38 2599.98 376.18 2602.26 376.18C2604.54 376.18 2606.34 374.38 2606.34 372.1C2606.34 369.82 2604.54 368.02 2602.26 368.02ZM2604.84 381.04H2599.5V412H2604.84V381.04ZM2637.71 368.02C2635.43 368.02 2633.63 369.82 2633.63 372.1C2633.63 374.38 2635.43 376.18 2637.71 376.18C2639.99 376.18 2641.79 374.38 2641.79 372.1C2641.79 369.82 2639.99 368.02 2637.71 368.02ZM2640.29 381.04H2621.51V377.62C2621.51 374.98 2623.43 373.54 2625.71 373.54C2627.27 373.54 2628.65 373.9 2629.67 374.44V369.46C2628.53 368.86 2626.73 368.44 2625.11 368.44C2620.19 368.44 2616.17 372.16 2616.17 377.5V381.04H2611.25V385.66H2616.17V412H2621.51V385.66H2634.95V412H2640.29V381.04ZM2670.76 391.3H2676.4C2675.98 387.64 2671.72 380.68 2663.02 380.68C2654.5 380.68 2647.96 387.76 2647.96 396.52C2647.96 405.28 2654.5 412.36 2663.02 412.36C2671.3 412.36 2675.8 405.16 2676.28 401.8H2670.76C2670.58 402.58 2669.86 404.14 2668.36 405.34C2667.1 406.3 2665.36 407.14 2663.02 407.14C2657.32 407.14 2653.3 402.34 2653.3 396.52C2653.3 390.7 2657.26 385.9 2663.02 385.9C2665.18 385.9 2666.86 386.56 2668 387.46C2669.74 388.78 2670.52 390.46 2670.76 391.3Z" fill="black"/>
<defs>
<clipPath id="clip0_0_3">
<rect width="720" height="720" fill="white" transform="translate(1440)"/>
</clipPath>
</defs>
</svg>
