<svg xmlns="http://www.w3.org/2000/svg" width="2160" height="720"><defs><clipPath id="clip-path"><path id="path-1" class="cls-2" d="M0 0h720v720H0z"/></clipPath><clipPath id="clip-path-2"><path id="path-1-3" data-name="path-1" class="cls-2" d="M720 0h720v720H720z"/></clipPath><clipPath id="clip-path-3"><path id="path-1-4" data-name="path-1" class="cls-2" d="M1440 0h720v720h-720z"/></clipPath><mask id="mask" x="0" y="-.5" width="720" height="720" maskUnits="userSpaceOnUse"><g id="mask-2"><path id="path-1-2" data-name="path-1" class="cls-1" d="M0-.5h720v720H0z"/></g></mask><mask id="mask-2-2" x="223.58" y="149.6" width="315.59" height="459.74" maskUnits="userSpaceOnUse"><g id="mask-4"><path id="path-3" class="cls-1" d="M223.58 149.6h315.59v459.74H223.58V149.6z"/></g></mask><mask id="mask-3" x="600.86" y="403.87" width="42.94" height="42.94" maskUnits="userSpaceOnUse"><g id="mask-6"><path id="path-5" class="cls-1" d="M600.86 403.87h42.95v42.94h-42.95v-42.94z"/></g></mask><style>.cls-1{fill:#fff}.cls-15,.cls-2{fill:none}.cls-7{fill:#ffa433}.cls-8{fill:#ada8b6}.cls-9{fill:#514663}.cls-10{fill:#3b1c32}.cls-11{fill:#ee4266}.cls-12{fill:#00d1da}.cls-15{stroke:#3b1c32;stroke-width:15px;stroke-miterlimit:10}</style></defs><g id="background"><g id="Rectangle"><path id="path-1-5" data-name="path-1" fill="#f5eeec" d="M-10-10h2180v740H-10z"/></g></g><g clip-path="url(#clip-path)" id="frame-1"><g id="Page-1"><g id="Desktop-HD"><g id="Lanneberg-Bexelius"><g mask="url(#mask)" id="Group-2"><g id="Page-1-2" data-name="Page-1"><g mask="url(#mask-2-2)" id="Group-3"><path id="Fill-1" class="cls-7" d="M328.63 362.3a33 33 0 1133-33 33 33 0 01-33 33m125.16-210.14c-92-13.63-198.16 26.14-198.67 142.53-.11 25-1.49 37.61-1.49 37.61s-21.72 57.64-29.91 97c-2.65 12.73 33.74-1 32.91 12-2 31 8.7 73.75 16 88 24 47 25 87.06 92 79 92.28-11.1 174.54-36.14 166.15-114.14-6.59-61.13-5.4-162.42 5-212.6 15-72.4-21-120.36-82-129.4"/></g><path id="Fill-4" class="cls-8" d="M115.67 512.36a4 4 0 01-3.17-1.56l-9.67-12.56a4 4 0 116.33-4.88l9.67 12.56a4 4 0 01-3.16 6.44"/><path id="Fill-6" class="cls-8" d="M89.19 570.76a4 4 0 01-2.79-6.87l17.15-16.69a4 4 0 015.58 5.74L92 569.62a4 4 0 01-2.79 1.14"/><path id="Fill-8" class="cls-8" d="M107.49 533.12a3.51 3.51 0 01-.72-.07l-26.48-4.81a4 4 0 111.43-7.87l26.48 4.81a4 4 0 01-.71 7.94"/><path id="Fill-10" class="cls-9" d="M474.61 254.29l17.71 17.7 17.7-17.7-17.7-17.7-17.71 17.7z"/><path id="Fill-12" class="cls-10" d="M227.74 560.35a4 4 0 01-4-3.62l-2.61-27.37a4 4 0 011.42-3.44l14.86-12.46-18.93-4.21a4 4 0 01-2.84-2.41l-10.28-25.5a4 4 0 017.42-3l9.5 23.54 24.78 5.53a4 4 0 011.7 7l-19.44 16.29 2.4 25.27a4 4 0 01-3.6 4.36 2.48 2.48 0 01-.38 0"/><path id="Fill-14" class="cls-11" d="M193.82 264.29l-10.28 38.37-38.38 10.29-28.1-28.1 10.28-38.38 38.38-10.28 28.1 28.1z"/><path id="Fill-16" class="cls-10" d="M155.44 344.66a4 4 0 01-1.86-7.55l24.33-12.79a4 4 0 013.73 0l17.16 9-3.28-19.11a4 4 0 011.15-3.54l19.69-19.19a4 4 0 015.58 5.73L203.76 315l4.29 25a4 4 0 01-5.8 4.22l-22.47-11.82-22.48 11.8a4 4 0 01-1.86.46"/><path id="Fill-18" class="cls-10" d="M381.54 536.74c-30.53 0-63-6.83-95.68-20.28a4 4 0 013-7.4C333.19 527.29 377 533 415.61 525.59c35.09-6.75 65.23-23.93 87.16-49.7 20.84-24.49 32.8-54.93 34.6-88 1.91-34.95-7.85-70.93-28.22-104a4 4 0 016.82-4.19c21.22 34.52 31.38 72.09 29.39 108.67-1.9 34.86-14.52 66.94-36.5 92.77-23.12 27.17-54.84 45.28-91.75 52.37a187.8 187.8 0 01-35.57 3.3"/><path id="Fill-20" class="cls-10" d="M466.69 230.58a4 4 0 01-2.53-.91A289.07 289.07 0 00292.39 164a4 4 0 01.35-8 297.05 297.05 0 01176.49 67.52 4 4 0 01-2.54 7.1"/><path id="Fill-22" class="cls-10" d="M466.69 230.58a4 4 0 01-4-3.61L460.23 202a4 4 0 118-.79l2.48 24.93a4 4 0 01-3.58 4.38h-.4"/><path id="Fill-24" class="cls-10" d="M441.32 233.58a4 4 0 01-.39-8l24.93-2.48a4 4 0 01.8 8l-24.94 2.48a2.68 2.68 0 01-.4 0"/><path id="Fill-26" class="cls-12" d="M158.45 161.82l41.59-45.67 16.7 56.98-58.29-11.31z"/><path id="Fill-28" class="cls-12" d="M187.15 482.35l21.27 81.04-77.17-23.06 55.9-57.98z"/><path id="Fill-30" class="cls-7" d="M183.27 220.11l-6.79-30.64 28.56 9.74-21.77 20.9z"/><g mask="url(#mask-3)" id="Group-34"><path id="Fill-32" class="cls-9" d="M600.86 425.34a21.48 21.48 0 1021.47-21.47 21.47 21.47 0 00-21.47 21.47"/></g><path id="Fill-35" class="cls-11" d="M271.44 134.73a25.23 25.23 0 11-25.23-25.23 25.23 25.23 0 0125.23 25.23"/><path id="Fill-37" class="cls-12" d="M557.5 368.45l17.7 17.7 17.71-17.7-17.71-17.71-17.7 17.71z"/><path id="Fill-39" class="cls-11" d="M470.45 546.88a4 4 0 01-1.77-7.59c31.19-15.34 57.05-35.64 74.77-58.72 18.42-24 27.75-49.9 27.75-77.05a4 4 0 018 0c0 28.55-10.17 56.87-29.4 81.92-18.47 24.05-45.3 45.15-77.59 61a4 4 0 01-1.76.41"/><path id="Fill-41" class="cls-12" d="M568.73 239.26a4 4 0 01-4-3.44c-5.35-38.15-22.24-67-50.22-85.9-22.95-15.46-52.59-23.14-83.48-21.63a4 4 0 01-.39-8c57.72-2.83 129.55 25.44 142 114.41a4 4 0 01-3.41 4.51 3.52 3.52 0 01-.56 0"/></g></g></g></g></g></g><g clip-path="url(#clip-path-2)" id="frame-2"><path class="cls-11" d="M1060.83 507.69c-8.42-4.61-17.73-3.43-27.21-1.24-30 7-43.55-14.05-37.61-39.17 3.38-14.34 12.78-26.58 19.38-39.37 10.24-19.85 19.84-25.79 21.88-40.41 2.48-17.63 4.37-28.3 7.18-45.87 2.66-16.63 1.61-35 16.06-47.52 4.93-4.25 11.39-6.73 17.15-10h3.77c1 .69 2 1.77 3.07 2 18.14 3.7 26.22 16.5 30.14 33.11 3.44 14.58-3.4 33.07 0 47.65 3 12.45 12 22.86 19.22 33.39 8.2 11.93 12.6 18.29 23 35.3 3 4.86 7.57 14 10.7 19 9.59 15.15 1.47 45.64-15.08 49.62-6.11 1.47-12.91.79-19.31.19-9.18-.86-17.83-1.73-25.59 5.27-5.69 5.14-17.64 8.22-25.34 8.67-7.93.44-21.41-10.62-21.41-10.62z" id="PG6Qqp"/><circle class="cls-15" cx="1203.06" cy="344.38" r="91.17"/><path class="cls-15" d="M1044.51 316.49a36.32 36.32 0 0172.64 0"/><circle class="cls-15" cx="956.94" cy="344.38" r="91.17"/><path d="M1153.21 211.83a90.85 90.85 0 0169.53-5.75" stroke-linecap="round" stroke-linejoin="round" stroke="#3b1c32" stroke-width="15" fill="none"/></g><g clip-path="url(#clip-path-3)" id="frame-3"><path class="cls-10" d="M1873.94 300.79c23.24-10.41 38.65-33.41 38.65-61.43 0-38.43-29-67.41-67.42-67.41h-184.5a7.09 7.09 0 00-7.1 7.09V541a7.09 7.09 0 007.1 7.09h167.73c70.59 0 128-57.3 128-127.73a127.94 127.94 0 00-82.46-119.57zm24.46-61.43c0 30.34-22.88 53.22-53.23 53.22h-56.77v-46.12h56.77a7.1 7.1 0 100-14.19h-56.77v-46.13h56.77c30.35 0 53.23 22.86 53.23 53.22zm-170.32-53.22h46.13v287.4h-46.13zm60.32 241.28h39a7.1 7.1 0 000-14.2h-39V367.1h39c30.34 0 53.23 22.88 53.23 53.22s-22.89 53.22-53.23 53.22h-39zm-120.64-241.28h46.13v294.5a7.09 7.09 0 007.1 7.09h53.22v46.13h-106.45zm160.64 347.72h-40v-46.13h39c38.43 0 67.42-29 67.42-67.41s-29-67.42-67.42-67.42h-39v-46.12h40.6c62.44 0 113.25 50.93 113.25 113.54s-51.08 113.54-113.85 113.54z"/></g></svg>